/* XPM */
static char *cavo1741125292[] = {
/* columns rows colors chars-per-pixel */
"80 80 235 2 ",
"   c #09070D",
".  c #0B0A0F",
"X  c #0D0C12",
"o  c #110E13",
"O  c #131115",
"+  c #161619",
"@  c #1B1619",
"#  c #1C1C1D",
"$  c #221C1B",
"%  c #2A191A",
"&  c #311C1C",
"*  c #1E201E",
"=  c #24211E",
"-  c #2B211F",
";  c #1A1E22",
":  c #221E21",
">  c #3B1F21",
",  c #1D2323",
"<  c #1F2827",
"1  c #242423",
"2  c #2A2423",
"3  c #2B2A25",
"4  c #272828",
"5  c #242C2B",
"6  c #2C2C2B",
"7  c #362A26",
"8  c #332E2B",
"9  c #28312C",
"0  c #2D312D",
"q  c #32322D",
"w  c #3A362C",
"e  c #342E31",
"r  c #2B3433",
"t  c #2B3634",
"y  c #2E3936",
"u  c #343533",
"i  c #3A3534",
"p  c #343A35",
"a  c #3C3B34",
"s  c #353739",
"d  c #333D3B",
"f  c #3B3D3A",
"g  c #44362F",
"h  c #433B34",
"j  c #423D3C",
"k  c #3B412E",
"l  c #34413E",
"z  c #3E463A",
"x  c #3C413C",
"c  c #43433C",
"v  c #49463D",
"b  c #4F523C",
"n  c #364341",
"m  c #3B4542",
"M  c #3D4945",
"N  c #3E4C4A",
"B  c #3F5350",
"V  c #434542",
"C  c #4A4542",
"Z  c #444A45",
"A  c #4A4B44",
"S  c #434D4A",
"D  c #4C4D4A",
"F  c #544D46",
"G  c #534E4B",
"H  c #4C5044",
"J  c #44524D",
"K  c #4C514D",
"L  c #53534D",
"P  c #585748",
"I  c #445452",
"U  c #4D5452",
"Y  c #485955",
"T  c #4B5C59",
"R  c #545552",
"E  c #545A53",
"W  c #565856",
"Q  c #5B5B54",
"!  c #5A5D59",
"~  c #625A4B",
"^  c #645C54",
"/  c #665D5A",
"(  c #596749",
")  c #57635B",
"_  c #5C625C",
"`  c #666755",
"'  c #63635C",
"]  c #6B645B",
"[  c #6C6A5C",
"{  c #756B5D",
"}  c #6F7455",
"|  c #6A7559",
" . c #5A6865",
".. c #5D706B",
"X. c #646A63",
"o. c #646865",
"O. c #6B6B63",
"+. c #6C6D6A",
"@. c #766C63",
"#. c #65736C",
"$. c #6D726B",
"%. c #7B7364",
"&. c #73736D",
"*. c #787769",
"=. c #687875",
"-. c #6C7B75",
";. c #747B74",
":. c #7C7C74",
">. c #797B78",
",. c #8B785E",
"<. c #877A69",
"1. c #847A6B",
"2. c #847D73",
"3. c #6E8155",
"4. c #7A826A",
"5. c #6E827C",
"6. c #7C8277",
"7. c #73827D",
"8. c #7C837C",
"9. c #838375",
"0. c #8C8373",
"q. c #898D70",
"w. c #83847B",
"e. c #898A7B",
"r. c #968A79",
"t. c #98927D",
"y. c #A2927F",
"u. c #778783",
"i. c #7B8B84",
"p. c #7B8D8A",
"a. c #79908B",
"s. c #848B83",
"d. c #8B8C83",
"f. c #858B88",
"g. c #928D83",
"h. c #8B9185",
"j. c #83938C",
"k. c #8C938B",
"l. c #949385",
"z. c #9A9786",
"x. c #93948C",
"c. c #9B968A",
"v. c #9B9A8C",
"b. c #8B8C92",
"n. c #889894",
"m. c #8A9C95",
"M. c #929794",
"N. c #949B94",
"B. c #9B9C92",
"V. c #9B9D9A",
"C. c #A29985",
"Z. c #A19D8E",
"A. c #A19E95",
"S. c #8DA29B",
"D. c #99A39B",
"F. c #A8A28A",
"G. c #A4A294",
"H. c #A3A59C",
"J. c #A9A798",
"K. c #ACAB9C",
"L. c #B3AC9D",
"P. c #B2B09B",
"I. c #969DA1",
"U. c #98AAA5",
"Y. c #96AFA9",
"T. c #96B0A7",
"R. c #9BB2AB",
"E. c #A6AAA6",
"W. c #ABACA3",
"Q. c #B0AEA2",
"!. c #A6B3AA",
"~. c #ACB3AC",
"^. c #B4B3A4",
"/. c #BAB7A7",
"(. c #B4B4AC",
"). c #BABAAB",
"_. c #A8B8B4",
"`. c #B5BBB2",
"'. c #BABBB3",
"]. c #B7BAB8",
"[. c #C1BDAD",
"{. c #C1BEB3",
"}. c #BAC2B7",
"|. c #BCC3BC",
" X c #C1C1AE",
".X c #C5C5B7",
"XX c #C2C4BB",
"oX c #CCCBBD",
"OX c #BBBDC4",
"+X c #BCC4C2",
"@X c #C5CBC4",
"#X c #C4C9C7",
"$X c #CACCC5",
"%X c #CBCDCB",
"&X c #CED2C5",
"*X c #CDD2CC",
"=X c #D6D7C7",
"-X c #D2D4CC",
";X c #D6D9CC",
":X c #C9CCD6",
">X c #CED3D1",
",X c #D3D5D3",
"<X c #D5D9D3",
"1X c #DADCD5",
"2X c #D4D7DB",
"3X c #DBDDDA",
"4X c #E0DFDF",
"5X c #DEE1DB",
"6X c #E1E3DC",
"7X c #CED3E5",
"8X c #D3D6E4",
"9X c #D6D9E5",
"0X c #DBDCE5",
"qX c #D1D7E9",
"wX c #D5DAE9",
"eX c #DCDEE9",
"rX c #E0DFE6",
"tX c #DFE0E6",
"yX c #DEE1EA",
"uX c #E3E4E6",
"iX c #E8E6E7",
"pX c #E7E8E6",
"aX c #EAE9E7",
"sX c #E4E5EA",
"dX c #E8E7E8",
"fX c #E7E8EB",
"gX c #ECEBEA",
"hX c #F0EFEC",
"jX c #EFF0ED",
"kX c #F2F2EE",
"lX c #ECEDF0",
"zX c #EFF0F0",
"xX c #F6F5F1",
"cX c #F8F7F2",
"vX c #FAF9F4",
/* pixels */
"uXuXaXhXxXzXcXcXzXxXhXgXdXaXgXdXaXaXaXaXaXpXaXaXaXaXaXhXgXgXgXaXhXhXhXaXhXaXgXgXgXaXfXgXdXdXdXgXdXgXgXaXaXaXhXhXgXhXhXgXhXgXgXlXkXgXhXhXgXhXgXhXaXaXaXgXdXaXiXiX",
"0XuXgXhXcXvXcXcXxXxXhXgXgXgXgXgXaXaXaXaXaXaXaXaXaXaXaXgXgXgXdXgXgXgXgXgXaXgXgXgXdXdXgXdXdXdXdXgXdXdXaXgXgXaXhXaXaXgXgXhXhXhXhXhXgXfXgXdXgXhXhXhXaXaXaXgXiXiXiXiX",
"rXuXgXxXvXvXvXvXcXxXzXhXhXgXgXaXpXaXaXaXaXaXaXaXgXaXaXgXaXdXaXaXgXgXgXaXaXaXaXiXuXdXdXsXdXdXuX3X3XdXaXgXaXgXaXhXaXgXgXhXlXlXhXgXgXfXsXaXaXgXgXaXgXaXgXgXaXaXiXdX",
"rXiXfXxXvXvXvXvXcXxXzXxXhXhXhXhXhXaXhXgXgXhXhXhXaXaXaXgXaXiXiXaXdXdXaXhXhXhXaXgXaXdXdXdXdX2X(.V.b.rXiXrXsXrXiXsXsXsXsXsXsXrXsXrXsXdXdXgXhXaXgXhXhXhXhXhXhXaXaXaX",
"uXuXfXlXxXxXvXvXxXxXkXxXhXhXhXhXgXgXhXgXgXhXhXgXhXaXaXhXaXaXaXaXaXaXgXhXhXhXhXhXpXgXaXaXpX<XXX&.&.%XsXsXaXuXrXsXdXsXdXdXsXrXsXsXaXgXaXgXhXgXhXkXhXhXhXhXhXhXaXaX",
"uXuXeXsXsXlXlXzXxXxXhXhXhXhXaXhXhXhXhXhXkXhXkXxXhXhXaXgXaXaXaXaXhXhXhXhXhXhXhXhXkXhXgXgXpXgXpX&.+.(.dXhXgXhXaXdXgXaXgXgXhXhXhXhXhXkXkXkXxXhXxXhXhXhXxXhXhXhXhXaX",
"uXsXeXyXsXsXsXlXfXlXgXgXhXhXhXkXkXkXkXkXkXkXxXxXxXhXhXhXhXaXhXhXhXkXkXkXkXkXkXxXkXhX6X6X5X=XXXQ &.(.sXsXaXhXdXhXgXgXhXaXhXhXhXhXkXkXkXkXkXkXhXxXkXkXxXxXhXhXhXhX",
"eXeXsXsXsXyXyXsXsXsXdXaXhXkXcXcXxXxXxXkXcXcXvXvXvXxXxXhXhXhXhXaXhXgXhXgXkXxXxXxXkXgXgX}. X&XZ.L E.{.2XrXsXaXaXgXgXgXaXhXhXhXhXhXkXkXkXkXkXkXxXkXxXxXkXhXhXhXhXgX",
"yXsXyXyXsXyXsXsXsXsXsXfXxXxXzXxXcXxXxXxXxXvXvXvXvXvXxXxXhXhXhXhXaXaXgXdXjXkXkXkXkXjXgX^.z.oXJ.*.rX>.V.0XrXiXdXdXdXgXgXgXhXhXhXgXgXkXkXkXkXkXkXkXkXxXkXkXkXkXgXgX",
"yXsXyXuXyXsXsXsXsXsXfXlXxXxXkXzXzXzXlXxXlXcXvXvXvXxXcXhXhXhXhXgXiXrXsXrXyXtXjXjX&XD.&XK.F..XW.Q.#X8.&.9XrXrXiXdXaXsXgXaXgXhXhXhXhXxXxXkXxXkXvXxXcXxXvXxXkXkXxXgX",
"sXfXsXfXfXlXaXfXlXlXlXxXxXxXkXhXlXlXsXsXsXfXzXxXhXkXhXxXhXhXgXdXfXyXrXrXtXkXjX=XD.4.}.P.G.P.4.v.A.^ A E.iXrXsXdXsXsXgXhXhXhXkXkXkXgXhXkXkXxXvXvXvXcXvXxXxXxXkXgX",
"fXfXgXhXzXxXkXhXlXxXxXzXhXxXgXsXyXwXwXwXqX7XwXuXaXhXgXhXhXhXhXdXsXrXeXyXpX5XoX}.K.l.}.^.F.t.` F.Z.L V A V.OXuXgX3X%XhXhXhXhXkXkXxXgXgXgXhXhXkXhXkXkXxXxXxXxXkXgX",
"xXzXkXkXkXcXxXkXxXhXhXxXzXgXsXrXeXwXwXwXqXqXwXeXiXgXgXgXgXgXgXlXfXfXuXrX3X;XoX}.}.}. XF.y.4.b y.z.c c V s K {.%X3Xf.3XhXkXkXkXkXlXgXgXdXsXsXsXyXsXyXsXsXsXkXkXkX",
"xXxXxXcXxXcXxXcXxXxXxXxXhXgXeXeXeXeXeXwXeXeXeXeXuXdXgXgXgXgXgXzXlXlXdXrX;X&X}.}. X XP.y.t.` c t.1.q c V f X.>.f.(.U &.sXgXlXhXgXgXgXaXdXyXyXyXyXeXeX9X0XeXaXsXkX",
"cXcXcXcXcXkXxXcXcXxXxXhXfXsXsXyXyXyXyXeXeXyXeXsXsXsXsXgXgXaXgXhXhXgX1X1X&XoX}.5X^.P. X}.P.b b ,.~ 6 V A R +.f.B.b.D R V.dXaXgXgXaXaXsXuXtXyXyXyXeXyXyXwXwX0XsXsX",
"xXxXcXcXcXhXxXxXcXhXhXfXiXeXeXyXyXyXyXeXsXeXrXiXdXgXsXsXgXaXgXhXaX[.0.1X&X|.#X5XW.;X5X5X6.b P { w q A D P s.2.&.b.D G o.,XdXgXdXiXiXuXsXpXyXyXyXyXyXtXyX0XeXuXiX",
"xXcXcXcXcXxXzXkXkXkXaXsXuXyXeXuXeXyXsXsXyXyXsXsXfXfXfXaXfXgXhXgX5X}.e.6XoX}.@XpX,X1XpXW.H J @.F.&.3 A A b <.{ ` k.K U E >.uXdXdXpXuXuXuXiXpXsXsXsXiXsXeXpXsXiXaX",
"xXcXcXcXcXxXkXkXkXgXdXuXuXuXeXiXsXuXsXsXsXsXsXsXsXfXfXgXaXhXaX4X6Xz.e.}.}.!.5XoXK.&X|.E M ) @X(.O.3 c v ~ 0.~ [ s.D L E ' ].dXgXuXuXpXpXsXsXsXaXgXsXsXgXgXgXaXgX",
"xXcXcXcXcXcXkXkXgXaXpXpXsXfXsXsXsXsXsXaXsXfXfXsXaXaXgXpXaXxXzX6X}.~ 8.v.P.P.5X}.G.K.[ E _ x.|.e.' 3 q v ' h.O.O.&.>._ _ ' x.uXuXuXpXaXaXdXgXiXgXkXgXxXgXkXhXkXhX",
"cXcXcXcXkXkXkXzXgXaXpXpXsXfXfXaXsXfXfXfXfXgXgXfXpXpXgXgXgXaXpX).*.H ..e.}.!.}.P.J.z.v ~.6.;.H.l.6 4 = p >.w.O.x.M.>.K ! _ ' 6XuXpXaXpXpXgXgXgXhXkXkXgXxXkXkXkXxX",
"vXcXcXcXkXkXkXgXaXaXgXgXgXgXhXhXgXgXgXgXgXgXgXfXhXhXgXhXxX$X;XP.) J E 4.^.W.^.K.J.} x.*X_ ' W.e.= # = U s.>.>.e.(.k.q K E $.uXuXuXiXaXgXhXhXhXhXhXxXkXhXkXkXkXcX",
"vXcXcXcXkXkXkXgXaXaXaXhXgXhXaXaXgXkXgXkXxXxXkXxXhXhXhX6XpX5X&XD.J Z K 6.P.W.F.v.v.D.'.s.Z [ !.9.1 1 5 U w.>.>.x.,XE.p L W o.0XuXuXaXaXhXaXgXhXhXhXhXkXkXkXkXxXcX",
"vXvXvXcXkXkXhXgXhXhXhXhXhXhXkXkXhXhXgXkXkXkXkXkXkXhXjXpX5X&X|.7.B M ( W.K.P.y.6.k.F.l._ Z $.G.h.4 1 , ! s.d.d.H.%XV.s R V K '.3X#X,XiXaXaXhXhXhXlXkXkXkXkXkXcXcX",
"cXcXcXcXkXhXkXkXhXhXkXkXkXkXkXkXxXkXkXhXkXkXkXkXjXhXhX5X|.oXP.J B z 9.(.'.).).B.Z.C.~ H v >.D._ 4 1 # O.k.x.s.W.].x.Z ! D D E.(.b.i.-XhXaXaXhXhXkXkXkXkXkXkXkXxX",
"cXcXcXcXkXkXkXkXkXkXkXcXxXxXkXkXxXkXkXkXkXxXkXkXkXkXgXuX$X}.4.a Y A D.).oXr.9.l.z.v.w x A s.x.E 6 1 2 B.XXd.x.H.W.>.U ' E K  .M.+.K x.gXhXgXaXgXhXhXhXhXhXxXhXhX",
"cXcXkXkXkXkXkXkXjXkXkXkXxXkXkXxXkXxXkXxXkXkXkXkXkXgXgX1X`.v.Q x J ' K.H.F.t.v.G.J.q.3 q a k.h.$.3 3 C -X].w.d.M.,XV.L _ A J x K L L ' ,XhXhXhXaXdXaXaXaXsXsXgXgX",
"cXkXkXhXgXgXgXhXjXkXkXcXxXxXkXxXkXcXxXxXkXkXkXkXkXpX5XU.!.6.Z a x 6.W.1.t.z.D.K.z._ 4 q h J.(.R 0 q 1.6X`.! O.N.XXV.! R d m 1 6 L R R V.hXxXhXhXaXaXdXuXuXuXsXdX",
"kXkXkXhXgXgXgXhXhXkXkXkXkXxXkXxXxXcXkXxXkXkXkXkXpX}._.s.;.A k w Z l.t.~ t.v.K.Z.[ x 9 - P 9.w.K 3 a %.'.d.A W x.E.o.N m f x 4 3 R Q W o.,XkXhXaXaXhXaXaXrXrXiXsX",
"kXcXkXkXhXhXgXgXhXgXhXkXkXkXkXkXkXkXkXkXkXkXkXkX}.M.D.6.) J x w L t.,.~ z.v.H.z.b a u 8 { 9.w.Q 3 K e.H.x.D E.%XB.N d d u x 5 1 A ! _ ' B.hXhXgXhXhXdXdXiXsXsXgX",
"kXkXkXhXhXhXhXgXhXhXkXkXkXkXkXkXkXkXgXgXgXgXfX,XS.(._.u. .p x q O.z.{ ( l.k.G.%.c x 0 F <.%.h.` = ` e.s.;.!.%XW.O.t d l Z d 5 ; V W L _ +.%XhXhXhXaXgXaXiXiXsXhX",
"kXhXhXgXhXhXhXhXkXkXkXkXcXkXkXkXkXgXfXfXsXuX0XD.!._.j.J d w q p e.l.{ *.s.m.e.P z c a *.*.4.6.c 3 :.j.w.R B.G.0.L t y d J M 4 , 6 D A K _ V.gXgXhXsXdXdXiXiXaXdX",
"gXgXgXhXhXhXhXhXhXkXkXkXkXhXkXgXpXuXsXyX0XeX#XU.R.k.6.x f x 8 L J.D.e.8.k.t.0.w c x K e.s.8.;.7 8 8.i.s._ r.C.H.l r y d d m , 4 y s S D R ;.3XdXdXiXdXiXuXrXuXrX",
"kXzXhXkXkXhXgXhXhXhXcXhXgXiXsXeXeXyXeXeXyXyXE.n.a.j.X.a c c a s.D.e.[ k.h.*.h 0 x x d.c.N.s.$.$ 8 Q 7.h.N.#X,X_.s y y r r 4 5 d B B n S D +.2XuXeX0X0X9X9XrXuXdX",
"cXxXcXxXxXxXhXhXhXhXgXgXiXeXwXwXwXwXeXyX0X+XS.S.S.m.E c A ! f N.s.X.A k.! a 3 3 0 Y D.k.x.s.E 1 U u. .Y f.U.#XM.) S t 9 r , < , y  .T M m S OX0X9X9X9X8X8X0XrXuX",
"hXxXvXcXxXkXkXhXhXgXgXsXwXwXwX8XwXwXwX2X_.R.R.T.R.R.[ ' J.[ u 7.-.7 o.s.S _ S 0 4 +.k.s.8.$.q 2 -. .y y -.8.k.V.! I N t 9 , , # < T ..N d l I.sXrXrX0X0X9X9X9XwX",
"9XeXsXgXhXhXgXgXgXgXsXdXrXwXwX9X9XwXwX#X(.Z U.T.R.>X@XD.t.P R i.L - 7.$.;.e.6.x u s.8.i.j.! @ 4 Z 3 8 S p.7.b.E.>.M Y N 9 , ; , ; N I N S d M.sXiXiXuXuXrXrX0X9X",
"8X7X8X0XuXuXsXgXgXiXdXdXpXeXwX9X9XwX9XuXw.3 d X.e.XX3X$XO.O.6.>.q w i.6.9.%.P w D f.f.s.o.7 @ % 7 : e 5.p.n.>.d.8.t Y T l * # # ; < t l n d w.lXhXgXgXaXaXdXsXiX",
"wX9X8X8X8X9XuXsXdXuXdXsXsXsXeXwX9X9XuX$X` q t y l `.,XB.3  .a.K # d 6.%.` g 7 q ^ w.8.;.e @ : G ^ & o.u.p.p.;.-.j.d J Y Y 6 + + ; s r t y N +.gXhXhXhXhXgXgXlXfX",
"sXsX9X9X8X8X0XeXsXuXsXaXgXsXaXfXsXfX*XF.b ^ d t d f.%Xw.1 Y 5.Z $ 8 ` w 3 3 7 w / *.&.e % e / 0.G e -.u.a.5...5.=.t l J M t , 4 5 n B t y n >.tXkXkXkXhXhXhXxXxX",
"zXsXdX9X8X8X8X0XuXpXsXgXgXkXgXzX5X}.~.J.F B.r d d U.+X*.= =.u.S # 3 4 4 q 0 a a j / 6 e e / / 1.g e ;.u.p.5. .u...9 r l r 5 , 9 5 t n n y y _ fXhXhXhXgXlXlXxXcX",
"gXkXgXuXwXqXwXrXsXuXgXgXkXkXxXgX%XR.!.v.| E.9 0 ) }.}.O.= -.7.c $ 4 5 r s r p 8 $ @ $ 2 e j e j % g G -.u.....u.T t t t y r ; 1 5 y n l m s  .7XyXlXyXyXsXyXlXlX",
"gXzXkXsXiXuXrXuXaXfXgXkXkXxXxXxX#XR.}.a.D.>.p q 8.!._.) q u.7.q - = 5 t 6 6 a $ $ $ 6 i / @.G @.e j g g p  ...#.n 5 5 9 d t , ; , s n s t y S R.wXyXyXwXyXyXyXlX",
"kXhXhXgXgXaXdXgXaXgXgXgXkXxXaXaX*X+X+X6.|.o.x V a.S.r.c 0 E V = $ # < M f 3 6 : 7 6 i j G C i j : / j j p.a.j.M ; ; , < y t < ; : y n n 5 5 y >.yXyXyXlXyXsXsXyX",
"hXhXhXkXhXhXhXhXkXgXgXpXuXuXfX#X|.>X@Xa.}.( v _ S.T.t.a 3 ) 9 3 % # Z K 6 7 : e 6 : @ @ : @ @ @ : / @.R U.m.j.J < ; , 1 r d < + ; 4 n n s t 5 S qXyXyXlXyXyXsXyX",
"hXhXkXkXxXhXkXhXgXgXfXpXtXyXtX_._./.*.u.J.b v p.R.R.j.J H #.4 1 - q s 2 2 6 e : : @ O O O O o o @ h 1.@.n.n.8.x < , 5 , , t 5 + , S n s n 5 r s +XyXyXlXsXyXsXyX",
"gXhXhXkXhXkXxXhXgXaXgXpXpXpXpX_.}.j.c u.:.` [ R.T.R.-.c A c = = 2 = 1 1 f 8 : @ O O X o o o o . X @ @.{ L G !  .N t d 5 5 < 9 ; ; N U N s r < 5 U.yXyXyXsXsXsXsX",
"kXkXkXkXkXkXkXkXkXkXjXxXgXkX<XT.a.) 4.#.l b -.R.T.S.E a ( c 4 f - = 6 i e : @ X X o o o o X X X o O g @.F w.j.u.) n m m d r < ; ; r S N B t 5 5 p.yXyXyXfXfXdXgX",
"vXvXcXcXcXxXcXcXkXkXkXkXkX5XT.T.a.S.S.5.9 3 x 5.p.) p q i.V d Z - 4 8 u : @ X O o o o o o X X X X o @ 2.U.+XE.;. .5 2 l T I n , ; 5 s s N n 5 5  .yXlXyXgXsXhXkX",
"vXvXvXvXcXcXcXcXcXkXkXcXkX|.R.T.S.S.S. .= * q L a x v w | p l y : 2 e : @ O O . o . o X . X X X . o e b.D.U.M.8.#.5 1 3 N T Y 5 , 5 6 u d 9 9 r M eXsXsXgXkXxXcX",
"vXvXvXvXcXcXcXkXcXkXkXkXpX_.T.S.D.S.m.#.9 = F { 0.0.1.k a r T x : % : : % @ @ o . . . .       X X X s ..7.p.i.6.=.0 , 1 5 t t m 4 1 0 f f u 9 r s OXsXgXhXcXxXcX",
"xXvXvXvXcXcXcXkXkXhXhXkX6X_.n.S.S.m.5.x q k 0.P <.r.%.a 1 T =...7 : g g 7 > 7 O o .       X X X X + 5 ! -.j.p.>...5 5 5 5 < 5 n n 5 6 c c d y y y N.sXgXkXkXcXcX",
"vXcXvXvXcXcXcXcXkXkXkXaX%XU.S.S.m.7.x 0 c ~ ] c ^ { ` v  .=.....8 % & > % % : @ @ O o X X X X X X b.E.(.&. .i.>. .t 5 , < 5 9 5 S d 6 x V V r s s b.fXgXhXkXcXcX",
"cXcXcXcXxXcXcXcXxXgX%XOXs.m.S.m.T q 6 c <.y.<.<.^ a ~ @.+. . . .6 $ % 7 & & & % $ $ @ o X X X X o =.u.u.n.b.;.=.T n y 5 5 < 9 5 t T n f V A V s M M.sXgXhXkXcXcX",
"cXxXcXxXxXxXcXkXgX_.M.+.#.S.S.a.n n K V <.y.r.{ ] P ^ { _ T =.-.s $ $ & > & > : $ O @ o X X X X + 5.i.b.+.T -.-._ N n t 5 < < 5 5 d s u V V S n S %XaXgXhXhXkXcX",
"xXxXxXxXhXkXkXpX|.!.$.R  ...S.Y 0 5.W ~ y.y.<.^ r.<.,.<.o. .-.#.d 3 $ % g g w : @ @ @ o X X X X + 5.E.b.c 6 e ..r U y t t 5 ; < 5 9 r t f x V m S ].sXaXaXgXhXhX",
"cXkXhXhXhXhXhX|._.Y.Q  .i.a.Y 5 T -.| <.r.<.2.<.,.<.<.<.2.&.-.-.x q 2 7 h j 7 : @ + @ o X X X X ; b.M./ i 8 s U r f 5 t t 5 9 t r 9 t t u m m M m f.sXaXgXgXhXhX",
"kXxXgXkXxXaX5XR._.p.o.u.-.T r n 7.T ( 1.r.r.z.C.r.{ <.1.0.1.:.-.x q 3 7 w g 7 @ o X X O X X X X D /.C.j e 6 i s 6 y r r r s s p 5 r r y r d M M m W 1XsXaXgXgXhX",
"gXkXkXgXjXxX#XU.R.u.n. .u.Z d -.5.l { t.K.^.l.<.0.] @.@.+.Q ~ F c a 3 7 7 g 7 O o X X X o o X + b./.g.j R D i f D V M D  .s.k.V e 5 y y d d n M S S E.gXgXgXhXhX",
"gXgXgXxXgXpX_.Y.Y.j.;.=.T y -.a.! ( z.Q.Q.G.] 0.r.r.%.@.O.f i { { c 8 - w 7 - o X   X o o 8 O.o.c.W.+.&.(.&.f R ~.oX'.{.^.(.'.d.i 9 d l n t d n S I I.hXhXgXlXgX",
"fXfXfXfXfX,XS.Y.S.#. ...y =.a.u.Q 9.L.H.K.Z.*.C { r.1.@.1./ v / 1.j h 8 g c - O X X   X u D.(.w./ c.>.' A.! / /.oXoX=X).J.c.L.l.e s n m B B n m n T ~.gXgXsXsXsX",
"wX9XeXeX0X].Y.Y.n.! 7.M  .a.a.x.A.^.L.F.[.A./ e ^ r.<.~ / <.<.@.r.<.F h g w w # $ 4 6 :.Q.[.Z.g.B.M.&.' x.&.'.$XoXoXoXQ.A.c.J.^ 8 f V I B T T M n T n.aXsXsXeXwX",
"9X9X0XeX0X+XY.S.#.-.a.d =.j.J.}./.A.J.[.[.{.C s j y.<.j %.<.<.,.r.y.0.@.%.%.Q [ O.O.B.`.Q.2.J.L.^.V.w.W g.[.oXoX[./.^.&.Z.C.2.i i c M I T T T J a Y f.sXeXeXwXqX",
"9X0X0XsX3XT.S.i.8.p.-.d 5.P.P.P.J.d.Z.A.Z.g.e g f / / @.%./ <.y.Z..XL.^.oXoXoXoX.X/.A.x.@.B.Q.(.V.o.C G A.^..X[.J.L.J.2.Z.r.j h s f M N T B B T z J n.eXeXeXwXwX",
"9X9XeXsX<Xu.7.m.w.p.#.e.^.t.v.z.2.Q.2.A.c.^ e j j j C { C.[. X=X1X=X1X=XoX.X XoXoXoXx.W 2.H.c.E.V.V j 2.L.[.[.L.A.L.*.0.0.^ i c f n n n B T I I Y d I.eXsXeXeXwX",
"iXsXsXsXeX].p.N.s.p.B.P.9.` 4.#.4.v.). Xc.G C / C G G G o.].'.{.oX-X=X;X1X1X;XoX(.E.^.h.| 4.4.q.:.z H v.K./.L.J.B.c.Q 2.@.w a c j x d s Z S J B T I #.eXeXyXeXeX",
"sXaXfXaXaX_.S.N.j.s.z.| | ( ( ( *.^.).K.2.+.^.J./ 2.R G G G #X%X&X&X;X1X-X6X3X/.l.4.4.4.| q.| 3.q.} 3.6.q.D.J.C.z.w.P <.h q a h c l f u G V B B I I T wXeXyXeXeX",
"sXsXkXlXgXOXU.!.N.d.| P z b b ( A.A.:.c.G G 2.c.G C G R C G f.{.1X6X6X6X6X5X&X!.e.9.4.} q.K.#.q.P.| b 3.3.3.*.t.z.{ d.h q 7 q p x d f 6 D D I I -.b.f.OXyXsXsXsX",
"wX0XgXgXkX3X%X].l.1.] / *.*.4.e./ Q ^ ] G G &.G C j Q +.+.f.b.b.E.1X6X1X;X<X*X|.}.`.E.D.D.H.v.D.D.t.4.q.4._ ( ( { / ' D q F F q w w q 6 C W M.n.].8X:X#XeXfXsXeX",
"9X0XrXsXaXaXiXW.c.g.Z.Z.g.W.K.O.R 2.0.W./ &.&.+.o.2.x.x.:X%X,X,X1X5X,X1X1X6X6X1X&X*X*X>X*X$X+X*X|.D.` ( ( [ ` ( ~ @.*.Q A c.G a k 3 8 8 j L >.9X0X0XrXrX0XrXrX9X",
"0XrXrXrXsXaXuX1X1X1XJ.g.@.A.@.G d.l.Q Q A +.!.{.#X#X%X%X,X2X4X6XrX1X1X1X1X3XXXV.B.}.5XuX5X5X<X*X&X|.H.E.W.x.w.*.&.2.1.%.1.[ b ] ( v k w s D ^ OX8X8X8X8X8X0X0XrX",
"uXrXuXuXiXaXgXiX%X'.2.G G / X.2.A.+.O.&.s.E.{.-X<X3X3X1X,X2X1X1X%X1X-X1X%X#X#XW.E.+X<X<X<X5X<X5X<X<X%X#X}.].!.W.~.H.A.V.c.g.2.*.P ! / v R W D +.s.OX9X3XrXrXrXrX",
"dXaXaXdXaXhXhX'.d.M.M.x.E.].(.+X].#X$X$X=X=X;X;X;X;X1X1X1X1X1X1X3X1X-X1X%X%X%X1X,X%X#X+X@X*X>X>X,X*X2X2X2X3X#XXX#X$X#X{.].~.E.#X$X$X#X#X,X#X].$XE.%XrXuXiXiXiXiX",
"gXhXhXhXgXkXhXfXsXrX4XuXuX2X>X%X%X&X&X&X&X=X&X;X;X;X-X,X<X<X1X1X1X>X%X>X,X1X3X0X9X2X>X#X>X2X0X0XtXwXwXtXeXeXtXuXpXgXgXgXhXdXdXgXaXgXgXdXaXsXaXgXaXgXsXaXaXgXaXhX",
"hXhXhXhXkXkXgXlXgXgXdXdXsXuXwX9X0X0X1X<X1X3X3X3X3X3X0X3X*XE.E.#X2X>X%X,X2X2X8X9XwXwX7X:X7XwXwXeXwXqXwXwX9XeX0X0XsXaXgXgXjXgXaXaXdXdXaXgXgXhXhXaXhXgXlXgXgXhXhXkX",
"hXxXxXhXkXkXlXgXhXsXiXwXeXeXeXwXuXyXyXyXsXyXeXeXeXeXwX0X9X:X8X0X8X2X8X8X8X7X8X8XwXwXwXqXwXwXqXqXqXqXwXyXeXyXtXuXsXsXaXfXsXgXgXhXgXgXdXgXaXaXaXhXhXhXhXaXgXhXhXkX",
"xXxXkXxXkXxXhXgXsXsXeXeXeXeXyXsXuXsXsXsXsXyXrXeXeXrXeXeXeX9X8X8X8X8X8X8X8X8X8XwX0XyXwXwXyXwXwXeXyXwXyXyXsXfXaXgXaXfXfXfXdXsXaXaXgXgXjXgXhXgXgXhXlXkXhXhXhXkXkXkX",
"xXxXkXxXxXhXgXfXsXsXeXsXrXsXrXsXsXsXsXsXsXrXrXsXuXsXuXsXrX0X0X0XwX9X9X0X9X9X9XeXyXyXyXyXsXsXdXsXyXyXpXfXaXaXgXgXgXfXgXfXfXiXdXdXfXhXhXhXhXaXaXhXkXkXhXkXkXkXkXkX",
"xXxXcXxXhXhXsXiXsXsXeXeXsXuXiXsXsXsXsXsXsXsXsXfXfXgXsXfXdXaXsXaXiXuX0X0XwX0XeXeXyXyXyXsXdXdXsXsXfXfXpXgXgXzXkXgXkXgXkXgXhXhXgXdXdXgXaXgXhXhXhXhXhXhXhXhXkXkXcXcX",
"xXcXcXkXhXgXaXiXuXsXsXuXsXsXdXiXsXsXsXsXsXsXsXgXgXlXgXdXaXgXaXgXsXsXiXuXuXeXeXeXuXtXsXsXgXgXgXgXfXgXjXgXxXaXxXkXxXgXkXkXhXaXgXgXaXaXaXgXhXhXhXhXhXhXhXhXhXkXkXkX",
"hXkXhXkXhXaXsXiXrXeXsXsXsXdXsXdXuXsXdXfXgXhXhXlXgXgXgXgXgXaXdXsXuXuXiXuXuXuXuXyXeXyXsXfXaXgXgXfXgXgXgXzXkXkXkXlXgXkXgXkXhXhXhXgXaXaXaXgXaXaXgXaXhXhXhXgXhXhXhXkX"
};
