/* XPM */
static char *cooooin1741103847[] = {
/* columns rows colors chars-per-pixel */
"80 80 127 2 ",
"   c #366791",
".  c #376A93",
"X  c #3A6D96",
"o  c #3C739B",
"O  c #3D789F",
"+  c #3E77A0",
"@  c #3E7BA2",
"#  c #43749B",
"$  c #407A9D",
"%  c #427DA4",
"&  c #4A7FA4",
"*  c #557EA0",
"=  c #4384A6",
"-  c #4C81A7",
";  c #4889A7",
":  c #4486AC",
">  c #458AAD",
",  c #4D8AAC",
"<  c #5280A4",
"1  c #5E84A5",
"2  c #5187AB",
"3  c #5C87A9",
"4  c #518BAD",
"5  c #5D8BAA",
"6  c #4D91AC",
"7  c #468DB1",
"8  c #4A8DB4",
"9  c #5A8EB1",
"0  c #4791B3",
"q  c #4992B4",
"w  c #4F99B3",
"e  c #4D94BA",
"r  c #4B9ABB",
"t  c #5996B5",
"y  c #6C8DAC",
"u  c #6691AE",
"i  c #7293AE",
"p  c #629FBC",
"a  c #6C9CBA",
"s  c #7596B0",
"d  c #7E9CB5",
"f  c #52A3BD",
"g  c #58AABE",
"h  c #61A1BD",
"j  c #70A2BC",
"k  c #529DC3",
"l  c #4EA3C2",
"z  c #55ACC5",
"x  c #52ACC9",
"c  c #5CB0C1",
"v  c #54B1CE",
"b  c #55B5D1",
"n  c #57B9D4",
"m  c #58BBD5",
"M  c #59BFD9",
"N  c #5BC3DC",
"B  c #63C9DA",
"V  c #68CDD8",
"C  c #71D6D9",
"Z  c #74DBDB",
"A  c #5FCCE3",
"S  c #60CEE3",
"D  c #64D2E5",
"F  c #6BDAE6",
"G  c #66D7E8",
"H  c #66D8E8",
"J  c #6BDDEA",
"K  c #6EE3ED",
"L  c #79E6E3",
"P  c #71E6ED",
"I  c #77EAEB",
"U  c #7AEDED",
"Y  c #839FBB",
"T  c #86A2B9",
"R  c #8AA5BB",
"E  c #8EA9BE",
"W  c #90A8BD",
"Q  c #8EA8C1",
"!  c #93ACC3",
"~  c #99ADC7",
"^  c #9BB3C5",
"/  c #9EB6C9",
"(  c #9FB8CB",
")  c #A3B6C6",
"_  c #A2BBCB",
"`  c #AABDCC",
"'  c #AEC0CD",
"]  c #B2C2CF",
"[  c #B6C5D3",
"{  c #C1CED6",
"}  c #C6CCDF",
"|  c #CACFDE",
" . c #CCD4DD",
".. c #D3DADF",
"X. c #C1C7E2",
"o. c #C5CBE3",
"O. c #CACEE4",
"+. c #CCD2E4",
"@. c #D3D6E4",
"#. c #D6D9E5",
"$. c #DBDDE5",
"%. c #D1D7E9",
"&. c #D5DAEA",
"*. c #DBDEE9",
"=. c #E0DFE6",
"-. c #E0DFE9",
";. c #DEE1E6",
":. c #DEE1EA",
">. c #E3E4E7",
",. c #E8E6E7",
"<. c #E7E8E7",
"1. c #EAE9E7",
"2. c #E4E5EA",
"3. c #E8E7E8",
"4. c #E7E8EC",
"5. c #ECEBEB",
"6. c #F0EFEC",
"7. c #EFF0EE",
"8. c #F2F1EE",
"9. c #E3E6F0",
"0. c #E6E9F0",
"q. c #ECEDF0",
"w. c #F0EFF0",
"e. c #EFF0F0",
"r. c #F6F5F1",
"t. c #F8F7F2",
"y. c #FAF9F4",
/* pixels */
">.>.1.6.r.r.t.t.r.5.5.5.1.1.5.,.1.1.1.1.1.<.1.1.1.1.1.6.1.6.3.5.6.6.6.5.6.1.5.5.5.1.5.5.4.,.4.3.1.3.6.1.1.1.6.6.1.6.6.3.6.6.3.w.8.5.5.5.5.6.5.6.<.1.1.1.,.1.,.,.",
"$.>.5.6.t.t.t.t.r.r.8.5.5.5.5.5.1.1.1.1.1.1.1.1.1.1.1.1.5.1.1.3.5.6.1.5.1.5.5.5.4.,.,.,.4.,.1.3.1.1.3.5.6.1.6.1.1.6.6.6.6.6.6.6.5.5.5.1.5.6.6.6.1.1.1.5.1.1.,.,.",
"=.>.5.8.y.y.y.y.t.r.8.8.6.6.1.1.1.1.1.1.1.1.1.1.6.1.1.5.5.1.1.1.1.1.6.1.1.1.1.,.,.,.2.,.,.4.1.1.3.3.3.5.1.3.3.1.,.1.3.3.3.q.6.6.5.2.>.,.1.5.6.5.1.5.1.6.1.1.,.,.",
"=.>.5.r.y.y.y.t.y.r.8.6.6.6.6.6.6.1.5.6.1.6.6.6.1.1.1.1.1.1.1.1.1.1.1.6.6.6.1.5.,.,.,.,.,.4.,.>.-.3.3.-.4.-.4.4.4.3.4.4.4.-.2.-.2.5.1.1.6.1.1.6.6.6.6.6.6.1.1.1.",
">.>.4.q.r.r.t.t.t.8.8.8.6.6.5.6.5.6.6.1.6.6.6.6.6.1.1.6.1.1.1.1.1.1.1.6.6.6.6.6.5.1.1.,.,.,.,.,.3.,.3.3.>.>.>.>.,.,.,.,.>.2.2.2.,.1.5.6.6.6.6.6.6.6.6.6.6.6.1.1.",
">.>.*.9.4.0.q.r.r.r.6.8.6.6.1.6.6.8.6.6.6.6.8.8.8.6.1.1.1.1.1.1.6.6.8.6.6.6.6.6.8.6.5.,.2.,.,.,.3.1.1.6.5.6.1.1.5.,.5.5.5.6.6.6.6.6.8.8.8.8.8.8.6.6.8.8.8.6.6.1.",
">.2.*.:.>.9.2.9.0.5.5.5.6.6.8.8.8.8.8.8.8.8.r.r.8.8.8.8.6.1.1.6.6.8.6.8.6.8.6.r.8.6.6.0.4.3.,.4.3.,.,.1.1.5.1.5.5.5.6.5.6.6.6.6.8.8.8.8.8.8.8.t.8.8.r.8.6.6.6.6.",
"*.>.2.:.2.2.-.2.2.9.1.1.6.8.t.t.8.r.r.8.t.t.t.y.t.t.8.8.6.6.6.1.1.6.6.6.8.8.t.t.t.r.w.3.,.,.3.>.-.-.-.-.3.4.3.6.5.5.1.5.6.6.6.6.8.8.t.8.8.8.8.8.r.r.8.8.6.8.6.1.",
":.>.:.:.2.:.:.2.2.9.2.5.q.r.r.r.r.r.r.r.r.t.y.y.y.t.t.8.6.6.6.6.1.1.1.4.q.r.r.r.r.r.5.4.4.3.-.-.-.#.$.$.=.3.3.3.,.5.5.5.6.6.6.5.5.8.8.8.8.8.8.8.8.r.8.8.8.8.7.5.",
":.2.:.:.2.:.4.4.2.2.5.q.r.r.8.8.r.r.q.r.w.t.y.y.y.t.t.8.6.6.6.5.1.,.2.-.*.2.2.2.2.4.5.4.4.4.>.=.$.-.-.-.=.-.-.3.,.2.5.5.5.6.6.6.8.8.8.8.8.t.t.r.t.t.t.8.8.8.8.5.",
"<.4.<.4.4.5.<.1.0.5.q.r.r.r.6.5.q.2.9.9.>.2.r.8.8.8.8.8.6.6.5.,.4.*.*.*.*.*.*.-.=.$.-.>.2.2.>.>.=.=.3.>.3.>.3.4.5.4.5.5.6.6.6.8.8.5.8.8.8.r.t.t.t.t.t.t.t.8.8.5.",
"4.<.5.8.q.r.8.8.8.8.r.8.r.r.5.2.*.*.&.%.+.%.&.>.,.6.5.6.6.6.6.4.>.>.-.-.2.2.9.0.>.*.*.*.>.>.-.-.>.,.3.2.3.3.3.4.4.5.6.6.6.8.8.8.r.5.5.5.8.8.8.8.8.8.r.t.t.r.8.5.",
"r.e.8.r.8.t.8.8.8.8.8.8.6.5.2.:.:.&.&.%.%.&.&.*.>.5.5.5.5.5.5.5.4.4.>.-.9.9.0.4.2.2.2.>.2.*.*.*.-.-.>.2.2.4.4.4.4.5.5.6.8.8.8.6.8.5.1.,.2.:.2.2.2.:.2.2.1.5.8.7.",
"r.r.r.r.t.t.t.t.t.r.r.r.6.5.*.*.&.:.:.&.*.*.*.*.>.1.1.5.5.5.5.w.w.5.4.2.2.2.2.2.2.2.5.0.9.-.*.*.-.*.-.-.>.4.>.4.4.4.5.5.6.5.6.6.5.5.1.2.>.:.:.:.:.*.#.$.:.2.5.7.",
"t.t.r.t.t.8.t.t.t.8.8.8.1.2.:.:.:.:.:.*.*.:.*.2.>.,.,.5.5.5.5.6.6.6.5.4.2.2.9.5.5.2.0.0.q.0.2.,.2.>.4.4.4.4.4.4.4.3.,.4.5.5.5.1.1.5.2.>.;.:.*.:.:.:.:.&.&.;.2.5.",
"r.t.t.t.t.8.8.t.t.8.5.5.2.:.*.*.:.:.:.:.>.*.-.>.4.3.4.4.5.1.5.5.6.6.6.5.4.5.5.0.5.0.5.q.q.4.q.4.4.4.4.4.0.3.3.4.4.,.,.5.,.,.3.,.>.,.,.2.;.:.:.:.:.:.;.;.$.$.>.2.",
"r.t.t.t.t.r.7.8.8.8.1.,.>.$.*.>.*.:.2.2.:.:.2.2.2.5.4.5.1.5.5.8.8.8.8.8.5.8.8.8.w.5.5.q.q.5.0.5.4.4.3.3.5.5.5.3.5.3.3.4.3.3.3.3.<.>.>.>.>.>.2.2.>.>.:.-.>.>.<.,.",
"r.t.t.t.t.r.r.8.8.5.1.>.>.>.:.>.2.>.2.2.2.2.2.2.,.1.4.1.5.5.6.w.8.8.8.8.8.8.8.8.6.6.6.6.6.w.w.5.w.6.r.w.w.6.6.5.5.q.1.4.3.5.3.6.<.>.<.<.,.<.,.1.5.1.5.5.5.1.1.5.",
"t.t.t.t.r.t.8.7.5.<.<.1.2.<.2.2.2.2.2.2.2.4.4.2.<.1.1.<.,.5.r.6.8.8.8.t.8.t.8.8.r.8.6.r.w.r.w.6.w.8.w.w.w.6.6.6.w.3.5.5.5.5.,.>.>.>.<.1.1.5.1.5.5.5.q.5.8.8.8.8.",
"t.t.t.r.8.8.8.7.5.5.<.1.<.4.5.2.2.4.1.5.5.5.5.<.<.5.5.1.5.8.5.6.8.8.8.t.8.8.t.8.r.r.r.r.r.w.r.5.8.w.6.w.w.6.w.6.w.w.w.5.1.,.,.>.<.<.1.1.1.1.6.6.8.8.8.r.8.8.8.t.",
"y.t.t.r.8.8.8.5.1.1.1.1.1.1.6.6.5.1.5.5.5.7.5.5.6.6.1.6.8.5.8.7.8.8.6.8.8.8.t.8.6.8.t.8.8.r.8.r.6.8.6.w.6.6.w.w.w.w.3.4.2.>.>.2.<.<.1.1.6.6.8.5.8.8.8.8.6.8.r.r.",
"y.y.t.t.8.8.8.7.1.1.1.6.6.6.1.1.5.8.5.8.7.8.8.8.6.6.6.6.6.8.7.7.8.8.8.8.8.8.8.8.8.t.t.8.8.8.6.6.6.6.6.w.6.6.5.5.3.3.1.,.,.>.2.1.<.1.1.6.1.1.6.6.6.8.r.8.8.8.8.t.",
"y.y.t.r.8.8.7.5.6.6.6.6.6.6.8.6.8.6.5.8.8.8.8.8.6.6.6.6.6.5.7.7.6.6.8.8.8.8.8.8.8.8.6.6.8.5.5.5.1.5.1.6.4.4.1.,.,.>.,.>.>.>.2.5.5.1.1.1.<.6.6.8.8.8.8.8.8.8.r.t.",
"t.t.t.r.8.8.8.8.6.8.8.8.8.8.8.8.8.8.8.8.8.8.8.8.6.6.6.1.6.6.8.8.8.8.8.8.8.8.8.6.5.5.,.1.,.,.2.>.>.>.>.-.-.>.-.>.>.2.>.-.2.,.4.6.6.6.8.6.1.1.6.8.5.8.8.8.8.8.8.r.",
"t.t.r.t.8.8.8.8.8.8.8.8.r.r.8.r.r.8.8.8.8.8.8.8.8.8.5.6.8.8.8.8.8.8.8.8.8.7.8.7.1.<.>.=.$.$.$.#.#.@.@.@.@.@.@.*.*.-.=.-.5.6.6.6.8.8.7.8.5.5.1.1.5.6.5.r.6.5.5.r.",
"t.t.8.8.8.8.8.8.8.8.8.8.r.8.8.r.8.r.8.t.8.8.8.8.8.6.6.6.8.8.8.8.r.r.7.5.1.1.<.>.;... . .| +.+.+.O.o.o.X.} X.o.O.@.@.@.*.5.8.t.w.8.8.8.8.8.8.6.1.1.1.1.1.5.5.5.5.",
"t.8.8.8.5.5.6.6.8.8.8.t.r.r.8.r.8.t.t.8.8.8.8.8.8.8.6.8.8.t.8.8.r.r.` i s i i i i y y y y ~ @.+.O.O.o.o.X.X.o.o.o.O.O.&.,.r.t.r.r.8.8.r.8.8.8.6.1.1.,.>.>.>.2.,.",
"8.8.8.6.7.1.1.6.8.8.8.8.8.r.8.r.8.t.8.t.8.8.8.8.8.8.8.8.8.8.t.;.' ` j 7 0 > 0 0 q 0 0 0 > a ~ ~ { @.@.O.O.o.o.o.o.o.o.O.*.4.r.r.r.r.r.r.8.8.8.1.5.5.1.>.=.=.>.,.",
"8.r.8.8.6.6.1.6.5.6.6.8.8.8.8.8.8.8.8.8.8.8.8.8.8.8.r.r.8.r.>.^ O X l A N A N S K G A N A r X & Q o.@.&.&.%.O.O.o.o.O.O.O.&.>.6.r.r.r.r.8.8.8.5.6.5.1.,.2.,.4.5.",
"8.8.r.6.6.6.6.6.6.6.8.8.8.8.8.8.8.8.e.5.5.1.5.1.1.5.5.8.r.1.T 4 7 o l A S S S D P P J A A r O x 9 Y @.*.*.*.#.&.@.@.%.@.O.&.&.-.5.5.7.r.8.8.6.6.6.5.,.5.,.,.,.5.",
"8.6.6.1.6.6.6.6.6.8.8.8.r.8.8.6.8.5.5.<.2.>.:.>.>.>.>.5.#.E 9 0 r > 0 r r r r r f f f r r r l N x p ! o.*.=.*.-.-.*.*.#.$.&.&.#.;.2.1.5.6.5.5.5.5.5.5.,.,.,.,.2.",
"5.5.5.6.6.6.1.6.6.8.8.8.8.8.8.6.1.<.:.;.$.*.*.#.$.$.*. .^ & e k k k @ X @ @ @ @ @ = = = X q A A A v 4 /  .-.-.>.>.,.3.>.3.3.*.#.$.*.>.>.1.,.,.1.,.,.,.2.=.>.>.>.",
"8.8.6.8.8.8.5.8.6.6.r.5.5.,.2.-.*.:.*.:.*.*.:.*.*.*.@.Q & k k k k k @ : n N M N N N K C ; r A A A N N , W >.>.>.>.1.1.1.5.5.5.,.1.>.>.>.2.>.;.;.$.$.#.#.#.=.>.,.",
"r.r.t.t.8.8.8.5.5.6.5.5.2.*.&.&.%.&.*.*.*.2.9.*.>.@.Y 9 8 k k k k k % : N A A A A K U L = r S D A A N v h R ;.1.,.<.1.1.6.6.6.5.5.1.<.<.,.2.>.$.$.#.#.@.@.$.=.2.",
"8.r.t.t.t.8.8.6.8.5.5.,.*.#.&.@.#.&.*.*.>.*.2.2.>.} * : k k k k k 8 7 r A A A A S H P P g f v N S A A D r 1 ;.8.5.1.5.5.6.6.6.5.6.6.5.5.5.5.1.>.>.=.$.$.@.#.#.#.",
"#.*.2.5.6.6.5.5.5.5.,.2.*.*.&.#.#.*.*.*.*.>.2.*.*.[ * 8 k k k k e o k A A A A A S S H K U g @ N S A A A f 5  .5.8.r.r.8.8.8.8.8.5.8.8.5.5.5.5.1.,.,.>.>.>.=.$.#.",
"+.@.@.$.>.>.,.5.5.1.1.2.2.*.&.@.%.&.&.$.-.-.2.2.` 3 e k k k k k e o l A A A A A A A S H P g O N S A A A N x u { r.8.t.t.8.r.t.8.t.t.t.r.7.7.e.e.5.5.5.,.1.,.2.>.",
"*.@.@.+.@.#.>.>.1.>.<.,.2.2.*.#.#.#.&.*.*.-.2.2.^ X % % > k k e : e b A A A A A S A A S K V g f n S A l r 0 # ] 8.t.t.y.t.t.t.t.y.y.t.y.y.r.r.e.8.6.6.6.5.5.5.0.",
"2.>.#.@.@.@.$.*.2.>.<.5.1.1.1.2.>.>.>.;.2.4.3.3.)   o o % 8 e % + M A A A A D A S A S D K U Z $ r n v > @ O o ] t.t.t.y.y.y.t.t.y.y.y.y.y.y.t.t.8.8.8.6.8.8.r.r.",
"5.5.>.$.@.@.@.$.>.:.>.5.5.6.8.6.6.6.5.1.5.3.w.1.) % 8 e 8 o o . + n A A A A A A S S A N J I C O o + @ v n x $ [ 8.t.t.y.t.y.y.y.y.y.y.y.y.y.y.y.8.6.6.5.5.q.r.r.",
"w.8.q.>.#.&.#.$.>.>.1.5.8.8.8.6.w.8.6.6.5.6.6.1. .W 5 q r 8 7 % . > 7 7 0 m A A A A b 0 q w 6 o 7 x x N x t ( $.5.5.0.q.q.w.y.y.y.y.y.y.y.y.e.q.2.:.:.:.:.2.9.e.",
"1.r.5.<.2.>.=.>.1.5.7.8.8.8.r.8.8.8.8.6.6.6.6.6.5.;.R 9 q k k 8 + . + > 7 l x x x x l 7 6 @ X > v S N v h R ;.4.2.>.*.9.9.9.9.0.0.9.e.e.e.e.9.9.:.:.:.:.:.:.2.4.",
"8.r.5.5.5.5.5.5.1.5.5.5.8.8.8.8.6.5.q.5.1.6.6.6.7.7.<.E < e k k q o l N m 7 @ + + + 7 N H z + n A A n 4 ! :.:.:.2.*.&.&.&.%.%.%.%.:.:.9.0.9.&.*.:.:.:.9.9.2.2.:.",
"5.6.8.8.6.6.6.5.8.5.5.<.>.>.:.>.>.2.5.5.6.1.6.1.7.8.8.;./ - e k e o l A A m b n b b M A I c + M A v q ( +.2.9.:.*.&.*.*.:.:.:.:.&.:.:.:.9.:.&.9.:.:.9.9.:.9.9.:.",
"1.6.8.8.8.6.8.6.5.5.1.<.;.>.;.>.<.<.5.5.8.8.8.1.7.8.r.8.;.! 5 8 k : q x A A A A A A S G n g f N x h ! @.9.:.9.9.*.*.&.*.9.9.:.:.:.9.:.:.9.:.:.9.9.:.9.9.:.:.2.:.",
"6.6.8.8.8.8.8.6.5.1.1.1.>.<.1.6.6.8.8.8.8.8.t.8.8.8.t.r.r.<.T 4 e k @ : A A A A S A G F ; q A n t R >.4.9.2.:.:.*.9.9.2.9.:.:.9.4.:.:.9.9.9.9.9.9.9.9.:.2.2.4.2.",
"8.8.r.8.8.8.r.8.8.8.8.8.5.8.8.8.8.8.8.t.8.t.t.8.t.t.t.t.r.r.>.^ @ e @ : M A A A A A H L ; r n , / ;.5.5.2.2.2.:.:.9.9.4.0.0.9.9.4.9.4.0.q.q.0.e.0.:.*.9.0.4.1.5.",
"t.t.t.t.t.8.t.t.8.8.8.8.8.8.8.8.t.t.t.t.t.t.t.t.t.t.t.t.t.t.t.$.^ 2 : 7 0 m A A A H B f f r t ^ ..7.7.7.5.0.2.2.0.0.0.q.0.0.0.9.4.q.e.e.q.e.0.e.0.9.:.9.4.4.8.8.",
"t.y.y.y.t.t.t.t.8.8.8.r.8.8.r.t.r.r.t.t.r.r.t.t.y.y.y.y.y.t.t.y.2.T 9 > = r m S D N z 0 l h R :.8.8.6.6.6.5.5.5.5.5.5.8.6.5.e.8.5.8.7.7.e.5.0.5.2.9.2.4.5.8.r.t.",
"t.t.y.t.t.t.t.t.t.8.8.8.8.8.8.8.r.r.t.t.t.t.y.t.y.y.y.y.y.y.y.y.t.4.E - 8 % r N D f 0 v , ! ;.5.7.5.5.6.5.6.5.6.5.r.8.8.r.8.8.8.8.6.7.7.q.5.2.2.2.2.2.5.8.8.8.y.",
"t.y.y.t.t.t.t.8.8.8.8.6.8.8.8.r.r.t.y.t.t.t.y.t.y.y.y.y.y.y.y.y.y.t.;.^ & > > = ; f f , _ #.0.0.1.1.1.6.5.6.6.6.r.6.r.8.8.8.8.r.8.8.8.5.q.5.2.2.2.2.2.5.8.8.r.t.",
"t.t.t.y.t.t.t.t.8.8.8.6.6.6.8.8.8.r.t.t.t.t.t.t.y.r.y.y.t.y.y.y.t.t.r.$.Q 9 $   . > h E ;.7.e.0.4.>.<.<.1.5.1.6.5.r.5.5.8.8.8.8.8.8.6.6.5.4.4.1.2.4.5.5.8.8.t.t.",
"t.t.t.t.t.t.t.t.8.8.6.8.6.6.1.6.w.r.r.r.t.r.r.w.6.w.w.6.w.w.y.r.t.t.t.t.<.d < < * * T 2.q.q.e.q.q.5.2.0.5.5.5.0.5.7.5.7.8.8.8.8.8.8.6.8.5.5.,.5.<.4.1.1.5.r.t.t.",
"t.t.t.t.8.8.8.8.8.8.5.5.1.6.1.1.0.5.5.5.5.5.4.5.0.3.3.4.4.w.w.w.7.8.8.8.8.;....... .%.4.0.0.q.q.7.r.r.r.q.r.5.5.5.5.5.8.8.8.8.8.8.6.6.6.5.5.,.,.2.1.5.1.5.r.r.r.",
"t.t.8.8.8.8.8.8.8.8.6.5.5.5.1.1.,.2.2.2.>.2.4.4.0.4.3.0.0.0.0.3.q.q.7.e.q.8.8.7.q.4.2.:.:.:.:.:.2.q.r.r.8.8.r.r.r.8.8.8.8.8.8.8.6.6.5.5.5.1.,.2.2.1.,.5.1.5.6.8.",
"t.8.8.8.8.8.8.6.6.5.5.5.5.5.1.<.*.*.>.2.2.9.9.5.w.w.w.w.w.3.6.w.5.5.5.5.r.8.7.7.4.4.:.:.%.%.:.:.&.:.:.2.5.8.5.8.8.8.8.8.8.8.8.8.6.6.6.6.6.1.,.2.1.>.,.,.5.5.5.6.",
"6.r.6.6.6.6.6.6.1.5.5.1.4.5.2.>.*.*.>.4.5.q.5.w.q.r.r.q.r.w.6.6.5.5.5.7.7.8.5.5.,.2.-.*.&.&.&.&.%.%.%.:.9.2.<.5.8.8.5.w.8.5.8.5.5.5.1.5.5.1.4.,.,.,.,.5.5.5.5.5.",
"8.6.6.6.6.6.6.5.6.5.5.1.,.1.,.>.=.*.2.4.q.6.q.w.q.e.q.r.5.6.6.6.e.r.7.5.5.5.5.q.q.2.*.*.&.&.%.&.%.%.%.:.:.:.:.2.2.<.5.5.5.5.5.5.1.,.,.5.1.,.,.,.,.5.1.5.5.6.6.6.",
"6.6.6.w.6.5.6.5.1.1.,.,.,.5.5.2.2.>.5.5.5.w.w.6.8.r.r.5.r.q.8.6.r.8.8.8.5.5.4.4.5.2.>.*.*.&.%.&.%.*.:.:.:.2.2.2.4.5.5.5.6.5.5.5.1.<.<.1.<.2.,.1.,.5.5.5.5.6.5.5.",
"2.3.4.0.3.1.6.6.1.<.>.,.4.5.,.5.5.5.5.5.w.5.w.6.6.5.w.6.w.6.8.8.8.8.8.8.5.5.<.2.2.2.2.>.:.*.*.*.*.:.<.<.4.5.5.7.r.r.r.r.8.6.r.r.8.1.1.1.5.5.1.1.4.5.1.5.1.2.4.2.",
"#.*.*.*.*.>.,.3.4.2.>.>.,.5.q.5.q.8.8.5.8.8.6.5.5.5.5.q.6.8.8.8.8.8.8.6.r.5.5.4.>.=.>.>.<.>.2.,.<.<.5.5.e.e.7.8.r.r.t.t.t.r.r.r.8.8.5.1.5.5.q.5.5.5.4.2.2.:.*.&.",
"@.@.$.*.-.>.,.4.3.,.2.-.>.4.5.3.5.5.1.r.5.5.5.5.5.5.5.5.6.8.8.6.8.8.w.r.q.5.5.4.>.>.>.>.1.1.5.5.1.1.5.5.5.e.5.r.r.t.t.t.t.y.r.t.t.t.8.6.8.5.5.5.,.2.2.2.:.*.&.%.",
"@.#.$.=.3.5.1.5.5.1.5.3.3.4.4.5.1.<.1.5.5.5.5.6.5.6.r.6.8.6.6.6.8.6.6.6.6.5.5.5.5.2.>.,.>.1.5.5.5.4.5.5.2.4.5.q.6.r.t.t.t.t.t.8.r.8.8.5.5.5.5.2.:.9.*.2.:.*.#.%.",
"#.*.-.,.3.6.6.6.5.5.3.1.1.4.5.4.1.<.1.5.5.5.5.8.8.8.8.r.8.6.6.6.6.6.6.6.6.6.5.,.1.1.1.1.5.5.5.1.5.5.1.2.2.:.*.2.2.5.5.6.r.t.8.r.8.8.5.1.5.5.9.2.*.*.*.*.:.:.*.&.",
">.>.=.3.1.6.6.6.5.5.1.1.1.3.2.4.5.,.,.4.6.6.6.6.8.8.t.8.8.8.8.6.6.6.6.6.6.6.6.1.1.1.8.8.e.e.e.7.7.7.5.1.2.:.&.&.&.9.9.9.w.w.w.6.6.6.5.1.1.4.4.-.:.*.*.:.>.*.*.*.",
"4.0.4.4.3.w.6.6.6.6.5.4.>.-.>.,.3.,.,.5.1.5.6.6.8.8.8.t.t.8.8.6.8.8.6.6.6.6.6.6.6.6.8.t.r.r.r.r.r.8.7.5.4.:.:.&.&.*.&.&.2.q.q.5.5.5.5.5.6.4.4.-.*.$.*.*.*.:.>.:.",
">.3.5.w.6.6.6.6.6.6.5.4.2.-.*.*.$.>.2.5.,.6.6.8.8.8.t.8.t.8.8.8.8.8.6.6.6.6.6.6.6.8.8.t.y.t.t.r.r.t.r.7.5.q.9.9.*.*.&.*.-.2.2.4.1.5.5.5.5.5.4.-.=.*.$.=.:.2.2.>.",
"$.-.3.w.6.6.6.6.w.6.6.5.4.4.2.-.>.>.,.5.5.5.6.8.8.8.8.8.8.8.8.8.8.8.8.8.6.6.6.6.6.8.t.t.y.y.y.y.t.r.r.8.r.e.e.q.0.9.2.-.2.9.2.9.4.1.3.1.2.5.2.-.$.$.=.=.2.2.:.:.",
"#.$.-.,.5.5.6.6.r.6.6.6.w.3.q.5.5.4.5.8.8.8.8.8.8.8.8.8.8.8.8.8.8.8.8.8.8.8.8.5.1.6.r.r.y.y.y.r.r.r.7.r.r.r.7.7.6.6.6.5.,.4.4.4.5.,.2.>.:.>.>.$.$.$.$.=.=.=.=.#.",
"$.$.=.-.3.,.5.6.6.r.8.w.w.w.6.w.8.5.w.t.y.t.r.r.t.8.r.8.r.8.r.r.8.8.8.8.8.6.8.6.1.<.2.:.9.:.9.9.:.:.5.e.r.e.r.r.8.6.w.6.6.6.6.5.5.5.5.5.>.;.*.#.@.@.@.@.#.$.$...",
">.>.>.>.,.1.6.6.6.r.r.w.6.q.6.w.5.5.5.w.6.w.q.q.8.8.8.r.8.8.8.r.8.8.8.w.6.5.5.5.>.$.#.%.%.&.%.%.%.&.:.4.7.e.7.8.r.8.8.6.6.6.6.6.5.6.5.5.1.>.;.$.$.#...$.=.=.=.>.",
",.,.5.3.5.6.6.6.r.6.6.6.q.4.4.4.4.,.*.*.>.2.9.4.6.6.8.8.8.8.8.8.6.8.6.5.5.0.*.*.#.#.@.%.%.%.&.&.%.:.;.:.:.4.5.5.6.r.8.w.6.1.5.6.5.r.5.0.,.>.1.>.,.>.>.,.>.>.,.,.",
"5.6.5.6.6.6.6.w.6.w.q.q.9.4.>.2.*.2.*.*.*.*.9.2.<.>.,.5.5.1.5.5.1.1.,.>.>.*.#.#.&.&.&.&.&.&.&.:.:.*.&.&.*.*.>.,.5.7.8.5.6.5.4.5.5.5.5.4.5.5.5.5.1.5.,.5.1.6.1.6.",
"6.6.6.6.8.6.6.w.5.5.4.4.2.2.*.&.*.*.*.*.:.:.*.*.>...$.>.>.=.*.>.=.=.$.$.&.@.@.#.&.&.&.&.&.%.&.*.%.&.&.:.#.&.$.$.2.4.5.5.5.6.5.5.,.,.,.5.1.6.6.1.6.5.5.5.1.6.6.8.",
"8.8.8.8.w.6.6.w.3.4.>.-.*.*.*.*.>.-.*.2.:.:.:.*.=.*.*.#.$.#.@.#.@.@.#.@.@.O.@.@.&.&.&.%.&.%.%.&.%.%.&.:.*.2.>.2.2.2.1.4.1.4.5.5.5.1.5.5.1.1.1.6.6.6.6.,.5.6.6.8.",
"r.t.8.t.r.r.3.5.0.2.*.*.*.>.*.2.2.2.2.9.9.:.*.:.=.*.*.*.$.#.@.@.@.@.@.@.@.@.@.@.&.:.&.&.:.&.&.*.&.&.:.:.2.2.1.1.2.2.5.4.,.,.5.5.5.5.8.5.6.6.1.6.6.6.6.6.6.8.8.8.",
"r.r.8.t.8.8.5.4.4.>.*.>.*.>.>.>.2.2.2.2.2.-.-.>.>.>.>.>.=.$.$.$.$.@.@.#.@.#.#.*.:.:.:.:.2.2.>.2.9.:.2.2.1.5.5.5.5.1.5.5.2.1.,.,.5.6.6.6.5.1.1.6.6.r.8.6.8.r.8.8.",
"8.t.t.8.8.6.4.,.2.-.*.*.2.>.2.2.2.2.2.2.2.>.2.2.4.4.4.4.,.1.,.5.,.>.=.$.*.$.*.*.9.:.9.9.,.1.5.2.4.4.<.5.5.7.8.5.6.6.8.5.6.5.5.,.,.1.1.1.6.6.6.6.6.6.6.6.8.8.t.t.",
"t.t.t.8.6.5.5.>.>.2.>.2.2.4.,.>.2.2.2.2.3.4.3.3.5.3.4.1.5.5.1.5.,.2.>.=.>.$.*.*.*.>.>.2.5.5.5.5.5.5.5.5.8.5.8.8.r.8.6.6.6.5.5.5.,.,.5.5.6.6.6.6.6.6.6.6.6.6.8.8.",
"8.8.8.6.5.1.,.>.-.-.2.2.5.2.,.-.-.>.2.5.5.6.w.w.w.5.5.5.5.1.2.>.>.>.4.,.>.>.>.-.$.-.2.2.,.5.5.5.5.5.5.8.8.8.8.8.5.6.6.6.6.5.6.5.1.1.5.5.5.1.5.1.6.6.6.1.6.6.6.8."
};
