/* XPM */
static char *_08eb594475e4d4db37abcddcd28074c[] = {
/* columns rows colors chars-per-pixel */
"80 80 44 1 ",
"  c #4AAAEF",
". c #4CACF0",
"X c #3E92E5",
"o c #47A9ED",
"O c #49A8EE",
"+ c #3D93E1",
"@ c #48ACF0",
"# c #3E95E4",
"$ c #3D91E4",
"% c #3E94E5",
"& c #3C90E0",
"* c #3C90E3",
"= c #46A6EC",
"- c #3F97E5",
"; c #45A3EB",
": c #4BAEF2",
"> c #4099E6",
", c #419CE6",
"< c #449EEB",
"1 c #3D7AA6",
"2 c #60CFE5",
"3 c #43A0E7",
"4 c #48A5F0",
"5 c #468DB4",
"6 c #4FB1F2",
"7 c #388BD9",
"8 c #4284AC",
"9 c #509FC3",
"0 c #3385D4",
"q c #5BC4DC",
"w c #2B7CC8",
"e c #4994B9",
"r c #6DDFEA",
"t c #3A709A",
"y c #51AAC8",
"u c #5ECBE2",
"i c #55B3CE",
"p c #3B91D6",
"a c #2370BE",
"s c #4298D8",
"d c #77ECEE",
"f c #4D9ABD",
"g c #3C84BE",
"h c #59BDD6",
/* pixels */
"O   @@@  @ooooo @@@@ o======o@:@ OOOOOOOO=;=oOooo@@:6:;,>3,->,3;=== :. O;;w,6666",
"OO==oo@o  ooooo @@ @:o=33;  o@@  OOOO=;=OOo :.:::::6::@=33334.::6666.=;4.sw=:666",
"O;;==ooo      o @@ oo=;=o@:@@@@@  OO     .:::...@:@@@@@@@@@......:. o O.;wp:6::6",
";;3;==oo        @@@ o=o@@:::::@@.    ..  ..::::.@@@@::@@@::::....:. ....p0O6:::6",
";3;=OOoO .    @@@@@ oo@@@@@@@@@  ..........::::.@@@:::@@@:::@......  :.4w0:6:666",
";3;==OOO      @@@@@ o@@@oooo@@@@...........:::.....@@@.@@::@@  .... .: >a7 66:66",
"33;;;;==O     @@@@@ @::@ooo@@@@@   ........::......   ..:..        .:..>w0,:6666",
";3333;;;OOOOO o@@@@@@@.oo @@@@@    ...... ..........   .....  ..  O  . ;0wp 6666",
";3333;==OOOOO o@o@o@@  oo  @@@@    ......   .....:..   .  .......    . Opw036666",
"3333;;O=OO=OOO @@@@  oooo  @@@@..........    ....:..     .  ..........  4pw7=666",
",>,,,,;=====O        oooo  @@@@...        o  .......      .   ... ..     O7wso66",
">>->,,<;;====oooo     oo    @@...       OO   .......    ..    ...... OO  .+wp,OO",
"->-->,<;=ooooOoOOOOOO oo    @@.. ooOO  OOoo  .......   .  .     ..  =O=O;3wwps,3",
"-->,,<<=o @  oOOOOOOO  ooo  o@. oo=;=O OOOO  .......   ....      . O;;3-7waw33;.",
"---->,;=O @ OOOOO     OoOoOOo o=;33;O  OOO  ......@ @@ ....... ... <+0www0p;6666",
"-##+-,;4O@@oOOOOO    OOOOOOo===;;;;=  O    .......@@@@@  . ..  OO4+waw0s; .6666:",
"--#-<44  @ OOOOOO    oO==;;33;O=O   . .    ........ ..   .. ... 4#wwp 66666666::",
"--->;OO4OO==44OOOOOO OOO;;;==OOO   ...    .  ....     OOO     @=+ww,66666666:6:.",
"##->,<;;;3;;44==;OOOoO=====OO  .. OO .  ...OOO . OO4;44;;;===3-0w7;:66666@@@@oo ",
"-#->>>,,>>,3;;;;;==OOOOOOOOO     OO=o     OO=OO OO43,<,>>---+7wwp;:666::@@oooo  ",
">>>,,,,>##,;443333;=OO   OO   .  OO    o==;;;;;;;;<<,<<-&700w07+>;@6.    ooo   O",
">>>>>>>-%+#>,,>>,3;OO   O       =sssssssssspsps3<<<<-+7waw07+3;;;3;OO=oo=o   .  ",
">>>-->#+X+&+#-,,3;4OOOOO  . oOOOs81111111111111p>+0waww0p3O..: O=3,3;;=ooo o ...",
">>>--#+$*&%-><;OOOO4OOOOO   =sppe55555eeee55555ggaa7s;.:666:...  ;333; ....  ...",
">>>-##%X*+-><;O  OO=OOOOOOOO3gtt8ihhhq2rr2qhhqi8ttg,.6:6666@ooOOO=;=O     ..... ",
"-->>>#-+%<;;O   OOOOOOOOOOOsg81t8h22222rdd2222h8t5e5s@:@@oo==;==OOOO    oo   ...",
">>>>>-#-><<3;==OOOOOOOOOO=3g15e18iqqqqqurrqqqqi58iy85;@@oooo====OOOOOoooOoo  ...",
"><><>->,,,3;====;========sg85ef555555555ff5555e9yqhyegsooooOOO====oOoooooo@@....",
">>>>#-<;;3333,,,3;=O===;,518f9995tt1111888111t1yuuuqy85,=oo oOoo==ooooo oo@@....",
">>>>#><33,,>,,33=4;=;;;sg85e99995t8yiiiihhiiy81yu22uhyegso  oooo======o@ o@@....",
"--->>,,333,,,33333,,,,sg18f999995t5q2uu2rrr2qe1yu2u22q95es= oOO======O   @@@....",
"--,<<>>,,,,,<,,,<3,,3>g15f999999515q2222rddrue1yuu2u2uqy5g,oO===;;;;O=o@@::@....",
">>>#+++#>,,>,>>>,,,;4-1te99999f555yq2u2rrdrruyefyq22222h81s===;;3,,33;=o@::@....",
"#++++&&#>>>>##>>-><3<p11e99999e18iqu22rrdr22uqi58i2u2u2h51s3;;3,>-+&#,3o@@@o====",
"#--#+&++#---#->>><<-7g85f99999e18h22222rrdrr22h88i22222qyeggpss-,3,+pp>3===3>,,,",
"####+&&+%-#XXX#+#>>+gt8eef999f515h22u22rrddr22he8yqu2uqhh911s,33;=;>+p&#>>>,,==3",
"++##++++X##%%X++###p1tt118f9f88fiq2u22rrdddr22qi9e9q2qy558t8,O=oO=O=3>#->,;O  OO",
"++###++$$X###%+####+1ttt115e511yu22222rddddr222ui88yiie811t83Oo   .  OO===    O ",
"++####+%X%#########p1t85581ttt1yuuuuu2rddddr2uuui1t1889ii9183       ...::....   ",
"#+#--###%%#--####-#+g185f5111tteyyyyh2rrddd2iyyyf1t885iqi9gp;  @    .@@..:::.@  ",
"#+#-----##---#+##-#+p011efee51tt11189qu2rddh8111tt8ihhqhe8s;o @@@  @.@@@@@@@@@@ ",
"####--------#%%#--#%%&g885f9f51tt5eef999yiiyee5tt5yq2uif5p3   @@  @ @        @@@",
"-##---------#%%%%%%XX%+718ef9f518iqhf111111fhqi81yquuhe8s=O        . .       ...",
"---####-----#%X%%%XXX%-+0g8599e18h2ui9yiiiyiu2h88i2uie5p3 ooooo            @ ...",
"#########---#%XX%%XX$X%-#018efe18yquuurddr22uqi55hqhf8p=ooooOooooo   o       ...",
"+++++++##---#%XX%%X$$XX--7g115fe559q22rddddruy59iqie5p3oo   ooooo         .@    ",
"+++++++%%#--#%%%%X$$*&&770wa18ef5t5q22rrdddrue1yqh98p;=oO  oo==ooo          @ ..",
"+&++++++%#--#%#%%%&&70wwwaw771155t5hu222rddrqe1yi55s3===O  o====ooo       @.o.  ",
"&+++++++%+#-###%%X7000waa0->sg18815yhu22rdrqyf5995p;o===O  o==oooOOo        .ooo",
"++++++#-#%#>>#XXX*&70waa7,,33,p115889qu2rruy8fy58s;=====oo oOOooooO         oooo",
"+++++%#####--#+&&&70aaw>;=O   ;pg88859h2r2yffff5g,==;;= ooooOOoooOOO    OOOooooo",
"&$+X&++$X%#+#+&770waap;=oO O44;,7115889q2h5eye17-3=OO44O ooO==oooooOOOOOOO  o=oO",
"$*&$&&&&770waaaaaaaw&3==;;3<<<,-pgg18855ff9fe5gp>;;4O44OooOO==ooo OO=OOO   OoOOO",
"&*&*7&7wwaaaaw077&++>,<<<>##----#+g1851tt8yf1g+#<4;4444OoO==;=ooo  O=OOO    oOOO",
"700wwwaaaaw7+>>>>-++>-%%%XX$X%#%%%&7g1tttt1g0p><4;;4444OO==;3=ooo OO=OOO    OO=O",
"aaaaaaaw07X%%+$+XX++XXXXXXX$XXXXX%%+g11ttt1g#,<<<<3444=O==;3;;oooooOOOOOOO  oO==",
"w0777&*$$X%#%%**$$***XXXXXXXXX$$X%##&7777p7#<<,>,<3;;4;33,3;===oooooo   OO  OO==",
"-,>>-X&&$$XX+$**$$**$$$$$$$$&&&$X#-------#>4<>>--,<;;<,>,3;;=;====OOOO  OOOO====",
",>#++&&**$$$*****$$*$*$$$***&&&++#------%-,<>>--#-<,-##><;<,<<3;;4OO4OOOOOO=444;",
"#+&&&*$***$X$****$****$XX$*X+----#####-------####>>-%++####++++,;4444=OO OOO444;",
"&&&&&*$X$$$$$********$XXXX$X->>###++++%#%###++++%%#X++++&&&&&&#;44444==OOOO=4<<;",
"%+&&$$XXXX$$********X%%-->><,,>-#++&+++%%###+#+#%XXX++%+&&&&&%<44;4;;;;;OO=4<-->",
"%#++++#++++&*$$*&*XXX-><<<<<<>-++++XXXXX%%####++#+++++&&&&++#><;;;<,<333;4;<-###",
"+++++++++++&*$$*&$X&7&-<<<<<>#&++++XXXXXX%++++++#++++++++++#><<,,,,->3,,<;,-##>>",
"++###+++#++&*$****&&&%><<<<%&&+++++XX$$$X+++++++#+++++#+&&&&#>,>,,>-><><<,>-><<<",
"+++++#++++&&**&***&&$->><>%&&&+++++$*X$$X+++++++++++&&+&&&#-,,>,,>-,<,,;;;<<;444",
"++##+++++&&&**&&**&7777X#X&&&&+##++$*X**$+++++++++++++++#+#,,>--#+><3><;;444;;4;",
"+++#++++&p&&**&&&7700077&&&77&++++&$$*&*$++++++++++++++#######+##+>,#-<<;;44;<,3",
"++#++&&p&&&&&&&770007000000777&XX++XX**$XX+++++++++++++++---#++++&&++#>>,<<,-+-3",
"&++X&&&&+&&&&&707700000000077&XXXXXX$*$$$$$$$XXXX%XXX%XXX%%%XX+++&&++++#->>-##34",
"&+++&&&&&&+&&&77077*777777**$XXXXXXX$$$$$****XXXX%XXX%%XXX%XXX+++&&+++#->-##>;44",
"&&&&&&&&&&&+&77&***&*******$XXXXXXXX$$$$$****XXXX%XXX%%XX%%XX$++&&&+#---#+++<43<",
"&&&&&&&&&++&p&&$X$$$$*$***$$$XXXXXX$$$$$$****$XXXXXX%%%XXXXXX$++&&p+>--###--<<,<",
"p&&&&&&&&+&++&$$XXXX$$$$$XXXXXXXXXX$$$$$$*$$$XXXX%%%%%%XXXXXX$+&&&+>>#+###--,,44",
"&&&&&&&&&+++++$$XXXX$$$$$XXXXXXXXXX$$$$$$$XXXXXXXX%%%%%XXXX$$*&&&+++#####>,<<;4<",
"&&&&&&&&&&++++$$XXXXXXXXXXXXXXXXXXX$$$$$$$XXXXXXXXXX%%XXXXXX$*$&&+++%%##-<<<<4<-",
"**$*$***&*$$$$$$$$XXXXXXX$$$$$$XXXXXXXXXX$$XXXXXXXXXXXXXXXXXXXX$$XX%%%%##->>><>-",
"**&****7*********$XX$$$$*******$$$$XXXXXX$$$X$$$X%%XXXXX%XX$$XXXXXXX%XX+%##>>---",
"***7**************$$$*$$**********$XXXXX$**$$$$$XXXXXXXX%XX$$$$$$**$$$**$X%%%#-%",
"***$*****$*******$$$****$$$***$$$$X$$$$$$****$XXXXXXX$$XXXX$$X*&&&*XX$$*&*$$XXX$"
};
