/* XPM */
static char *doooooor__1_1741098103[] = {
/* columns rows colors chars-per-pixel */
"80 80 256 2 ",
"   c gray97",
".  c #F7F7F5",
"X  c #F7F8F6",
"o  c #3D90E4",
"O  c #4099E6",
"+  c #4AADF1",
"@  c #49AAEF",
"#  c #4CABF1",
"$  c #48A9ED",
"%  c #3E94E2",
"&  c #4AABEF",
"*  c #3F97E5",
"=  c #051A33",
"-  c #99C5D0",
";  c #3F96E3",
":  c #112348",
">  c #4BA9F0",
",  c #3E91E7",
"<  c #48ACF0",
"1  c #48A7EE",
"2  c #3D91E1",
"3  c #15274E",
"4  c #9CC7D2",
"5  c #45A1EB",
"6  c #47A7EB",
"7  c #45A4E9",
"8  c #D1E9EB",
"9  c #3D91E5",
"0  c #0F1F42",
"q  c #85A0B4",
"w  c #E0F1F1",
"e  c #419BE8",
"r  c #48A4EE",
"t  c #EDF5F5",
"y  c #49678B",
"u  c #263F68",
"i  c #3E94E7",
"p  c #03162E",
"a  c #A5C2CA",
"s  c #8FA4AF",
"d  c #43A0E6",
"f  c #172A52",
"g  c #4EAFF2",
"h  c #3C8EE2",
"j  c #15B0C6",
"k  c #3D597E",
"l  c #F2F7F6",
"z  c #6C9BAD",
"x  c #F6F6F5",
"c  c #3787D2",
"v  c #A3C9D2",
"b  c #4F6E90",
"n  c #4BB1F2",
"m  c #5587A8",
"M  c #3C8FDE",
"N  c #2B456E",
"B  c #324B72",
"V  c #A1BDC5",
"C  c #354F77",
"Z  c #10577B",
"A  c #BCCAD0",
"S  c #091C3B",
"D  c #8BF3F5",
"F  c #2C79A3",
"G  c #0F859D",
"H  c #1EABBF",
"J  c #92C7D5",
"K  c #3B5479",
"L  c #44A2E4",
"P  c #84ADBD",
"I  c #1A375C",
"U  c #F8FAF9",
"Y  c #1E77A0",
"T  c #247CA5",
"R  c #197CA2",
"E  c #395682",
"W  c #415C82",
"Q  c #429EE9",
"!  c #D7EDEE",
"~  c #EBEDED",
"^  c #89B9CB",
"/  c #628FAC",
"(  c #95B2BE",
")  c #385B82",
"_  c #2B5B84",
"`  c #96DAE0",
"'  c #2E7EC7",
"]  c #84B5CA",
"[  c #51B1F3",
"{  c #15305D",
"}  c #9EF1F4",
"|  c #263950",
" . c #8699A5",
".. c #465B6E",
"X. c #4E8CC7",
"o. c #E5F4F5",
"O. c #19648B",
"+. c #25B3C7",
"@. c #BDDBE1",
"#. c #166D8E",
"$. c #9ACCDA",
"%. c #5F8AA6",
"&. c #487E9F",
"*. c #4A7695",
"=. c #3F9BDF",
"-. c #2484AC",
";. c #175D84",
":. c #90BECB",
">. c #227098",
",. c #53B3F4",
"<. c #394F67",
"1. c #99B7C5",
"2. c #35445B",
"3. c #51ACF5",
"4. c #79D3DC",
"5. c #7C9CAD",
"6. c #C6E0E5",
"7. c #173767",
"8. c #113C71",
"9. c #66859C",
"0. c #486285",
"q. c #193153",
"w. c #B7C4CB",
"e. c #8AB1BE",
"r. c #6A96A9",
"t. c #87A5B2",
"y. c #C3F6F8",
"u. c #82A9B8",
"i. c #B3DAE3",
"p. c #F8FCFB",
"a. c #9FD1DC",
"s. c #3082CB",
"d. c #0B3C56",
"f. c #CAE7EA",
"g. c #102A59",
"h. c #1DB9CB",
"j. c #B0E5E9",
"k. c #236792",
"l. c #5C778D",
"z. c #A6D2DA",
"x. c #155487",
"c. c #77D1DA",
"v. c #9FB0B7",
"b. c #B1E2E6",
"n. c #9BE5E9",
"m. c #C6D7DB",
"M. c #3DCCDA",
"N. c #C9ECEF",
"B. c #446076",
"V. c #597D9B",
"C. c #5FECF1",
"Z. c #AAD3DD",
"A. c #9EDBE1",
"S. c #708EA6",
"D. c #1AA5BC",
"F. c #122339",
"G. c #2B5F8C",
"H. c #2F3E52",
"J. c #97EDF0",
"K. c #C0D4D9",
"L. c #D2F3F4",
"P. c #98D2DD",
"I. c #38BCCC",
"U. c #72AEC1",
"Y. c #A5B5BC",
"T. c #1987A8",
"R. c #489BD6",
"E. c #27537E",
"W. c #33547B",
"Q. c #33C4D0",
"!. c #1B92AF",
"~. c #BCE4E8",
"^. c #B5F2F4",
"/. c #274E7A",
"(. c #2A79C3",
"). c #B2CED6",
"_. c #8392A0",
"`. c #B1C1C8",
"'. c #3B8DD5",
"]. c #144C7A",
"[. c #6DEAEE",
"{. c #4997CC",
"}. c #577089",
"|. c #2C74A0",
" X c #60D6DF",
".X c #253343",
"XX c #105D7E",
"oX c #47D5DF",
"OX c #7CE3E9",
"+X c #4585AF",
"@X c #89DBE3",
"#X c #B4D7E0",
"$X c #BFE8EB",
"%X c #2B7EA4",
"&X c #7191A8",
"*X c #31D5E0",
"=X c #578DB1",
"-X c #74DCE2",
";X c #3993DA",
":X c #9FD4E5",
">X c #E1E9EA",
",X c #74A6BA",
"<X c #8FABB6",
"1X c #71C8D5",
"2X c #AED6E1",
"3X c #144372",
"4X c #307798",
"5X c #20C2D1",
"6X c #3C6883",
"7X c #356F90",
"8X c #376287",
"9X c #D3DCDF",
"0X c #748C99",
"qX c #C5CDD2",
"wX c #206DBB",
"eX c #488BC0",
"rX c #0D67AA",
"tX c #1B2B3E",
"yX c #5AE0E8",
"uX c #ADCBD1",
"iX c #7398A4",
"pX c #546778",
"aX c #5992BC",
"sX c #145D97",
"dX c #2E77B7",
"fX c #8DE1E7",
"gX c #219DB8",
"hX c #83ECF0",
"jX c #6B7E8B",
"kX c #AEBCC2",
"lX c #96A9B2",
"zX c #3E85C5",
"xX c #1E5576",
"cX c #3889DA",
"vX c #778598",
"bX c #8CCBDB",
"nX c #72F0F4",
"mX c #627581",
"MX c #6396B6",
"NX c #5C98C3",
"BX c #D2E2E5",
"VX c #305C76",
"CX c #92C2CF",
"ZX c #38BFCF",
"AX c #4CC6D4",
"SX c #4092CE",
"DX c #919CA3",
"FX c #418EB1",
"GX c #86D7DE",
"HX c #5AB9CB",
"JX c #41A5C1",
"KX c #3997B5",
"LX c #63A2D1",
"PX c #78B8E7",
"IX c #2A8BBD",
"UX c #0F87C3",
/* pixels */
"$ > @ @ & < < @ & & $ $ $ $ @ @ & & < < & $ 6 6 7 7 7 6 6 < + & > 1 1 1 1 1 1 1 1 6 7 6 $ $ 6 $ @ < < + n g 7 =.O Q e * O Q 5 5 7 6 6 & g # > > r 7 ' =.[ ,.,.,.",
"1 1 1 1 $ @ < @ @ @ $ $ $ $ @ @ & & @ & + $ 6 7 L 7 # & < + + # @ > > > 1 r r 1 1 $ $ & g + g g + n n n n n < 6 d d 5 5 r # 3.g g [ [ ,.+ 1 5 r 3.;X' 6 g [ ,.,.",
"1 7 7 7 6 $ $ $ @ @ @ @ @ @ $ @ & & @ $ $ 7 =.=.=.L 7 L L L L L d d d d d d d d d L L 7 L L L L L L L L L L L L d L @ # # & # # + g & $ $ > > 3.r ' '.g [ g g [ ",
"r 5 d 7 6 6 $ $ @ @ @ @ @ @ @ @ & & & & L =X5.q q q q q q q q q q q q q q q q q q q q q q q q q q q q q q q q q q 5.=X$ + & # # # g # & # 3.3.3.'.s.$ [ g g g g ",
"5 5 7 7 1 1 $ $ @ # @ @ @ @ & & & & & < SXs o.8 8 8 f.f.8 8 8 8 8 8 8 8 8 ! w 8 8 ! 8 8 8 f.8 8 8 8 8 8 8 8 8 8 8 w s R.+ + + # # # # # # 3.3.r (.c g [ g g g g ",
"5 5 r r 6 1 1 $ > > > > > @ < < < < & < SX5.#Xa 5.r.r.r.r.q ).V r.iXt.5.a V kX<XuXt.iX&X( uX1.&Xr./ r.5.S.r.r.9.9.BXv.R.+ & & & # # # # 3.3.> =.dX'.> [ g g g g ",
"5 d 5 5 7 7 7 6 $ > > > > @ & & & & & < SX/.VXVXxX;.;.;.Z xX8XVXXXxXxX6Xu.6XB.mX&X;.O.O.*.( 9.;.O.O.O.O.;._ _ xXB lX .R.& @ @ @ @ # # # 3.3.3.=.' c =.g [ g [ n ",
"5 d d d d 5 5 r 1 > > > > > @ < < < < + SX9.s s s s s s s s s s lX .7X7Xe.>.>.O.>.T T R 8X5.7XR R R R Y *.`.w.w.`.w.q R.# > # # > > > > # # # 5 c s.'.> ,.,.,.,.",
"7 d d d d 7 1 1 > > > 1 1 > @ < 7 {.{.{.+X( #X#X6.8 2X2X#Xi.i.i.@.9X&.7Xe.4XT T T T T T k.5.4XT T T T >.*.a.P.a.a.a.P R.# > # # # > > > > # # > ;X' s.d [ ,.,.,.",
"5 d d d 5 r 1 1 1 1 1 1 1 > @ < {.Y.qXqXs t.$.$.#X6.^ J 6.z.K.v.v ).*.;.6X>.Y Y Y Y Y Y O.6X>.Y Y Y Y #.*.J $.$.$.$.P ] :X:XPXL # # # # # # # > r ;X(.'.6 [ ,.,.",
"e O e Q e Q 5 r 6 6 6 1 1 @ @ & SX:.b.~.A 5.$.$.#X6.:.a.8 6.kX2.P ).&.R R T.T.T.T.T.-.T.R Y T.T.T.T.T.R *.J J $.$.^ jX4 ~.f.Y.{.+ # # # > > # > # > '.' =.$ [ [ ",
"O O * O e e 5 5 7 7 6 L {.NX{.6 SXU.P.P.a <.,X$.#X6.:.a.w l ).| iX).<.d.d.d.d.d.d.d.d.d.d.d.d.d.d.d.d.d.| l.^ J a.0X| :.P.i.v.{.g # @ @ > > 1 > > 3.;X(.;X=.$ $ ",
"* O * ; O e Q 5 6 1 6 eXV >XkXeXeXU.J J V .X<.J 2X@.P $.A _.uXH.iXK.| p p p p p p p p p p p p p p p p p p = jX$.~.DX| ] J z.v.{.& {.LXLXR.6 1 1 r d ' (.;X;X=.d ",
"* * O e e Q 5 1 1 $ R.:.t p.l s B.U.J J V .XF.u.b.t.9.:XkX.XmX| S.a H.p = = = = = = = S 0 = = = = = = = = p .X:.~.s | ] J z.v.eXFXV ~ BXl.eXd ; '.(.wXs.d d 7 # ",
"* * ; ; O e 5 1 1 L bXo.p.p.p.o.<XU.J J V .Xp iXN.mXH.CXY.F.= S ..mX| = = = = = 0 0 0 3 : = = = = = = = = p tXe.2XjX| ^ J Z.Y.jXv.l p.p.qXl.(.' s.s.;X7 n n n n ",
"* ; % % ; e r 1 > {.J n.L.o.@.- r.,XP.$.a .X= iX@.pXp pXlXF.= = = F.S p = : g.{ 7.8.8.8.g.0 = = = = S S = = = 9.V tX| CXa.Z.Y. .>Xt w t l kX+X; 7 > g [ n n n g ",
"* * ; ; Q r 1 > > +XiXOXn.N.,X>.#.m $.$.V .X= iX<XF.= tX0X: S : q.q.q.q.0 { ;.Y |.%XKXgXO.{ S 0 S S 0 : 0 = p l.V F.| ^ J z.s VX).8 f.w 9Xe.=X[ [ [ g n n n n + ",
"; * * O 5 > > > R.lXBXJ.n.N.U.-.R m - - V .X= 0X0Xp = F.<.3 g.I k k k K u x.T.I.GX` @XAX!.].g.I { : f f : 0 = }.V F.| ^ J z.s VXe.bXP.@.A jXq 6 n n n n n n + & ",
"; ; ; O e Q 5 5 SXmXw.J.j.N.U.-.R m - - V .Xp ....p 0 : : { { u W W W K /.KXAX@Xt . ! c.+.k.{ 7.7.{ 7.7.{ f : H.s tX| ^ J Z.s xX6XCXP.i.`.5.A R.n + + + < $ $ $ ",
"; ; * O O O e e '.<. .j.N.~.HX!.T.m #Xf.A .Xp tXtXS 8.O.R R ].C b b b y /.:.w t . . w GXGX&.g.u B C C C B C u F.<.F.| CXf.! s #.k.9.$.i.w.:.).R.+ & $ $ $ 6 & & ",
"O O O e e e e e * |.l.A.J *.7X#.O.*.).@.v.F.= = = 0 ].!.AXh.R u B B B B B A U x x . w GXj.1.N W.) ) ) ) ) ) B S = = F.lXf.>XpX#.R 6X- i.uX:.a R.& $ $ $ @ & & $ ",
"O O O O O O O * i dX<.e.- _ Z ;.Z B.iXa. .= = = S g.Z gXn.M.!.3Xg.g.g.{ vXt   x . . w ` b.6.0.W.) E ) ) ) ) B S = = p mXZ.uX2.].x.VXa i.s 5.1.R.6 6 & & & & > > ",
"O O O * * O ; % 2 |.xXB.V 4XR R Y Z }.Z. .= S S : 3X;.D.n. XQ.!.T ].N l.9XX . . . . w ` b.6.}.C E E E ) E ) B S = = p pX).vXtXx.O.xXt.).VXVXq R.$ $ @ $ @ # # # ",
"O O O * * ; % 2 '.T R 7X( V.m =Xm V.2.<X .= S 0 f u ].D.n.-X@XM.AXKXl.m.U . . . . . w ` ~.8 9X/ k.k.G.G.G.E.I S = = p 2.kX| : Y -.k.5.a 6XxX}.{.< & & & & # # # ",
"O O O * ; ; % 9 2 IX-.&.v.<Xv v v a H.pXDX: q.I u N G.D.n.fXN. X-X@X6.. . . . . . . w A.f.8 t ` HX-.|.%XD.T.x.3 = = = tX_.| q.-.-.=X%.V 5.,Xe.MX6 & & & & # # & ",
"* * O O O i * % % -.F m l.P - - - a H.<.mXq.N N N C 7X+.n.$XN.c.fX@X8 . . .   . . . w ` ~.8 t ` ` c.HX+.M.ZX%X7.= = = = .XF.q.T F ,X%.lXu.- v / 7 $ @ & & # # # ",
"O O O e O * i * * -.F U.u.:.- - - a H.0 N K K K K 0.l.1Xb.t t b.` @X8 . . .   . . .   b.4.f.t ` ` GXn.1X-X-XJX3X: 0 = = p p q.T F U.u.l.P - v / L $ $ @ & # # # ",
"e e e e e O O e =.-.|.] 4 - CX- - a H.0 C W W W W b vX6.t     o.A.@X8 . . .   . . . X b.c.f.t ` ` GXN.N.b.@XHXG.7.: S = = p q.k.sX=X,Xz ,X,X,X&.7 $ & < & # # # ",
"O O O O ; * Q 5 d -.|.] - - - CX- a 2.: C k k W W y vX>XX x   o.` @X8 . . .     . x X b.` t t A.A.` ! X t @XHXG.{ : = = = = : 8.8.;.E.E././.8X4X7 $ < + # # # # ",
"O O O O ; O Q 5 =.T |.] 4 - - - - a 2.: B K k K E y vX>X. .   l b.4.8 . . .     . . X b.A.  t A.b.o.l X t A.1X8X{ : : : : 0 f k.>.r.t.q q q q V.6 @ < + # # # # ",
"* * * O e e e 5 c sXx.&.=Xm m m m / | 3 W b b C N 8XvX~ . .     t GX8 X . .   . . . . f.~.X t A.~.U .   t ` 1X+X/.f : : : 0 I T F ^ v 4 4 4 v / 7 < < + # # # # ",
"; * e 5 Q e e Q ' 8.{ /./././././.8Xq.: B K K C E &X>X. .       t A.! . . .   . . . . l x X t A.b.X . . t ` 1X=XE g.: : : 0 I F F ] 4 - - - v / 6 + + < # # # # ",
"O O O ; % 2 2 ; s.>.|.5.( ( ( ( ( lXH.f k y y b 9.t.~ X         l w x . . . . x x . . . x   t A.b.X . . t ` 1X=XE { : : : 0 I |.>.,X:.:.:.:.:.m 6 g + < & # # # ",
"% % % 2 2 M 2 * s.T F ] 4 - - - - a 2.f k y y b &Xs ~       . . .         . . . . . . .     t ` ~.X .   l $X1Xm C u : : 0 0 f 8.8.G._ _ _ _ 7X4X6 < < $ 6 7 7 6 ",
"; ; ; ; % 2 2 % s.Y |.] 4 - - - - a 2.f k y y b S.s ~       . . . .       . . . . . . . . . t 8 o.. .     t P.b u { : : 0 S f Z ;.V.9.9.9.9.0X*.d 1 r d =.=.=.d ",
"% ; ; % 2 2 2 % s.>.k.MXP P P P P u.H.f k y y b S.s ~ .                   . . . . . . . . . . . . x . .   l a.m E u f 3 3 0 I %X%X^ v v v v uX%.;XO O e d 6 7 d ",
"% % ; ; % 2 2 % (.3X7.G._ _ _ _ _ 7Xq.3 C W W 0.9.s ~ .                 . . . . . . . . . . . . . . . . . l a.m E u f 3 : 0 I F F ] 4 - - - v %.;Xe r > > > $ 1 ",
"2 % % ; ; % % % ' k.k.r.t.t.t.t.t.q | 3 N C C K }.s ~                   . . . . . . . . . . . . . . . . . l z.m E u f 3 : 0 I >.>.,X:.^ ^ ^ 1.%.d 1 > # @ @ $ @ ",
"% % ; ; ; % % i s.Y F ^ v 4 4 4 4 a 2.f W y y b &Xs ~                     .         . . . . . . . . x . . l z.m E u f : : 0 f 3X7.k.k.G.G.G.7X&.$ # # # & & @ & ",
"% % ; ; ; ; ; * s.Y 4X] 4 - - - - a 2.f k y y b S.s ~                 . . .         . . . . . . . . . . . l z.m E u f 3 : 0 3 3X].y }.}.}.}.l.*.$ + + + & < & & ",
"% % ; ; * ; ; * s.k.O.MXP P P P P u.H.f k y y b S.s ~ X             . . . . .       . . . x x . . . . . . l z.m E u 3 3 : 0 I -.-.^ uXv v v uX/ 6 + < < < < & & ",
"% % ; ; * * * O ' 8.g.x.G._ _ _ _ 7Xq.f k y y b S.s ~ X             . . . . .     . . . . . . . x . . . . x z.%.E u 3 3 : 0 I T F ^ 4 - - - v / 6 & & & & & < < ",
"; ; ; ; * * * O ' O.O.%. . . . .5. .| : N B B C }.s ~               . . x . .     . . . . . . x x . . . . x z.*.u { : : 0 S I F F ] 4 - - - v / 7 & & & & & + + ",
"; ; ; ; ; ; ; * s.T F ^ v v v v v a 2.3 K 0.0.y 9.s ~ .             . . x x .           . . . x x . . . x x z.V.C u f 3 : 0 I F F ] 4 - - - v / 7 & & & & & + & ",
"% % % % % % % * s.Y |.] 4 - - - - a 2.f k y y b &Xs ~               . . . .             . . . . . . . . . l z.%.E u f 3 : 0 I F F ] 4 - - - v / 7 & & & & & & & ",
"% % % % % % % i s.Y |.] 4 - - - - V 2.f k y y b S.s ~               . . . .           . . . . . . . . . . x z.%.E u f 3 : 0 I Y |.U.4 - - - a %.6 & & & & & & & ",
"% 2 2 % % % % i ' x.].&.m &.&.&.&.9.| f k y y b S.s ~ X             . . . .           . . .     . . . . . x z.%.E u f 3 : 0 q.].3X4X&.&.&.&.m &.6 & & & & & & & ",
"2 2 2 2 2 % 2 i (.8.7._ W.W.W.W.W.y q.3 B k k W l.s ~ X               . .             . .       . . . . . x Z.*.B 7.3 3 : 0 3 7.7._ ) ) ) ) 6X*.6 & & & & & & & ",
"2 2 2 % 2 % % % ' Y %XP `.a a a a Y.2.f W b b b 9.s ~ X                                                   l Z.V.E N q.f 3 : I T %Xe.a a a a a %.7 @ @ & & $ $ $ ",
"% % % % % % ; * s.T F ^ 4 - - - - a 2.f k y y b &Xs ~ X . .                                     . . . .   x z.%.E u f 3 : 0 I T F ^ 4 - - - v / 7 @ @ @ $ $ $ $ ",
"2 2 % % % % ; * s.Y F ] 4 - - - - a H.f k y y b &Xs ~ o.w       . .                         . . l o.w t   x z.m E u f 3 : 0 I T F ] 4 4 4 4 v / 7 $ $ $ $ 6 6 6 ",
"2 2 2 2 2 2 % 9 ' sXx.+X/ / / / / &X| f k y y b S.t.6.$Xb.w w o.t t t o.w l         x     . l o.! N.w ~.! o.a.m E u f 3 : 0 q.sXx.+X%.%.%.%./ &.7 $ $ $ $ 6 6 $ ",
"2 o 2 2 2 h 2 h dX3X8.G.) ) ) ) ) b | f k y y b S.q >XU o.$Xb.~.b.$X$Xb.b.t X t N.! t l . l ! b.8 t p.o.b.j.bXm E u f 3 : 0 3 8.8._ W.W.W.W.6X4X6 @ @ $ $ 6 $ $ ",
"2 h h h h h cX' wXY %XP V V V V V Y.H.3 B K K k l.5.i.w p.U l l b.` A.b.w X U l f.A.b.f.N.$XN.o.U p.p.p.o.o.P.*.N I : : : 0 q.Y T P V V V V V %.7 @ @ $ $ 6 6 1 ",
"cXc s.s.' (.wXwXrXY |.^ 4 - - - - a 2.f K W W 0.V.r.1XbXA.L.L.N.$XL.L.n. Xj.L.L.L.j.$XL.L.L.j.n.t p.o.N.n.` 1X*.B u 3 3 : 0 I T F ] 4 - - - v MX7 @ @ @ $ 6 6 6 ",
"(.wXwXwXwXwX(.' (.Y |.] 4 4 - 4 4 a 2.f W y y b S.5.@.f.~.-X-XfXOXOXOX XM.yXOXOX XoX X X-XOX-XoXfXj.n. XfXf.bXm W.u f 3 3 0 I T F ] 4 - - 4 v MX7 > > @ $ $ 6 6 ",
"(.c cX'.M h h , ' sXx.m z z z z z z | f k y y b 9.5.w L.^.hXhX XOXJ.[.yXQ.J.D D oXoXOX-XD } hXyXOX-XfXOX4.J.1Xm W.u f 3 : 0 { ;.x.m z r.r.r.z +X6 > > > 1 1 6 6 ",
"; e O O ; % M o dX8.{ E.E.E.E.E.E.8Xq.f K W W W 0.*.U.yXM. XhXoX} y.D C.h.4.D nXM.oXhXD ^.^.[.yX} } -XM.M.I.FX8XN I 3 : : 0 3 7.{ E./.N N N _ F r > 1 1 1 r r r ",
"e O ; % % 2 h zX&XkXw.w.w.w.w.w.w.w._.| u C C C 0.b &.I.j AXD yX} y.D C.5XD.@XnXM.oXhXD y.^.C.C.J.J.M.5X*X!._ N N u : : 0 H. .`.w.w.w.w.w.w.w.1.LX7 1 1 r r r r ",
"; % 2 M M o cXq ~ 6.2X#X#X#X2X2X2XZ.6.v.K k W k W y *.gXh. X} [.J.y.D C.*XD.HX[.h.M.D D L.^.C.C.J.} oX5X*X-.u C K N f 3 | Y.f.#Xi.i.i.i.2X2XZ.8 K./ d 1 r r r r ",
"M M M M h o zXa ~.z.] u.P u.u.,XCX$.z.m.0.B C C C k 8X!.5XyX} [.J.y.D C.*XD.JXyXM.yXD D ^.^.C.C.J.} *X5XZX>.7.B B u 3 : ..6.Z.$.u.u.P P u.P J z.6.<X=.1 r 5 5 r ",
"% 2 2 2 2 9 zX1.^ <X_.`.qXqXA _. .t.uXm...K 0.0.0.K u 8XgX XD [.J.y.D C.*XD.!.AXoXC.D hXn.^.C.C.} J.Q.5X%X3XI B B u f 3 K 6.K.s jXY.qXqXA 0Xs e.- u.=.1 5 * * e ",
"% % % 2 % ; dX<...`.>Xl 8 ! o.o.9XDXuX@.B.0.V.V.V.*.N B T.oXD [.J.y.D C.M.D.gXAXoXnXD OXJ.y.nXnX} -X+.ZXG.7.N C C N f 3 <.@.a v.>Xt ! 8 l >XqXpXW.8Xe Q * % ; % ",
"% % % % 2 '.MXjXpXY.6.V ,XU.CX6.z. .t.q <.K y y b y B N -.M.D [.} y.D C.j D.M.Q.5XnXD } } y.nXnX} M.5XJXE.N W W K u 3 3 B.t.0X<X6.Z.U.U.V @.`.pXV.V.'.; % % O O ",
"2 % % % zXt.>X>XqX_.V G.O.G.l.DX .A t ~ DX<.K k k W B N %XJXOX[.} y.D oXj j *X*X5X[.D } ^.y.[.hX} oXM.JX_ B y y K u f jX9Xt 9XDXDXS.>.k._ CX .kX! BX<XSXO e Q 5 ",
"2 % % M &X6.i.Z.6.mX0X|.+XaX8XkXBX8 ! ! ! DX<.K K k N u 4X!.AX[.} y.D oXh.j h.*X5XyXD } ^.y.OXJ.} hX XKXE.N 0.0.K u ..BX! ! ! 8 9Xb NXFX>.iXl.K.Z.@.8 PX5 r 1 1 ",
"2 % % zXq ^ JX+Xz FXG.NXaXF V.i.P.P.P.P.:X6.}.}._. ._._.u.] bX^.L.o.y.n.4.c.c.fXfX` ^.y.L.o.^.y.L.^.P.P _._. ._.0.pXvX2XP.a.a.a.6.V.FXU.FX8XsX+XFX+Xe.PXQ r r r ",
"2 % M MX1.IXUXrX%XgXk.^ +XG.V 2X:X:X:X:Xa.@.&X- N.w 8 f.! w w w w w w w w w w w w w w w w w w w w w w 8 ! ! f.i.,X .lXZ.:X:X:X:Xa.Y.F +X-.rXrXrXwXrXm ^ LX=.Q 5 ",
"2 M ' V.l.sXrXx.*.4 1.:.&.9.f.J J J J J U.Z._.*.9./ %.%.z z z r.r.r.z r.z z z z z z z z z z z z z z z z z %.V.S.0X0X`.J J J J J :.@.Y.x.sXx.sXsXrXrXx._.`.=X;XQ ",
"2 eXv.9XA 5.5.<X9Xp.l ).( A 8 @.@.@.@.@.).BXlX8XE.E.4XMXc.c.c.c.c.c.c.c.c.c.c.c.c.c.c.c.c.4.4.4.4.4.c.4.1X4X6XA w V w.@.@.@.@.@.#Xf.BX( ( ( 1.1.1.1.1.K.~ 9XP =.",
"M aX4 4 CX<Xu.( e.P P e.e.1.( V a ( ( V 6.`.s /.].].!.Q.ZXZXI.I.I.I.I.I.I.I.I.I.I.ZXZXQ.Q.Q.Q.Q.Q.Q.Q.Q.5XD.m :.^ r. .w.Y.( ( 1.V e.1.( e.( 1.e.e.e.1.e.1.:.q R.",
"M M '.M dX............B.B.B.B.B.B.B.N I B.N O.!.!.!.D.+.+.+.+.+.+.+.+.+.+.+.+.+.+.+.h.h.h.h.h.h.h.h.h.h.h.+.gX!.T.>.u 2.I q.2.B.B.....................) zXzXzXO ",
"M M 2 2 zX`.m.m.m.m.m.K.K.K.K.K.K.m.}.3 { 7.E.#.T.gXj H j j j H H H H H H H H j H j j j j j j j j j j j j j j gXY x.7.f f 3 jXm.K.K.K.K.m.m.m.m.m.m.m./ e Q Q 5 ",
"M M M 2 c aXNXNXNXNXaX<X( ( ( Y.0XB.u : g.{ 8.8.8.O.gXD.H H H H H H H H H H H H H H H H H H H H H H H H H H D.>.8.7.{ f 3 : | l.( 1.1.<X/ aXaXaXaXaXNXeXO e r r ",
"M M 2 M 2 M M M M 2 X.^ ( v.v.Y.vX<.K <.<.<.B { 8.].Y G G G G G G G G G G G G G G R G R G G G G G G G G G Y 4X6XK <.<.<.2.2.2.pXv.v.v.q '.2 % % % ; O Q 5 5 r Q ",
"2 2 2 2 2 2 h M 2 2 2 2 eX`.A A A A A A A qXv.;.;.;.O.#.#.#.#.#.#.#.#.#.#.#.#.O.XXXXXXXXXXXXXXXXXXXXXXXXZ 3X .A A A A A A A A A A A w.=X2 % % % * Q 5 Q 5 r 5 * ",
"o o o o h o h h h o o 9 c X.X.X.X.X.X.X.X.X.X.dXdXdX>.k.k.;.;.Z XXZ Z Z Z Z Z XXZ Z Z Z Z Z Z Z Z Z Z Z ].3X8XeXX.X.X.X.X.X.X.X.X.X.X.X.i % % ; ; * O O O e O * ",
"h h h h h h h h h h o o o o o o o o 9 , 9 9 9 , 9 o o h h cXcXc c c c c c c c c c c c c c c c c c c c c s.c M 9 i i , 9 9 9 9 9 9 9 9 i i 2 2 % % ; ; O O * * * ",
"h h h h h h h h o o o o o o h o h o 9 9 9 o o o o o o o o o o , , , , , i i i , , 9 o , , , 9 9 , i i i , i , , i i , 9 9 9 9 9 9 o o 9 9 2 o o 2 2 % % i i * % ",
"o o o o o o h o o 9 o o o o h o o 2 9 9 o o o o o o o o o o , o , , , 9 9 9 9 9 9 o h h o 9 , , , , , , 9 9 9 , , , , 9 9 9 o h h h h 9 9 2 2 o 2 o 2 2 i i i 2 "
};
