/* XPM */
static char *fire_resized[] = {
/* columns rows colors chars-per-pixel */
"80 80 249 2 ",
"   c #A43030",
".  c #D60B09",
"X  c #DD1C16",
"o  c #EB0B05",
"O  c #E31B13",
"+  c #DC2E0E",
"@  c #F12E09",
"#  c #F73B03",
"$  c #DE3932",
"%  c #E52F25",
"&  c #B76A1C",
"*  c #A15F21",
"=  c #876922",
"-  c #DC4306",
";  c #DE5B18",
":  c #F54905",
">  c #FA4C04",
",  c #EC520F",
"<  c #F95704",
"1  c #F4530C",
"2  c #E64C14",
"3  c #F84C17",
"4  c #E65813",
"5  c #C76B0E",
"6  c #E8680E",
"7  c #FA6304",
"8  c #F76907",
"9  c #FB6C05",
"0  c #ED7A0A",
"q  c #F57706",
"w  c #FC7502",
"e  c #F57B03",
"r  c #FB7A02",
"t  c #F5760A",
"y  c #FA760B",
"u  c #E66618",
"i  c #EE7911",
"p  c #F57817",
"a  c #C85727",
"s  c #EF502D",
"d  c #E85E28",
"f  c #C56536",
"g  c #E76B2D",
"h  c #F47A27",
"j  c #EF6830",
"k  c #B46B6B",
"l  c #DC5854",
"z  c #E04844",
"x  c #DC644D",
"c  c #ED7847",
"v  c #F17E58",
"b  c #D56562",
"n  c #EB7D6B",
"m  c #B58E0D",
"M  c #978831",
"N  c #B39D20",
"B  c #DE9200",
"V  c #EE8301",
"C  c #E88B06",
"Z  c #F58003",
"A  c #FB8303",
"S  c #FC8C03",
"D  c #F78708",
"F  c #EC9301",
"G  c #E39708",
"H  c #F69403",
"J  c #FC9302",
"K  c #F59906",
"L  c #FA9B02",
"P  c #EC8A13",
"I  c #E89817",
"U  c #D3AD16",
"Y  c #E9AB03",
"T  c #F5A303",
"R  c #FAA303",
"E  c #F6AD03",
"W  c #F9AB03",
"Q  c #F5AC0B",
"!  c #F5B205",
"~  c #FABC05",
"^  c #F9B708",
"/  c #E3AE15",
"(  c #F8AE19",
")  c #F8B316",
"_  c #EC8229",
"`  c #F48324",
"'  c #F2852C",
"]  c #F19528",
"[  c #EA8938",
"{  c #F58937",
"}  c #EB953F",
"|  c #F19634",
" . c #F1B436",
".. c #EFC405",
"X. c #F8C606",
"o. c #F9CB09",
"O. c #FAD304",
"+. c #FBDC04",
"@. c #F5D709",
"#. c #FAD20B",
"$. c #FCDC09",
"%. c #F7C911",
"&. c #FADA14",
"*. c #FDE405",
"=. c #FCED04",
"-. c #FDE40A",
";. c #FCEC0B",
":. c #FCF103",
">. c #FCF10B",
",. c #FBE314",
"<. c #FCEB13",
"1. c #FBF114",
"2. c #FAF21A",
"3. c #CFCB3C",
"4. c #F4CB30",
"5. c #F9EA27",
"6. c #FBF322",
"7. c #FCF42D",
"8. c #F9E936",
"9. c #FBF634",
"0. c #FCF73A",
"q. c #FCF53D",
"w. c #AB9050",
"e. c #9A8267",
"r. c #A1946A",
"t. c #D58D55",
"y. c #E68A4C",
"u. c #F39848",
"i. c #E89654",
"p. c #F29C58",
"a. c #ECAC45",
"s. c #F2A64B",
"d. c #F2B252",
"f. c #DB956E",
"g. c #ED8860",
"h. c #E89861",
"j. c #E89B7C",
"k. c #CDA975",
"l. c #E8AA79",
"z. c #F1AD79",
"x. c #EEB077",
"c. c #D8C54C",
"v. c #F4CA48",
"b. c #F9D34F",
"n. c #F4CE5C",
"m. c #F5E44B",
"M. c #FCF847",
"N. c #FBF855",
"B. c #FDFB5C",
"V. c #C7C273",
"C. c #E1D463",
"Z. c #F9D465",
"A. c #EDEC67",
"S. c #F9E86B",
"D. c #FDFD64",
"F. c #F6F46D",
"G. c #FCF36C",
"H. c #FDFD6C",
"J. c #E5E078",
"K. c #F9EC72",
"L. c #FCF572",
"P. c #FCFD73",
"I. c #FBF979",
"U. c #B3A585",
"Y. c #B1ACA8",
"T. c #D79190",
"R. c #E68D88",
"E. c #E59985",
"W. c #DDAB89",
"Q. c #D8B393",
"!. c #E5A78A",
"~. c #EBB388",
"^. c #F0B98B",
"/. c #E6B492",
"(. c #E7B998",
"). c #D2A9AB",
"_. c #D9B6A5",
"`. c #D9BDB8",
"'. c #E3BCA9",
"]. c #E9BFB0",
"[. c #D6CF8C",
"{. c #E8C196",
"}. c #F8F786",
"|. c #EDEB95",
" X c #C7C3BF",
".X c #D9C8BA",
"XX c #DBD4B2",
"oX c #E8C5A9",
"OX c #E9CDBA",
"+X c #EED2B0",
"@X c #EBE6A9",
"#X c #F6F5A4",
"$X c #EEEEB7",
"%X c #CBC5C6",
"&X c #DBCACA",
"*X c #DAD8CC",
"=X c #C5C7DB",
"-X c #D4CCD4",
";X c #D7D5D7",
":X c #E9CEC7",
">X c #E8D7C8",
",X c #F2D4CB",
"<X c #E4DBD3",
"1X c #E8D9D5",
"2X c #E2DDDB",
"3X c #EAE8CA",
"4X c #F1F1CA",
"5X c #E4E2D4",
"6X c #EDE1D5",
"7X c #ECEBD3",
"8X c #E4E3DD",
"9X c #ECE9DD",
"0X c #F3E6DB",
"qX c #F2F2D5",
"wX c #C1C7E2",
"eX c #C6CBE4",
"rX c #C9CEE4",
"tX c #CCD1E5",
"yX c #D3D6E4",
"uX c #D6D9E5",
"iX c #DBDDE5",
"pX c #D1D7E9",
"aX c #D5DAE9",
"sX c #DBDEE9",
"dX c #E0DFE5",
"fX c #E0DFE9",
"gX c #DFE0E7",
"hX c #DEE1EA",
"jX c #E3E4E6",
"kX c #E8E6E6",
"lX c #E7E8E7",
"zX c #EAE9E7",
"xX c #E4E5EA",
"cX c #E8E7E8",
"vX c #E7E8EC",
"bX c #ECEBEB",
"nX c #F4ECE3",
"mX c #F0EFEC",
"MX c #EFF0EE",
"NX c #F4F0E6",
"BX c #F2F2EE",
"VX c #E3E6F0",
"CX c #E6E9F0",
"ZX c #ECEDF0",
"AX c #F0EFF0",
"SX c #EFF0F0",
"DX c #F6F5F1",
"FX c #F8F7F2",
"GX c #FAF9F4",
/* pixels */
"jXjXzXmXBXFXFXFXDXmXbXzXzXzXbXzXzXzXzXbXzXlXzXzXzXzXbXMXbXbXbXzXbXBXmXzXmXzXbXbXzXzXbXzXvXcXcXcXcXbXbXzXzXbXmXmXbXbXmXbXmXmXbXmXBXbXbXbXbXmXbXmXzXzXzXbXzXzXkXkX",
"iXjXbXmXFXFXFXFXFXBXBXbXbXbXzXbXzXzXzXzXzXzXzXzXzXzXzXzXbXzXcXbXbXbXbXbXzXbXmXzXcXcXbXvXcXcXcXbXzXcXbXbXbXzXbXbXzXmXbXbXmXmXmXmXbXbXbXzXbXmXmXmXzXzXkXbXzXzXkXkX",
"dXjXbXBXGXGXGXGXFXDXBXBXBXbXbXzXzXzXzXzXzXbXzXzXbXzXzXbXbXcXzXzXbXbXbXzXzXzXzXkXkXkXxXxXcXvXcXcXkXcXcXcXcXbXbXbXkXbXzXbXbXbXbXbXzXvXjXkXbXbXbXzXbXbXzXmXzXzXkXkX",
"dXxXbXDXGXGXGXGXFXDXBXBXmXBXbXmXbXbXbXbXzXbXNXbXzXzXzXbXzXkXcXzXcXzXzXmXmXmXzXbXkXkXkXkXcXcXcXjXfXcXjXjXjXjXjXcXxXkXvXxXxXxXxXxXxXvXzXbXmXzXbXmXmXbXmXmXbXzXzXkX",
"jXjXvXZXDXDXFXFXFXDXDXbXmXBXmXbXbXbXmXbXbXmXbXbXMXzXzXbXzXzXzXzXzXzXmXmXmXmXmXmXbXbXcXkXkXcXkXcXcXcXcXcXjXjXjXjXxXzXkXzXxXxXvXjXzXbXzXmXBXbXmXBXmXmXmXmXmXbXbXzX",
"jXjXsXxXvXCXZXAXDXDXbXDXmXbXbXmXmXmXNXmXBXBXBXDXBXNXzXzXzXzXzXbXbXnXmXmXmXmXmXmXmXmXmXkXjXcXcXcXbXcXzXmXmXbXcXcXbXzXbXbXbXbXbXbXmXBXBXBXBXBXBXBXNXmXBXBXBXmXbXzX",
"jXjXsXhXjXVXxXCXCXCXbXbXbXmXBXBXBXBXBXBXBXBXDXFXFXMXmXNXbXzXbXbXBXBXmXBXBXBXBXBXmXmXmXvXcXcXcXxXcXcXcXcXcXbXbXbXbXbXbXbXbXmXDXbXBXBXBXBXBXBXBXDXDXBXFXDXBXmXmXmX",
"sXhXxXVXxXxXhXxXxXvXbXzXBXNXFXFXBXFXFXBXFXFXFXGXFXFXBXBXDXbXBXbXbXbXmXmXBXBXFXFXFXDXmXbXcX2XjXjXfXdXfXdXcXcXbXbXbXbXbXbXBXmXmXmXBXBXBXBXBXBXBXBXBXDXBXmXmXBXbXbX",
"gXxXhXxXxXhXhXxXxXVXvXvXZXFXDXFXDXDXDXDXDXFXGXGXGXGXFXBXmXmXmXmXzXzXzXvXZXAXDXGXDXAXAXbX<X{.;XfXdXuXuXiXdXcXcXvXcXzXbXbXbXmXmXbXbXBXBXBXBXBXBXBXBXDXBXBXBXBXMXbX",
"hXhXhXhXhXhXvXvXxXvXbXZXFXBXBXBXDXDXCXDXAXFXGXFXFXFXFXBXmXmXmXbXzXxXxXhXfXVXfXcXfXbXbXcX*XoX@X8XiXdXdXfXfXfXjXjXcXzXbXbXbXmXmXAXBXBXBXBXFXFXFXDXFXFXFXBXBXBXBXbX",
"vXlXlXvXbXbXlXbXvXbXZXDXDXDXmXbXCXbXVXVXjXvXZXDXBXBXmXBXmXmXbXcXcXfXsXiX-X-XyXaXiXiXfXfXjX5X@X3XdXfXcXcXcXjXcXvXbXvXbXbXmXmXBXBXBXbXmXBXBXFXFXFXDXFXFXFXFXBXBXbX",
"vXlXbXMXZXDXBXbXZXDXBXBXBXDXbXxXhXaXaXaXtXpXiXjXzXmXbXmXmXmXmXvXfXdXiX).l z b ).&XsXsXfXjXdX2XjXjXcXcXvXjXcXcXvXvXbXmXmXmXBXBXBXDXbXbXbXbXBXBXBXBXBXDXFXFXFXBXbX",
"DXSXBXDXBXFXDXMXBXmXDXBXBXbXxXsXsXaXaXaXpXaXaXsXjXbXbXbXbXbXbXbXvXcXdXR.% o .   k ).OX&XdXiXaXsXfXfXxXxXjXxXvXvXvXbXbXmXBXDXBXBXDXbXzXxXxXxXvXhXxXhXlXvXlXMXBXMX",
"FXDXDXFXFXFXDXFXFXDXDXDXmXbXhXsXsXsXsXaXsXsXsXsXjXcXcXbXbXbXbXAXmXbXxX1X).X o . . X % d '.dXsXhXfXsXfXfXjXvXcXvXvXcXbXbXbXbXmXbXbXbXbXjXgXhXhXsXhXaXuXuXhXjXbXMX",
"DXDXDXFXFXBXFXFXFXBXBXBXzXxXhXhXhXhXhXhXsXhXsXxXjXcXcXbXbXbXbXmXmXmXbXvXdXb $ X O o # < g.Q.'.OXxXjXvXvXxXvXvXvXvXcXcXcXbXbXbXbXzXzXxXjXgXhXhXhXhXhXhXaXaXgXxXzX",
"FXDXFXFXFXBXBXFXFXBXBXzXxXhXsXsXhXhXhXsXjXsXsXjXcXbXvXvXbXcXbXmXmXmXmXmXCXdX:XT.x # < w 8 i p y.dXcXvXvXvXvXbXvXvXvXcXzXcXkXcXcXjXzXkXxXgXhXhXgXhXhXgXhXiXiXxXzX",
"FXFXFXFXDXDXSXDXDXbXbXxXjXiXhXhXgXjXjXVXhXhXxXxXvXvXvXvXbXbXmXmXBXBXBXMXMXMXlX9Xj.< 7 w V e e _ Q.XXbXbXbXbXbXbXbXbXbXcXvXcXcXcXlXjXjXjXjXjXvXjXhXjXsXhXjXxXjXjX",
"DXDXFXFXFXDXBXBXSXbXzXxXjXjXsXjXhXjXjXvXxXxXxXxXxXvXvXzXzXbXmXAXBXBXBXBXMXDXBXBX~.y w w C C e 0 I {.DXZXAXZXbXbXbXvXcXcXbXcXbXbXlXjXlXlXlXlXlXbXbXbXbXbXbXzXbXbX",
"FXFXFXFXDXDXBXBXbXzXxXlXxXzXxXxXvXjXxXvXxXvXvXxXlXbXzXzXzXmXAXmXBXBXBXFXBXFXDXNX^.w r r  .4.C V V ~.ZXmXmXmXmXmXAXbXbXbXbXbXcXjXjXjXlXzXzXbXbXbXbXbXZXbXBXBXmXBX",
"FXFXFXDXBXBXBXMXbXzXlXzXvXvXbXxXvXvXxXzXbXbXbXlXzXzXbXbXbXmXmXmXBXBXBXFXBXBXDXDX{.p y q v.A./ C r z.bXDXDXmXAXmXAXAXZXbXcXcXjXjXlXlXzXzXzXbXbXbXBXBXBXDXBXBXBXFX",
"GXGXFXFXBXBXMXbXbXzXbXbXzXbXbXNXbXbXbXbXbXbXbXbXbXbXbXbXbXBXBXMXBXBXMXBXBXBXFXDX0XoXu.w I / @.^ e z.mXmXmXmXAXZXAXmXcXvXjXjXjXcXlXzXzXbXMXbXBXbXBXBXBXBXmXBXBXFX",
"GXGXFXDXDXBXMXMXzXzXzXbXbXMXbXbXbXbXmXBXMXDXBXmXBXBXmXNXNXbXBXBXNXMXBXBXBXDXBXBX1X+Xu.w G Y *.o.e z.mXAXbXmXbXbXbXcXcXcXkXjXxXcXlXzXzXbXzXbXNXbXmXBXBXBXBXBXBXFX",
"GXFXDXDXDXBXMXbXmXNXBXbXBXNXBXBXBXmXbXBXBXBXDXBXBXbXMXNXMXbXbXMXBXMXBXBXMXMXNXzX~.p y r %.;.:.X.r z.bXCXbXvXvXcXcXjXjXxXxXjXxXbXbXzXzXzXzXbXBXBXBXBXBXBXBXBXFXFX",
"FXFXDXFXBXBXBXNXbXBXBXBXMXDXBXBXBXBXBXmXmXDXBXmXBXBXbXbXbXBXBXBXBXBXBXBX9XoXl.f.g D Z Z O.=.o.Q e l.jXjXjXxXdXjXjXfXjXjXjXcXcXmXBXbXNXmXbXbXbXNXbXBXDXBXBXBXBXFX",
"FXFXFXDXBXBXBXBXBXBXBXBXBXFXBXBXFXBXBXBXBXBXBXBXBXBXbXbXbXBXBXBXBXBXBXDX>X_ q q Z J F B @.$.Z r t k.yXyXyXyXyXiXsXfXdXdXcXmXmXmXBXbXBXbXmXbXzXbXbXmXmXmXmXmXBXmX",
"FXDXDXBXBXBXBXBXBXBXBXBXFXBXBXBXBXFXBXFXBXBXBXBXBXBXbXNXBXBXBXBXDXFXBX+Xi.i r A A H F F ! ^ e 0 t.).=XwX=XwXeXrXyXyXuXsXbXDXFXAXBXmXBXDXBXmXmXzXcXzXbXcXzXvXbXbX",
"DXBXBXBXbXbXbXMXBXBXBXFXBXFXBXFXBXFXFXBXBXBXBXBXBXbXBXDXBXFXDXDXFXBXNXz.y S J J F B F J Z q y y.=XrXeXeXeXwXeXeXeXrXrXpXvXDXFXDXBXDXBXDXFXBXBXbXzXzXcXjXjXjXxXcX",
"BXBXBXMXbXbXbXMXBXBXBXBXBXFXBXBXBXFXFXBXBXBXBXBXBXFXBXBXSXDXDXFXFXFXNXp.r J L X.X...T D i.W.W.`.yXyXpXrXeXeXrXeXeXeXeXtXaXvXDXDXDXDXFXDXBXBXBXzXzXmXzXjXjXdXjXcX",
"BXFXBXBXbXMXzXbXbXbXbXBXBXBXBXBXBXBXBXBXBXBXBXBXBXBXDXDXBXFXDXFXFXFXnXp.r J R -.=.-.W y _.yXyXaXyXyXuXpXaXpXtXrXeXrXrXrXrXaXcXmXDXFXFXDXmXDXmXbXbXmXzXkXxXcXcXbX",
"BXBXDXNXbXNXBXBXMXNXBXBXBXBXBXBXBXBXMXbXbXzXbXzXzXzXbXDXDXDXDXFXFXFXNXp.y J W =.@.! S y _.yXyXaXsXsXsXsXaXsXuXpXyXyXpXyXrXyXuXfXlXMXMXDXDXNXmXmXmXbXzXzXcXcXcXbX",
"NXMXMXbXBXBXBXbXBXBXBXBXFXBXBXBXBXbXbXlXxXxXgXgXjXgXjXzXbXDXDXDXFXFXBX~.' S E *.o.H A e Q.-XyXyXsXsXfXsXsXfXfXdXsXsXsXiXiXpXuXaXsXjXbXbXbXbXmXbXbXbXzXvXjXkXkXcX",
"bXbXbXMXbXbXbXBXbXBXBXFXBXBXBXbXlXjXhXhXiXsXsXiXsXsXgXxXxXzXbXDXFXFXFXnX+X` K -.o.J J J ` y.-XaXsXsXfXfXjXdXfXjXjXxXcXjXcXcXfXaXiXgXjXjXxXcXcXzXkXcXcXxXjXjXjXiX",
"BXBXbXBXBXBXbXDXBXbXBXAXbXcXvXjXsXhXsXhXsXsXhXsXsXsXfXxXfXxXxXCXzXbXbXbX6X{ L -.+.! R S r p W.:XxXlXvXvXcXcXxXjXjXkXcXcXbXmXzXcXzXxXjXjXjXxXgXgXsXiXiXuXuXiXjXcX",
"FXFXFXFXBXBXBXbXbXBXbXzXjXsXpXpXyXaXsXhXjXsXCXhXfXxXxXxXCXxXjXfXxXxXxXxX<X{ H -.=.=.~ J A r p i.zXBXZXbXmXbXbXbXcXcXzXzXmXmXmXbXbXzXzXlXzXjXjXiXiXyXyXyXyXiXjXjX",
"bXFXFXFXFXBXDXbXBXbXbXxXsXaXpXuXaXaXaXsXsXjXxXsXxXxXvXvXCXcXxXcXxXhXvXxX<X| L *.:.:.O.~ H A r ` /.6XBXBXBXBXBXBXbXbXbXmXmXmXmXbXbXmXbXzXzXzXlXxXjXjXiXiXyXiXyXiX",
"uXhXxXbXBXmXbXbXbXbXzXcXfXaXaXuXuXsXsXhXhXsXxXxXxXvXvXCXCXvXcXCXCXvXvXiX.X] W -.;.:.>.<.W S r w p /.BXDXDXBXBXBXDXmXDXmXmXBXBXBXmXBXBXZXbXMXbXzXkXkXjXjXjXiXiXiX",
"tXtXyXiXjXjXjXzXzXzXxXxXjXsXaXyXyXaXaXsXsXfXjXfXxXxXCXvXZXCXZXbXbXCXjX/.[ H L ! O.=.6.q.Q J V Z e ~.SXbXDXMXBXBXFXBXFXFXBXFXFXBXFXFXFXDXBXMXSXSXzXbXzXzXzXbXxXjX",
"iXuXyXtXyXuXjXkXzXzXvXzXvXxXsXuXuXuXaXsXsXfXvXvXCXxXvXvXbXZXZXAXAXZXnXp.w S J J ^ ;.M.D.( H C V 0 l.vXbXbXbXBXBXBXFXFXGXFXFXFXFXGXGXFXGXFXDXDXSXBXmXBXbXbXbXbXCX",
"xXxXiXyXyXyXiXgXjXjXxXzXbXzXzXxXjXjXjXgXfXcXxXbXbXvXvXZXAXAXAXmXmXDX9Xp.r J J J ^ ;.0.L.( J Z w w z.zXbXbXCXBXFXFXFXFXGXGXGXFXFXGXGXGXGXGXGXGXFXBXBXBXBXmXBXDXFX",
"bXbXjXiXuXtXuXiXjXxXxXzXbXbXBXBXbXBXzXzXbXbXZXbXbXZXbXbXAXAXmXmXmXkXOX{ r S L W %.6.M.I.( S r w w z.bXbXbXDXDXBXBXDXFXFXGXGXGXGXGXGXGXGXGXGXGXGXBXmXbXbXZXZXZXFX",
"bXDXbXhXiXuXiXiXjXjXbXbXBXBXBXbXDXSXmXbXmXbXBXzXcXmXbXbXmXAXmXDXnX(.` y r J W +.5.B.H.D.( S r w w x.bXzXbXDXZXDXbXbXCXZXZXAXGXGXGXGXGXGXGXGXSXZXVXhXhXhXhXxXVXSX",
"bXMXMXlXxXgXjXjXxXbXbXBXBXBXFXBXBXBXmXBXmXmXNXmXmXnXmXmXmXmXmXnXoXi.y w r W X.*.7.H.B.q.) S r w w y.oX<XbXzXvXCXvXxXhXhXVXVXVXCXCXVXSXSXSXSXVXVXhXhXhXhXhXhXxXvX",
"BXBXbXbXbXbXxXbXbXbXbXbXBXBXBXBXbXbXbXbXbXNXbXMXmXBXBXBXAXAXNXoX` y w w S O.=.=.9.H.0.;.W S w w w w ` '.xXxXVXhXsXsXaXaXaXaXpXaXpXhXhXVXCXVXaXhXhXhXhXVXVXxXxXhX",
"bXBXBXBXbXmXNXbXBXbXzXlXjXxXjXhXxXvXbXbXbXbXbXbXmXBXBXBXBX0X~.{ w w w A J +.:.:.7.D.9.=.W J w w w w y (.xXVXVXhXsXsXsXsXsXVXaXsXaXhXhXhXVXVXaXhXhXhXVXVXhXVXVXhX",
"bXmXBXBXDXmXBXbXbXbXzXlXjXgXgXjXlXzXbXzXBXBXBXzXmXBXBXFXDXOX` w w r w J E +.>.1.9.D.9.=.E J w w w w y /.VXhXhXVXsXaXsXsXVXVXsXVXhXVXhXhXVXhXhXVXVXhXVXVXhXhXxXhX",
"bXmXBXBXDXBXBXBXbXzXbXlXlXlXzXMXbXBXBXMXBXFXBXBXBXBXFXBX(.c y w w r S ~ +.=.2.0.N.H.0.=.W J S A r w y (.VXhXhXhXhXhXVXhXVXsXsXVXvXhXhXVXVXVXVXVXVXVXVXhXxXxXvXxX",
"BXBXBXBXBXBXBXBXMXBXNXMXbXMXBXBXBXBXBXFXFXFXFXBXFXFXGXnXv > 9 w r S J O.=.:.2.B.P.H.9.:.W J J S e 9 y /.vXjXxXhXVXVXCXvXCXVXVXVXxXVXCXCXSXCXCXSXCXhXhXVXCXvXvXzX",
"GXFXFXFXFXFXFXFXFXBXBXBXBXBXDXBXFXDXFXFXFXFXFXFXFXFXGXnXc > w r S J L O.=.:.6.D.P.H.9.:.E J J S w 7 > !.bXCXvXxXCXCXbXCXCXCXZXCXvXSXSXSXSXSXCXSXCXVXhXhXvXvXBXMX",
"GXGXGXGXFXDXFXFXDXMXBXFXBXBXFXFXDXDXFXDXDXFXFXFXGXGXFXnXc < r A J R ! +.>.6.0.H.P.H.9.=.X.W J S r 7 < !.mXcXbXbXbXbXmXmXAXBXbXDXMXMXSXDXbXZXZXvXvXVXxXvXbXDXDXDX",
"GXGXGXGXFXFXFXFXFXBXBXBXMXBXBXBXDXDXFXFXFXFXFXFXGXGXGX0X{ w S J L ~ *.:.>.M.D.H.P.H.9.>.=.$.R J J A y ^.mXmXmXmXbXDXmXBXBXBXMXBXBXbXMXbXZXvXxXxXxXxXxXbXbXFXDXFX",
"FXGXGXFXFXFXFXBXBXbXBXBXMXBXBXFXDXDXFXFXDXFXFXGXGXGX,Xj.p r J J J X.=.:.>.B.P.P.P.H.M.6.;.*.L J J A 9 h.oXzXmXmXDXmXAXBXBXBXDXBXBXBXBXMXZXvXxXxXjXxXxXbXDXBXFXFX",
"FXFXFXGXFXFXFXFXBXBXBXNXMXNXbXBXDXFXFXFXFXFXFXFXFXmXn @ 7 r S J J ~ :.:.1.B.P.P.P.P.H.D.2.+.R J J A w 1 s :XbXmXmXmXmXmXBXBXBXBXBXBXBXbXMXbXlXzXvXvXzXbXNXBXFXFX",
"FXFXFXFXFXFXFXFXDXBXBXBXbXNXbXMXZXDXFXDXFXDXDXSX:XR.s @ 9 A J J L ~ =.=.>.B.P.H.P.P.P.H.6.=.X.^ L A w < 3 :XcXbXbXBXbXbXBXDXMXBXBXBXBXBXbXbXzXcXvXvXbXzXmXDXFXFX",
"FXFXFXFXBXBXFXBXBXBXbXbXbXbXzXzXzXbXbXbXbXbXvXvXT.O @ > r J J L L X.:.:.2.B.P.P.P.H.P.H.7.>.>.O.T S w < 3 ,XbXmXZXbXbXBXBXBXBXBXBXmXbXNXbXbXcXcXcXxXbXzXbXmXBXFX",
"FXBXBXBXBXBXBXBXBXmXMXbXbXbXbXzXxXxXxXjXxXxXCXlX!.@ > 9 A J J W o.*.:.7.M.G.P.P.P.P.P.H.M.9.=.*.O.Q D < 3 ].9XBXDXBXBXBXBXBXBXBXmXmXbXbXbXzXkXxXxXkXcXlXbXbXmXBX",
"FXBXBXBXBXNXBXBXbXbXbXbXzXbXzXxXhXhXhXxXxXCXVX;XE.3 < r S J J ! =.=.,.m.S.F.F.P.P.P.P.P.H.B.5.,.#.Q D 8 1 !..XmXBXBXBXBXBXBXBXBXmXmXmXmXbXbXcXkXjXzXkXzXbXbXbXmX",
"mXDXmXmXmXmXmXbXbXbXbXbXvXzXxXjXsXsXjXvXCXmX5XQ.t., w S J L J W *.O.Q u 4 s.n.L.P.P.H.P.P.G.v.] - 1 w r ` & w.2XbXBXbXDXmXmXmXmXbXbXbXbXbXzXcXcXkXkXxXbXzXbXbXbX",
"BXBXmXmXmXmXmXbXbXbXzXzXcXzXcXjXjXsXjXvXZXbX*Xk.f 8 Z J S J J ! -.~ P u d { s.L.P.P.H.H.P.S.u.h - 1 < e H m N XX5XzXbXbXbXbXbXvXvXzXcXcXzXzXkXcXcXbXbXzXbXbXDXbX",
"bXbXbXAXmXmXmXmXbXzXcXkXcXcXbXcXcXxXzXzXbXkX3XA.M.&.^ J r A S ! -.C + s.Z.2 ; K.P.P.H.H.P.Z.2 6 &.i @ 7 K &.5.F.|.jXbXmXmXmXbXbXbXlXlXzXlXlXcXxXcXzXbXbXbXmXzXbX",
"vXvXvXbXvXbXbXbXzXkXxXxXbXbXvXbXbXbXbX3X@X@X|.N.7.;.~ J w r J ! ;.Q 6 v.K.} } F.H.P.P.P.P.S.[ I <.K : r L @.1.0.A.@X$X4XnXBXDXAXbXbXzXzXbXzXbXzXbXbXbXzXvXbXvXvX",
"iXiXaXsXfXjXcXzXvXxXjXjXcXbXbXbXMXMXMX#XI.P.B.2.>.;.~ J r r J ! ;.;.;.M.L.L.L.P.I.P.H.P.I.L.G.M.1.X.J J K @.>.:.0.H.I.}.qXBXFXFXBXBXmXbXbXbXbXZXbXcXvXvXxXhXsXaX",
"yXyXiXsXfXjXcXcXbXcXxXjXjXvXvXbXbXbXbX#XI.P.F.J.C.c.I A y r J ! =.=.>.M.P.P.S.} d.L.P.P.d. .8.6.;.X.S w 6 B m N 3.P.P.}.qXFXDXFXFXBXNXbXBXZXbXbXvXvXxXjXhXhXpXaX",
"yXiXiXjXcXcXcXbXbXcXcXcXcXvXvXbXlXlXzX$X}.}.#X9X9X1Xp.t w y J E *.=.>.0.B.L.n.4 [ S.K.S.h i $.-.-.X.S 8 , * = M V.}.I.}.qXFXFXBXFXBXBXbXbXbXbXxXhXxXsXsXhXaXuXaX",
"yXiXfXxXbXmXmXmXbXcXbXcXcXvXbXvXbXlXlX8X7X3X9XNXBXmX>Xl.4 < S L ! X.>.1.7.D.L.n.a.g j g d.b.<.$.E H t h._. X X-X5X5XqX9XNXFXBXBXBXBXbXzXbXbXCXhXhXsXsXhXhXhXsXaX",
"jXvXjXjXbXmXmXmXbXbXcXcXbXcXvXvXcXcXcXvXmXmXmXBXDXBXDX,Xj > A S J ^ +.=.;.M.B.B. .; ; ; v.M.,.o.H e 8 /.xXsXsXaXsXhXVXVXZXAXmXmXmXmXmXcXcXvXcXfXhXsXhXhXhXhXsXsX",
"vXvXvXcXvXmXmXmXmXmXbXvXjXdXjXjXcXcXcXbXbXbXbXNXBXBXBX0Xc : w Z J L Y O.>.>.1.1.1.&.&.@.<.,.Q H e 7 1 (.bXfXaXaXaXsXaXsXCXCXZXbXbXcXcXbXmXcXvXxXsXsXsXiXhXhXjXgX",
"jXjXbXAXmXmXmXmXmXmXbXvXvXfXsXsXsXjXcXbXzXbXbXBXBXBXFXzXE.j 7 8 w A K X.O.O.+.=.:.:.:.:.+.o.J A 8 j g.OXZXZXCXVXsXsXaXaXsXxXxXvXbXbXbXvXbXzXxXfXsXsXiXjXhXxXxXxX",
"iXfXbXZXmXAXmXmXAXAXbXbXvXvXjXjXjXjXkXcXzXbXBXAXBXBXBXBXmX].3 : : 8 S K L J E =.:.>.>.;.! J e 8 : j.BXBXDXAXZXZXCXCXjXfXxXVXvXCXcXbXbXcXxXvXvXhXiXsXiXjXhXxXxXiX",
"iXiXfXjXbXbXmXmXDXmXmXmXZXbXZXbXzXbXbXBXBXBXDXmXBXBXBXBXDX:Xf 5 } ( ^ T J w t H T ^ Y K t t Y P a ].BXBXDXDXbXDXmXmXmXbXvXvXvXvXbXcXxXjXjXjXjXiXiXiXiXiXiXiXiXiX",
"iXiXdXjXjXcXmXmXmXDXDXmXmXZXmXAXDXbXmXFXFXFXDXDXFXBXFXBXDX8X* M F.q.;.! D > # : < w < : : 7 ;.U e.;XZXSXAXDXDXBXDXmXAXmXmXmXmXbXbXbXbXbXjXhXsXuXyXyX;XuXuXiXiXiX",
"dXjXjXkXcXcXbXmXmXBXAXmXmXAXmXAXbXbXbXAXAXAXZXZXMXBXDXFXDXlXr.M A.q.-.U t.k.f.f & 5 B ^  .d.m w.Y.yXhXvXbXMXbXDXDXmXDXBXmXmXmXmXbXmXbXCXlXjXgXiXiXuXyXiXdXdXjXiX",
"cXcXcXcXmXmXmXmXDXDXmXAXZXvXbXvXvXxXsXsXjXxXVXbXMXNXMXMXMXMX*XXX|.A.8.[.>XxXiX%XU.w.c.8.A.[.U. XtXhXsXhXxXvXZXbXmXDXmXmXmXcXbXmXbXBXbXbXcXkXlXjXjXjXjXlXzXjXlXzX",
"zXmXbXbXmXmXmXAXmXDXZXZXCXvXjXfXsXxXsXsXsXhXhXxXjXjXlXzXbXzXbXlX5X5X*X8XgXiXuXuXtXtX;X*X;X;XuXsXhXhXaXaXsXsXjXzXzXMXBXMXmXbXbXbXbXbXbXvXbXbXzXbXkXbXcXbXzXbXbXnX",
"BXmXmXmXBXmXbXAXbXbXvXxXxXvXaXsXsXsXsXsXhXhXhXsXgXgXgXgXhXgXjXjXdXdX8XiXaXtXyXuXgXhXpXaXpXpXaXsXaXaXpXhXaXuXiXiXxXvXbXzXbXmXbXcXzXcXcXbXbXmXmXbXmXbXbXbXzXbXmXBX",
"mXDXFXBXmXAXbXZXbXvXxXsXsXsXsXsXxXsXsXxXhXhXhXsXgXaXaXuXuXiXyXuXyXyXuXyXyXtXyXyXpXpXpXpXaXpXpXpXpXpXaXhXsXxXgXxXxXjXzXvXzXvXbXbXbXbXbXbXzXzXzXmXmXmXmXcXbXmXmXmX",
"DXFXBXDXDXDXbXbXvXxXsXsXsXsXhXxXxXxXxXVXVXhXfXsXgXhXhXgXiXuXyXyXyXyXyXyXyXyXuXuXhXhXpXhXhXaXaXsXhXaXhXhXxXvXzXbXvXvXvXvXcXcXcXbXbXbXmXbXmXbXbXmXmXmXmXmXmXBXBXBX",
"DXDXBXFXBXBXbXvXvXjXsXjXfXxXjXjXxXxXxXxXxXsXfXjXjXjXjXxXiXiXiXiXiXyXuXyXyXyXuXiXhXhXhXhXxXcXjXxXhXhXxXxXzXbXbXbXbXzXbXbXxXcXkXkXzXmXbXmXmXzXzXmXBXBXBXBXBXBXBXFX",
"DXDXFXBXBXmXbXcXxXsXsXsXxXjXxXjXxXxXjXxXxXxXxXvXvXvXvXbXzXzXvXzXxXjXjXiXsXiXsXhXhXhXhXhXcXcXvXcXvXvXlXbXbXbXBXbXZXmXmXmXbXmXbXkXcXzXbXzXmXmXmXmXmXmXBXmXBXBXFXFX",
"DXFXFXBXmXbXcXxXjXxXjXjXvXjXcXjXjXxXvXvXcXvXvXbXbXvXzXzXzXbXzXbXlXxXxXjXjXiXhXhXhXjXhXvXbXbXbXbXbXbXbXMXBXbXBXBXBXBXmXmXmXbXbXbXzXkXzXbXmXmXmXmXmXmXmXmXmXmXBXBX",
"BXBXmXBXbXzXkXjXfXfXxXxXvXvXcXfXfXxXjXvXbXmXbXAXbXbXbXbXbXzXxXxXjXjXxXjXjXjXgXgXgXhXjXlXcXbXbXbXbXbXbXSXBXBXBXBXmXmXmXmXmXmXmXbXzXbXbXbXbXkXzXzXmXmXmXzXmXmXmXBX"
};
