/* XPM */
static char *_3c2b2e9d3ac41bc824dd2bffc6ac758[] = {
/* columns rows colors chars-per-pixel */
"80 80 12 1 ",
"  c #3E93E4",
". c #4BACF1",
"X c #3C90E2",
"o c #3F97E4",
"O c #4AAAEF",
"+ c #48A9EE",
"@ c #47A6ED",
"# c #419CE7",
"$ c #44A1EB",
"% c #4EB0F2",
"& c #3285D3",
"* c #2573C2",
/* pixels */
"+OOOOOO+OO+++++OOO..O+@@@@@@+..O++@+++++@@$@+++++O..%%@#o##oo#$$@@@O..O@@@&#%%%%",
"+@@@++O+OO+++++OOO+O.+@$$@OO+..O++++@@@@@++O%.%%.%%%%%+@$$$$@..%%%%%.@$@Oo&@%%%%",
"@@$@@+++OOOOOO+OOO+++@$@+.%.....O+++OOOOO.%%%..........+O........%.O+O+%@&X%%%%%",
"@$$@@@++OOOOOOOOOOO++@+.....%....OO+O..OO..%%%%.%........%%......%.O...%&&+%%%%%",
"$$$@@+++O.OOOOOOOOOO++OOO....OOOO..........%%.%.....%....%.........OO..@*&%%%.%%",
"$$@@@@++OOOOOO....OO+O.+++++OO..............%%............%..OOO......Oo*&O%%%%%",
"$$$$$@@@+OOOOOOOOOO+O..O+++.....OOO........%%....%.OOO..%.OOOOOOOOO....#&&#%%%%%",
"$$$#$$$@@++++O+O+.OO...+@+.....OOOO......O.........O.OO....OOO..OO+OO.O$&&XO%%%%",
"$$#$$@@@+++@@O+OO+.+.OO+++O...O.OOO......OOO...%.%..OOO.OO.O.O...OOOO.O+X&&$%%%%",
"$$#$$@@@@@@+@+O.+.+OO++++OO.............OOO.O.......OOOO.OO.O....O.O..OO@X*&@%%%",
"#o####$@@@@@@+O+++..O++++OOO......OOOOOOOO+OO.%....OOOOOO.OOOO...O..OOOOO+&&o+%%",
"o#oo##$$$@@@@++++OO.OO++OO+O....OOOOOOOO++O.O.......OOOO.OOOOO.O...OO+@OO. * #++",
"ooooo##$@++++++++++++O++OO+O....O++++OO++++OO..%.....OO.OO.OOOOO..OO@@@@@$**oo##",
"o#o###$@++OOO++++++O+OO++++OO..O++@@@+O++++.O.......OOO....OOOOO.OO@$$#o&**&##$.",
"ooooo#$@@+OO+++++OOOOO+++++++O+@$$$$@OO+++OO...O...O......O.OOOO..O$ &&&&&X@%%%%",
"oo  o#$@+.O++@@++OOOO+++++++@@@$@$$@OOOOOOOO.O...%O..O.OOOO..OOO@@X***&o$O.%%%%%",
"oooo#@@OO.O+@@O@OOOOO++@@@$$$$+@+OOO.OOOOOOO....O..O..OOO.O..O.O@ **XO%%%%%%%%%%",
"ooo#$O@+++@@@@@+@+++O++@$$@@@+++OOO.O.OOOOOOOOO..OOOOO+@+OOOOO.@ *&#%%%%%%%%%%..",
"oooo#$$$$$$@@@@@@@O+++@@@@@+++O..O++OOOOO..O+OOOO+@@$@@$$@@@@$o&*&$%%%%%%%%..++O",
"ooooo###o##$$$$$@@@+++++++++OOOOO+@@+OOOOO+@@@+O+@@$####oooo &**X@.%%%%%%O++++OO",
"ooo##### o#$@@$#$$$@++OOO++OOO.OO++OOOO++@@$@$$@$$$##$#oX&&&&&&oo$.%.OOOO++++OO+",
"#o#o##oo   ###oo##$@++++++OOOOOOOOOOO+O+++@@@@@@$###o &&*&&& #$$@$$++@++@+OO.OOO",
"ooooooo   X oo##$$@O+++++O.O++O+OOOOO+++++++@@@$# &***&&X$+..%O+@$##$$@+++O+O...",
"#o#ooo XXX o##$@+@@@@@@@++OO++++OOOOO++O+@+O+@oo&*&Xo$.%%%%....O+@$$$@O....OO...",
"oo#oo   X o##$+OO+@@O@+@@++++++OOOOOO+@+@@+.@#&**&#+.%%%%%%.+@+@@@$@@OOOOO..O..O",
"ooooo o  #$$@OOO+++O@+++@+++++++OOO@+@@#$@@@#X** $+O.%%..++@@@@@@+@+OOOO++OOO...",
"o####o o##$$$@@+++@@++++@+++++++OO+@$$#o####o**X+@...%..++++@@@@@+@@+++++++OO...",
"##o##oo###$$@@@@$@@@@@@@@+O+++@OO@$####oooo#X**#@+...%.++@+@+@@@@@++++++++O.....",
"o#oooo$$$$$$#####@@@@@@@@+O+@@@$$##$$@$####o**X$$@..O+++++++++++@@+++++O++......",
"o#o# ##$$##o##$$@@@@$$$@@++@@$$#$$$@@$$$#$#&**#$$$@+++++OOOO++++@@@@@@+O++......",
"oooo###$$#####$$$####$$@@@@$$##$$$$$$oo X&**&#@+O@@OOO+++++O+++@@@@@@+OO+.......",
"oo#$$#######$###$$##$$$$$$$#####$###oX&***& @O.OOOOOO.OO+++++@@@@$$@@@+O.%......",
"oooo XX o#####oo###$@$#$$#oo o##$$#o&*** $.%..OOO+++OO+++@@@@@$$$###$@@+..%.O...",
"o   XXXo#ooo o#ooo#$$###$o   o##$$o&***@..O%.O++@@@$@@@@@$$@$$$#oo Xo#$+O..+@@@@",
"oooo XX  ooo ooo##$#ooo#o  oo#$$##X***X.+@$@OO+@$####$$###oooooo#$#XXXo$@@@$o###",
" oooXXX  o      o#oo#ooo o oo#$$# &**&Xoo##$..+$##$$$##o#######$@@$oXXXooo###@@$",
"  o   X   o      oo oo o  ooo$$$#&**&XX  oo#@$$#$@$#$#@@$@@@@@+++@@@$oooo#$+OO+@",
"X ooo      o    oo o   o   oo$$$ **&  o oXoo##$$$#$$$@++@++@+++OOO.OO+@@@@OOOO+O",
"  o oo    o o ooooo oo o   oo$#o&**     XXoo##o###@@@++++++++++OOOOO...%.....OOO",
"o ooo o    oo o ooo o ooo  oo#oX&*& XX XX oo##$##$$@++++++++++OOOOOO..........OO",
"o o oooo  ooo   ooo o ooo    ooX&**XX   o#$@++O+@+@@+O++++O+++..OOOO..........OO",
"ooooooooooo o  oooo      o o ooX***&X#$$@OO..OO++++++++++++O+OOOO.OO.OOOOOOOO...",
"o oooooooooo    o     ooo o ooX**** $@@O.......OOOO+++++OOOOOOOOOO.O.O.OOOOOO...",
"oooooooooooo o        oooo o X***&#.%@@O.....+..OOO+OOOOOO+++++OOO+O+OOOOO.OO...",
"o o o o  o oo    o  X  ooo  &**&X#@@@@@+O+O....+OOO+++++++++++++++OOO+OOOOOOOO..",
"       o ooo       XX  oo X&**&oo#$##$@++++++.+.OOOO+++++OOO+++++O+O+OOOOO.OO.OO",
" XX      o oo   o XXXXXX&&**&oooo####$@@++++O..O+OO+++@++OO++@@+++OOOOOOO.OOOO.O",
" XX X X   oo  o o XX&&*&**&Xo########$$$$$@++OOOOOO++@@@+OO+@@@@+++OOOO.O.O.OOOO",
"X X X     oooo  o X&&&&**&o#ooo##$######@$@.+++OO++O+@@@+OO+@@++++++OOOOOOOOOOO+",
"   o  oo   ##o   XX&&***X##$$$$$$#oo#$$@$$+.O+@+@+++@@@@++O+++++++++OOOOOOOO++++",
"X     o  ooooo XXXX&**&#$@+OOOO@#ooo$@$$$@@@+@$$$@@@@$@+++++++++++++++OO+O+++++@",
"XXX X  X  o   XX&&***X$@+++@@@@#oooo###$$$##$$###$@@@@@+O+++@@++++++++++O+++++@+",
"XXXXXXXXXX&*********X$@@@$$##$#oo   oo###ooo##ooo$@@+@@+++++@@+++O+@@@++OOO++++@",
"XXXXXX&&*****&&&XXX o#####  oooo      oooooooooo$@$@@@@+++@@$@+++O+@@@++OOO+++@@",
"&&&&*******& oo##o ooo            oo o   ooo oo$@$$@@@@++@@$$@+++++@@@+++OOO++@@",
"********&X o      X        X      o o o o ooo##$$$#@@@@@@@@$$@++++++++++++OO++@@",
"*&&X&XX X     XX  XXX     X  XXX  ooooooooo#$$###$$$@@$$$##$@@@+++++++++++++@@@@",
"o#ooo XXXX    XXXXXX XXXX XXXXXX  oo o oo o@#oooo##$$$#o#$@$@$@@@@+++++++++@@@@@",
"#oo  XXXXXX XXXXXXXXXX X XXXXXXX  oooooo o##o#oooo##ooo#$$$###$$@@@@@@@@++@@@@@$",
"o XXXXXXXXX XXXXX XXXXX  XX  oooo ooo oooooooo ooo#o    ooo    #$@@@@@@+O+@@@$@$",
"XXXXXXX X X XXXXXXXXXX    X o#ooo       o o      o    X XXXXXXo$@$@$@@@@+@@@@$$$",
" XXXXX     XXXXXXXXX   ooo####oo  XX    o o o o     X oXXXXXX $@@$@$$$$@@@@@$oo#",
" o X     X XXX XXXX  o##$#$###o  X        oo o  o   X XXXXXXoo$$@$$#$#$#$@$#o o ",
"           XXXXXXXXXXXo#$$###oX                 o       XX oo#$####oo$##$$#o  o#",
"   o   o  XXXXXXXXXXXX#$$##oXX    X  XXX    o o o  oXo  XXXXo######o######oo##$$",
"X         XXXXXXXXXXX #o## XXXXo   XX XX  XoXoX Xo  XXXXXXoo#####oo#$##$$$$$$@@@",
"   o    XXXXXXXXXXX&&XX   XXXX    XXX XXX   oXo oXoXoX  oXo##ooo Xo$$o#$$@@$$$@$",
" Xo    XXXXXXXXXXX&&&&&XXXX&XXX  X XXXXXXX   o   o   X  oo ooo  ooo#oo#$$$@$$$#$",
"X    XXXXXXXXXX&&&&&X&&&&&&X&XX      XXX    X X  X    o  ooo     XXXXoo#####oXo$",
"    XXXXXXXXXX&X&X&&&&&&&&&&XX      XXXXXXX X    o        o     XXXX   ooo#ooo$@",
"XX XXXXXXXXXXX&X&&XXXX&X&XXXXX      X X XXXXX                 X XXX   ooooo o$@@",
"XXXXXXXXX XXX&XXXXXXXXXXXXXX         XXX XXXX         o      X XXXXXooooo X #@$$",
"XXXXXXXXXXX XXXXXXXXXXXXXXXX       XX  XXXXXXX               X XXXX oooo  oo###$",
"XXXXXXXXX XXXXXX   XXXXXXX  X      X XX XXX X    o   o       X XXX oo    ooo##@@",
"XXXXXXXXXX    X     XXXXX  X        X X X     X    o        XXXXXX o ooooo##$$@#",
"XXXXXXXXXX X  XX              X    X X X X  X       o        XXXX X    oo#$$$@$o",
"XXXXXXXXXXX XXXXXX       XXXXX      X    X     X               XX   o   oooo##oo",
"XXXXXXXXXXXXX XXXX   X XXXXXXXXXXXX   X  XXX XX            XX             oooooo",
"XXXXXXXXXXXXXXXXXX XXXXXXXXXXXXXXXX     XXXX  X X           XXXXXXXXX XX      o ",
"XXXXXXXXXXXXXXXXXXX XXXX XXXXXXXXX XXXXX XXXXX      X X    XX XXXXX  XXXXXXX    "
};
