/* XPM */
static char *_11b16816cd2802bcba0ba23eaad6a5f_64_resized[] = {
/* columns rows colors chars-per-pixel */
"80 80 37 1 ",
"  c #BFC5E2",
". c #C1C6DE",
"X c #C5CBE4",
"o c #C9CEE4",
"O c #C7D0E6",
"+ c #CDD2E4",
"@ c #CED5E9",
"# c #D3D6E4",
"$ c #D6D9E5",
"% c #DBDCE5",
"& c #D2D7E9",
"* c #D5DAEA",
"= c #DBDEEA",
"- c #E0DFE5",
"; c #E0DFE9",
": c #DEE0E7",
"> c #DEE1EB",
", c #E3E3E6",
"< c #E8E6E7",
"1 c #E6E8E6",
"2 c #EAE9E7",
"3 c #E4E5EA",
"4 c #E8E7E9",
"5 c #E7E8EC",
"6 c #ECEBEB",
"7 c #F0EFEC",
"8 c #EFF0EE",
"9 c #F3F2EE",
"0 c #E2E6F0",
"q c #E6E9F1",
"w c #EDEDF0",
"e c #F0EFF0",
"r c #EFF0F1",
"t c #F5F4F0",
"y c #F8F7F2",
"u c #FBF9F4",
"i c #FEFDF8",
/* pixels */
",,479yyyt7722264222221222227666277727266626644<6<662227767767767967727672226<2<<",
"-,67yyyyy996666622222222226266<667272766546444<6<266727227677777666477772246<2<<",
"-,6tuuuuut9977222222222272266<266272222<<<3<456<<466266626666e7765,<2672662722<<",
"-46tuuiuu99977777277277722264<<2<22777261<<<44<,;4--3;335,533=>3355672277777662<",
",,5ettuuyt9977772772777772272222227777772261<<<444443,,,<5<<33331627969977777722",
",,=35qwtttr9772777779799772222227777777798613<6466277722626767777999999977t99772",
"33=>3030qw6677999999999yy9977277797999tt99854<4544<44747667277779999999ttttt7777",
"=>3033>3306279yytyt9yyyuyy99777277779tyyu996454,;-;,446666277777999999t9ttt77972",
":1>>5>>53035rytyttyyyuuiuuy977772455wttuytw554;;-$$%-444466677766999999999999986",
">>>:>>55336rtt99ttr99yiuuyy97776<<3>=335,56654,,%--;-;,4416667799999y9utuyu99996",
"55155615q6rttt99w53035tt99tt97645====*=;%%:,334,-;444,456566769996999yuuuyuyu996",
"51899t988t99tt63=**&O+#,27277774,,=>33qq,===,,;;44453445569799999866799999tuuy96",
"t89t9yy999tt963>=***&&*=,666676w55,;005553333===;;3333555668tt9996644>5>3>334899",
"yytyyytyyytt96====>*=>=:,6666667e6533>55356qq;====;;,53555666696666,:>=>:*$$=168",
"yyyyy9yyu9996,>>>>>>:>>>,34666677775555555q5wq545,5555555<<46662464,:>>>:>>**%36",
"tyyyy99yy986,:=>>>>>>:>3<65564677777555w5w6ww5w55555556555<6<16<44<3:>>:>>::%=:4",
"yyyyy99t996<:::>:>30>>33555466779999686te66ew6w455656666666566441,,,<333>,>:,11<",
"tyyyyyt986<,3:>,>3,53333<556477e9999t9t997e7eeeew7teeee6654442661,114<4666666626",
"yyyyyy99641136<35,<43553<56247e7999y9u99t99tete7e9e7e777e666661,,112466686889999",
"yyyy999766<2555<5555666516627777999y99y9tttttet79e7tt7e7eee7641,112266679999999y",
"uuyy9976226666776667686677277798997999yy99y99t9t797e79eee744,3,<12267792999779ty",
"uuyyt977222767226777999977777779999999999yy9t7e7767e77666444<,35122722977999999y",
"uuyyt9867777779977799999977777687779999997997777266w65454,434,3672222779999999yy",
"yyyyt79979999999999799997772779999999977761144,,4,3,,3,,,3,,;44e929722777999999y",
"yyyy9999999y9y99y999999999678999999t999724--%%%$$$#####%=;--67779977762277797988",
"yy9999997999y99y9y9y999996779999tytyt9774;%%##+oo.....Xo#$$=7tye999t977242226566",
"y9976668999y9y9y9yy999999779tttyyyyyt9974,-$#+#&ooXXX XXXoX#5uuy9t9yt997224,-,14",
"9997666889999y99yy9y99999y99tttyyyyyyt9764;%##&&#$&oXXXXXXXo=6tyytyyt992276,--,4",
"9y9977266679999t999999999yyy9ytyuyyyyy9975,%##&*&$$**&+oXoOOX&4etyy9997277224456",
"99y7779777999999998666662259yyyyyyyyyyyye5;#+&$$======$*##&#o#$;589y997776464466",
"977277779999y9999665<,::,:,69ttyyyyyuuyye6,%$##$==;==,;;,==%%&&$:<66967666244<<4",
"62677677799t999711>:$==$%=:3,56yuyyyyuyyte76;%&**=>;;;;,,44,64=$*=:,1<262464,,,%",
"998999697798643,*>=:::>>==;3;335qw66rrtteee766555555<<5,,<<2776<21,,33::=%%#$%,6",
"yyyy99967785<=&&$*=>>>5>3333q3,;>>33355weeeetttt9tw67756<52277777211<<:%$####%,4",
"9yuuu9987764=$&$***::>3>3355q3455>533,35wwweetwt799tt999667777727776661<,,%%#$#$",
"$:369968724<:**$$=:>>:3>305qw55q555>3>:33q555656699tt999te997999797768622<1-,-%%",
"oo+:,,262245;=*$$**::>3>33q5wqww6q55333333>33554wwt6r99yy9yy9yy999y999886662645,",
":##++$,<215553=##$**=:35q555wwwetwt6ww55333333355556w6999yyuyyyyuuuuu9999977666q",
"53$###%:<,15626<3,,:,556655wwwe7ettrtww55535455666666w9tuyuuuuyuuuuiuuyy999799ty",
"86,:#+#=,:,66799996266w66w4wee777wwtr9tw66546886666669tt9yyuuuiuuiiuiiiu997ewwtu",
"6tw,$&%%,1669797w977777227667e7ttrt89999t6w6996655666trt66qwwriiiiiiiitw>>>>>:qr",
"6875,,;,26899ytt997777777777779ttt9t99t99ttt998655q6665533>>000qqqrrrr00>>>>>>35",
"9t68662666669ttt968627777999999t99tt9y99999t99976<55q30>>=***@@@@*>>00*>>=>0033>",
"77997777966<,:>::56672727999ttttyyyt9yyytt9t99975550300>=====0====>>0=*>>>00>00>",
"2799t9976621::::1172999279tty9ttyyyyyyy9tty9y9t766q50>00=*==00>0>0>>0>>>0>003>3>",
"6799999762211227799999y99tyyytytyyyyyyyytty9y997776q0>>>=00=0==05>>0q000000>0333",
"99t99tt999996999999yyyy9yyyyyytyyyyyyyy99y9y9999e776533>00q5q50q3q5qrrqrq>>0q556",
"uuyyytyy999999y9yyyyyyyyyyuyyyuuyyyyyyyyt999997997776q33q556qqwq5rrrrrqrqq5>5599",
"uuuuyyyyy99y99yyytyytyyyuuuuuyyuuyyyyyy999999988777776666878988988888wwq503569ty",
"uuuuyyyyy7999999tyyyuyuyuuuuuuuuyuyy9y9999t9966677777778897999999788w53333369ytu",
"yuuyyyy99779799ytyuytyuuuuuuuuuuuuyyy99769t996q5552727779999999t9997w51,:33899yy",
"yyuuyyyyy7977779ttyuyuyyuuuuuuuuuyyyy99999ttt6rq5,1<66279777999999778556546699yy",
"yyyyyyyy99997727etttuttreew6eeutytyyy9997ewerrrrw6qw655w6r6798999979666555627tyy",
"yyyytty99966272656e6665655434ete99ttt79775qqqqrr9tttet66w6699999977786<<446279yy",
"ytt9999999966662<53,,355qq6qq5q6wwwwett7e53=>=>>5wtt99ttt9999999777262<33<<52279",
"y999777776666621==>33qq5eeeeww6w6667et7e6q>=*@>**>:57t79999999997777724<11<<6667",
"997777762666464,==,5we6twttrtr96w6688t6643;=****&@@>035699699777666666444<<62667",
"997777767664144,-=35w7werrrt6989rt88666ww5=*=*&=&@&>>>>>><6666655<4422<<46266777",
"767te77764<<466<<,6667we9rt6tw9699997555555=**&&&=>:>>,55w687766211241<<46677766",
"555q66762<3366566666ewe7t6r8r9999999765,,55,>>===>125869ttty99t98622666266265455",
"$$==%,<653>,<6w689998796566r799999997w66,-,41112126688899yyyutty9972668866553==$",
"##%==,<56<5,,56666697866666879999999e665,,-,226622668r89yyyyyutuyy7798664533>=*&",
"#%%,6266626,45564126666769999777977776666,,<<266646655689yyyyuu9y9776663>>=>==$*",
"$$;567776266256561126769999t977777777766262266826664>>>>56899y9t977266q>>=>>0>=*",
"33,,677766226<546445777999y9999777777772229988898862>>***000eee77762254>>:=>>>==",
"5q544e7e9865,:,5<<662677999y999799777777799yytytt9866>******0ww66266845>>:===>,:",
",47e977796655==%::36277999y9y99999777777799ytyyyyyy98wq0==**;;556666864>:*%,>333",
"%;6e9977996w553::,122679999999999999777779yyiuiuyyy9trrwqq3;303q566<155>:=%,>53:",
"$%;,6299t966w6ww66699999999999999999999629tuiiiuyt8ttt8977775555524,:,,:%%----%$",
"%%-,,4679ttttw7t989uuuyty9y9y9yy999t999921>>>>>>>>wrtttt99e777767656,:=$#####%%%",
",,,,<46999te6e7e666e9twe999y9999t79e7766,:@@@*@@@*>5888tt9997777776w5,:%%##%---:",
"44646799tt6tw5656<===>05779999997t776q>*$$@***=*@>:::5889t99727e796q<<11<<,11122",
"2767797e7twwq5,;=3=*=>>01,4665662213::$$*******0>>**==,<689876466664666746462727",
"9977976ww65533*===;>>>>=:%%,:,,,--:%*+#$*******=***=$$%%35667e62<<16677476e62779",
"99y999ew653=====,>;3>>>====$$$#$##$##+##***@*@&&@@*>=0:,3,<554676666222777742779",
"ty9ytt6653===:>333300>:>:>==%$###+#####$==**0**==*>>,56655554462668877677e777999",
"tt9y996553=,:3,333333:>,,3,3-:%%%#####%=>>=33<,3>>,4666764755<<<69777227tt99tttt",
"tyy997553=>=3,4333333335555522562,,%=%==0>30265566266896e777776<<222777777977tyy",
"yyy97663,>3,544,3335<55666626626553,,==;;,,5666666869699997774762<26777777777799",
"999962<,,:35554;:345677e7666625,,,5<,,,;%;,4227666699998777777762266626277727779"
};
