/* XPM */
static char *e3de2a9843b444beb775fada1a771bb4[] = {
/* columns rows colors chars-per-pixel */
"80 80 120 2 ",
"   c #3E92E5",
".  c #3E96E3",
"X  c #4BAAEF",
"o  c #4BABF1",
"O  c #3F93E2",
"+  c #48AAEF",
"@  c #3E94E6",
"#  c #4AA9EE",
"$  c #3C90E3",
"%  c #4AABF0",
"&  c #49A8EE",
"*  c #3E91E5",
"=  c #3D92E0",
"-  c #4AADF1",
";  c #48ACF0",
":  c #47A9EE",
">  c #3F93E6",
",  c #4099E6",
"<  c #3C91E3",
"1  c #49A7EE",
"2  c #4CACEF",
"3  c #45A5EB",
"4  c #46A8ED",
"5  c #3F96E7",
"6  c #47A6ED",
"7  c #4DACF2",
"8  c #3D90E5",
"9  c #49A9F0",
"0  c #3E97E4",
"q  c #419AE8",
"w  c #3B8EE1",
"e  c #419DE7",
"r  c #4CA9F1",
"t  c #44A0EB",
"y  c #47A3EF",
"u  c #4EAEF2",
"i  c #439DEB",
"p  c #C0E3EB",
"a  c #3A90DD",
"s  c #3F90DF",
"d  c #45A3EA",
"f  c #4CB0F2",
"g  c #3E9BE2",
"h  c #4AABEE",
"j  c #202424",
"k  c #252B2C",
"l  c #3A94DF",
"z  c #42A0E7",
"x  c #388BDB",
"c  c #ACC6CD",
"v  c #B1C9D0",
"b  c #3387D7",
"n  c #46A0EE",
"m  c #2C7ECA",
"M  c #191B1A",
"N  c #383E3F",
"B  c #4EABF0",
"V  c #43A3E8",
"C  c #48A6F1",
"Z  c #A5BDC2",
"A  c #ABC2C8",
"S  c #283134",
"D  c #98ADB2",
"F  c #444F50",
"G  c #91A4A9",
"H  c #4C585A",
"J  c #226EBD",
"K  c #404849",
"L  c #7C8D91",
"P  c #49A8EB",
"I  c #535E61",
"U  c #51B2F3",
"Y  c #A0B5BA",
"T  c #2877C4",
"R  c #418ED0",
"E  c #5C6C6E",
"W  c #C8E7EE",
"Q  c #596568",
"!  c #345C6F",
"~  c #313636",
"^  c #637175",
"/  c #C1DDE4",
"(  c #84989C",
")  c #67787B",
"_  c #7C9399",
"`  c #B7D8DE",
"'  c #3383D4",
"]  c #293F4A",
"[  c #3F7AA8",
"{  c #2D4853",
"}  c #273742",
"|  c #B6D1D7",
" . c #33526B",
".. c #D2ECF2",
"X. c #8B9EA3",
"o. c #53B3F4",
"O. c #76878B",
"+. c #4CA2E1",
"@. c #728388",
"#. c #728082",
"$. c #366183",
"%. c #697D80",
"&. c #4285BA",
"*. c #AECED3",
"=. c #377279",
"-. c #4899D7",
";. c #2C555B",
":. c #3C70A1",
">. c #3D6E94",
",. c #3C85C9",
"<. c #51BEC6",
"1. c #869194",
"2. c #39858F",
"3. c #A3ECF1",
"4. c #7DB0B4",
"5. c #58D1DA",
"6. c #A8F9FC",
"7. c #5FE5F0",
"8. c #4AA6AD",
"9. c #47979B",
/* pixels */
"# # X + % ; ; + h + : 4 4 4 + + % % ; ; h : 6 6 3 3 3 4 4 ; - % # & 1 & & & & & 1 3 V 3 : 4 4 : + + ; - f f V g g e q 0 , e t V 3 P P h u o r 1 d +.m g U o.o.o.",
"& 1 1 4 4 + ; + + + + : : + + + % % + % - : 3 V V d + + : - ; % # & & & 1 3 3 3 1 & : h u - u u - f f f f f ; 3 z z z t 6 7 u u u f U o.2 6 t 1 B l m 3 u U o.o.",
"1 3 V 3 3 4 : + + + + + + + : + % % + : 4 3 V 4 : ; u - - - ; o X # & & r X r X X % u u u - - - - - - - ; ; - + + - ; 7 7 % o 7 7 u 2 # P r r u +.m R u U u u U ",
"3 d z d 6 4 4 : X X X X X X + + % % % + 4 4 + ; ; - - - f - ; ; o X r # X o o X X % - u u u u - - - - - - - ; ; ; f f - - 2 2 2 7 u 2 h o 7 7 B R ,.P U u u u f ",
"d z d 3 1 & # # X o X X X X % % % % % + + + + + + ; ; ; ; % % % X o o o o o o o o o 7 u u u u - - - ; - - - ; ; - f f - - - - 7 7 7 7 r o u 7 1 m ,.u f u u f f ",
"d t 3 6 6 1 & & # X # X X X ; ; ; ; % + + + + + : : : : + ; ; o o o o o o o o o o o 7 u u u - 2 2 - 2 ; ; ; 2 - - - - 2 2 h h h o o 7 r 7 7 r g T R B U f u f f ",
"t z d d d 3 3 6 & # # # # X % % % % % + + - - + 4 4 : ; - ; % o X r r o o o o o o % 2 u u - - 2 - - 2 h h h 2 - - 2 2 h # X X X X r r r 7 7 7 , m b g u f f U f ",
"d z z z z d d 3 1 & & & & X + + + + + + ; 2 - + 4 + % ; ; ; % + 9 9 X o o o o o o h 2 2 2 2 2 2 7 7 2 o h X h 2 2 2 2 B X X 2 2 X # & # r o r d b m a r U o.o.o.",
"d z z z z 3 1 1 & & & 1 1 r + + + + + + ; h h # : 9 X o ; ; % % X X X o o o o o o h h h 2 2 2 2 7 7 7 o h X X 2 h h B B B B B 7 B X X X X o r & a m m z U o.o.o.",
"t z z z d 3 1 6 1 1 6 1 1 & + + + + + h h P P : : + X o - ; ; 2 o o o o o o o o h X X h h 2 2 2 7 7 7 B X X X h h h h B B B B 7 B B B B o B r r 6 a T x 3 U U o.",
"q , g e e e d 3 6 6 6 6 1 9 + + + + h h h # P : : + + % ; - - - 2 o h X X X h h X X # h h 2 2 2 2 7 7 B X X X h h h h X X X B 7 B B 7 B X X r r r 1 x m g P U U ",
", , 0 , q e t V V 3 3 6 1 : # # # X h h h h # : + + 9 + ; - - 2 h h X X X X h X # # X h h 2 2 2 2 7 7 7 X X X h h h X X X X B B 7 7 B B # & 1 r r 7 l m l g P # ",
"0 , 0 0 , e i V 3 4 : 4 4 4 # # # # # # # h # : + + 9 + h ; - 2 X # # P P X X # # # # h h 2 2 2 2 7 7 2 h X X 2 h h B X X X X X B B X # 6 1 6 1 y z m T l l g z ",
"0 0 , q e i t 6 4 + h + + # # & & & # # # X # # # # 9 + h 2 2 h # P P d 3 # X # & P # h h 2 2 2 2 2 2 2 h X h 2 2 2 2 X X X X X o o X 1 d d e 0 x m J m z z V 2 ",
"0 0 0 0 , e y 6 1 + + + # P & & & # # X X X # # & # # # P h P 3 V V V d 1 X r & & # # h 2 2 2 2 2 2 2 h 2 ; % 2 2 2 2 2 2 h X B % o r i O b m m m ' a d f U f f ",
"0 . . l 0 e y C & % ; # & 1 1 & & # X X X # & P P # # # 3 3 3 V V V V 6 r r r r r # X B 2 2 2 2 2 2 2 2 ; o o h h h h 2 2 h h # 1 1 = m T T b . d # u f U f f f ",
"0 0 . 0 e y C r o % + & 1 1 1 & & # # X + # & 1 3 V V V V V P P P X X X B X X X X X X B 2 B 2 2 2 2 2 % 7 o o X X h h h 2 h ; # y O m T a X U o.U f f f f f f u ",
". 0 0 , n r C C 9 : 4 6 1 6 1 1 & & & # X # # 1 V V d 3 6 # # # X X X B B B X X X h B X X B B 2 2 % X X 9 r 9 1 & # # # # # % 6 s T m e f U U U U f f f f f - 2 ",
". . 0 , e t n n t t V 3 y y 1 3 d 1 # # # P 1 P 3 3 1 & & # X o 7 o # & # h X X o 7 2 X & # X B +.+.1 6 d y y d d 3 6 1 1 z 0 ' T x n u f U U f f f ; - h : # # ",
"0 . 0 , , , e q , g e t y y d d d 6 P P P & # # & & & # 9 X 7 P [ R & & h 7 2 X P P +.+.+.P X P $.! +.t e e q g g 0 0 . l b m T a 3 - f f f u u - + : : 4 P h h ",
", , , q q q q q . . e t y y z z z z V 6 & # X X # # # # o P -.&.{ ! -.-.&.[ >.$. .{ ] ] { ! [ >.;.! -.i i i i 0 a x b ' m m b l g V - f 2 X X % h : : : X h h # ",
", , , , , , , 5 @ O . , e g g g g e d 1 & # # # & # r % -. .k k ! =.] S k k j M M N ^ ) E K k } 8.! &.i , O x m T m b b l e d d d V V & & P : 4 P 4 h h h h X X ",
", , , 0 , , . O O = a l . . g e z d 1 r r & & & # X o P ! S ^ F =.<.} Q 1.G Q ! =.N @.v W c K =.5.{ k  .J T m ' a z # B u u X & 6 z g z V V P : 4 : + # X o o o ",
", , , , 0 . O < $ = O , , e d 1 & 1 1 1 1 1 1 1 & # X +.] E v E =.7.2.@.*.A I 8.8.E L E c %.;.<.7.! Q k $.V h u f U f - 2 2 7 X # d z z z V + 2 2 2 2 h h o o o ",
", , , 0 . . O   $ O 5 q e y & r r & 1 1 1 1 1 1 1 & 9 +.} ^ A H 2.7.5.H D D { 2.=.( c E L ] 2.5.7.=.A E ] +.f f f f f 2 P P P 1 1 3 d 3 1 + h h + h 2 2 h o o h ",
"5 5 q q , @ 5 O @ i y y 1 r r X & & & & & & & & 1 & # [ k @.D { 2.5.<.{ L Y ( E H Z Y I D Q { 9.9.;.A L j { ! &.P : 4 4 V 3 3 6 1 & 1 & r + + + : : + h h o o o ",
", q q q q 5 @ 5 q i t z V 6 1 & & & 1 1 & & & & 1 9 R S F Y D F ] ;.{ Q Z c v c Z Z D @.E G L I I L ` %.H I K k [ : 4 4 1 6 3 6 1 & 1 1 & : : : P : : X h o o o ",
"q i q q q , , q e e z V 3 3 3 3 d 3 6 3 6 6 6 6 1 # $.S G Y Z Y _ O.X.A D X.Z v v #.~ D X.Q X.v G L ) F Y ..| N ! : 4 & & 1 1 6 4 6 : & : : : : 4 : h ; % o o o ",
", , , , . 0 i V V z z z z g e e z 3 6 1 6 6 3 3 C +.] H A A A v v v c L ^ G c v v G %.Z v X.N F H E O.D / W G k [ + : + : 4 : : 4 4 4 4 4 4 : + : 4 ; - 2 7 7 7 ",
", , , , . q i z z e g g g e z t 3 6 3 6 d d d y 9 R k #.v v v c c v _ K ( A Z D D Z c v Z I Q D | p | | p W #.} -.% + + : : : 4 4 4 3 3 3 4 : % + : ; - 7 7 7 7 ",
"0 0 , , q q e t t z e g e e z z z e e g e t t y C :.k G A L _ A c c D ^ F F Q @.X.D A v #.E ` p p c F K c ..Y S >.# : + : 4 4 6 6 6 4 6 4 4 + + + ; ; - 2 7 7 7 ",
"0 0 q n i q q q q e e q t e e e t z e g t n t y y  .K Z L ;.F Y v c c c X.K ( c c A c Z I D W p p G M ~ A W ..E S -.9 : & 1 3 3 3 V d 3 1 1 : % ; - - ; 7 7 7 7 ",
", , , . O = = . , i e q q , , , q e e t y n i n -.} E Y F 9.=.@.A v c c ^ O.v c c v ( H K ) *.p p | _ D p p ..A S >.& 4 6 3 d d z g e e t d 3 : ; - - ; % o o o ",
". O O = = a = . , , , , . . , , 0 , e t n i q n &.k L ^ ! <.5.=.E Z v D E Z v c c v _ %.A %.@.p p p p p p p W ..I ] g 3 V V z e , . l a . g V 4 + ; ; : 3 3 3 P ",
". . . . O = = O @ . . . . 0 , , , i t q , 0 q i >.S 1.{ 2.5.7.5.;.G v X.H G v c c c Z D / ` G ` p p p W p p W ..1.k &.g . g . g e z g l a a g z 3 4 3 z g g g e ",
". . . . = = = = @ 5 @       . O . q , 0 q , , 0 ! N Y ) ;.<.5.=.O.A c 1.M ^ / | c c c *./ p / p p p p ..p p W ..Y k [ g g e z V V 3 d g l a a . , , g g e 6 3 z ",
"O O . . = = = =   @ @ @ @   = l . . . . 0 0 . .  .F A Z %.;.! O.A Y A D I ) G c | | *.` p p p p p p p p p p p ..v S [ P 6 P P P # 6 1 6 z g l . g g d r # X & 1 ",
"= O . . . O O < <   @ @ @ @ O . . . . . . O . . { F Z Y A I H A c A c G N j j ~ E D ` ..W p Z ` p p p p p p W ..v ~ [ X P P # X X h o X # & 1 6 3 6 r r X X # X ",
"O O . . . . O @   @ @ @ @ @ . . . . . . . . . R ] F Z A v X.N ( v c c I S ( G E ~ k I Y p / @.D D ` W W p / c A D S [ % : : + + h h h h 2 % 7 u 7 7 o 7 2 h X h ",
". O . . . . . @ @ @ @ 5 5 @ . . . 0 . . . . R $.S N Z c A A ^ N G v c I k @.A ` c O.N k E X._ *.L Z / Z O.H ~ k ~ k R ; : + + % h h + h 2 2 ; - - - - - 2 2 h h ",
". O . . 0 . . 5 @ @ 5 5 5 @ O . . 0 . . . R $.9.2.k G c Y Z Z H F Z v #.M M N %.Y ` v %.k N D p Y ) F S S K E E M } +.; : + % % % h + h 2 ; ; ; ; ; ; ; ; ; h h ",
". . . . 0 0 0 5 5 5 5 5 @ @ @ @ 5 5 @ @ R  .=.8.=.M ) c Z c v G ~ ( *.#.j H N j S I ( c D N N X.K k F ) L #.Q N M  .P + + + % % h h h h 2 h % % h h h h h 2 2 2 ",
". . . . 0 0 0 5 5 5 5 5 @ @ @ @ 5 5 @ @ ,. .! ! ! } N Y v Z Z A H Q v L k 4.*._ H k M N L #.j K j E ^ K k M M M M >.h + + + h h h h h h h h h h h h h h h 2 - - ",
". . . . . . . 5 5 5 5 5 @ @ > @ @ @ >     s s . , [ j #.Z H ! ^ I K A ( j 4.6.3.` 4.%.] j j ~ #.k j j S F ) Q M j &.h : : : : + + + + + + + + + + h h h h 2 - 2 ",
". . . . . . . @ @ 5 5 5 @ @   > @ @ > < < > 5 5 5 R } I X.;.<.! Q N Y Y ~ Q 3.6.6.3.3.c H M #.` Q M ) 4.*.` I M } -.+ : 4 : : : : : + + + : + + + h h h h h 2 2 ",
"O = = O O O O @ @ 5 5 5 @ @ > > @ @ > < <     5 5 = $.k N =.5.E G F D v %.j L 3.6.6.3.4.S H | W D k %.3.6.4.j M  .P + + 4 4 4 : : + + + + + h h h h h h h h h h ",
"O = = O = = O @ @ @ 5 5 @ @ @ @ @ > < < $ w w x x b T  .j ] ! I Z E ( v Z I j F E E F k F A p p / Q S _ ( ] M M >.h + : P P 4 4 : : + + + + h h h h h h h h h h ",
"= = = = = = = O @ @ 5 5 @ @ @ 5 5 @ w w x ' m m T J m a &.$.} j ^ X.) A v Y E K K F I L *.p p p p A H j j { { j R % + 4 4 4 4 4 4 : : + + + h h h h h h h h h h ",
"= = = = = = O O @ l . 0 . l @ @ 5 > x ' ' ' m T J ' 0 , g g R ! k 1.G Y D H F @.*./ Z Y / p D D p | L F ;.<.] ] +.+ + : 4 4 4 4 : 4 & # X X X X X X X h h # + + ",
"O O O O O O . . @ O . g , . O     $ w x ' T J T a q e z d d d -.] I c v ) H Z ` p | L 1.D Y O.1.( O.L I k ;.j >.+ : + : 4 4 : : : 4 & # X # X X X X X X # : : : ",
"= = O O O O . @ @ . . 0 0 . O s s w w ' J J m g d 3 & o r r r r $.~ G *.1.I ` p v I N F ~ ~ N K S S N N j M { +.+ : : : 4 4 : : : 4 & & # # X X # # # # P P P 4 ",
"< < = < < = O < < @ . O . O w x x ' T J J l V 4 4 & 9 1 C C y t &.k F Y Z Q _ p X.k H Q ^ %.@.L _ ( G ( S S &.+ + : : & 4 4 4 4 : : # & & # # # # # # # P P P P ",
"< $ $ < $ w $ w x x ' m T J J J J J J m a z 3 3 3 t t i i n i q [ j M N O.G G ` D N G Z A Z c v v A X.K S [ C & : : 4 4 6 6 4 4 + + & 1 6 1 & # X X X # P P P P ",
"$ w w w x w b m T J J J J m b x x a = l , e i i i q @ @ . 0 0 [ } M M M M S K E @.E D v | | Z L I N k ] &.y C & : 4 6 3 V 3 4 4 + + 9 1 6 1 & # X X X # P P P 1 ",
"x b ' m m T J J J J m b O , , q , 0 l l , 5 @ @ @   * *   @ R ] j K H k ~ F N k k k S N K N k j M k >.-.C C C & & 4 3 V z 3 4 4 + + & 1 1 1 & # # X X X # P P 1 ",
"T J J J J J T m b w < @ O O < <     < O   >     >     *   > $.j K ) G I ~ L L L D G @.E I E 1.( j j { -.C 6 6 1 1 3 V V V d 4 : : : : 4 4 & & & & # # X # & 6 6 ",
"T ' x x x s s < < < @ @ @ @ < < < < $ $ <                 ,.S ~ Q L A %.k O._ _ ( _ L v p p ..Z k I k [ 6 6 3 z z e z V 3 3 4 4 4 4 : : : 9 # # & & # # 1 1 6 6 ",
". q , , . O w w < <     O < $ w < < $ $ < < < < < < < <   $.j F ^ X./ @.j #._ _ @.%.Z | / | W A k L F  .t t g g g z d V 3 3 3 6 6 4 4 4 4 & # # & & & 1 6 6 3 3 ",
"e , . O O < w $ $ < < < < $ $ w $ < < $ < $ < < < $ $ $ a  .j H O.Z W X.M H _ L ( c p D v G D Y k E H S R 0 . , t y t e i e z d 3 6 1 C 6 1 1 1 & & 1 6 C y y y ",
". = a a w $ < $ $ $ *   < $ $ $ $ < $ w $ $ <     < $   O ! M k H A ..G j N F K Q G L L / v ^ #.K M j k &.. l . . . . O O = l e y C C C y 6 1 & r & 1 1 y y y y ",
"a a a a w $ < * * * * * < $ $ 8 8 8 $ $ $ <   > >   < @ R ] j ~ j F ^ K S ) ^ E ) @.G p W p ` / Q ~ ^ k [ @ < = s s < s w w . n y y y y y 6 6 1 & 1 1 6 y n n y ",
"O = = < < <         * * $ $ $ $ $ w w $   @ 5 5 5 q q i R k j H Q K ~ k k @._ _ Z W W p W p p / F j ~ k &.@ @ = s s = s s @ n C y y y y n d d 3 1 1 6 6 n 0 0 q ",
"@ O O = O O O O O = = = $ < < $ w $ >   > 5 q i i i i i -.] M S G ` v H j %._ %.@.D ( c W W W ` ~ j M S ,.= = = a a = = . , t y y y t e e e z z y C y i , . . . ",
"O O O O O O O O O O = < $ < < $ w <   w w $ 5 i i n i q q $.M K ( *.c ~ N #.I K H F ^ ` W W ../ N M j ! s O = = = = = . , i t e e e e . , t e e t t e 0 . . , q ",
"= O O O O O O O O O = < $ < $ $ $ $ w w w @ q n n n i 0 = R  .j ~ F F j N K N K H Q ) | | | / v N ] [ s O O . = a a a a . q q , e e , 0 , e g e i q , 0 , i t t ",
"= O O O O O O O = = = s $ $ w $ $ $ w w < 5 q q q q @ $ a = s :. .} M M j j j j j j K H ~ S N ~ j :.5 O = = = a a a . 0 q i q e e , 0 q t e e t y n n n y y C C ",
"= O O O O O O = = s s s $ $ w w $ $ w x x x w > @   w w = = O . . :.M k k ~ ) L k S M j H %.E K k [ . O = = = O . = . i i , 0 0 . = , n t , e y y y y y n y y y ",
"= O O O O O = = a a s s $ $ w w w x b b b b b x w w w x x s = O . >.j F ) ( / ` N  .S N O.Y ` G k [ . = = = = . . . . . . . l . . l , q . 0 i n n y y y n t e t ",
"= O O O O s s s a a a s $ $ w x x b b b b b b b b b b b x w s O O >.j k F ) O.#.k  .} j N K H K j :.@ O O O O O O . 0 . . O = O O s s = = . , , q i i i 0 l 0 z ",
"= = O O s s s s s s a a a a x x b b b b b b ' ' ' ' b x x w   > > R :. .S j j S S :.>.{ { ] ] { $.R >   > @ > > > @ 5 @ > O O = = = a = = O O . 0 , , 0 l l t C ",
"s = O O s s s s s = = = a a x x b b x x x x x x x x w $ *   > > > > @ O ,.:.:.,.,.s * s s R R s > @ > > > @ @ > > > @ >     = = = a a = O O . 0 , 0 . l , d C C ",
"s s s s s s s s s = = = a x x w $ $ $ $ w w w w w w $ <   > > > > > >             $ $ $ $   > > > @ >   > @ @ > > @ @     < = = a a a = . . . 0 . l = l e y t t ",
"a s s s s s s s s = = = a a w < < < < < < $ < $ $ $ < < *       > >   * < * * * * $ $ $ $ *     > > > > @ @ @ >   > > >   < = = a a a O , 0 . . . . 0 0 e e e t ",
"a a s s s s s s s = = = = = < <         < < < < <               > >   * * * * * * $ < * <         @ @ @ @ @ @ > > > >     < = = a a O , , O O . . . 0 0 q e y y ",
"a a s s s s s s s = = = l = < <         < < < < <               > >   * * * * * * *               > @ @ @ @ @ > > >   * * $ = a a = O O . . . . . , e i n n y i ",
"s s s s s s s s s < O = O = < <                                 >     * * * * * * *               > > > @ @ > > > >     * $ < a a = = O @ O O . 0 i t t t y n 0 ",
"$ $ 8 8 8 8 8 w $ 8 8 * * * * * * *               * * * 8 8 8 * * *               * *   >         > > > > > > > > > >         < <   > @ @ @ O . . 0 , , q i , 0 ",
"$ w w w w w w w w $ 8 8 8 8 $ $ $ <     * * * * 8 $ $ $ 8 8 8 8 8 8 *             * 8 *   * * *   > >           > >   * *           > > @ O O O O . . , , 5 5 5 ",
"$ $ $ w w w w w 8 8 8 $ $ $ $ $ $ $ * * * 8 8 8 8 8 8 8 8 8 8 8 8 8 8           * 8 8 8 * * * * * > >           > >   < < < < < < $ $ < < < $ $ <   @ @ @ @ 5 @ ",
"$ 8 8 8 8 8 w $ 8 * 8 8 8 8 $ $ $ < * * 8 8 8 8 8 8 8 8 8 8 8 8 8 8 * * * * * * * 8 $ $ 8 *             * * *         < *   $ w w w w     < < $ $ $ < <       < "
};
