/* XPM */
static char *chaaaaaaar1741104128[] = {
/* columns rows colors chars-per-pixel */
"80 80 228 2 ",
"   c #0E110E",
".  c #141414",
"X  c #181817",
"o  c #161B1A",
"O  c #1B1C1B",
"+  c #211F1D",
"@  c #19211E",
"#  c #21221F",
"$  c #1A1E21",
"%  c #1D2222",
"&  c #1D292A",
"*  c #222424",
"=  c #282826",
"-  c #242629",
";  c #252B2B",
":  c #2A2C2B",
">  c #302E2F",
",  c #2D312E",
"<  c #222F31",
"1  c #2A2F31",
"2  c #2C3333",
"3  c #273739",
"4  c #333433",
"5  c #343737",
"6  c #353937",
"7  c #353B3C",
"8  c #3B3C3B",
"9  c #29423F",
"0  c #1D3A41",
"q  c #253E44",
"w  c #363E40",
"e  c #1C474D",
"r  c #294546",
"t  c #3B4344",
"y  c #3A4649",
"u  c #3D494B",
"i  c #274D52",
"p  c #3A4D52",
"a  c #2A5458",
"s  c #385B5D",
"d  c #275C65",
"f  c #3A5E63",
"g  c #366468",
"h  c #296C75",
"j  c #3D767A",
"k  c #424444",
"l  c #444847",
"z  c #434B4D",
"x  c #4B4B4B",
"c  c #4C4F4E",
"v  c #50504D",
"b  c #454D52",
"n  c #445254",
"m  c #4B5354",
"M  c #4A5459",
"N  c #47585A",
"B  c #4E5B5C",
"V  c #535453",
"C  c #555859",
"Z  c #525B5C",
"A  c #595D5C",
"S  c #62615F",
"D  c #445A60",
"F  c #525E63",
"G  c #5C5F61",
"H  c #605F62",
"J  c #4B6667",
"K  c #556365",
"L  c #576769",
"P  c #5B666A",
"I  c #5C6C6D",
"U  c #5D6D71",
"Y  c #43767A",
"T  c #5B7577",
"R  c #656566",
"E  c #636C6C",
"W  c #70706E",
"Q  c #646D73",
"!  c #657275",
"~  c #6B7374",
"^  c #65767B",
"/  c #6C767A",
"(  c #6B7B7D",
")  c #767878",
"_  c #82817F",
"`  c #2C7681",
"'  c #5C7F80",
"]  c #6C7D82",
"[  c #727E83",
"{  c #2E8794",
"}  c #358A99",
"|  c #3FA6AF",
" . c #518D8E",
".. c #6D8286",
"X. c #748385",
"o. c #75858A",
"O. c #798688",
"+. c #768A8D",
"@. c #7B8B8D",
"#. c #768D95",
"$. c #7C8D93",
"%. c #6D9395",
"&. c #7D9194",
"*. c #7D9299",
"=. c #459CA3",
"-. c #729DA0",
";. c #51A9AF",
":. c #79A8A9",
">. c #3CB6C4",
",. c #51BCC7",
"<. c #53CFD6",
"1. c #65CACF",
"2. c #65D6DA",
"3. c #4CD6E5",
"4. c #65DCE4",
"5. c #53E3F2",
"6. c #66E4E9",
"7. c #888887",
"8. c #898E94",
"9. c #82959A",
"0. c #899799",
"q. c #859A9C",
"w. c #969797",
"e. c #879BA3",
"r. c #8B9BA2",
"t. c #979CA5",
"y. c #8DA2A5",
"u. c #8EA5AB",
"i. c #8FA9AD",
"p. c #94A4A7",
"a. c #94A6AD",
"s. c #94AAAD",
"d. c #9DACAD",
"f. c #94ACB2",
"g. c #9BAEB3",
"h. c #99AFB8",
"j. c #81B3B6",
"k. c #9CB2B6",
"l. c #9AB5B9",
"z. c #9DB5B9",
"x. c #A6A6A5",
"c. c #ACACA9",
"v. c #AFAFAF",
"b. c #A1B6BC",
"n. c #ABB6BA",
"m. c #A2BABD",
"M. c #B5B5B3",
"N. c #B9BAB8",
"B. c #C3C2BF",
"V. c #84BDC2",
"C. c #9DBAC1",
"Z. c #A3B6C1",
"A. c #A4BCC3",
"S. c #A9BDC3",
"D. c #BCBEC2",
"F. c #8ECDCF",
"G. c #A5C1C5",
"H. c #ABC2C5",
"J. c #A5C4C9",
"K. c #ACC5CC",
"L. c #ADC9CE",
"P. c #B2C6CC",
"I. c #B9C6CB",
"U. c #B1CACE",
"Y. c #AEC6D0",
"T. c #AECAD3",
"R. c #B2CCD3",
"E. c #BACDD4",
"W. c #BCD3D5",
"Q. c #B5D4DA",
"!. c #BAD5DB",
"~. c #BADADE",
"^. c #99DDE0",
"/. c #B9DCE4",
"(. c #BCDDE4",
"). c #9AE6EC",
"_. c #A6ECEE",
"`. c #BEE1E6",
"'. c #BDE2EA",
"]. c #A4EDF3",
"[. c #A6F7FA",
"{. c #C6C6C3",
"}. c #CDCCCB",
"|. c #CCCDCF",
" X c #C8D6DB",
".X c #D5D5D4",
"XX c #D5D6DB",
"oX c #DDDCDA",
"OX c #E2E1DE",
"+X c #C8CDE4",
"@X c #CCD2E4",
"#X c #C4DEE5",
"$X c #D3D6E4",
"%X c #D6D9E5",
"&X c #DBDDE5",
"*X c #D1D7E9",
"=X c #D5DAE9",
"-X c #DBDEE9",
";X c #E0DFE6",
":X c #E0DFE9",
">X c #C3E3EB",
",X c #C9E5EB",
"<X c #CAE6EA",
"1X c #DFE0E7",
"2X c #D4E7EB",
"3X c #DEE1EA",
"4X c #CCEAF2",
"5X c #D4EBF1",
"6X c #D9F1F5",
"7X c #E3E4E6",
"8X c #E8E6E7",
"9X c #E7E8E7",
"0X c #EAE9E7",
"qX c #E4E5EA",
"wX c #E8E7E9",
"eX c #E7E8EC",
"rX c #ECEBEB",
"tX c #F0EFEC",
"yX c #EFF0EE",
"uX c #F2F2EE",
"iX c #E3E6F0",
"pX c #E6E9F0",
"aX c #ECEDF0",
"sX c #F0EFF0",
"dX c #EFF0F0",
"fX c #F6F5F1",
"gX c #F8F7F2",
"hX c #FAF9F4",
/* pixels */
"7X7X0XtXfXfXfXgXfXtXrXrX0X0XrXwX0X0X0X0X0X9X9X0X0X0X0XtXrXrXrX0XtXtXtX0XtX0X0XrXrX0XrXeXwXwXwXrX8XrXrX0X0X0XtXtXrXtXtXrXtXtXrXtXtXrXrXrXrXtXrXtX0X0X0XrX8X0X8X8X",
"&X7XrXtXgXgXgXgXfXfXuXrXrXrXrXrX0X0X0X0X0X0X0X0X0X0X0X0XrX0X0XrXrXtX0XtX0XtXrXrX0XwXrXwXwXwXwXwX8X0X0XrXrXrXtX0X0XrXrXrXtXtXrXtXrXrXrX0XrXtXtXtX0X0X0X0X0X0X8X8X",
";X7XrXuXhXhXhXhXgXfXuXuXtXtX0X0X0X0X0X0X0X0X0X9XrX0X0XtX0X0X0X0X0X0XtX0X0X0X0X8X8X7XwX7XwXeX0XwX8XwX0XrX8X0XrXwX8XrXrXrXrXaXrXtXrXeX7X8XrXrXrX0XrXrX0XtX0X0X8X0X",
";XqXrXfXhXhXhXhXgXfXuXtXtXtXtXtXtX0XrXtX0XtXuXtX0X0X0XrX0X8X8X0XwX8X0XtXtXtX0X0X8X8X8X8XwXwXwXqX:XwX7X:XqXqXqXwXwX7XwXqXqX:XqXqXqX0X0XrXtX0XrXtXtXtXtXtXrX0X0X0X",
"7X7XeXsXfXfXgXgXgXuXuXuXtXtXtXtX0XtXtX0XrXtXtXtXtX0X0XtX0X0X0X0X0X0XtXtXtXtXtXtXrX0XrX8X8X8XwXqXwXwXwXwXqX7XqX7X7XwX8X0XqXqXqXqX8XrX0XtXtXtXtXuXtXtXtXtXtXtX0X0X",
"7X7X-XqXqXpXpXfXfXfXuXuXtXrX0XtXuXuXtXtXuXuXuXuXtXtX0X0X0X0X0X0XtXtXtXtXtXtXtXtXtXtXrX8XqX8XrXwXrX0X0XrXtXrX0X0XrXrXrXrXrXrXrXtXtXtXuXuXuXuXuXuXtXtXfXuXuXtXtX0X",
"7X7X-X-XqXiXqXiXpXrXrXrXtXtXuXuXuXuXuXuXuXuXfXfXgXuXtXtXtX0XtXtXtXtXtXtXtXuXsXfXuXuXrXwXwX8XwXwXwXwXwXwXwXrX0XrXrXrXtX0XtXtXuXtXuXuXuXuXuXuXuXfXuXuXuXuXtXtXtXtX",
"-X3XqXiXqX7XqXqXqXiX0X0XrXuXgXgXuXgXuXuXgXgXhXhXgXgXuXuXtXtXtX0XtXtXtXtXuXuXgXgXgXsXfXrXwXqXwX7X:X:X;X;XwXwXrXrXrXrX0XrXtXtXtXtXuXfXuXuXuXuXuXuXuXgXuXuXtXuXtX0X",
"3XqX3X3XqX3X3XqXqXiXqXrXaXfXfXfXfXfXfXfXgXhXhXhXhXgXgXuXtXtXtXtX0X8XwXeXpXfXfXgXfXfXrXeXeXwX:X;X&X&X&X&X;X8XwXwX8XrXrXrXtXtXtXrXrXuXuXuXuXuXuXuXuXuXuXuXuXuXyXrX",
"3X3XqX3XqX3XeXqXqXqXrXaXfXfXuXuXfXfXaXrXfXfXhXhXgXgXgXuXtXtXtXrX0X8XqX:XqXqXqXqXqXqXrXeXeXqXqX;X&X&X;X;X;X:X:XwXwX8X0XrXrXtXtXuXuXuXuXuXgXgXgXfXgXgXgXfXuXuXuXrX",
"9XeX9XeXeXrX9XrXpXrXrXdXfXfXtXrXaXeXqXiX7XqXdXuXuXfXuXuXtXtXrXwXeX-X-X-X=X=X-XqX;X&X:X7X7XqXqX7X;X:XqXwXwX7XwXeX0XqXrXrXtXrXuXuXuXrXtXuXuXfXgXgXhXgXhXfXgXuXuXrX",
"eX9XrXuXaXfXuXuXuXfXfXfXfXfXrXqX3X=X=X=X@X*X=X7X0XtX0XtXtXtXtXeXqXqX-X:XqXqXpXeXqX-X-X-X7X7X:X:XwXwXwXwXqXwXwXeXrXrXsXtXuXuXuXuXuXtXrXrXtXtXuXuXuXuXfXfXgXfXuXrX",
"fXyXfXuXuXgXfXuXuXuXfXfXrXrXqX3X-X=X=X=X*X=X=X-X7XrXrXrXrXrXrXrXwXeX7XqXiXiXqXpXqXqXqXqXqX-X-X-X:X:XqXqXqXqXwXeXeXrXrXtXuXfXuXuXuXrXrXwX9X3XeX3XqXqXqXqX0XyXyXyX",
"fXfXfXfXgXfXfXfXfXfXfXfXuXrX-X-X-X-X-X=X-X-X-X-X7X0X0XrXrXrXrXaXrXrXqXqXqX-XqXpXqXqXeXpXpX:X:X-X-X-X:X:XqXeXqXeXeXwXrXrXrXrXtXrXrXrX0XqX3X3X3X3X3X=X&X%X3X7XrXyX",
"gXgXfXgXfXfXfXgXfXfXfXrXrX7X3X3X3X3X3X-X-X3X-X:XqXwXeXrXrXrXrXtXtXtXtXrXqXqXqXrXrXqXpXrXpXpXeXqXqXqXwXeXeXeXeXeXeXwXwXwXrXrXrX0X0X0X0X7X1X3X3X3X&X3X3X=X=X1XqXrX",
"fXfXgXgXfXuXfXfXfXuXrXrX7X3X-X3X3X3X3X3X3X3X:XqX8XeXwXeXrXrXrXrXtXtXtXrXpXrXpXrXrXpXrXaXaXeXrXeXwXeXeXeXeXeX0XeXeXeXwXeXwX0X0XwXqX8XqX7X3X3X3X3X3X3X1X1X&X&X7XqX",
"gXgXgXgXfXfXyXfXuXuX0X8X7X&X3X3X-X7XqXqX3X3XqXqX9XeXeXqX0XrXrXuXuXuXuXuXrXuXtXuXtXrXrXrXpXrXrX0XeXeXrXeXrXrXrXrXeXrX0XeXrXrXwXeX9X7X7X7X9X7XqX7XqX7XqX-X7X7X9XwX",
"fXgXgXgXgXfXfXuXuXrX8X7X7X7X3X7X3X7XqXqXqXqXqXqX8X0XrXrXrXrXtXtXuXuXuXuXuXuXuXuXfXtXuXuXsXfXdXyXrXtXsXsXaXsXtXrXrXeXeXeX8X0XrX8X7X7XOX0X7X0XwXrXrXqXrXrXrX0X0XrX",
"gXgXgXgXgXuXyXyXrX9X9X9XqXeXqXqXqXqXqXqXqXeXeXqX9X0XrX0X0XrXfXtXuXuXuXgXuXgXuXuXfXtXuXuXsXuXyXrX8XOXsXtXaXtXtXtXtXrXrXrXrXwXwX;X7X0X9X0X0XrX0XrXrXrXaXrXuXuXuXuX",
"gXgXgXfXuXuXuXyXrXrX9X0X9XeX0XwXeXeX0XrXrXrX0XeX9XrXrX0XrXtXrX8Xx.}.uXuXuXuXfXuXtXrXrXtXrXrXuXrX7.W 0XfXfXtXtXaXsXsXtXrXrXwX8X8X9X9X9X0XrXrXrXtXuXuXuXfXuXuXuXgX",
"hXgXgXgXuXuXuXrX0X0XrXrX0X0XtXuXrXrX0XrXrXrXrXrXtXtX0X0XtX0X.XN.u E OX.XB.v.w._ W C v v V ) c.w.f F 7XuXuXrXfXrXtXtXwXwX7XqX7X7X9X9X0X0XrXtXuX0XuXuXuXuXuXuXfXfX",
"hXhXgXuXgXuXuXrXtXOX0XtXtXtXtXOXrXrXtXuXyXfXuXyXtXtXtXtX.XR 4 4 s Y l 8 , ; # . X k T / E t : 3 ;.J }.9XrXuXrX0XrXwXwX8X8X7XqXwX9X9X0XtX0X0XuXtXrXuXuXuXuXuXuXgX",
"hXhXgXgXuXuXyXrXtXtXtXtXtXtXuXuXuXuXyXuXuXuXuXuXuXtXtXtXW : ( m d 1.< ! q.g.! d Y 2 ] !.4X Xp h 2.9 : 7.oX9XwXqXwXqX8XqXqXqXqXrXtX0X0X0X0XtXtXuXfXuXuXuXuXuXfXgX",
"gXgXgXgXuXuXuXuXtXtXuXuXuXuXuXuXuXuXuXuXuXuXuXuXtXtXtXOXl ! R.L h 6.j X.Y.R.D | ;.T 0.L R.( d >.4.a ~ : 7.&X7X7X7X:X7X;XqXwXwXtXuXrXuXtX0X0XtXuXrXuXuXuXuXuXuXfX",
"gXgXgXgXuXuXuXuXuXuXuXfXuXfXuXfXuXuXuXuXuXuXuXuXuXuXrXOXt ~ K.n { 5.2.u m.z.3 =.j q.Q.K 9.< { 3.6.s  XE k I.$X&X-X-X;X;X0XtXtXtXuXyXuXtXrXrX0X0XrXtXtXtXrXtXtXtX",
"gXgXuXuXtXuXuXuXtXuXuXuXfXfXuXfXuXgXuXgXuXuXuXuXuXuXrXc.: o.z.r } 3.1.r &.k.e.J z m.l.M H.J e =.;.q Y.$.X V Q t.+X%X$X:XtXsXgXsXuXuXuXuXuXuXuX0X0X0X0X0XrXrXrXrX",
"gXuXuXyXtXrXrXyXuXuXuXfXuXfXfXfXuXgXgXuXuXuXuXuXuXuX}.4 z m.h.z 0 a r K m.K.P.K.G.G.g.X.F k.$.D M ..#X( V G t = t.+X+X$XeXgXgXgXfXuXuXfXuXuXuXrX0XrXwX7X7X7X7XwX",
"uXuXuXuXrXrXrXtXuXuXuXuXuXfXuXuXuXgXuXgXuXuXuXuXuXuX7.= d.l.Z.Z.q.&.a.K.b.9.A.Y.Y.( % l.p.b p.'.Z.&.~ w Z.5X2X8 E +X+X+X=XrXtXgXfXfXfXfXfXuXuX0X0XrXrX7X;X;XqXwX",
"uXuXuXuXuXrX0XrXtXrXtXuXuXuXuXuXuXuXuXuXuXyXuXuXuX9Xv B H.G.K.P.P.K.K.@.P s.K.K.L.a.( A.K.s.5 l n I o.f.#X,Xd.= 8.+X+X+X+X=XwXrXfXfXfXfXuXuXuX0XtXrX0X8XqXwXwXrX",
"uXuXuXuXtXtXtXtXtXtXuXuXuXuXuXuXuXuXyXrXrX0XrX0X0XB.4 X.K.U.K.K.K.Y.&.t a.P.P.f.s.S.K.P.H.M L C./.>X(.~.'.,X) w I.$X*X$X@X$X%X:X0XyXuXfXuXuXtXtXtXrXwXrXwXwXwXrX",
"uXuXtX0XtXtXtXtXuXtXuXuXfXuXuXuXuXrXrX9XqXqX1X1X7Xw.> d.K.$.q.K.K.Y.k.P 7 y Z ( e.d.K.Y.X.F `.'.'.T.t w R.4Xn.* 8.:X-X&X&X*X=X=X&XqXrXrXtXrXrXrXrXrX0XwX7X8X8XwX",
"tX0XrXtXtXrXtXtXtXuXuXuXuXuXuXtX0X9X3X3X&X-X-X&XXXR t L.&.a p z.K.K.P.U.p.t q.L.K.H.K.S.n Z.'.'.'.i.o 2 P.>X5XE 8 |.8X:XwXwX-X&X-X&X7X7X0X8XwX0X8XwX0XqX7X7X7X;X",
"uXuXtXuXuXuXrXuXtXuXfXrXrXwXqX7X=X3X-X1X&X1X3X-XXX8 P Y.r =.g o.Y.K.Y.K.L +.Y.K.L.K.q.n 2 T Q.'.'./.*.z.>X'.4XI.1 8.8X8XtX0XrX8X0XqX7X7X7XqX1X1X-X&X&X%X%X&X7X8X",
"fXgXfXgXuXuXuXrXrXrXrXrXqX-X=X*X%X=X-X3X3X3XqX3XD.- *.Q d <.<.j L m.K.k.L P.Y.K.K.K.9.X.P.( ..'.'.'.'.(.'.'.,X6XG v oX0XtXtXtXrXrX0X9X9X0X7X7X&X&X$X$X$X$X%X7X7X",
"uXfXgXgXgXuXuXuXuXrXrXwX-X&X*X*X=X=X=X3X3X3XqX3Xw.; e.0 } 3.5.4.r f.L.p.B d.L.K.P.K.K.u./.>Xe./.'.'.'.,X'.(.>X6X0.* }.tXtXtXtX0XrXtXrXrXrXrX9X7X7X7X&X&X$X&X%X&X",
"%X-XqXrXtXtXrXrXrXrXwXwX&X=X=X%X%X=X&X1X3X3XqX1X) 5 A.' e ,.4.g +.J.K.0.o I (.T.K.K.K.Y.(.'.'.(.'.'.>X4X>X'.,X6Xn.+ M.uXuXuXuXtXrXfXtXrXrXrXrX0X0X8X7X7X7X&X&X=X",
"@X@X*X&X7X7X7XrXrX0X0XqX7X-X=X%X%X=X=X1X-X3X7X&XR z A.Z.( i f +.K.k.G.f.F [ i.Y.Q.R.T./.'.'.'.'.'.'.'.'.'.'.>X6X|.* c.gXuXgXgXuXgXgXgXfXuXsXsXaX0XrXrX0X0XwXqX7X",
"&X%X$X$X$X%X7X7X0X7X9XwXqXqX-X%X%X%X=X=X1X3XqX1XH b S.f.P.Z M K.K.K.K.s.5 . X ; I z.>X4X,X'.C./.>X'.'.'.'.'.(.,XE.* c.gXgXgXgXgXhXhXhXhXgXfXfXsXuXtXtXtXrXrXrXpX",
"qX7X%X$X$X$X&X7X7X7XqXrXrX0X0XqXqX7X7X1XqXqX9XXXm y G.K.K.r.1 q.L.J.L.C , y.u.U 2 - Z b.'.>X] C.u./.'.,X'.(.R.P.b.@ N.gXhXhXgXhXhXhXhXhXhXgXhXgXuXuXuXtXuXfXsXfX",
"aX0X7X&X$X$X*X&X7X3XqX0XrXrXuXuXyXuXrX0XrXrX7X) 2 2 A.K.P.P.! 4 g.Y.L.B ; o.K.(.T.+.2 % L u.+./...J.,XP.+.n 1 % , # }.gXgXhXhXhXhXhXhXhXhXhXhXhXuXtXrXrXaXrXfXfX",
"rXfXrX7X%X*X&X&X7X7XrXrXuXuXuXyXrXuXrXtXrXOX/  . .% f.K.z.S.S.Z l G.P.O.o X 8 ..z./.Q.( % 7 l.'.H.( u @ - k U / * k XXaXaXsXgXhXhXhXhXhXhXhXsXaXiX3X3XiX3XqXpXdX",
"rXrXyXeXqX7X;X7X9XrXrXuXuXuXuXfXuXuXuXyXOXW ' ;.` O ] P.A.K.Y.a.- q.L.o.@ N 3 % 2 B q.R.k.7 2 g.w - z [ 9.X.L 7 O R %X:XiXiXiXpXpXpXdXdXdXdXiXiX3X3X3X3X3X3XeXeX",
"uXuXrXrXrXrX0XrXrXrXrXrXuXuXuXuXuXrXaXrX}.A J T ) k 7 H.K.H.K.R.x P R.9.& F.F.-.g & . 7 $.&.% c # X.( t @   . O O 8.%X=X=X=X*X*X=X=X3X3XpXiX-X3X3X3X3X3X3XqXiX3X",
"uXtXuXuXtXtXtXrXyXrXrX9X7X7X3X7X7X9XrX0X0XoXoX7X0XM., X.A.p s U L t K.r.- :.[.].^.:.' r O - 2 #.# @ @ ; p T J X = n.%X:X-X3X-X-X-X3X3X3X6X-X-X-X3X3XiXiX3XiX3X3X",
"0XtXuXuXuXuXuXtXrX0X0X9X1X1X1X7X9X0XrXrXuXuXuX0XtXoXk A i.i 1.s ~ 7 m.m., J _.].[.].).F.N X ] ,XL @ ' V.^.^.N o 8 +X=X-XiXiX3X3X3XiX3X3XiX3X3X-X5XiXiXiX3X3XqX3X",
"tXtXuXuXuXuXuXtXtX0X0X0X9X0X0XrXrXuXuXuXuXuXuXuXuXuX7.# y h 2.s n.t z.L.( o %._.[.[._.j.& M Q.'.k.@ ' _.[.:.% o R iXiX-X3X3X3XiXqXqX3XiXpXiXiXiXpXiXiX-XqXqXeXqX",
"uXuXuXuXuXgXuXuXuXuXuXyXrXuXuXuXuXuXuXgXgXgXgXuXgXgXrX7.> 0 g G R.K q.K.G.Z % p J J p - u U.'.'.(.K & %.-.9 O O 8.qXpXpXiXiXiXpXqXpXpXpXaXaXpXaXpXqX-XiXpXeX0XrX",
"hXgXgXgXgXuXgXgXuXuXuXuXuXuXgXuXgXgXfXgXgXgXgXgXgXgXhXgX|.7.k + I p.U K.P.H.( m l z D $.Q.'.>X>X'.L.V @ o r r * D.eXpXaXaXpXaXpXpXaXdXaXdXaXpXaXpXiXqXqXqXrXyXuX",
"hXhXhXhXgXgXgXgXfXuXuXfXuXuXgXgXgXgXgXgXuXgXgXgXgXhXhXhXgXfXOX7.# 0.e.Z.g.u u ( Q.#XJ.z.#X>Xf.u.`.Q.X.m e 1.0 V oXrXrXuXyXyXyXuXrXuXyXuXyXrXpXpXeXqXqXeXrXuXuXgX",
"hXhXhXhXgXgXgXfXgXtXtXfXuXuXuXuXsXgXgXgXgXgXhXgXhXhXhXhXhXgXgX8Xl K L.U.^ m K.Q.(./.O.w.z.G.@.w.y.+.w.S $ a o w.rXuXyXuXuXuXuXuXuXtXyXrXaXeXqXqXqXqXqXrXuXuXgXgX",
"gXhXhXgXgXgXgXuXuXtXtXuXtXuXuXgXgXgXhXgXgXgXgXhXhXhXhXhXhXhXhXfX7.4 h.K.q.M ~.`.R.F 6 l : ; 2 5 * = , 4 # X v 7XuXuXuXuXuXuXuXfXuXuXuXtXaXeX9X7X3XqXqXrXuXuXgXgX",
"gXgXhXgXgXgXgXfXfXtXtXtXtXtXtXuXtXfXgXgXgXgXgXgXhXgXhXgXhXgXhXgX.X, c b.S.F *.`.u.- Z P / ] X.&.9.q.a.y.1 8 B.rXuXyXrXuXuXuXuXuXuXuXtXtXrXrXeXrXeXrXrXrXuXuXgXgX",
"gXgXgXgXgXgXgXgXuXuXuXuXtXtX0XtXsXfXfXfXgXfXfXsXsXsXaXrXsXsXhXfXN.= @ 5 +.b.s.~.b.2 u.Z.A.C.G.R.W.E.p.k : v.eXaXrXyXrXuXuXyXuXuXuXuXtXtXrXrXrX0X9XeXrX0XtXfXgXgX",
"gXgXfXgXfXuXgXuXuXuXrXrX0XtX0X0XeXrXrXrXrXrXeXrXeXrXeXwXwXsXsXN.8 O O X O : l P @.! z.R.!.!.H.8.C 6 : v N.tXrXrXrXrXrXuXuXuXuXuXuXtXtXtXaX0XwX8XwXqXrX0XrXtXuXgX",
"gXuXfXuXuXuXuXuXuXuXuX0X0XtX0X0XqXeXqX7X7XqXeXeXpXeXrXpXpXpXXXx - z Z @ 5 N 6 - $ O ; 5 t 6 O O X > x.OXtXtXfXfXfXuXuXuXuXuXuXuXtXtXtXrXrX0X8XqXqX0XwX0XrXrXtXuX",
"gXuXuXuXtXtXtXtXtXrXrXrXrXrX0X9X-X-X7XqXqXpXpXeXsXsXsXaXsXwX7.* z ( p.P : &.*.*.Z.s.+.U Z I 0.d.* * x XXrXfXtXtXuXuXuXuXuXuXuXuXtXtXrXtXrXrX8XqX9X7XwXwXrXrXrXtX",
"uXtXtXtXtXtXtXrX0XrXrXrXwX0XwX7X-X-X7XwXaXrXrXsXaXfXfXyXuX.X6 2 K #.K...* $.&.*.e.*.] Y.(.#X,XI.- W * x.iXqXeXrXyXuXrXuXtXtXtXtXrXrXrXrXrXrX0XwXwXwXwX0X0XrXrXyX",
"uXuXtXtXtXtXtXrXtXrXrX0X8XwXwX7X7X-XqXeXrXsXaXsXrXaXdXfXrXw.* m ^ e.`.+.# +.*.*.o.T K./.>XT.<XI.* r.t R 3X3XqX3XqX0XrXrXrXrXrXrX0X8XqXwX0X0X8X8XwXrX0XrXrXuXrXrX",
"tXrXtXsXtXtXtXtX0X0X8X8XqXrX0XwXqX7XeXrXrXtXaXsXfXdXuXrXuX) = Z o.z.>Xy.O B #.&.9.J.,Xk.!.r.g.D.- / A 8  X7XqX9XeXrXrXpXtXrXrXrX0X9X0X0X0X9XwXqXwXrXrXrXrXtXrXrX",
"wXeXeXpX0XwXrXrX0X8XqXqXwXrXeXrXrXrXrXrXaXsXsXtXfXrXuXrXrX_ O : n R.4Xd.% 6 z t F f.+.X.,XR.P ( k X X 1 }.rXrXyXfXfXfXfXuXfXtXfXyXrX0X0X0X0XrX0X0XrX0XrXeX0XqXqX",
"&X%X-X-X&X7XwXrXeXqX:X7XwXrXrXrXaXuXuXuXuXrXuXrXeXrXrXaXoXx # 4 O z / k : X.! Q ~ / r.,X,X'.`.5XA : O.: M.rXdXuXfXfXgXgXgXfXfXgXuXuXtX0XrXrXaXrXrXrXrXqXqX3X-X=X",
"$X%X=X-X:XqXwXwXrXwXqX7XqXwXrXrXrXrXrXtXuXyXrXrX0XrXrXrX|.4 = A I t 4 = : $.*.*.C.,X,X'.>X>X'.2Xl * 5 4 }.aXyXuXfXgXgXgXgXgXfXgXgXfXuXrXfXrXrXrXqXqXqXqX3X3X=X=X",
"%X%X&X7XwX0X0XrXrX8XeXwXwXeXpXrX9X9X0XrX0XrXrXrXrXuXfXuXoXk O ; h. X XA $ ] *.] ..b.#.K.4X,X>X*X4 = * 5 XXrXrXaXtXfXgXgXgXgXgXuXfXuXtXrXrXrXrXqXiX3X-X3X3X=X%X=X",
"%X&X:XwX0XtXtXtXrXrX0XrX0XwXeXeXrX9X0X0XrXrXrXuXuXuXuXuXtX7.@ u e.T.R.; 6 X.F t B y U ~.>X,X2X2X8 * = ) -X3X-XqXqXrXrXtXfXfXfXuXuXuXrX0XrXrXpX3X-X-X-X3X3X3X-X=X",
"qX7X;XwX0XtXtXrXrXrX0X0X0XwXqXwXrXwXwXwXtXtXtXtXuXuXgXuXuXOX) # , t z X 8 t t c Z E ! W. X X,XXX6 C N.OX7X3X=X=X-X3XiXiXaXaXsXtXtXrX0XwX0XeXeX:X3X3X&X3X3X3X-X-X",
"qXqXeXeXrXsXtXtXtXtXrXeXqX:X7XqXwX7XrXrX0XrXtXtXuXuXuXgXuXuXtXv.R l O O # : O X @ @ k Z ; % 4 2 * v.uXrXeX3X-X=X=X=X=X-XiXaXaXrXrXrXrXrXrXrXqXqX3X&X3X-X-X3X7X&X",
"qXwXrXtXtXtXtXtXtXtXrXeXqX:X-X-X&X7XqXrXrXrXtXtXuXuXgXfXgXuXtXtX0Xc.O = = 1 / 0.# 8 @ - C X.L z : {.gXuXrXaXeXiX-X-X=X=X:XqXpXqXrXrXrXrXrXrXqXqX&X-X&X;X3XqXqXqX",
"&X:XrXaXtXtXtXtXsXsXrXrXeXeXqX7X7X7X8X8XrXrXtXuXuXuXuXuXuXuXuXuXuXc.O m X.q.>X,X, _ 6 t @.A.#Xn.4 {.uXuXfXdXaXaXpXrXqX:XqXiXqXpXwX0XrXwXqXeXqX-X&X&X&X7X3XqXqX1X",
"&X&X:XwXrXrXtXtXuXuXtXtXrXrXpXrXrXrXrXuXuXuXuXuXuXuXuXuXuXuXuXuXuXx.# = z / @.O.= _ k = 7 z M l ; v.yXfXfXdXyXuXtXtXtXrX0XeXeXeXrX0XwX7X7X7X7X-X&X&X&X;X&X;X;X%X",
"&X&X;X;XqXwXtXtXtXgXfXtXfXaXtXfXuXrXuXgXgXgXfXfXgXuXgXuXgXuXgXgXuXOXx.W 6 * - : 4 x.w.P V x k G 7.XXrXrXfXfXfXfXuXtXsXtXtXrXuXrXrX0XrXrX7X3X&X%X$X$X$X%XXX&X&X%X",
";X7X7X7XwX0XrXtXuXuXuXsXrXaXrXsXrXrXrXsXsXfXaXaXuXuXuXgXuXuXuXuXuXuXuXrX.Xc.M..X}.%X*X@X@X$X@X@X@X=X3XeXyXdXrXfXfXuXuXtXtXtXuXrXsXrXrXpX0X7X1X&X&X%X%X&X;X;X;X;X",
"wXwX0XwXtXtXtXtXtXgXtXsXaXeXrXeXeXqX-X-X7X3XiXeXtXtXuXuXuXtXtXuXtXuXtXrX0XqX-X&X%X%X*X%X*X=X=X=X*X3X3X3X3XeXrXrXtXfXuXtXtXrXrXaXtXuXrXpX0X7X9X7X7X7X7X0X7X8X0X0X",
"rXtXrXtXtXtXtXsXtXsXsXaXpXqXqX:X-XqX-X=X-X3X3XqXOX0XqX0XrXwXrX0X0X8X8XqX7X&X%X%X=X=X=X=X=X=X=X3X-X3X=X=X-X-X7XqXrXrXuXuXrXrXrXrXrXrXrXwX0XrXrXtX8XrXwXrX0XtX0XtX",
"tXtXtXtXtXtXrXsXrXrXeXqXqXqX-X-X-X-X:X-X3X3X-X-X&XOX&X7X3X7X7X7X;X&X&X&X%X*X$X%X=X=X=X=X=X=X=X-X=X=X=X=X=X=X&X7XqXqXrXrXuXrXrX0XwXwXwXrXrXtXtX0XtXrXrXrX0XtXtXuX",
"uXuXuXuXtXfXtXaXrXeXqX-X-X-X-X-XqX:X-XqX3X3XqX-X&X-X-X&X%X%X%X%X$X$X&X$X$X@X$X*X=X*X=X*X=X*X*X=X*X*X=X3X-X3X7XqXqXqXqX0X8XwXrXtXrXrXrXrX0X0X0XtXtXtXtXwX0XtXtXuX",
"uXgXuXgXgXsXrXrXeXqX:X-X-X-X3X7XqXqXiXiXiX3X-X-X7X-X-X-X&X%X%X*X$X$X$X$X$X$X$X%X-X=X=X=X3X=X=X=X=X=X3X3X7XqXrX0XqXqXrXeX8X8XrX0XrXrXrXrXtXtX0XtXtXtXtXtXtXuXuXuX",
"gXuXuXgXuXuXrXeXeXqX-X7X3X7X7X7XqXqXqXqX:X:X7X7X7XqX7XqX;X&X&X&X&X%X$X$X$X%X&X-X3X-X-XiXqXqX7XqX3X3XqXqX0XrXrXrXrX0XrXrXrXqX8X8XrXtXtXtXtX0X0XtXtXfXtXuXuXfXfXuX",
"fXgXgXuXuXtX0XwXqX-X:X-X7XqXwXqXqXqXqXqXqXqXqXqXqXeXeXqX8XwXwX0X8X7X;X&X-X&X-X-X5XiX:XiXwX0XwXrXrXaX9X0XrXaXuXrXrXuXrXrXuXrXrX8XwX0X0X0XtXtXtXtXtXtXtXtXtXuXgXgX",
"gXgXgXuXtXrX0XqX7X3X7XqXqXwXqX7XqXqXqXqXwXeXeXeXrXrXrXwXrXrX0XrXwXqXqX;X;X&X-X:X:X7XqXeXrXrXrX0XrXrXrXrXuXrXuXuXuXuXuXuXuXrXrXrX0XwXrXrXrXtXtXtXtXtXtXtXtXtXuXuX",
"uXuXuXtXrX0X8X7X:X:XqXqXeXeXwX:X:XqXwXeXrXtXtXtXtXrXrXrXrX0XqX7X7X7XqX8X7X7X:X:X&X:X;XwX0XrXrXrXrXrXrXfXuXuXuXuXuXrXuXrXrXrXuXrX0X0XrXrX0X0XrX0XtXtXtX0XtXtXtXuX"
};
