/* XPM */
static char *_8d8fa230497465d8d9e193f24f919de[] = {
/* columns rows colors chars-per-pixel */
"80 80 130 2 ",
"   c #3E92E5",
".  c #3D91E4",
"X  c #4CABF1",
"o  c #4AA9EF",
"O  c #3F96E3",
"+  c #4AABEF",
"@  c #49A8EE",
"#  c #3C90E3",
"$  c #4BAAF0",
"%  c #47ABF0",
"&  c #4BACF1",
"*  c #3F97E6",
"=  c #49A7EE",
"-  c #3E95E6",
";  c #47A9ED",
":  c #3E93E1",
">  c #49AAEE",
",  c #45A5EC",
"<  c #3B8FE2",
"1  c #3F94E2",
"2  c #3F93E6",
"3  c #3D93E5",
"4  c #46A8ED",
"5  c #4199E6",
"6  c #46AAEF",
"7  c #4CACEE",
"8  c #3E92E2",
"9  c #4CADF1",
"0  c #47A9F0",
"q  c #3D90E5",
"w  c #4BAAED",
"e  c #4DB0F2",
"r  c #42A1E9",
"t  c #429FE8",
"y  c #48AEF1",
"u  c #47A3EB",
"i  c #3C92E0",
"p  c #3C91DF",
"a  c #3F9BE5",
"s  c #429CE8",
"d  c #3F90E0",
"f  c #45A0EC",
"g  c #3E98E4",
"h  c #47A6F0",
"j  c #AEC7CF",
"k  c #398CDD",
"l  c #44A4E8",
"z  c #242A2C",
"x  c #419AE9",
"c  c #BFE3EB",
"v  c #1F2323",
"b  c #46A3F0",
"n  c #3487D9",
"m  c #439EEC",
"M  c #3990DC",
"N  c #4BA9F2",
"B  c #3B97E1",
"V  c #181B19",
"C  c #A3B9BE",
"Z  c #48A7EB",
"A  c #49A5EF",
"S  c #52B2F3",
"D  c #2A7BC7",
"F  c #293032",
"G  c #AFCAD0",
"H  c #303737",
"J  c #5B686B",
"K  c #2F81CE",
"L  c #879B9F",
"P  c #434C4D",
"I  c #419EE5",
"U  c #4F5A5C",
"Y  c #2C4353",
"T  c #3F9BE0",
"R  c #3C4445",
"E  c #363E3E",
"W  c #ACC4CA",
"Q  c #546163",
"!  c #50ADF5",
"~  c #2573C1",
"^  c #98ADB2",
"/  c #3C8CD3",
"(  c #C3E6EE",
")  c #69777A",
"_  c #A7BFC5",
"`  c #94A7AD",
"'  c #7E8F92",
"]  c #CCE8EF",
"[  c #3994DC",
"{  c #273842",
"}  c #386589",
"|  c #829498",
" . c #8BA2A6",
".. c #2F4F5D",
"X. c #345975",
"o. c #B5D1D6",
"O. c #717E81",
"+. c #9DB3B8",
"@. c #495456",
"#. c #206BBB",
"$. c #617074",
"%. c #C1DFE6",
"&. c #BBD9DF",
"*. c #4381B1",
"=. c #728386",
"-. c #7B898C",
";. c #3688CF",
":. c #4A9FDD",
">. c #325E62",
",. c #3F8B91",
"<. c #3F77A5",
"1. c #468DC1",
"2. c #D6EEF4",
"3. c #57DFEA",
"4. c #93D4D8",
"5. c #397B82",
"6. c #55C1C9",
"7. c #4895D0",
"8. c #366F74",
"9. c #3B6E9D",
"0. c #BAC9CC",
"q. c #4386BD",
"w. c #73878C",
"e. c #A9F9FD",
"r. c #A3EEF1",
"t. c #3F6C8E",
"y. c #5F8385",
"u. c #51A3A9",
"i. c #88C3C6",
"p. c #3D9AA8",
/* pixels */
"o o > $ % % % 6 + % 6 ; ; ; 6 > + + & & + ; , , , , , 4 4 & 9 + o @ = @ @ @ @ @ = , l , ; 4 4 ; 6 % y y e y l T a I a g g s r r , Z Z w 9 X N = u u K T S S S S ",
"@ = = 4 4 6 % 6 > > > ; ; > 6 > + % 6 + 9 0 , r r l $ > 6 y & + o @ @ @ = , u , = @ ; + 9 9 e e y y e e e y % , t t r r A X 9 ! e e S S 7 h f A X [ D Z e S S S ",
"= u l , , 4 ; > > > > > > > ; > + + 6 ; 4 , l 4 ; & 9 y y y & X $ o @ @ o $ $ $ $ + 9 e 9 9 9 9 9 y y y % % y % % y & & & + X & 9 9 7 w ; N = ! u D / e S 9 e e ",
"u r r l , Z 4 ; > > > > > > > > % % + 6 4 4 6 % & y y y y y & & X $ o o $ X X $ $ + 9 e e 9 9 9 9 9 y y 9 9 % % y y y y 9 & & & & 9 & + X X ! ! / K @ S 9 9 e e ",
"u r u , = @ o o $ X $ $ $ $ + + + + + > 6 6 % % % % % % % % + + $ X X X X X X X X X & 9 9 9 9 9 9 y & 9 9 9 & y y y y y 9 9 9 & & & & $ $ ! ! A D ;.! e e e e e ",
"u f u , Z = @ @ o $ o $ $ $ & & & & + > 6 % % % 6 6 6 6 % % & X X X X X X X X X X X & 9 9 9 9 & & 9 & & & & & y y y y 7 7 + + + X X X N ! ! N T ~ / w S e e e e ",
"f t u u u u , Z @ o o o o $ + % % + % 6 % y y 6 4 4 6 % y & % X $ $ $ X X X X X X + & 9 9 9 9 7 9 9 & + + + & 9 y 7 7 w w w w w $ $ N N ! ! ! T D ;.T 9 e e S e ",
"u t t t t r u u = @ @ @ @ $ 6 % % % % % + 7 9 > 4 > % & & & % $ N N $ X X X X X X + 7 9 9 9 7 7 9 9 & X + w + 7 7 7 7 7 w w 7 & $ o @ o $ X X u ;.K M o S S S S ",
"u r t t t u = = @ @ @ = = o 6 % % % % % + w w ; ; o $ % % & % + $ $ $ X X X X X X + + + 7 7 9 9 9 9 & X + w $ 7 + + 7 X X X 7 & X $ $ $ $ X $ @ M D K t S S S S ",
"r t t t u u = = = = = = = @ > % % % % + + ; ; ; ; > $ % y & & & X X X X X X X X + w w + + 7 9 9 9 9 & X $ w $ + + + + 7 X X 7 & X X X X X X $ o A M D / Z S S S ",
"a a a s s s u , , , , , = o > > > > + + + w ; ; ; > $ + % y 9 9 & X + $ $ w + + $ w w + + 7 9 9 & & & X $ w $ + + + + w w w X & X X & X $ $ $ N X = / D T ; e S ",
"g g g g a s f r l , , , = ; o o o > + + + w w > > > o > + y 9 9 + + w w $ $ + $ o o w + + 7 9 9 & & & & $ w $ + + + w w w w X X & & X X o @ = o N ! [ D [ T @ o ",
"g 5 g B 5 s m r , 4 ; 4 4 4 ; o o o o o o w w > > > o > + 7 9 7 w w w @ @ $ $ o o w w + + 7 9 9 & & & & + w $ 7 + + 7 w w w w $ X X $ o Z = = = u t D D [ [ T I ",
"g g 5 x s s f , 4 6 % > > o o @ @ @ o o o w w ; ; o o > > 7 7 w w w Z l , o w o @ @ w w + 7 9 7 7 7 & 7 + $ + 7 7 7 7 w w w w $ X X $ = u u I B / D #.K I I l & ",
"* * O O g s u h = 6 % > w @ @ @ @ o o > > w o ; @ ; o o ; w ; Z l r r u = $ o @ @ w w w 7 7 7 7 7 7 7 + 7 & + 7 7 7 7 7 7 w w 7 + X N m : ;.K K K K [ u e e e e ",
"* O 1 : g s b h 0 % % o @ = = @ @ o $ > > o @ @ @ o o o Z l l l l l l Z o N o o o w *.<.w 7 7 7 7 7 7 7 & X X + + + + 7 7 + + w = A p D ~ D ;.B u w 9 e S e e e ",
"* * O g s A h N N % 6 @ = = = @ @ o o > > ; @ Z Z l l r r l Z Z Z w + X ! X $ $ X :.....:.9 7 7 7 7 7 + & X $ $ w + + + 7 + & o A 1 D ~ M w S S S e e e e e e 9 ",
"O * g 5 f N h h N 0 4 h = A = = @ @ @ o > o o Z l l , Z Z o > > + w l 7.*.} X.X.} X.8.8.*.w 7 7 7 + $ $ N N N = @ o o o o o % A : D K I e S S S e e e e e e 9 7 ",
"O O O 5 s m f f f r r , A A = , u Z o o ; 4 Z Z Z Z 1.*.Z X w :.q.} Y H F E P P H z p.,.F ..*.w $ @ = A u A A u u u A = = r B K D / u ! e S S e e y y y + > ; w ",
"O O * 5 5 a s x g a I r u u u u u Z Z 4 4 @ o > w Z } Y *.q.X.{ z V V z $.C %.%.' ..6.6.R P F *.$ o h r s s x a g g B B [ ;.D D M , 9 e e e e 9 9 % ; ; ; Z w + ",
"5 5 5 a s s a x - B a f A A r I t t r Z @ o $ l <...{ 5...z E J -.P ,.8.@.$.L j U 5.3.6.J 0.P Y 1.1.7.s s m m g M / ;.K K K n [ T l y e & $ > + + ; ; ; w + + o ",
"5 5 5 5 5 5 5 * 3 : 1 a a a T T a I u = o o @ } z R H p.u.R ` G C >.6.,.| +.J ' { ,.3.6.>.j -.v z z { *.5 1 / D ~ K ;.;.[ I u u l r l @ @ Z ; 4 Z 4 + + + + $ $ ",
"5 5 5 g g 5 O : 3 8 p i B B a I t u = N o o :.{ Q C U ,.3.,.) W ^ Y ,.>. .C Q +.) Y >...Q o.' Q ` ` P Y ~ ~ D K M t @ X 9 9 $ @ = t T I r l Z ; 4 ; > ; $ X X X ",
"5 5 5 g * O 1 8 # 8 1 g 5 t u = @ = = = = @ :.{ $.W U 5.3.3.>.-.+.| ) $.C _ O.J L ^  .` ^ ' @.| 2.] U Y 7.l 7 e e S e 9 7 7 & $ o l t r r l > & 7 7 & + + X X X ",
"5 5 5 * O O 1 8 # : * 5 t u @ $ $ @ = = = = :.Y U _ @.8.6.6...-.W G j j C J ' ` $.$.L ) @.J L &.( o.H } e e y e e e e 7 ; Z 4 = = , u , = > + + > + & & + X X + ",
"* * 5 5 5 - O 3 3 s b b = N o $ @ @ @ @ @ o 1.z J _ Q { ..Y ) _ +.^ W j +.P O.G W J H O._ %.G G c %.Q { 1.e y y y ; ; 4 l l , Z = @ = @ o > > > ; ; > + + X X X ",
"5 x x x x * - - x m m t r , = @ @ @ = = @ Z X.H ` C ^ | ' ` W  .) +.j G j C _ G  .P ^ c ( C E P o.2.0.R Y :.e % 6 ; 4 4 = , , Z = @ = = @ ; ; ; 4 ; ; > + X X X ",
"x s x x x * * x s t t l , , , , l , , , , :.{ J _ C W G j G  .Q ` G C | L C W j $.-.c c ( L V R o.( 2.C F X.% % 0 4 4 @ @ = = Z Z Z ; @ ; ; ; ; 4 ; % & + X X X ",
"5 5 5 5 O g t r r r r r I I I I t , h = h 7.F O.G j j j j j =.P U Q Q ' +.C j W Q ^ ( c c G | C c c ] 2.O.z 1.% 0 0 0 > 0 4 ; ; Z Z 4 4 4 4 0 > ; ; % y & & & & ",
"5 5 5 5 O 5 m t r I T T T I t r , A , h u 1.F ' G C +.W j j _ ^ ' R -.G j j C $.R U  .c c c ( c c c c 2.0.H } + > > > > 0 ; ; 4 Z Z , , , Z ; % 6 6 % y & & & & ",
"g * g 5 x s s f r t a a I I r t r I I a s *.z L _ Q P ` j j j G  .J _ j j j ^ Q +.^ $.C c c c ( ( c c ] 2.J Y :.0 0 0 > 0 4 4 Z , , Z , Z 4 > > 6 % % y & & & & ",
"O * s f m x x s a s s a t s a I t t a a f <.F ` L >.5.$.+.j j j ) | G j j j W  ._ ( o.j c c c ] ] c c ] 2.L F 7.% 4 4 ; @ = , , u l u u = = 0 % % y y y & & & & ",
"5 5 5 O 1 i i 1 5 s s x s 5 g g a s s f A t.H ^ J 5.6.,.>.=.W W ) =._ G j j j j o.c c c c c c c c c c c 2.C z <.> 4 Z 4 , , u u t a a I r l , ; & y y % + X X X ",
"1 1 : i i M p O 5 5 5 * O O g g g g t f u X.E L ..p.3.3.u.U _ j ) v | %.o.G j G &.c c &.%.c c c c c ( %.o.^ F t., l l l l l t a g B [ M B T r 4 % % % 6 Z , , Z ",
"1 O O O : p i 3 - O O O - * 5 5 5 m f a 5 X.R ' Y ,.3.3.8.L _ W -.R O.L ` C o.%.] ] c ` C _ &.( ] &.^ J H F v t.I T B B B T B T I t a [ M M T r , 4 , t T T T I ",
"1 O O 1 i p p 8 3 * - 3 3 3 O 1 O x 5 * 5 X.R C ' ..5.5.O.W C _ C U z z z F P ) +.&.%.w.` L ` %.^ U z E J H V t.T T T T T I I l l , u a [ M M B g g a a I Z , t ",
": 1 O 1 : i i 8   - - 3 3 3 : : 1 O O 1 g X.E C C ^ @.E C j W j ' v ) +. .=.@.F v R O.| &.o.| Q z R ) ' J z v *., l Z Z Z Z Z w w Z = = t g B B g a u o o $ @ Z ",
"i : 1 O 1 : : 8 8 3 - - - 3 1 1 O O 1 1 O } H ^ C W ` R ) W j G -.v J ` W &.&.W | @.z R ^ ^ H H ) -.U z V V z 1.; @ @ @ @ @ w w w + X $ o @ = Z , = o $ $ $ o w ",
"1 1 O O O 1 1 3 3 3 - - - - 1 1 O O O 1 * 9.z L j j j | H J _ G +.E V v E Q =. ._ j ` R E P F ) @.v v P R V F 7.> ; ; ; ; ; > > + + + + 7 + & 9 9 & X & & + > + ",
"1 1 O O O O O - 3 3 - * * - 1 1 O * O O / ..v $.j W C j  .E J W W U z Q P F v v z P O.U F U v v v @.| 4.J V { :.6 6 6 6 ; 6 0 + + + > + 7 7 & 9 9 9 9 9 & 7 + + ",
"1 1 O O * O O * - - * * * - 1 1 O * O 1 } ,.>.H +.W C W G | F | G ) F i.4.i. .y.Q E z V P W Q V y.4.r.4.H V Y l % 6 6 6 0 6 % % + + > 7 7 + & & & & & & & + % + ",
"1 1 O O * * * * * * * * - 3 1 - O O O <.8.6.8.V ) j j j W W U @.W L z | e.e.r.r.4.4.$.V ' ( W E P 4.r.' V V ..Z 6 ; 6 > 6 > + + + + + + 7 + + + + + + + + 7 7 7 ",
"O O O O * * * * * * * * - 3 2 2 - - k Y >.>.X.Y F L j =.Q J J H ` _ R E i.e.e.e.e.4.R P o.c (  .z R U z Y V X.w > > > > > > + + + + + + + + + + + + + + w 7 9 9 ",
"O O O O O O O * * * * * - 3 3 2 2 2 d 9.9.q.: / { P C U ,.5.J P =.G  .H R  .i.^ y.E F ` c c c c  .P v >.u.v t.+ > > ; ; ; ; ; > > > > > > > > > > + + + w 7 9 & ",
"1 1 1 1 1 1 1 - - * * * - 3   3 2 2 3 3 3 2 - x } z ) ..6.,.' w.Q W j L R v z z F U +.c c G G ( _ -.R >.5.v *.+ ; > ; ; 4 ; ; ; ; ; > > > ; > > > + + + w + 7 & ",
"1 : : 1 1 1 1 - - * * * - 3 3 3 - 2 3 . .     * / ..v V 8...O.C J L G G ` J $.` j C +.%.o.' | ` ) O.R V V { :.; ; > > > 4 4 4 ; ; > > > > > + + + + + + w w + + ",
": i i : : : : 3 - - * * - - 2 2 2 2 . . # < < k k K } ..Y F z Q  .w._ ` P Q ` %.&.' | | O.U U F H P J E v <.4 4 @ > > ; 4 Z Z 4 ; ; > > > > + + + + + + w w + + ",
"i p i i i : i 3 3 - - * - 3 - - - 2 < k n K K D D ~ D M [ / } v ) W j =.@.o.c %.' R P F H P J =.L C  .H ..:.4 Z 4 > > 4 Z Z Z Z 4 ; ; > > > + + + + + + w + + + ",
"p i i : i : : 3 3 1 O g B 1 - - - 2 k n K K K ~ ~ K g a a a T X.H ^ G ^ @.+.c o.E E J -.L ^ C G j L R { 1.4 , Z 4 > > ; Z Z 4 ; ; 4 @ o > > > > > $ $ + w w > > ",
": : 1 1 1 1 O O - 1 O a a B 3     # k n n D #.~ M a I r r r u 1.F P ^ W | J W &.P J C W o.&.0.' P z Y 1.Z , , = ; ; > ; 4 4 ; 6 ; 4 @ o $ o $ $ w w w w w ; ; ; ",
"i i : : : 1 - - - - O O O O 8 d d < k n ~ #.K a u , @ $ N N N u Y V F U ' L ` C ' O._ _ +.=.R V z <.:.4 l , 4 o o ; ; ; 4 4 ; 6 ; 4 @ @ o o $ $ o o o o ; Z 4 4 ",
"p . 8 8 p 8 : . 8 1 O 1 1 1 d k n K D #.~ [ l 4 4 @ o = A A A q.z F @.E v v z z F F F F z z Q @.{ T h h h h h @ > ; ; @ Z Z 4 ; ; ; o @ @ o o o o o o o ; Z Z 4 ",
". # # . # < # k k k K D ~ ~ ~ ~ ~ #.#.D M r , , , r r m m m m } v U L _ ) F V H O.w.=.w.| C ] -.F 7., h h h h @ 0 0 4 4 , , 4 ; 6 > @ = = = @ o $ $ w o w Z @ @ ",
"# < < < k k n K D ~ #.#.~ D n k k p i : 5 s m m m x - - O * * X.v U w.C %._ J z =.L  .&.( ( 2.| F 7.b h h b h @ ; 4 , , l , 4 ; 6 > o = , = @ o $ $ $ w w Z Z Z ",
"k n K K D D ~ #.#.~ D n : 5 5 5 5 g [ [ g * 2 2 2     . 3 3 - <.z R $.| G ] 0.F V v -.&.%.j ] ^ z q.b b h h h @ @ Z , l r , 4 ; 6 6 @ = = = @ o o $ $ w w Z Z Z ",
"~ #.#.#.#.#.~ K n k 8 1 1 3 8 i 3 3 i 3 3 3     3     .   3   / Y z U O. .j ) z J z @. .o.L L L F } f A h , h = = , l r l l 4 ; ; ; ; 4 4 @ @ @ @ o o $ o @ Z Z ",
"D ;./ k k d d . . 8 3 - 3 3 # # . . # < #                     / { V E Q @.H z $.&.O.V J %.o.=.| U Y I u , , , r t I I l , , 4 4 4 4 ; ; ; o o o @ @ o o = = Z Z ",
"O s 5 5 O 1 d < . .   3 3 . < < . . # # . . . . . . . . < < # ;.F V v F v E J G %.| v -.] c %.] $.Y T f u t a g a r u r , u , , , 4 4 4 4 @ o o @ @ @ = = A , , ",
"s 5 O : : p < < # . . 8 # # # < # . . # . # . . . # # # < k p M Y z E v v P E ' ' H E C ] ( c ] U Y s s g B B a f u f s t t r u , h = h h = = = @ @ = = A A A b ",
"O i p M < # . # # # .   . # # # # . # < # # .     . #   : O * * X.z U P V V V H z v $.C ] ] ( ] Q v 9.O 1 1 i 1 O O O 1 : : B s b A A A b h = @ o @ = = A b A b ",
"M M M < < # .   q . . . . # # q q q # < # .   3 2   . 3 g x 5 5 t.v R ) U F V V H E @.C ( ] ] 2.O.V z <.3 3 i i d d p p k < O f b b A b b , Z = @ = = = b f f b ",
"1 i p p . .         . . # # # # < < < <   - - * * x x x s s x / Y V F J ) J H R Q J J ^ &._ C C U F E { *.3 3 8 p p p p p 1 f h A b b b f r u u = = , A f * * x ",
"1 1 : 8 : : 1 1 : 8 8 8 # . . # < < 3   3 * x m m m m m m s O X.v v V H R H H F z z E U R z v z z O.O.v } 1 p p M M i i 1 5 f u u u f s t I t t b h b m * - O 1 ",
": : : : : : : 1 1 : 8 p # . . # < .   < k < * m m m m x x O p X.v E E F v V V v ..Y { F z V z Q ) J z Y ;.1 : : i i : O 5 s f s s s s B g f a I m f s B - - 5 x ",
"8 : 1 1 1 : : 1 1 : 8 p # . # # # # < k < 3 x m f m x * p M : / Y F =.^ L @.V X.d d / / <.{ v P E v ..;.1 1 1 : p M M M 1 5 a 5 s s a O a t a t m a g g 5 s m f ",
"8 : 1 1 1 1 : : : i p d < # < # # # < < . * x x x x 3 # M p i O *.F E | 0.P Y / 3 : 1 1 1 *.{ V { t./ 1 p p i M M p 1 * s s 5 s s 5 g a f s s f b f f f b b h h ",
"8 : 1 1 1 : : : i p d d # # < < # # k k n k k 3 -   < < p p 8 1 : 9.{ z H z <.. . 8 : 1 1 1 *.} q.1 1 : : i : 1 1 : 1 s s 5 O O 1 i 5 f f 5 s u b b b b b b b b ",
"8 : 1 1 : : i i p p p d # < < < < k n n n n n k < < k k k d 8 1 1 : / } { } d # . 8 : 1 1 1 1 1 1 1 1 : : i : 1 O O 1 O O O : 1 1 : 5 s O O m f f b b b f m t r ",
"8 : 1 : 8 d p p p p p p # # < k n n n n n n n n n n n n k k d 8 1 8 8 d / d # .   8 : : : : : : : : : : 1 : 1 1 : O * O O 1 : 1 1 p p i i O 5 5 s s m s B [ B r ",
"i 8 : 8 d d d d d p p p M M k n n n n n n K n K n K n k k <   2 2 2       . . . . . . . .   2 2 2 2 3   3 2 2 2 2 2 - 2 2 3 : : i p p i i : 1 O g 5 5 g B B f h ",
"p 8 8 8 d d d d d p p i M M k n n n k k k k k k k k k # .   2 2 2 2 2   . . . . . # # # #   2 2 2 2 3 3 3 2 2 2 2 2 2 2     8 i i p p i : : 1 * 5 g O 1 g u h h ",
"p p d d d d d d d p p i M k k < # # # # < < < < < < # .   2 2 2 2 2 2   . . . . . # < < <   2   2 2 3   3 2 2 2 2 2 2     . i i p M M i 1 O O * O i i : t b f t ",
"M p d d d d d d d i i i p M < . 8 . . . . # . # # # . . .       2 2   . . . . . . # # # # .     2 2 3 3 2 2 2 2   2 2 2   . i i M M M 1 5 * O O 1 1 g g t t s f ",
"M M d d d d d d d 8 i i i p . .         . . . . .               2 2   . . . . . . # . . .         2 2 2 2 2 2 2 2 2 2     . i p M M 1 5 5 1 1 1 1 O g g s s b A ",
"M M d d d d d d d 8 i : i i . .         . . . . .               2 2   . . . . . . .               2 2 2 2 2 2 2 2 2   . . # p M M i : 1 O O O O O 5 s m f f A s ",
"p d d d d d d d d 8 8 8 : 8 . .                                 2     . . . . . . .               2 2 2 2 2 2 2 2 2     . # . p p i 8 : 1 1 1 1 * m f t f A f g ",
"# # q q q q q < < q q . . . . . . .               . . . q q q                     . .   2         2 2 2 2 2 2 2 2 2 2         . .   3 - 2 1 1 O O g g g x s 5 * ",
"< < < < < < k < < < q q q q # # # .     . . . . q < < < q q q q q q .             . q .   . . .   2 2           2 2   . .           3 3 - 8 8 : 1 O O 5 * * * - ",
"< < < < < < < < q q q < # < < < < # . . . q q q q q q q q q q q q q q           . q q q . . . .   2 2           2 2   . . . . . . # # . . 8 d d 8 8 1 1 3 - - 3 ",
"# q q q q q q < q . q q q q < # # . . . q q q q q q q q q q q q q q   . . . . . . q < < q .             . . .         . .   # < < < <     . . # d # . . 3 3 3 . "
};
