/* XPM */
static char *_cfc1b6f85a049c3a64261083b796420xPqdyDOlIyx7Dmva[] = {
/* columns rows colors chars-per-pixel */
"80 80 240 2 ",
"   c #0A121D",
".  c #0F1825",
"X  c #141B26",
"o  c #191D26",
"O  c #111728",
"+  c #151C2B",
"@  c #191E2C",
"#  c #0F1E33",
"$  c #151E31",
"%  c #191E32",
"&  c #1B2227",
"*  c #16212D",
"=  c #1B222D",
"-  c #152232",
";  c #1B2333",
":  c #1E2935",
">  c #152439",
",  c #1D2539",
"<  c #1D293A",
"1  c #22242D",
"2  c #212633",
"3  c #232A35",
"4  c #282C35",
"5  c #212639",
"6  c #232B3B",
"7  c #2A2E3C",
"8  c #26313D",
"9  c #2B323C",
"0  c #2E383C",
"q  c #32373F",
"w  c #1C2B40",
"e  c #252E41",
"r  c #292F42",
"t  c #262D48",
"y  c #263142",
"u  c #2B3343",
"i  c #2E3943",
"p  c #263549",
"a  c #2C354A",
"s  c #2E3A4B",
"d  c #323543",
"f  c #323A45",
"g  c #383F47",
"h  c #333649",
"j  c #333C4B",
"k  c #393D4B",
"l  c #2E3B52",
"z  c #333D51",
"x  c #3B3E53",
"c  c #35404C",
"v  c #3C414E",
"b  c #354253",
"n  c #3B4354",
"m  c #3E4957",
"M  c #364459",
"N  c #3B455A",
"B  c #3D4B5C",
"V  c #3E4B62",
"C  c #3F5064",
"Z  c #434654",
"A  c #434A54",
"S  c #494C57",
"D  c #40475C",
"F  c #434C5C",
"G  c #494D5A",
"H  c #44515D",
"J  c #4B525D",
"K  c #444D62",
"L  c #494E62",
"P  c #414D68",
"I  c #455264",
"U  c #4B5364",
"Y  c #4D5865",
"T  c #45546B",
"R  c #4B556B",
"E  c #4D5A6D",
"W  c #535B65",
"Q  c #505669",
"!  c #535B6C",
"~  c #595E6B",
"^  c #4B5771",
"/  c #4C5A72",
"(  c #4B5D76",
")  c #505771",
"_  c #535D73",
"`  c #595F71",
"'  c #535E7A",
"]  c #57616D",
"[  c #5A616D",
"{  c #4F6079",
"}  c #546275",
"|  c #5B6374",
" . c #54637B",
".. c #5A657B",
"X. c #55687E",
"o. c #5D6A7D",
"O. c #616575",
"+. c #646B75",
"@. c #646B7C",
"#. c #696C7A",
"$. c #6A7177",
"%. c #6B717C",
"&. c #71747B",
"*. c #566681",
"=. c #5B6681",
"-. c #5C6C83",
";. c #5E6E88",
":. c #5E7189",
">. c #636D83",
",. c #6B6E81",
"<. c #626E89",
"1. c #627284",
"2. c #6C7484",
"3. c #65738B",
"4. c #6A758B",
"5. c #67788C",
"6. c #6C7B8D",
"7. c #737685",
"8. c #737B86",
"9. c #74798A",
"0. c #737C8D",
"q. c #7A7D8A",
"w. c #667591",
"e. c #6C7692",
"r. c #677A94",
"t. c #6D7C94",
"y. c #6E7E99",
"u. c #757B95",
"i. c #727D94",
"p. c #797E94",
"a. c #717F9A",
"s. c #768187",
"d. c #76818D",
"f. c #7A828D",
"g. c #6F8095",
"h. c #6E8199",
"j. c #738195",
"k. c #7A8395",
"l. c #7D8997",
"z. c #73829B",
"x. c #7A849C",
"c. c #7C8A9D",
"v. c #7E909C",
"b. c #7584A1",
"n. c #7A86A1",
"m. c #7C8AA3",
"M. c #7B8CA5",
"N. c #828695",
"B. c #868C92",
"V. c #848A95",
"C. c #878B95",
"Z. c #848C9B",
"A. c #898D9B",
"S. c #89919D",
"D. c #838EA3",
"F. c #868EA5",
"G. c #8592A5",
"H. c #8C94A5",
"J. c #8E98A3",
"K. c #8593AA",
"L. c #8B95AB",
"P. c #8C99AC",
"I. c #9295A5",
"U. c #949BA4",
"Y. c #9A9DA5",
"T. c #9197AA",
"R. c #939BAC",
"E. c #9A9DAB",
"W. c #8D97B1",
"Q. c #8D9AB2",
"!. c #939DB3",
"~. c #969CB5",
"^. c #A09FB2",
"/. c #94A0AD",
"(. c #9BA2AE",
"). c #95A2B4",
"_. c #9CA4B4",
"`. c #97A4B9",
"'. c #9CA5BA",
"]. c #9DAABC",
"[. c #9FB0BD",
"{. c #A1A2AD",
"}. c #A2A5B4",
"|. c #A3AAB5",
" X c #A9ABB6",
".X c #A1A6B9",
"XX c #A4ACBC",
"oX c #AAAEBD",
"OX c #B0AFBC",
"+X c #A6B0BD",
"@X c #AEB5BA",
"#X c #ABB1BD",
"$X c #B1B3BE",
"%X c #B3BCBF",
"&X c #9CAAC1",
"*X c #A5AEC2",
"=X c #A7ADC7",
"-X c #AAAEC2",
";X c #B1ADC3",
":X c #A5B2C4",
">X c #ACB2C4",
",X c #ADB8C6",
"<X c #A6B2C9",
"1X c #ACB4C9",
"2X c #B1B4C4",
"3X c #B3BAC4",
"4X c #B9BCC6",
"5X c #B1B5C9",
"6X c #B5BBCA",
"7X c #BABDCB",
"8X c #B6BDD1",
"9X c #B7C0C9",
"0X c #BCC3CC",
"qX c #BEC3D2",
"wX c #C0C3CC",
"eX c #C3C8CF",
"rX c #C1C5D3",
"tX c #C5CBD5",
"yX c #C7CBD6",
"uX c #C5CCDA",
"iX c #CACDDB",
"pX c #CCD2DC",
"aX c #CBD4DC",
"sX c #D2D6DD",
"dX c #CDD4E4",
"fX c #D2D5E3",
"gX c #D4DAE4",
"hX c #DADDE5",
"jX c #D5D7E9",
"kX c #D6DDE9",
"lX c #DADEEA",
"zX c #DCE1E5",
"xX c #DDE3EC",
"cX c #DDE4F1",
"vX c #DFE8F0",
"bX c #E1E4EC",
"nX c #E2E9EE",
"mX c #E2E5F2",
"MX c #E3EAF3",
"NX c #EAEDF7",
/* pixels */
"9.u.>.Y Y G 4 & o V.bXbXsX2XoX$X$XoX#XoXoX#XU.g = = o o o 3 2 X 2 3 = 1 &.zXhXxX7XXX>XoX-X-X.Xx.u.u.K % + : 3 o & 1 & & & & @ k (.oXoX~ @ @ G #XoXoX$X#XoXR.p.8.",
"9.0.>.Y U J 9 2 4 V.lXxXfX3X>X>X>XXX#X>XXX>XR.n * > < > ; 4 = = @ 7 3 1 &.hXbXlX7X-X1X>X1X1X'.x.u.u.K , 5 3 = & = 4 4 3 1 2 3 v R.>X.X! ; 2 ! oX|..X>X+X:XQ.i.9.",
"x N x u u k V.Y.U.2XqXrXrX2X-X>X>X>X:X].G.G.c...E / / E ! I 6 o ; q.E.E.#XwX7XrX5X-X>X>X-X>X*Xx.u.u.>.! | G 3 X 9 N.U.Y.V.q.q.N.XX>XXXF.8.0.,.U U ! l.H.G.<.N z ",
"@ ; ; ; = f 7XMXxXuXoX>X2X>X-X>X:X,X:X).j.6.t.j.j.z.z.j.k.@.r @ 3 XXxXxXpX$XoXoX-X-X-X>X>X>X].x.u.j.k.i.k.[ 5 o f 4XxXbXiX2X-X>X>X-X-X-X>X1Xk.$ + 6 o.6.z.^ < $ ",
"o o o = o i 6XMXMXtX>X>X2X2X-X>X:X:X:X).j.t.t.h.t.z.h.z.x.>.r + 2 XXcXxXpX2X#XoX>X>X>X>X:X:X].k.i.j.x.i.k.| 5 + g 9XxXxXuX>X-X-X-X-X-X-X>X<Xi.- $ y 1.j.j.R $ O ",
"J Y Y Y J W A.U.U.|.-X>X>X>X-X>X:X:X:X).j.j.g.z.h.z.r.3.3.| r + , (.pXiXrX#XoX>X>XXX:X].R.!.P.j.i.t.6.>.2.E < + f +XtXuX0X>X-X>X-X>X=X'.~.).j.M b B ! ! ` ..| +.",
"#X>X>X#X3X(.i .   +.2X>X>X>X-X>X:X:X:X).j.j.g.h.y.y.-./ R U r + ; A.#X#X>XoX>X>X>X:X*XP.j.j.j.t.z.t.-.E _ B < + 8 J.#XoXoX>X-X-X-X>X*XP.i.i.j.j.j.6.j . = V.MXMX",
"oX>X>X>X>X(.i o o 2.>X>X>X-X*X>X:X:X:X).j.j.j.z.z.z.-.^ / I 6 O ; A.#X#X>X-X>X-X:X<X<XQ.a.a.t.a.z.y.;.R E N > + 8 J.#XXX#X>X>X-X-X-X>XP.j.i.j.g.j.6.f X o N.bXxX",
">X5X>XXXXX).F 6 y @._.R._.>X:X>X:X[.]./.j.j.z.t.t.y.=./ R U n j n k.U.U.|.>X5X>X*X&X*XW.z.a.b.y.t.t.-.I U F n j H /.>X#X>X>X>X>X>X>X:XP.j.t.z.z.j.6.g = 2 N.kXhX",
"-X5X'.Z.m.n.e.<.4._ n n | *X:X:XP.c.v.c.j.z.a.-.....V u 5 U oXrX3X+.v n 2.XX1X>XH.m.F.n.z.b.z.*.*. .V r 7 +.3X6X0X3X>X>X2X>X>X>X>X>X:XP.j.z.z.z.z.t.n = 2 7.7X4X",
";X1X!.z.a.z.y.z.j.K - + K ].:X:XG.6.j.t.t.z.t.' R E z + o S fXmXxX~ o o ! XX>XXXZ.i.z.i.a.a.e.^ T T b ; X +.xXxXxX7X>X>X>XoX#X#X>X:X:XK.g.g.h.h.g.5.j + % #.-XoX",
"oX-X~.z.j.a.a.a.j.U , ; F XX:X:XG.j.j.j.t.j.t. ./ Y b ; X S iXxXxX[ = @ ! XX:XXXS.0.j.j.z.i.e._ E E b * o +.kXcXkX6X>X>X>X>X>X#X:X<X:XK.h.h.z.h.z.t.j + % ,.-XoX",
";X5X~.x.z.n.z.i.j.Y 5 5 F P.P.P.m.z.z.t.3.<.o.B n n | S.V.R.0XiXtXA.2.%.@.@.o.| Y I I I R R I n b n 1.A.V.V.k.9.k.|.oX>X>X>X>X*X!.Q.W.m.z.z.h.3.3.o.g ; 2 ,.2XoX",
"oX>X!.i.t.t.z.j.x.R ; $ s 6.6.z.z.z.z.<./ E U y ; ; d.MXcXgX2XXX#X>XXX>X0.6 > > - - - - > $ - - - : U.nXbX(.3 + h I.oX>X>X>X-X'.x.a.a.a.z.a.3./ / E i = = +.oXoX",
"oX>X!.z.j.z.z.t.j.U ; $ n i.6.g.z.a.a.3._ E I < = X s.MXxXgX3X>X>X>X>X>X0., - + - - * * * ; ; X * ; U.MXMX(.2 ; y H.>X>X-X-X-X'.x.z.z.y.z.z.<./ _ ! 8 X @ #.-XoX",
"oX1X~.z.z.z.z.z.x.Q , ; n j.j.z.n.b.a.<.I K F Y ] W U.kXfXiX6X#X>X>X>X>XD.Y K F b b b u : ; 9 Y ~ ] |.gXgXU.y , h T.>X-X5X>X1XXXc.x.z.t.e.e.<.K F U ~ ~ ~ A.-XoX",
"oX>X~.x.z.z.z.z.x.Y , ; b i.j.z.z.a.z. .e 5 j +XaXsX0X>X2X2X>X>X>X>X>X>X-XXX'._.c.0.4.H ; * A 0XgXpX0X2X2Xk.7 ; h T.>X>X>X>X>X'.c.z.z.;. . .V , , j +XsXaXqX2XoX",
">X1X!.j.g.z.a.a.j.I ; $ j 6.6.z.z.a.n.' , @ f 9XlXxXtX#XoX>X>X>X>X>X>X*X>X1X*X].c.6.6.F = = g aXxXxXrXoX2X0.5 + a T.-X>X-X>X>X'.k.t.i.=.E _ n ; = f %XxXxXuX-X2X",
">X>XQ.z.g.h.t.t.j.I ; ; b 2.6.t.z.t.i._ , * f 3XxXxXuXXX-X>X>X>X>X>X>X>X>X*X*X*XF.j.6.F = = g aXxXlXqX>X5Xk.u , j H..XXX.X-X*X_.j.6.6. .U Y m 8 2 k 3XxXgXrX-XoX",
"A.F.c.z.g.t.-. .o.N ; ; 6 b b M _ o...K , * i (.rXqX5X-X-X>X>X#X>X>X-X>X'.D.P.F.z.t.6.F = * g #X0X0X3X>X>X_.k.0.0.| U U >.D.F.i.F b c p p y W (.(.}.3X0X9X6X>X2X",
"u.a.z.t.j.r. .T E b ; - ; ; + < K E R n , = i H.>X>X>X*X-X>X>XXX>X>XXX>X).i.a.a.t.h.6.I * * g (.#X>X>X>X>X5X>X>X_.b - ; F u.i.@.8 * * * = * [ xXxXxX4X X#X>X>X#X",
"u.z.z.t.i.a. .^ E n * + = = * : K / E n , @ d I.>X-X>X1X=X-X>X*X,X,X>X>X_.j.i.a.t.h.g.U - ; f _.>X2X>X>XoX>X>X>X_.n - - D u.x.@.: X * * = X [ xXMXxX4X X>X>X:X#X",
">.3.<. .} / P N b Y ~ W ~ J F L F N B j , ; d H.>X1X>X1X1X>X>X:X:X'.).).L.z.a.t.5.3.1.B - * i _.>X>X-X>X>X>X'._.P.E z N K ' | | [ [ ] J J A %.(.(.}.#X#X>XXX_._.",
"! _ N < < > , ; ; V.kXgXpXoX.X_.I $ , , ; ; d H.2X>X-X>X<X1X<X:X:XG.j.j.z.z.z.t. .E E b - ; j _.>X>X>X>X#X).l.j.c.j.6.6.I < ; A 0XgXgX0X|.|.d.3 : i I.>XXX!.x.d.",
"! ! n - + = @ = o V.xXxXgXoX-XXXF + ; ; ; @ u I.2X>X>X>X>X<X1X<X:XG.t.z.z.z.t.t.} E Y j * * i (.+X>X>X>X>X_.j.6.z.j.i.z.U , ; n aXxXcXqX|.3Xd.. * 8 I.2X:X!.k.0.",
"F L D j i f 9 9 3 S.lXgXpX2XoXXX! r u y 7 6 h A.^.E..X>X>X<X*X&X&XK.j.z.y.y.w.e._ K I m j f H |.>X>X>X>X>X_.j.i.z.z.j.t.U ; ; n qXlXkXqX+X>Xk.6 5 j N._.'.K.6.8.",
"6 6 | 7XqX0XY.I.U. X4X3X2X2X-X>X_.T.R.Z.,.@.| n h h ,.>X>X*XG.z.m.z.g.z.w. .( ^ s < 4 8.0X0X0X#X>X:X>X>X>X'.z.i.z.z.t.j.I ; ; v }.2X2X>X>X>XR.1.>.>.A i j T  .! ",
"; @ #.MXmXxX4X$X2X2XoX-X>X>X>X>X5X>X>X_.k.i.2.r + @ | 5X>X].c.i.z.z.h.z.3.^ ^ U 6 ; ; 9.MXMXkX>X>X>X>X>X>X'.z.a.z.z.t.j.U > * k E.oX#X>X>X>X_.i.j.6.j O $ b _ R ",
"@ @ #.lXmXxX4X#X2X2X>X-X>X>X>X>X>X>X>X).z.z.5.a $ ; @.5X>X].c.j.j.n.a.a.5.{ E U : o = d.xXxXgX3X>X>X>X-X1X`.z.a.z.b.z.j.U : * k E.>X>X>X*X>X`.i.i.t.z + , M } Y ",
"B.A.}.tXiXiX2XoX2X5X1X1X1X>X5X>X_.R.!.K.z.n.t.P V N U #.@.@.Y U E <.3.3. .N b m 2.V.V. XtXtXqX>X>X>X.XP.Q.W.b.b.b.r.:.1.H < ; h (.>X>X>X>X<X'.z.z.z.` Y E I M z ",
"nXmXpX2XOX;XoX2X>X1X=X1X1X>X>XXXH.i.j.z.y.z.r. .' _ z % + , , + , K _ / B < - i 3XNXbXtX#X#X+XXX>X*XT.0.i.z.y.b.z.*./ / b > ; v (.>X>X>X>X<X`.z.z.z.j.k.z.E < > ",
"xXmXiX>X2X-X-X2X-X>X>X>X>X>X>XXXG.i.z.z.z.z.r. .R _ j + + @ ; + , I E E B > O y >XmXmXtX#X.XXX>X1X>XR.6.t.z.z.z.t...R Y j * o d E.>X-X>X>X:X`.z.y.z.j.t.j.E - * ",
"jXkXrX2X>X>X>X>X>X>X>X>X>X>X>XXXK.a.z.a.t.t.5.R I U D n Z Z S n F I I I I n m I 2XkXjXrX>X-X>X'.*X&XL.j.j.z.t.j.6.} K U I G G O.}.>X>X>X>X>X'.z.z.n.z.a.i.E : = ",
"2X6X5X>X>X>X>X>X5X>X>X>X>X>X>XXXK.a.z.e. . .E a < < @.}._.}._.E.R.I < < ! R._._.>X5X5X5X-X1X*XF.m.n.n.j.j.5.} } _ a r 7 2.iXtXtX2XoX>X>X>X>X).z.z.z.;. . .N 3 & ",
"oX-X-X>X>X>X-X-X>X>X>X>X>X>X>XXXF.i.a.<./ E K 6 $ + @.>X>X2X>X>X:XH * - ] +X>X>X>X*X>X1X-X1X`.x.a.a.z.z.j.5./ E Y y + + 8.xXxXkX3X>X-X-X>X:X!.j.t.t.*.^ } z = X ",
">X5X>X>X>X>X>X>X>X>X>X>X1X>X*X*XF.i.z.3./ E K a 5 7 @.>X>XoX>X>XXXY < 6 ] _.|.XX*X=X<X1X=X<X'.n.z.z.z.z.z.5.E U U b 8 9 d.hXxXfX>X>X>X>X:X:X).z.z.z...T E A 9 4 ",
">X5X>X>X>X>X>X>X>X>X>X1X*XP.D.G.6.=.-.R z a n 9.D.F.R.>X-X2X2X>X>Xk.@.o.| U I U j.G.F.F.K.K.K.z.z.z.e.-.=./ l u m P.>X|.3X0X7XqX>X*X*X).G.G.m.j.z.t.P p a 2. X X",
">X>X-X>X>X>X>X>X>X>X>X>X'.x.i.i.o.E E N < ; u T.>X-X-X>X-X>X>X>X>XG.j.j.} , ; 6 o.z.j.z.z.e.t.a.i.z.<.^ / V < ; j 8XcXkXuX#X#XXX>X<X*XH.i.i.j.t.z.5.s + + f.xXbX",
"-X>X-X-X>X>X>X>X>X>X>X1X*Xc.z.a.o.! Y n , $ u H.>X-X-X2X-X>X>X-X*XG.0.j.} 6 ; e -.z.t.i.z.j.j.i.i.i.<.^ ' K , + j 8XcXxXtX#XXX>X*X<X:XK.j.i.z.i.z.e.s * + f.xXhX",
"-X>X-X-X>X>X>X>X>XXX~.).!.z.a.i.R F n N U K ` R.>X-X-X>X-X>X>X-X:XH.j.i.| 5 ; < / 3.3.o._ _ _ ' ! ` R N N K ! K | 6XdXpXqX>X:X*X).).!.D.j.t.t.3.5.-.s * * 8.pXiX",
"-X>X-X-X>X#XoX>X>XR.j.j.x.t.a.t.M , $ I .X|.XX>X>X-X>X>XXX>X5X>X:XG.0.i.` , ; , V E E z , , , , ; 5 5 ; ; ! _.XX*X>X>X>X*X>X1X].c.g.z.z.z.j.1./ E E 8 X = +.#XOX",
"oX>X-X-X#X#X>X:X>XR.i.i.x.x.z.t.N ; + A XX-X>X>X2X-XXX>X-X2X5X>X:XH.0.i.| , $ , F E E z ; + + o o ; 3 = O ! oX-X-X1X>X>X*X=X=X'.n.z.z.z.h.z.5./ E R i X * +.$X$X",
"oX>X-X>X#X#XXXXXXXP.z.i.z.z.r.e.M + , I |.-X>X-X>X-X-X-X>X>X-X*XXXG.i.j.| e 6 y F I K n i 9 7 4 9 9 7 7 3 [ _..X.X'._.'.'.=X*X).h.t.t.r.e.t.-.U U I c 3 0 %.E.{.",
"oX>X>X>X>XXXH.D.D.c.i.t.t.=.(  .l - ; U XX-X>X>X-X-X>X>X>XXXP.D.F.x.i.z.t.o.o.} j r y %.+X#X#XoX#X#XY.A.A.7.A n N F n B ..x.m.z... ... ...o.K y 8 c U.@X+Xf.Z v ",
"oX>X*XXX:XXXc.t.t.j.t.t.5.( ^ ( p - - F '.-X-X-X>X>X-X*X*X'.x.i.x.x.z.i.z.z.i.4.a $ + d.vXxXxXxXmXmXrXoX>X0.; $ 5 < - $ V t.t.e.( ^ ^ ^ R _ B ; * i 3XMXcXZ.; ; ",
"oX>X*X>X:X].c.t.z.z.t.t.t. .^ ^ p - - I _.>XXX2X-X>XXX>X:X].c.j.z.z.a.z.z.z.j.4.a ; ; d.xXzXxXxXmXlXrX>X>Xi.5 $ ; < , > V t.t.e. ./ / / E ! n ; X q @XMXcXZ., ; ",
"O.@.0.R.P.L.e.-.3...I C T M l b U B B Y o.@.,.}.>X>X_.P.P.P.x.a.z.b.z.z.t.;.-...y ; ; 2.tXtXtXtXtXtX3XoX>XZ.U K K n s z b P R F b z z z j h I k.q.V.3XuXuXH.U I ",
"@ % N i.j.6._ T R M - - < , $ < ..j.j.} - $ u H.>X>XR.0.t.z.z.z.z.b.z.z.5. .T U y ; ; | #X+X+X+XoX#X#X>X1X_.k.k.i.| E _ z - $ ; $ $ % % ; + [ mXxXxX9X+X>X!.i.0.",
"@ % N x.x.i. ./ _ N $ O - - + > ..t.i.} ; $ r T.>X1XP.0.i.z.h.h.z.b.a.z.w. .E U : o o | XX#X#X#X#X#X>X>X=X'.k.i.i...! Y s ; O X X + + @ @ O ~ mXmXxX6X#X:X~.k.8.",
"d z K <.3.>.E K I U I F I m b F 1.z.z...b a D k.R.H.l.k.z.b.b.z.a.a.r.t.3.I I F J S G d.#X>X>X>XXX>XXX|.*X!.x.j.i.} I I F F S S S S G Z x k 7.sXkXfX>X|.XXW.x.k.",
"7.9.) a e 6 r r 7 l.dXdXrX>X_._.G.z.z.z.4.0.>.n r y Y j.z.z.z.z.z.3. . .R r 7 f |.gXpXqX>X>X>X>XXX>XR.l.m.m.z.x.6.b < 8 8.uXgXsXsXpXiX3X.X}.|.4X2X>XH.k.c.m.x.k.",
"q.p._ % - ; $ @ O Z.cXcXdX>X>X|.G.g.t.i.i.k.2.u > * m j.t.z.h.t.a. .I ) D ; = 9 #XmXcXuX>X>X>X*X>X>XH.i.z.n.j.j.2.a ; + 9.xXxXbXbXMXcXrX-X>X>X>XoXoXZ.0.i.x.p.0.",
"q.p.! < > ; ; 2 = Z.cXlXjX>X>X-XK.z.z.z.z.j.4.i , * H i.t.z.h.t.a.=._ ! S 7 1 q $XxXxXiXXX5X>X>X:X:XP.z.z.z.i.z.6.j ; = 9.gXnXbXhXxXlXrX>X>X-X>X-X>XG.i.z.z.x.u.",
"Z S #._._.R.V.f.8.}.rXqXqX-X>X>XK.z.b.z.x.x.u.R A B I B M I V N P N z j O.E.Y.}.3XtXqX2X>X-X1X<X:X:XP.z.z.y.<.>...a 5 3 %.9X0XwXwXwX0X6X>X>X>X8X>XXXG.z.z.n.x.j.",
"o @ +.xXcXkX6XoX>X5X>X-X>X-X1X*XK.z.a.y.z.z.e. ._ Y j - + > , $ ; 5 % @ %.hXbXxX3XoXoX-X-X>X-X>X>X:XG.t.a.w._ E R y ; + [ #X#XoX#XoXoX-X*X-X=X=X:X:XD.g.z.z.z.u.",
"@ @ +.xXxXgX6XoX-X>X>X>X>X>X1X*XK.a.z.a.y.z.r. .R Y g o o ; = @ ; 5 ; @ %.gXbXkX7X-X>X>X>X>X>X>X,X:XP.t.z.e._ E Y y + ; | oX>XoX2X>X>X-X>X>X>X>X>X*XG.t.z.z.z.j.",
"3 2 +.aXaXpX6X-X>X>X5X5X>X'.~.).K.z.z.y.w.r.-.T N A [ %.%.&.[ ~ ~ k 3 2 #.rXsXiX6X>X2X2X>X>X>X).).).c.5.e.-.K n F i 8 4 | oX-X-X>X>X>X'.~.~.~._.~.~.G.z.z.z.e.>.",
"1 2 W +X#X>X-X>X1X>X>X>X'.D.j.x.x.z.z.3.( { T y 5 = q.xXgXsX3XoX_.U 2 ; [ oX#X#X>X>X-X>X>X>X].c.j.j.-./ _ F 7 ; 3 3 = 3 | -X>X>X-X>X>XP.k.j.j.z.x.z.z.z.a.w.' E ",
"1 @ ~ +X#X>X-X>X>X>X>X>X'.c.i.x.z.t.t.3./ ^ T < : = q.MXxXaX2XoX.XI @ @ ~ |.+X#X>X-X-X>X1X1X'.z.t.i.<.R _ B : = = : = = | oX*X>X>X:X:XL.i.i.i.t.y.z.z.t.z.w.' E ",
"d d +.XX#X>X>X*X>X:X*X*X`.c.j.j.z.y.z.3.T U I j i 9 B.xXxXdX3XoXXXL % % ` .XoX#XoX-X1X*X*X*X`.z.u.u.o.K I H g 9 c 0 9 i [ E._.~.:X*X].G.i.i.t.e.e.y.i.t.y.<.T U ",
"4X2X#X>X#X>X>X>X:XP.D.D.m.z.i.z.z.z.a. .a e n /.3X3X3X3X3X3X>XXX-XL ; % ! XX#X#XoX>X-XR.D.F.z.=.' ..B 6 5 | #X3X#XU.A.S.+.m z F u.m.m.z.i.i.5.*. ..... ...P t 6 ",
"bXmXiX>X+X:X:X*X:XP.z.j.z.z.t.z.z.z.t./ , + j 6XMXMXtX+X+X>X>X>X>XK $ ; | |.#XoXXX-X>XP.a.y.5.' T E z ; + +.xXxXxX3XXX#X%.; $ u 4.i.i.i.i.i.3.^ ^ / _ E ^ N , @ ",
"bXmXuX#X>X:X:XXX:XP.i.t.z.z.t.z.z.z.j._ < = f 3XmXcXuXoXoX>X>X-X*XR % $ | XX>XXX>X>X=XW.a.y.e.} E ! h @ + #.xXlXlX3X#X>X2., $ y 4.i.j.z.z.a.3./ ^ / } ! ) D ; X ",
"A.H.l.2.2.4.P.!.!.G.j.z.z.z.h.h.e.1.>.U ; = d oXiXuX8X>X*X>X>X-X=X>.D F ` 2.2.2.H.R.!.z.:.:.X.M s c O.7.,.I.iXiXiX3X#X>Xk.K N F U U Y R E R P M z M N z j ` 2.$.",
"@ % ; ; ; e -.t.t.z.z.j.z.h.h.h.-.E E B ; ; 7 I.>X-X>X>X-X>X>X-X1XF.i.x.` , - 6 ..0.j.-.( / V < = = U.mXmXiX>XoX2XoXoX>XR.p.p.,.5 ; ; $ $ $ - - , < 5 ; @ k.xXzX",
"@ % + $ $ < 1.z.j.z.j.z.z.h.h.t.-./ E B , ; r I.>X-X1X=X-X>X-X=X=XK.i.u.' , ; 5 @.i.j.-./ / I - * & Y.NXmXfX2X>X>X2X-X-XW.x.u.@.5 % $ $ % $ ; $ $ ; ; = @ N.xXzX",
"k x j u u z _ 1.-.t.t.i.z.z.h.t.} B F n A Z W I.-X>X5X-X-X>X1X<X<XK.i.u.| ; ; < | 2.4.} I B F F v J  XxXjXiX>XoX>X>X*X=XW.u.u.3.z r a 6 ; ; 3 G n Z Z f f A.fXgX",
"E.~.F.e.3.-.z w <  .z.t.z.z.t.e.B ; : ] 0XtXrX3X-X-X;X2X>X>X1X:X<XK.i.u.} , > > I ! E n < ; m 3XpXtX0X3X3X>X>X>X>X>X*X:X!.z.i.u.3.3.>.n % + W tXtXeX XY.(.oX3X$X",
"-X1X!.u.a.5.p - # / j.t.z.z.t.t.b ; o ] gXbXhX7X2XoX;X2X-X-X1X<X<XK.t.z.} , - > B E E s - ; n pXmXmXtXoX>X>X#X>X>X:X*X<XQ.i.a.z.a.a.i.N ; O [ MXbXhX4XoX2X>X-XoX",
"XX1X~.a.z.5.a < - E j.t.z.z.g.t.z , ; [ gXxXlX2X2X-X-X2X>X>X>X<X<XK.a.z...r ; y B E E b , : m iXcXxXtXXX>X>X>X>X>X>X=X:XQ.z.z.a.y.a.u.B % O | lXlXlX0X>X-X>X>XoX",
"-X1X~.n.z.z... . ./ B V E -.o.o.z , , W 9X0XwX2X>X-X>X5X1X>X!.L.W.m.z.z.i...` ` n j j ! d.d.N.qXuXqX7X>X>X>X:X>X:X!.L.L.m.z.z.z.b.b.x.R , ; ` qXrXrX2X2X5X5X>X$X",
"*X=X~.a.a.z.z.j.z.T - $ e Y Y U a $ ; J _. X#X#X>X>X1X>X-XXXZ.t.z.z.z.z.x.l.k.8.a + + @.,X>X2X.XoX-X>X>X>X:X:X:X*XD.i.t.y.y.a.y.a.t.t.K % % L >XoX-X2XoX2X5X>X#X",
"-X1X~.a.t.t.j.t.j.T - $ u Y U Y j + , F |.#X>X>X-X-X1X>X>X'.c.i.y.b.z.t.x.z.i.2.i - ; | XXoX>XoX>X>X>X>XXX:X:X:X:XF.z.z.y.z.y.a.b.a.a.V % $ L 2X>X>X2XoX-X2X-X#X",
">X1X`.b.z.b.z.z.z...b z N U F L n 6 7 Q XX#X3X>X5X1X*X'.'.).F.x.n.M.b.b.n.t.0.2.g 5 7 2.>X2X2X5X2X>X>X>X:X:X].].'.G.x.n.z.b.b.z.e.e.e.K , 6 ~ 2X2X2X2X>X2X5X2X2X",
"-X1X~.z.z.z.z.z.z.5._ Y K u 5 5 6 5 2 Y XX>X>X>X>X<X!.c.x.D.x.z.z.M.z.z.r. .' ! 8 3 5 @.>XoX>X-X-X>X>X>X<X'.c.x.c.x.z.z.b.z.z.t. .' _ z , , Q -X-X>X2X>X2X2X2X$X",
"-X1X!.t.h.t.t.j.i.>.E Y U , + @ ; % + F |.#X+X:XXX:XL.i.i.x.z.a.y.z.y.y.3.^ E U 2 + = | 2XoX-X-X>X1X>X*X:X).j.i.z.z.t.z.z.z.t.5./ Y R a + O G >XoXoX>XoX>X2X-XoX",
"XX<XQ.z.z.z.t.t.j.@.Y Y Y v d k k a u Q R.|./.+X*X*XP.z.z.x.a.a.z.b.h.z.3./ E U v d v #.E._.E._..X_.XX*X*X).c.j.z.z.t.y.y.h.t.6.E Y U n i u ` oX2X>X>X>X2X5X>X#X",
"l.m.n.h.h.t.-. .o.K y r ! 2X7X4X.XH.R.8.n b F 0.c.G.c.z.x.i.-.*.*.-.*...T l e j U.wX4Xq.v n n n n N 2.D.c.D.z.j.z.<. .*.*.*...E a y i >.R.H.R.2XoX2X2X>X>X5X>X#X",
"d.j.h.h.h.t.} E E b - o W gXxXbX7X>X:Xk.- - 6 @.6.j.i.i.u.e.' ^ _  ./ ^ V < - y >XMXxXf.@ = = = @ , | j.i.z.z.t.z.*.^ / / ^ / F 5 ; ; 2.>X>X>X>X>X>X>X>X2X2X$XoX",
"8.d.j.t.t.6._ I I c * . J sXzXzX4X#XXX0.; + : o.8.0.0.d.i.4.' R E _ Y ! A > + 8 $XxXxXN.= o X @ X = ~ k.0.k.i.i.i...R E / R Y F 2 X ; 2.#XoXoX#X#X#X#X>X>X2X$XOX"
};
