/* XPM */
static char *wall111111_1__resized[] = {
/* columns rows colors chars-per-pixel */
"80 80 224 2 ",
"   c #0C1326",
".  c #0F162A",
"X  c #0E1C2B",
"o  c #111625",
"O  c #111629",
"+  c #141C2C",
"@  c #181D2D",
"#  c #151827",
"$  c #0E1E34",
"%  c #151E32",
"&  c #191E32",
"*  c #16212E",
"=  c #1B212E",
"-  c #152233",
";  c #1B2334",
":  c #1D2935",
">  c #15233A",
",  c #1D253A",
"<  c #1D293B",
"1  c #212636",
"2  c #222936",
"3  c #21273B",
"4  c #232B3C",
"5  c #2A2D3D",
"6  c #25313F",
"7  c #2B333D",
"8  c #1D2B41",
"9  c #1A2741",
"0  c #242E42",
"q  c #292F43",
"w  c #252A47",
"e  c #243143",
"r  c #2B3344",
"t  c #2D354A",
"y  c #2C3A4B",
"u  c #253349",
"i  c #323646",
"p  c #323946",
"a  c #313649",
"s  c #333B4C",
"d  c #393C4C",
"f  c #2B3C52",
"g  c #343D52",
"h  c #3A3E51",
"j  c #333E58",
"k  c #403F51",
"l  c #3A414E",
"z  c #30404F",
"x  c #2F4157",
"c  c #344253",
"v  c #3A4354",
"b  c #3C4957",
"n  c #334059",
"m  c #3D465A",
"M  c #3D4A5C",
"N  c #3F4B61",
"B  c #3C4762",
"V  c #414454",
"C  c #43465C",
"Z  c #434B5C",
"A  c #494E5D",
"S  c #424956",
"D  c #43515E",
"F  c #4B515E",
"G  c #444D62",
"H  c #494E62",
"J  c #444D69",
"K  c #454B67",
"L  c #445264",
"P  c #4B5365",
"I  c #46546B",
"U  c #4B556B",
"Y  c #4C596C",
"T  c #47586D",
"R  c #535A66",
"E  c #51576A",
"W  c #535B6D",
"Q  c #595E6D",
"!  c #595B67",
"~  c #4D5B73",
"^  c #4C5771",
"/  c #535D73",
"(  c #5A5E71",
")  c #515C77",
"_  c #57616E",
"`  c #5B626E",
"'  c #576067",
"]  c #4E6179",
"[  c #546275",
"{  c #5A6375",
"}  c #54637B",
"|  c #5B657B",
" . c #57697F",
".. c #5C6A7C",
"X. c #5E6871",
"o. c #616475",
"O. c #62677A",
"+. c #636A7C",
"@. c #6B6E7D",
"#. c #636A77",
"$. c #6B727F",
"%. c #66707A",
"&. c #5D6C84",
"*. c #5E6C86",
"=. c #5F7086",
"-. c #646D83",
";. c #696E82",
":. c #626D89",
">. c #637285",
",. c #6B7385",
"<. c #65748B",
"1. c #6B768C",
"2. c #6C7A8D",
"3. c #677988",
"4. c #717487",
"5. c #71778C",
"6. c #737B8D",
"7. c #787C8D",
"8. c #747984",
"9. c #657791",
"0. c #6B7691",
"q. c #6D7C93",
"w. c #6E7E99",
"e. c #737D94",
"r. c #797E92",
"t. c #737E99",
"y. c #747B95",
"u. c #7A828E",
"i. c #70808F",
"p. c #6F8193",
"a. c #6D819A",
"s. c #66819F",
"d. c #738195",
"f. c #7B8295",
"g. c #74839B",
"h. c #7A849C",
"j. c #76899D",
"k. c #7B899E",
"l. c #788897",
"z. c #6C84A1",
"x. c #7485A1",
"c. c #7A86A1",
"v. c #7C8AA2",
"b. c #798CA7",
"n. c #828596",
"m. c #80869B",
"M. c #838B9E",
"N. c #868B99",
"B. c #8C929E",
"V. c #828CA3",
"C. c #878FA6",
"Z. c #8592A5",
"A. c #8B93A4",
"S. c #8594AA",
"D. c #8A96AA",
"F. c #8E9AAC",
"G. c #949BAB",
"H. c #959AA7",
"J. c #8D9CB2",
"K. c #939DB4",
"L. c #969FB9",
"P. c #9C9EB2",
"I. c #9DA1AE",
"U. c #93A1B5",
"Y. c #9DA3B5",
"T. c #95A3BC",
"R. c #9CA4BB",
"E. c #9DA8BB",
"W. c #A3A5B3",
"Q. c #A4ABB5",
"!. c #A5A7BA",
"~. c #A5ABBC",
"^. c #AAADBE",
"/. c #A8A9B6",
"(. c #B0AEBE",
"). c #ACB1BE",
"_. c #A6B1BB",
"`. c #B1B0BE",
"'. c #A2A6AF",
"]. c #9FAEC3",
"[. c #A6ADC2",
"{. c #ABAEC2",
"}. c #A5ADC9",
"|. c #A0A7C1",
" X c #B1AEC3",
".X c #A5B2C4",
"XX c #ADB2C4",
"oX c #A6B3CB",
"OX c #ADB4C9",
"+X c #ADB9CB",
"@X c #AFB9C6",
"#X c #B1B3C5",
"$X c #B8B7C7",
"%X c #B3B9C5",
"&X c #B2B5C9",
"*X c #B4B9CB",
"=X c #B9BCCC",
"-X c #B9B9C5",
";X c #AEB6D2",
":X c #B5BBD1",
">X c #BBC2CC",
",X c #BCC2D1",
"<X c #BFC8D1",
"1X c #C2C5D4",
"2X c #C3C9D3",
"3X c #C5CBDA",
"4X c #CCCEDE",
"5X c #C8C8D4",
"6X c #CED1DB",
"7X c #CACFE0",
"8X c #CBD3E2",
"9X c #D4DBE5",
"0X c #D6DCEA",
"qX c #DADEEB",
"wX c #D7D8E6",
"eX c #DCDFF1",
"rX c #DCE2ED",
"tX c #DDE4F3",
"yX c #E2E5F4",
"uX c #E3E9F5",
"iX c #E4EAFA",
"pX c #EAEBFB",
"aX c #EDF7FF",
"sX c #E0E4EF",
/* pixels */
"*XXXXXXX^.XX%X#XXX#XXX{.#X{.OX&XXXOXXX#X#X&X{.&X#X X{.&X{.&XXX}.&X#X{.&X{.XXOXOX{.$X{.{.#X{.#X X%X_.OXXXXX&X{. X{.#X X&X#X^.#X%X_.*XXX#X{.&X{.$X X#X^.#X^.@XOXOX",
"^.^.%XXXXXXX^.#X#X#X#XXX#XOXOX{.{.#X&XXX{.{.{.XX{.*X{.#X{.XX{.{.&X#X{.^.&XXX{.#X}.OX&X#X(.#X X#X^.~.OXXX{.OX#XOX:X{. X{.^.#X#X(.#X#XXX{. X&X{.{.#X{.`.#X#X{.#X{.",
"#X=X).#X#X#X^.{.XX{.#XXX}. X#X#X#XXX#XXX&XXXXX{.{.;XOX{.XXXX{.&X{.{.*X{.{.XXOXXX#X X X X^.&XXX#X*X.XXX_.&X{.{.#X#X!. X&XXX#X^.%X{.{.{.&X&X X#X&XXX).%X_.^.{.OXOX",
"^.^.XXXX#X$X#X{.&X{.{.#X#X#X#X{.XXXXXX#X{.OXOXOX[.XX}.{.OX&X|.=X#X#X^.&XXX{.XX#X{.;X X&X{.XX:X.X.X[.*XXX[.*X{.#X{.=X{.{.#X#XXX).$X#X&X{.}.{.OXXXXX%X~.=X&X X|.#X",
"#X^.XX#.B.4 =X{.#X#X&X*X#X X{.&X).#X#XXXf.f.e.d.g.k.d.f.f.+.d h 1 XX#XXX^.$XXX{.&X&X X;X+X[.OXh.d.v.e.e.M.Q ; B.d ^.$X{.`.{.&XXX(.(.#X{.+XOX3.: X 6 $.i.i.%X X&X",
"#X^.#XA F o.^.&X{.#X{.^.{.&X&X X).`.XXOX6.d.w.g.0.q.9.1.1.( 4 ; 2 #X~.#X#X#X{.&X&X&X|. X}.OXoXj.q.e.0...;.W 4 u.p *X#X^.#XXX$X{.$X#X{.&X{.OXk.l b b ' _ Y *X{.{.",
"#X!.#X$X X{.a O   +.^.*X#X^.{.#X#X%X_.+Xe.j.a.a.x.a.&.U U U 3 - : %X).$X{.{.=X X}.&X&XOXr.t.c.0.c.w.*.U [ A 4 F 5 ).{.#X X{.{.&X(.(.OX^.e.e.l.p.i.l.z aXA .XXX&X",
"#X%XXXXX{.*Xi # + 5.XXXX{.#XXX{.`.^.OXOX6.w.a.a.w.a.*.T U R 5 . ; ).{.{. X#X X X X{.OX;X0.c.0.w.t.0.<.U / c ; = 7 ).$X{.{.OX&XOX(.#XXXOXe.d.a.i.p.3.z @XXXXX&X{.",
"#XXX#XOX{.{.P 1 q ;.XXXX{.#XXX^.%XXXXXXXp.j.a.a.a.a. .~ L P m i S f.%X%X^.#X{. XOX{.OX;Xt.t.h.g.w.g.*.L I S l p F ^.#X%X{.#XOX#X&X X XOXr.q.a.j.i.i.c P 4  X X X",
"#X^.XXXXOXm.,.,.,.W m v O.{.#XXX^.M.[.k.V.9.j.&. . .N e 3 R XX#X%X@.d d ,.XX{.#X&X{.OXt.e.g.t.} *.~ N 8 4 #.%XXX).-X).^.#X#X#XOX X#X}.{.y.j.j.g.j.2.z : 4 &X&X{.",
"XX^.*Xf.f.e.f.h.r.H % % Z _.^.XXXXy.k.2.q.j.q.] T ] y - % P ,XyX0XQ @ 1 Q XXXXXX X1.r.0.j.e.1.~ U U c -   +.yXtXrX).).XX#X}.#X X{.&XOXOXt.w.q.a.p.i.y X & !.{.$X",
"OX~.&X6.6.k.q.e.t.U < ; Z *XXX_.+Xe.y.2.2.d.i.[ T T s - & v XXyXwXo.# @ Q XX@X.X.Xe.r.r.f.e.1.~ I [ s * * +.qXyX-X^.#X#X#X XOX XOXOX}.}.t.t.g.g.i.i.v , ; =X(.(.",
"XX&X[.V.k.g.h.e.t.U e > H XX.X#XV.q.c.g.3...=.b z b ..XXG.XX#X^.#XP.5.,.4.+.[ ..W U L L L P P C s S ,.N.A.H.f.7.7.=X#X^.&X&XXX{.XX+X}.D.t.x.x.:.=.[ z : = #X^.(.",
".X&XOX6.e.e.h.g.g.I < - t 6.5.6.w.g.q.:.I Y Y 6 = = u.iXyX7X{.{.{.{.#X{.5.r 6 - - + * : 4 - ; + = : ).aXyX{.1 @ V #X^.{.&X X{.#Xg.y.g.q.w.w.0.^ T [ y ! d `.-X^.",
"*X|.+Xe.g.g.0.w.c.I % > c f.6.u.w.g.x.<.{ Y A 2 = = 8.uXyX7X!.#X X{.&X:X5.- : X - $ : X * - 1 + * = ).uXqX&X1 1 4  X X#X#X).^.#Xc.q.t.t.c.t.<.U / H r I.n.`.(.#X",
"[.:XXXg.g.j.c.a.g.~ > 8 c f.f.f.b.x.t.>.L D D R ' R ).rX,X~.$X{. X$X{.{.XX_ M N z c c 6 2 : 4 ! ' ` _.<X1X^.i & d  X#XXX).#X#X).v.c.t.0.0.w.:.J G L { _ R `.(.^.",
"XX&XOXt.c.c.c.0.j.U < - n d.i.l.g.0.c.) q 4 a #X>X2X^.#X).XXOX&X X X X X X X*X.Xl.%.i.D ; 1 V `.>X)._.).$Xn.5 1 i #XOX_.&X{.&X Xj.s.p.=.X.[ Z 2 ; l XXXXXX{.XXOX",
"#X}.OXr.t.t.x.g.g.L - - c 2.i.l.c.t.V.) 3 , s _.yXrX%X#X{.#X{.&X X X&X:X&X X#X_.B.i.i.M ; = k `.tXrX@X). X8.5 # r XXXXXX{.#X&X Xp.p.i. .Y P c : @ s XXXXXXXXXXXX",
" X{.&Xg.x.q.q.0.j.L - - l >.3.i.t.0.t.) 1 - d ^.0XwX#X#XXX#X{.{.;X=X X X X XOXXXZ.i.i.D ; = d `.0XqX).%X#Xn.i 1 l ~.*X&X}. X X;Xi.i.p._ T Y b 7 , l _.#X{.OX{.XX",
"{.#X;Xe.t.w.*.} | c - - 6 b z s } &.) H 1 + s XX%X$X^.#X#X#XXXOX{. X#X{.=X{.OXE.l.i.i.L : = l `.*X#X).^.#X X7.r.5.{ L P ;.&X$X4.b z z z 6 p ' E.$XXX=X).{.&XXXXX",
"XXXXXXe.e.w.[ U / c , , ; ; - : K U / v 3 @ r _.^.#X^.#X X X X&X&X#XOX{.{.h.h.y.i.p.i.M - : l ).XX~.#X#X#X$X}.#XOXv % ; K 5.7.;.6 : - * * * ` uXrX0X^.#X*XXXXX{.",
"#X.XXX6.g.w.[ ~ Y c = + ; + + < M / / h 3 , r ).#X#X).#XOX#XOX}.{.{.OXOXXXe.y.t.p.p.l.N - : 7 _.#X%X#X#X^.^.&XOXXXn % X C 7.5.4.* X X * - * X.rXpXuX%XXX).~.&X$X",
").XXOX[ { ~ G M s R Q ! ` R A A H v Z s 1 1 i ).{.{. X#XOX#X#X XXX&X|.&XoXv.g.a.=.3.=.N : = 7 _.).#X^.{. X&X&X+X+XY g Z G ( O.( X.' R R D l $.@XXX~.XX).#X#X#X(.",
").XX.X< < > < % ; f.*X).).OXXXOXH % , 4 @ - r ^.XX{.&X#X{.{. X#XXXXXg.t.g.g.g.a.] T T b : 2 7 _.#X#X(.#X#X{.r.r.d.k.<.1.P 3 & H >XrX9X>XQ.Q.u.2 ; s ).XXXX^.#X#X",
"_._.%X% % > % + ; f.yX#X^.^.).&XZ + ; % & , 4 %X^.&XOX%X{.}.#X{..XE.e.h.q.d.q.g.} ~ ) v X + p _.#X#X X&X}.&Xy.y.d.d.p.d.T : - v 6XrXrX<XQ.@Xu.# - 5 XX&X#X#X#X X",
"$XXXQ.c t t t r 1 #X^.).#X#X#X{.W q q r 0 4 s #XOXOX{.XX XOX&X&X.XT.2.j.a.a.<.<.~ J M v v i b >X^.^. X X X&Xh.t.j.g.d.d.D ; - v 2X9X9X>X_._.l.r , c &X.X{.#X#X^.",
").#X*X[.XX+XOXOX#X`.#X$X^.$X{.{.+X~.*XXX,.;.{ v s t ,.XXXXXXP.n.Z.V.6.g.9. .} ~ g ; i 5.XX@X_.).#X#X&X}.{.OXt.r.g.g.a.2.L ; = v Q.-X%X%X_.@XF...,.{ Z s d XXXX#X",
"`._.~.&XXX&X{.OX=XW.$X^.#X X{.*X*X*XXX[.e.f.;.w % ; ( [.&X XC.r.e.g.e.d.>.T T I w & 1 7.tXpX8X%X`.#XXX&XXX;Xt.w.g.a.d.p.L : = s H.Q._.)._.@XU.d.6.2.h   % {.XXXX",
"=X#X#XXX{.XX#X#X!.>X$X(.$X X#X}.[.OXoX+XV.y.<.s & % | OX~.{.P.y.h.c.a.p.3.] T P 1 & @ n.eXtX1X_.%X_.{.XX}.;Xh.c.j.g.a.i.T 4 * z '.`.XX_.XX[.J.g.q.q.g . 4 XXXX~.",
"^.~.=X#XXXOX#X{.$X/./.(.^.&X:XXX*X.X&X{.h.h.h.M B B P -.O.-.W P ^ -.=.=.} c c b 6.N.A.^.#X~.*XOX^.XX*XOXXXoXc.t.j.9.=.=.N 4 = l H.).XXXX.X+XT.g.e.c.) U U &X^.$X",
"$X#X$X{.&XOXOX{. X$X$X#X X[.&X}.E.k.r.r.e.f.1.| | U j < O & < & 9 J ] ] M : - r `.pXsX#X$X{.^.XX#X_.~.6.y.c.w.g.a.&.~ ] n : ; l Y.#XXX&X[.oXT.g.g.x.h.d.m.&X{.{.",
"(. X^. X&X{.{. X#X X(. X X$X{.&XOX,.e.g.e.g.0./ I ) g + & ; ; % w J T ] M : X 6 ^.sXpX X X X#XXXXXOX*X1.y.c.t.a.9.&.L T z * @ p P.^.{..X[.oXT.g.w.c.e.e.e..XXX$X",
"{.&XXX XXX&X&X{.&XXX#X#X^.#X#X#X}.t.c.t.1.g.>.Y U H Z v V C C h H Z P R S Z d A  X4X4X&X^. X#X X.X+X.Xl.l.h.2.u.6.{ L P H Z C o./.^.#XXX[.OXT.b.q.b.g.d.g.XX{.XX",
"&X{.&X&XXXXX X#X#X{.#X&XXX#X{.{.;Xt.r.0.} [ Y u ; 0 +.[.=X X&X XXXR 2 2 _ _.XX`.{.&X X X X#X#XP.v.k.k.p.e.2.[ { W s 5 r ,.5X7X1X`.).XXXXXXoXT.j.a.g.&.} / &X&XXX",
"{.&X#X{.#XXX#XXXXXXXXX{.#XXX X X;Xy.y.:.W U U ; % ; O.&X:X~. X&X_.b * ; R OX#XOX$X{.{.OXXX{.{.h.h.q.p.l.e.,./ W W r @ = 8.tXyX9X$X_.).XXoX.XU.a.q.w.} Y / XX^.{.",
" X XXX&X{.#X{.&X&X#XXXXX#X{.OXOX}.t.h.<.U U G s < 0 O.{. X{.&X#X+XY < r ..{.XX_.}.+X{.&XOXoXOXc.t.t.h.g.e.1./ P P c 2 4 7.0X0X9X$XOXXX.X.X].J.x.w.t...~ W XX{.#X",
"#X#X#X{.{.&X{.XX{.{. XXX:X{.OX#Xy.| -.E a a h 5.&XXX&X&XXX{.#X{.~.k...#.{ U H U h.L.L.L.L.K.T.v.t.c.0.&.( ) f t c F._.E.).2X>X>XXXXX.XU.S.S.S.d.a.q.N y y XX*X^.",
"XX X X#X&X X#X#X#X&XXX}.{.m.r.y.&.K ) k < & t .X{.XXXX{.{.XX#X&XXXXXf.f.O.0 % < -.r.y.t.t.q.t.q.t.g.&.U ) G 3 % z <XtX9X3X).Q.Q..XoX_.S.2.p.g.q.g.2.y % U XX).(.",
"(.#X#X X X#XOX X{.OXXX&XOXh.r.y.-.^ E C 0 & r _.XX#X#X#XXX#XXXXX_.XX6.e.( & ; w -.t.r.t.g.t.w.g.y.y.:./ / C < . s @XrXtX3X_._.)..X.XE.F.a.p.j.q.d.<.s h f.XX^.#X",
"#X#X{.#X#X{. XOX#XXXOX;X;Xr.y.y.P C C j H A ( XX#XXX_.XX{.#X#XXX.X.X7.y.| 0 , < / <.1.| ) ) } ~ / / P j m H E H ..>X8X7X>X@X)._.U.U.U.Z.a.2.a.>.3...y +.X.#X%X^.",
"#X^.#X X#X{.&XXX}.XXy.r.h.y.y.y.h 3 & U .X{.#XXX#X#X#X#X{.XX#XXX{.*X5.f.Q , & , S U U y : < < < : 4 2 = % W Y.E.~.XXOX{.[.OX.X{.k.2.g.j.d.d.3.U Y Y u XXR #X).#X",
"#X^. X&X{.#X{.{.OX&Xt.e.y.k.h.e.M & - Z #XXX^.~.#X{.^.#XXX{.XXOXXX^.5.r.{ 4 , 4 m Q W s * * - - = = 2 : + Q ~.~..X.XXX}.}.}.}.R.j.g.g.a.p.j.3.~ Y Y i %XXX).#X^.",
"#X#X#X#X{.XX{.&X&X|.g.q.r.q.0.<.v % < A OX*X#X$X#X{. X X&XXXOXOX&XY.6.6.{ q < < b P Z v l 7 7 2 7 7 7 = 2 ` Y.Q.~.R.R.R.|.}.}.L.q.q.a.1.2.2...P P P i 4 r `.^.$X",
" X{.#X{.XX&X.X;X[.A.e.d.t.&.) &.g - - P ~.{.^.#X{.$X&X}.XXOX~.T.K.V.r.f.f...#.X.s r 6 $.).).).).).`.I.N.N.,.Z h m M v B &.c.V.t.} } } } } ..L r 6 l $X~.%XXX{.{.",
"{.OX*X*X&X[.m.e.l.q.p.2.p.] N ] u * X U *XXX#X{.{.#X{.&XXXXXM.2.V.t.g.y.d.e.d.3.s + X u.rXrXrXrXsXsX1XQ.$Xu.4 & < w & - B q.t.0.} U ~ T Y W v + ; p ~.%X{.^.$X$X",
"#X X{.XX{.:XV.e.a.j.d.q.9.&.] N y - = U XX.XXX$X:X#X{.{.OXOXk.e.t.g.x.w.j.g.g.3.z * : l.rXrXrXsXuXrX2X`.#X6.4 # & 3 % > K 1.y.0.] ~ ~ U U Y b 3 o i *X_.{.=X^.#X",
" X&X*X{.OX{.6.+.=. .N N N x z x D N D Y O.O.4.{.{.#X*X{.+XoXV.d.x.x.x.w.q.=.=.[ e * : %.<X<X2X2X1X1X-X`.{.M.E P P m h c m G G G n n n n c s A 6.n.f.#X~.#X#X XOX",
"#X}.{.y.g.1.( ^ T M > $ u 9 > < ..p.6.{ O & r XX{.+X{.5.6.j.l.a.x.z.w.z.<.~ T I e : : _ _._.'.Q.!.{.{.^.#XW.f.f.r.{ / Y y - - % > & $ & % . { uXtXXX#X#X X}.#X#X",
"&X|.&Xr.g.y.{ ~ W n -   % - . ;  .a.2./ ; ; r #X{.$X[.q.a.z.s.s.w.x.t.t.q./ / F 2 o + X.~._._..X^.&XXX.X}.L.t.t.y.( W Y r 1 # + @ # # = # o o.qXyX#X X#X&X{.{. X",
"OX{.OX;.,.-.U U L H Z L P m v S >.p.h.-.g t h m.#X|.F.d.l.b.z.z.w.w.w.q.;.H P A A P F u.~.OX+XXX^.XX~.T.|.L.V.t.r.) P R P S Z S S A V V V V @.#X#X{.$X{.#X&X{.&X",
"{.&XXXw q w , t 0 h.&XOX[._.%X~..Xa.d.1.y.y.;.m 4 y L d.a.g.x.s.t.:.) ) L q 5 s ~.8X6X,XOXXXXXXX^..XG.V.C.C.t.t.e.t 3 4 ,.OX*X_.^.*X$X%X(.^.^.#X{.^.XXm. X*X#X{.",
"{.[.&X% & , % + % .XtXiX.X>XXX*XoXd.h.y.t.y.,.q 4 ; v d.p.g.g.q.w.&.I / Z - o i ).uXyX3X_.XX{..X.X{.A.e.t.h.t.r.,.t 3 - n.0XyXeXyXyX9X=X^.#X#X(.#X=X{.5.m..X{.XX",
"*X{.{.0 & & 4 , ; .XtX#X^.~.*X^.oXd.q.q.h.t.0.t ; + D 2.u.j.d.q.w.&.^ P A 7 @ p `.rX0X5XXX.X^.XX.X.XF.e.g.h.t.d.,.v = = u.%XrXtX^.#X=X#X{.&X*X{.~.*X#Xr.6.{..X&X",
"[.{.$X.X&X{.~.h.y.OX{.OXXX#X~.=XoXh.h.c.c.g.t.^ L n Y b l M Z A K m g g #.H.H.W.-X2X1X=X{.XX.X*X.XXXF.j.g.e.-.-.{ c : 2 ,.Q.%X_.#X{.#X#X#XXXXX{.XX{..Xf.h.&X*X[.",
"$X#X{.*X{.XX$X{.#X=X{.{.XX$X{. XoXe.g.t.t.t.w.~ [ P c @ * 2 = @ 3 3 @ @ @.wXsXqX-X(.W.Q.^.&X{.[..X.XS.d.t.1.) Y U 6 2 * _ XXXX^.#X{.{.XXXXXXXX+XOX&X{.m.6.*X.XXX",
"#X~.$XXX{.#XXX#X{.^.&XXX{.{.#XXXoXy.g.t.t.t.w.) I W z * * : = = 1 4 1 & @.wXqXwX-X^.XX%X[.[.OXOX+X].S.p.d.1.} Y R 6 @ 1 ' OXXX_.{.{.{.&XXXXX[.OX}..XOX1.f.XXXXOX",
"#X#X#X{.#X#X#X).XX{.#X^.XX*X{.XX.Xg.h.w.0.t.*.T b M _ $.$.8.! ! Q a 1 5 @.1X6X5X-X`.%X#X^.[.OXK.J.U.d.2.q...M Z Z s 7 2 ` _.XX^.{.&X{.[.XX+XXXXXXX.X#Xh.g.+X&X.X",
"^.#X#X#X(.{.^.#X#X{.#X*X&X!.h.r.h.e.e.*.&.} N u < ; u.rX`.'.=X(.{.E 1 1 o./.(.(.`.).^.XX[.[.!.v.2.d.<.Y / Y e , 4 : = 2 #.).{.&X+X{.&X:X5.y.h.g.k.d.V.y.r.[.{.XX",
"#X`.{. X#X#X#XXXXX{.XXOX~.V.y.m.e.q.w.q.T T I w : < 7.uXuX`.^.#X{.H 1 & Q /././.^.^.^..XOXoX|.x.2.2...} / h < % 2 2 = = ` OXOX~.{.XX.X.X6.g.r.q.t.y.g.r.m.{.{.&X",
"^.#X$X^.#X#X*X{.$X[.OX[.&XV.d.e.j.d.w.<.J ^ I w s 6 B.0X0X-X$X^.&XC 1 @ Q (.(./.).XXOXXX[.].T.g.d.2.-.G H U d 4 i p 7 l { {.:XXXXXXX*X{.h.q.e.y.q.y.t.y.e.OX&X{.",
"#X#X#X^.^.^.XXXXXX+X*X[.oXg.g.j.g.w.9.| f ; n >X%XQ.%X%X{.!. X#X{.K & 1 Q ^.^. X^.~..XK.b.b.w.&.P ..v 4 r { {.XX%XQ._._.#.V g K f.OXXXe.y.t.:.&.) | | ) ( OX&X}.",
"#XXX^.*X#X$XXXXXXX~.d.d.h.g.q.w.g.g.j.U 8 - y ).yXuXQ.). X=X&X&X{.H & & ( (.{.^.{..X.XD.q.w.9.&.P W v ; # ( &XeXrX$X).%X+.3 & t ,.1.d.j.w.w.9.~ ~ ~ ) ) / }.OX{.",
"{.XX$X{.#X).XXXXOXOXe.d.q.a.a.j.j.q.g.[ < & l ).sXpX).`.}.{. X;X}.E & & | {.{.~.[.XXOXD.w.z.9.~ W Q s - O ;.^.).^.Q.#X$X;.3 & w e.e.e.g.e.w.*.) ) ) ) E U &XXXXX",
"XX#X#X,.5.8.~.OX.X@X2.d.j.d.a.w.9.-.<.U > % p ).`.).).`.#X X;X X}.-.K C ( ,.#.5.A.D.K.x.*.<.&.B s v #.5.,.).#X^.^.).^.^.n.K K J L U W L T ~ I j j j J h h OX{.XX",
"^. X$X- 4 < 3.p.a.a.j.w.g.w.a.a. .Y T b ; - r XXXXXX#X`.^.^.#X#X X{.7.r.( 3 - 4 ..u.d...[ T M e : : @X0XrX`.#X`. X{.&XXX.Xe.e.1.3 - & & , # 3 # 2 - 1 = A ^.XX_.",
"(.$X^.+ + < &.j.q.g.t.g.j.g.a.9.>.Y Y b - : q XX#X).{.#X$X%X).`.#X X7.7.( 3 ; 3 ..i.i...Y [ Y - = = #XuXuX#X/.*X X{.{.&XOXm.e.| < % & % & % & & # 2 1 P 6.[.OXXX",
"#X#X~.t u c Y =.=.d.w.q.w.g.w.a.[ M M b D v { XXXXXXXX#X#X X^.#X{.OXr.7.O.; ; > _ 3.3.[ L M N M S F %XyX`.`.^.#X X&X}. X{.r.e.,.g q a 3 3 , 3 V Z v v s i *X.XXX",
"!. X=X;.3...f u 9 ~ q.w.x.j.a.q.b : 4 _ OXOX^.XXXX%X%X^.).#X%X#XXX&X5.y.( & < < M _ _ b < - M XX).#X^.^.#X#X$X(. X#X#X&X.Xe.r.t.:.-.-.M & % E &X#X$XXX&X%X~.XXXX",
"&X&XOX2.6.9.u $ $ ~ c.q.g.q.q.q.b X ; _ ^.tX[.OXXX&X{.XX#X&X.X{.oX+Xy.h.{ ; - > D Y U s < + s OXyXyX(.$X(.#X(.$X#X{. X{.&Xy.t.g.r.t.e.K &   | eXeX[.#X{.&X&X*X{.",
"{.{.XXd.g.3.f < > ~ d.w.j.j.d.q.z : - ` *XtXXX^.&XXXXX&XXX{.&X*XoXoXy.g.} u ; < D I [ h % ; P [.eX(.#X#X#X X$X^.#X#X}.;X;Xy.t.t.t.t.1.K , & / &X&X&X{.#X{. X~.#X",
"XXOX+Xd.d.a. .] ) ~ N N I &.....z 6 2 R XX_.XXXX&X{.+X&X[.{.OX[.oXoXk.h.2.| [ { b s g Q r.V.W.&X X#X X X{. X^.=X{.:X}.}.}.V.g.t.t.v.t.K w & E OXXX{.&X{.#X{.:X{.",
"{.}.OXd.g.d.g.a.x.~ % ; 0 Y I Y 7 = = P %XXX~.OXXX{.XXXX{.:X[.r.w.c.q.a.v.k.f.e.r < O ..&X~.OXXX#X#X{.{. XOX#X#X&X{.r.q.w.y.w.g.t.0.t.K & & K {.{.{. X{.$X X{.&X",
"OXXXOXy.e.g.w.d.g.I $ & t Y U U s @ 1 C #X{.{.&XXXXXOX{.;X[.OXr.w.x.t.j.c.e.d.1.g & & +.#XXX{.{.#X#X^.#XXXXXOXXXXXXXj.e.t.t.0.a.c.y.t.K % & P  X#XOX X X X X#X X",
"OX}.OXg.j.d.p.j.e.| h h v P H H l 4 5 Q #X#X{.{.{.*X{.{.{.:X}.h.b.V.x.h.h.2.2.;.s 5 q @.XXXX#X#X{.XXXX#XXX+XOXOXXX.Xk.j.h.j.g.x.0.0.y.K 3 3 ^  X XOX#X#XOX#XOX X",
"&XXXXXh.h.l.j.k.h.,.) W H s , 4 4 2 5 ! ^.#X X*X#X{.}.C.h.{.m.r.g.v.h.t.1.| ( ( r 1 q O.&X{.XXXXXXOXOX#XXX_.M.f.k.V.2.j.g.j.g.w.) ) E g , w E XX#XOX XOX X X XOX",
"}.{.{.e.2.d.e.e.e...U E A 4 + = 1 @ # C {.XX X|.&X&X{.5.4.m.m.y.q.t.y.e.:.W U P 3 O & ( &X#XXX&X&XOX~.XXXXXXf.e.6.d.2.f.g.d.w.<./ ^ P s & O A  X X X#X XOX XOX X",
"&X&XXXm.d.f.d.3.f.+.W P E g t s p i r Q {.{.=X#X X{.*Xy.r.h.5.y.c.h.r.t.;./ P P V a h ;.{.{.{.XXXX.XOX#XOX{.h.6.f.f.6.d.2.e.e.1.E E P v r a ( {.OX{.XXXX#XOX X#X",
" X X&X{..X.XXXOXOXXXXX~.#XXX@XXX{.*X~.&X&X{.{.{.}.*X X{.*XOX&XOX{.}.}.XX&X{. X&X&X{.{. X*X&XXX&X&X#X X}.{.*X{.*XXXXX_.OX.XOX;XXX{.}.OXOX&X&X^.#X#X#X#X#X X#XOX{.",
" X^. X&X#XXX.X.X[.XX&XXX$XOXXXXXXXXX{.{.}.#X#X#X X&XOX{.XX{.{.}.&X;XXXOX{.&X#X#X X#X#X X{.{.XX&X X X#X&X{.#X{.&XXXXX#XOX&XXX}.{.{.{.&XXX{.#X#X).{.XX&X{.OXOX{.OX",
"$X X X{.OXOX@X_.&XXXXXXXXX{._.#X&X{.*X{. X X&XOX X#X&XXX&X{.&X#X}.OXOX{.{.&X{.#X#X{.^.#X{.&XXX.X&XOX X#X&X{.&X{.XXOX#XXX XXX#X&X&X{.XX&X#X#XXXXX X#X{.&X XOXOXOX"
};
