/* XPM */
static char *result[] = {
/* columns rows colors chars-per-pixel */
"80 80 103 2 ",
"   c #48ABF0",
".  c #48A8ED",
"X  c #3D91E4",
"o  c #3E93E1",
"O  c #2A2A2C",
"+  c #4BAAF0",
"@  c #48AAEE",
"#  c #2C2C2E",
"$  c #3F96E5",
"%  c #3E95E3",
"&  c #4CACF0",
"*  c #4099E5",
"=  c #48A7EE",
"-  c #2E2E31",
";  c #272729",
":  c #45454B",
">  c #3D3D41",
",  c #424248",
"<  c #343438",
"1  c #3F3F45",
"2  c #37363A",
"3  c #3E91DF",
"4  c #3C8FE3",
"5  c #303032",
"6  c #4AAEF1",
"7  c #48484E",
"8  c #323235",
"9  c #3E92E6",
"0  c #5C5C68",
"q  c #3A3A3F",
"w  c #53525A",
"e  c #46A5EB",
"r  c #39383C",
"t  c #858997",
"y  c #57565E",
"u  c #6A6D7C",
"i  c #626472",
"p  c #555865",
"a  c #44A1EB",
"s  c #4E505B",
"d  c #656877",
"f  c #4C4C53",
"g  c #626169",
"h  c #47A3EF",
"j  c #419BE8",
"k  c #4DB0F2",
"l  c #429EE8",
"z  c #5B5A62",
"x  c #4EACF3",
"c  c #505360",
"v  c #828592",
"b  c #6F7281",
"n  c #9197A6",
"m  c #898E9B",
"M  c #727584",
"N  c #8D92A0",
"B  c #4E4E56",
"V  c #6A6870",
"C  c #959CAB",
"Z  c #9BA2B0",
"A  c #757988",
"S  c #7B7F8E",
"D  c #494A54",
"F  c #5C5F6E",
"G  c #3E8EDC",
"H  c #A1A8B7",
"J  c #797881",
"K  c #797C89",
"L  c #3A86D1",
"P  c #3C8BD5",
"I  c #52B2F3",
"U  c #74737B",
"Y  c #222224",
"T  c #A8AFBE",
"R  c #7B8292",
"E  c #6F6E75",
"W  c #4FA6E7",
"Q  c #4894D8",
"!  c #4E9EDC",
"~  c #558AB7",
"^  c #57ACEA",
"/  c #2D80CA",
"(  c #818089",
")  c #557CA1",
"_  c #5995C7",
"`  c #88B0D0",
"'  c #2979C5",
"]  c #A9B5C6",
"[  c #37628D",
"{  c #3C75AC",
"}  c #526D88",
"|  c #226DBC",
" . c #6589AC",
".. c #2E5072",
"X. c #66A1D0",
"o. c #7794B0",
"O. c #72AFDC",
"+. c #34577B",
"@. c #60A8DD",
"#. c #7D9FBE",
"$. c #4485C1",
"%. c #495E74",
"&. c #384C64",
/* pixels */
". + + +       @     @ . . . @ @       &   @ e e e e e = .   6   + . = . . . . . = e e e . . . @ @   6 6 k 6 e * * l j * * l a a e . e @ 6 + + W W W / * I I I I ",
". = = = . @   @ @ @ @ . . @ @ @     @   6 @ e a a e + @ @ 6 &   + . . . = e e e = . .   6 & k k 6 6 k k k 6   e l l a a e x x x k k I I & = a W ^ Q / e k I I I ",
"= e a e e . @ @ @ @ @ @ @ @ @ @     @ @ . e a = @   6 6 6 6     + + . . + + + + + + 6 k 6 & & & 6 6 6 6     6     6 & & & + & & & 6 & @ . + = x W / P k I 6 k k ",
"e a a e e = . . @ + @ + + @ @ @       @ . = @     6 6 6 6 6     + + + + ^ ^ ^ ^ ^ ^ ^ ^ k k 6 & 6 6 6 6 6 6     6 6 6 6 6 & & & & 6 & + & x x x P / . I 6 6 k k ",
"a a e e = . @ @ + & + + + +           @ @ @                 & & ^ ^ O.O.O.` ` ` ` ` ` ` O.O.^ ^ ^ & & 6 6 6 & 6 6 6 6 6 6 & & & & x x + + x x W ' L x k k k k k ",
"a a e e e = . . + + + + + + & & &     @ @       @ @ @ @ @ ^ ^ O.` ` ] ] ] ] ] T T T ] T ] T ` ` O.O.^ & & & &   6 6 6 & & + + & & x x + x x + * ' P + I k k k k ",
"a a a a a e e = . + + + + +           @   6 6   . . @ ^ O.` ` T T T T H T T T T T H H H H H H T ] ] ` @.@.& & & 6 & & @ @ @ + + + + + + x x x * / L * 6 k k I k ",
"a l l l l a a e = . . . . + @             & & @ . ^ O.` ] ] ] T T T H H H H T ] T H H H H Z Z H ] ] ] H ` O.^ & & & & & + + & & + + . + + x + a L / G + I I I I ",
"e a l l l e = = . . . = = + @             @ @ W @.` ] T T T T H H H H Z Z Z H H T H H Z H Z C Z T T T H H Z #.@.^ & & & & & & & & + + + + x + . 3 / / l I I I I ",
"a l l a a e = = = = = = = . @         @ & . ^ O.` H T T H H H Z Z Z C n n C Z Z H Z Z Z H Z C C C C n C Z Z Z #.X.^ & & & & & & & & & & & & + + e 3 ' P e I I I ",
"j * j l j l a e e e e = = @ @ @ @ @     & @.` H H H Z Z Z Z H Z Z C C C C Z Z Z Z Z n C Z Z C n C C N n n n n n n #.@.& + + & & & & & & + + + + + = P / * . k I ",
"* * * * j j a a a e e e = @ @ @ @ @ & ^ @.` H Z Z Z Z Z C n Z Z C n n C C C C C C Z C n n n n n C C n n N m N N N n #.@.+ + & & & & & & + . = + + x 3 ' 3 l . . ",
"* * * $ * j l a e . @ . . . . @ @ . W X.#.Z Z C C Z Z Z C n C n N n N n N N N n n n n n n N N N n n n N N m m N n N N #.X.W + + & & + + = = = = e l / ' o o * l ",
"* * * j j l a = . @   @ @ @ . @ . W X.C C C Z C n C C C n N n m N N m m t t m N N N N N N N m t m N N m m m m N N t t m o.X.W + & & + = h e l * P ' | / l l e & ",
"$ $ $ $ * j a = = @   @ . . . . W X.C C n C C n n n n N m t t t t t v S K A v t t t t v v t t v t t t t t t t t t v ( m m o.X.^ + + + l o L / / / / 3 e k k k k ",
"$ $ % o $ j h = =     @ . = = W X.n n n n n C N m N m m t v v v R S A A M M R v R S R R A S v R v R R v t t t t m v v t t t o.X.W = 3 ' ' ' L % e + x k I k k k ",
"$ $ % $ l h = + +   @ . = = W X.o.N n n n n n N t t t t R S R R S K b M A b M A A K A K A S v S K K S v t t t t t t t v v v v o.! Q ' ' G @ I I I k k k k k k 6 ",
"$ $ * * a + = = = = = = = h @.o.N m m N N N N m m m v K A A K K A b u b M u d d u u u M M M A A M M A K K S v v R v v v v v R v  .' / l k I I I k k k k k k 6 & ",
"$ % $ * j l a h a a a e h W X.m m t m m N t t t t v S M u M K K b d d d d i i i i d u u d u b M u u b M A M K S K S v v v v ( ( K ~ ! x k I I k k 6 6 6   @ . @ ",
"$ $ $ * * * j j * * l a a ! o.m m t m m m R S S K A b u u A K M b d 0 F d d d F F i u u d u u u i d u b M M M M A K R S S K K ( R o.@.k k k k 6 6   @ @ . . @ + ",
"* * * j j j j j % % j a W X.m m m t v v S A A M b u u u u b u u d i 0 F F F p p 0 F i d i d d F F i b b u b b b b K K M A K M J K R _ ^ & + +     . . . @ + + . ",
"* * * * * * * $ % o % * ! o.t m N m v R S S A u d d d d d u d u u d i 0 0 F p p 0 p c p p p 0 0 F d u u d u b u u A A b b M b M J A  .! = . . . . .     + & + + ",
"* * * * * * % o 9 o 3 3 _ t v t t t v S K K b u d i i i d i 0 p F 0 0 p 0 F 0 c s c s p c s 0 0 F i d d i i d d u b b u u b b A A A A ~ ! a . . . . @ . + & & & ",
"* * * * $ % o X 4 3 o Q o.m v v S R S K R S b u i F F i u i p c p c s c p 0 p s 7 B s p p c p p p F F F F i i d d d d u b b b A A A A  .! e @ & & & &   + & & & ",
"* * * $ $ % % X 4 o $ _ t m t t R S A M K S u i i F F i d F p 0 0 c B c p p p c s f s c c s s c p p c p 0 F 0 i d i d u b b b M M M A R _ .     @   & & & & & + ",
"$ $ * * * % $ o % j a _ m m t v S R A u b b d F F i F p 0 p p p p c c p c c c c s s s c c D D s c c c p p p 0 F i F d u b b M b b b M A _ W @ @ . . @   + & & & ",
"* j j j j $ $ $ j l ! o.m t v S S S A u u d i F F i 0 c c 0 p c f s p c s s w B D D B s c B s c c s s c c c p p F p F d u b u u u u b M  .! . . . . . @ + & & & ",
"j j j j j * * j l l Q  .v R K A A A A b d i d i i F p c c 0 p w B c w B D D B D D D s B s s s c c s c w B c s s p 0 0 i d u u d d u b M R ! . . . .     + & & & ",
"* * * * % * l a a l _ R S K A A A A M b d i i F 0 p c c s p y y w w D , , , 7 : : : 7 7 7 f B s B w y w f B D D c z p 0 i i d d i d u b A _ . @ @ .   6 & & & & ",
"* * * * % * l a a ! ~ R K K M M M b u u i 0 F p c s c c w s B B D , 1 > 1 1 , > 1 , , , , , , , : 7 7 7 7 7 D s y p c w 0 g 0 0 i d u u M ~ W   @ @   6 & & & & ",
"* $ * * j j j a a !  .R K K b b u d d i 0 p c s s s f 7 : 7 7 7 7 1 q q 1 1 q < 2 q r r q > > q 2 > , 1 1 1 , D s s s w p p y p i i d u b ~ W @ @     6 & & & & ",
"$ $ j a l j j j j *  .K J M u u d i i 0 y c B f B D : 1 > , 1 1 : 1 2 q > r 8 2 2 2 8 2 q q q 2 < > 1 q > 1 , : , : D w w B s y g g i d b  .W     6 6 6 & & & & ",
"* * * $ o 3 3 % * Q  .M u u d i F 0 0 y f D D D f D : 1 , 1 q q 1 1 r 2 2 < 8 < < < 5 < q > q q > , > q > , : : 1 , : B w s s s z g g i d ) ! @   6 6   + & & & ",
"% o o 3 3 3 3 $ * Q  .b u V d i F 0 p w f 7 D f D D 1 1 1 > q q q q 2 2 2 2 < # # 8 5 < 2 < 8 r > > > > > > 1 , 1 : : f w y y w p 0 0 g d ) ! .       @ e e e . ",
"% $ $ % o 3 3 o $ Q ) u V V i g F p w D 7 : : : 7 : 1 > q q > q q r < 8 8 2 < O ; O 5 < 5 # - 5 2 r q 2 r > 1 , , : : D B w z y w w z 0 i ) Q a e = e l * * l l ",
"% % $ % 3 3 3 o $ Q ) d g 0 p z p s D : 7 : : : : : , 1 q > 1 q 2 2 2 5 - - # O # O - 5 # O O # 5 < 2 8 < r r 1 , : D D : : s s w w p 0 i ) P % * * * * l e e l ",
"o o % % o 3 3 o 9 Q ) i 0 z y y w D : , , : : , 1 , : 1 > > r < 5 8 8 - - - # # 5 - - - O O O - 8 8 5 - 8 < 8 r r > : f 7 , D w y w z g i ) P % * * h = + + . = ",
"3 o % $ % o o X X G ) d g z y w f 7 : : , , , 1 r q > r 2 r 2 8 - 5 5 # O O ; # # O # O O O # 5 5 < - O 5 < 2 2 8 r 1 f 7 , D w s s z g d ) ! e e = + + + + @ + ",
"o o % $ $ % o % 9 G ) d g z y s D D : : : : , > > q q 2 8 2 2 5 5 8 5 # O ; Y ; O ; ; O O ; - # O - # - 8 2 r r < r 1 7 : : f B D B y 0 i ) W 6 x & + & &   @   ",
"% o % $ $ $ % % % 3 $.d z y w s B B 7 7 7 : 1 > > q > 2 5 < 2 5 - 5 5 - O ; Y ; O ; O O ; ; - # O O - 8 8 8 < 2 < > , 1 1 , 7 D 7 B y z i ) W & & 6 6 6 & &     ",
"% o % $ $ $ $ $ $ % $.} z w w w w B : : : , 1 > q r r 2 5 - - - # ; O 5 # ; ; O ; ; # O Y ; O O O # - 5 5 5 < r r 1 > q > 1 : 7 7 f w y i ~ W   & & & & &       ",
"% % % $ $ $ $ $ $ % Q } 0 y y y w f : , , 1 1 > > > 2 8 - - 5 5 O ; ; # O ; O - O O # O ; ; Y ; # - - 5 # 5 2 2 r q r q 1 1 , : 7 f w z d _ . &           & & & ",
"$ $ $ $ $ $ $ $ $ $ 3 ) i z y y w f : , , 1 q r q r < 8 # O 5 - O O O ; O # - - O ; ; ; ; ; Y ; # - # # ; O 8 2 2 < < > , 1 1 7 B B w z } ! @         @ @ & & & ",
"$ $ $ $ $ $ $ $ $ $ 3 ) i z w y w 7 : : , > > > r < 8 8 - # 5 # O O ; ; O O - - O ; ; ; ; ; ; Y O # O ; ; O 5 8 2 < < q 1 1 > 7 B f w F ) ! @ @ @     @ @ & & & ",
"% % % % % % % % $ $ % $.} z w w B : , , , 1 1 , q 2 8 < 8 5 - # - # O # O ; # # O O O O ; ; ; ; ; ; # # O 8 2 < r r 2 q > > > : f f w F ~ W @ @ @     @ @ + & & ",
"o o o o o o o % $ $ $ P } g y w B 7 : , , , > q r 2 2 q < 5 5 # 5 # # O O O - # O O # O ; Y ; # O ; O - # 8 2 2 q q 2 q 1 1 1 : f B y } _ .           @ @ @ +   ",
"o 3 3 o o o o % % $ $ Q ) i z w B 7 : , > q r 2 < 8 2 2 < 5 # # # O O O O ; O ; ; O # # ; Y ; # O ; # # - 5 5 5 < r 2 r > 1 > , 7 f p ) ! @           @ @ @ +   ",
"3 3 3 3 3 o 3 o % % $ % $.} y B B 7 7 , q q q 2 2 < < < < 8 - O # O O O ; ; ; ; O # O O Y Y ; O O # # # # - 8 8 5 8 r q q > 1 , : 7 %.~ e @             @ @     ",
"3 3 3 o 3 o o o % o $ $ G ) p B w f 7 , > > > q q 2 8 8 < 8 5 # # ; ; O ; ; O O # # O O Y Y O 5 - # # - 5 5 < 2 5 8 r q q 1 , , : B } ! @ + + + @ + + + @ @ @ @ ",
"o o o o o o % $ % % % * * $.} w B 7 : : 1 q r < < < < < < < 5 # - # # # # O O # - - # # ; ; - - # # # - 8 5 8 < - 8 r q > , : : f %.~ e + + + + + + + + @ @ . . ",
"o o o o o % % $ % % % $ $ Q ) %.f 7 : : : 1 q 2 2 < < < 8 8 5 # - - # - 5 - O O # # # - O # 5 O ; ; O - 5 5 8 2 < < 2 q q 1 , 7 c ) ! . + + + + @ @ @ . . . . . ",
"3 X o X 3 o o X X % % o % o L } c 7 : : : , q 2 2 r 2 8 5 8 8 - # # O - 8 - O O # # # # O 5 5 O ; ; O # - 8 < < < 2 2 > > > 1 D } Q . . . . @ @ @ @ @ . . . . . ",
"X 4 4 X 4 4 4 4 G G L ' ' | | { %.f 7 : 1 > q 2 r q q 2 < 2 2 5 O ; O - 8 - O O # 5 - O O - 5 - - O - - 5 8 8 8 8 2 q 1 1 1 , %.~ e . = = = . @ + + + . . . . . ",
"4 4 4 4 G 4 P / ' | | | | / L L { p f , > q r 2 r r r r 2 r 2 5 # O O # - - - # # 5 8 # ; # - - - - 8 5 - 8 < < < 2 q 1 1 , s ) ! @ @ = = = . @ + + + . . W . = ",
"P L / / ' ' | | | | / L o * * * P } c : 1 q r 2 q 2 2 2 < 8 < < < < # # # # 8 8 # # - # ; O # # - - 8 5 - 8 < 2 < < < q 1 D } Q . @ . = = = . @ + + + + . . . = ",
"' | | | | | ' / L G X % % o X X 3 $.} B : : , > > r 2 < < 5 5 8 < 8 # 5 # # 5 - ; ; O O ; ; O O O O # - 5 5 5 8 < 2 r q : %.$.e @ @ @ . . . . . . @ + + @ . = = ",
"' L P G G G 4 4 X X % $ % % X X X 3 $.%.s f 7 , 1 > 2 < 8 - - - 5 - # - O O O ; ; ; ; ; ; ; ; ; ; ; # - 5 8 5 8 r > 1 : p $.a . . . . @ @ @ + + . . + + = = e e ",
"$ j * * $ o 4 4 X X X 9 o X 4 4 X X P } 0 w f 7 : 1 q 2 < 5 - - - # O # O O O O ; ; ; ; ; ; O O O # < < < r r q 1 : 7 s } Q e e e = . . . . + + . . . = = e e e ",
"j * % o o 3 4 4 4 X X X X 4 4 4 4 X G ) V g y w f : 1 > r < 5 - O ; ; ; ; Y Y Y Y Y Y Y Y Y ; O # - < r r > , : D B y 0 } Q a h e = = = = = = = . . = = = h h h ",
"% o 3 3 4 4 X X X X X X X 4 4 4 3 Q _ R J E V 0 z w B 7 : > r < 5 # ; ; Y Y Y Y Y Y Y Y Y Y ; # 8 2 q > , : f w y z g V u  ._ ! h h h h h = = . + . = = h h h h ",
"3 G G 4 4 4 X 9 X X X X X 4 4 3 _  .R ( J U E V V g z y w f 7 , > q < 8 - # O O ; O # 5 5 8 2 r > , 7 f B w y z g i V E E M R _ a h h h h e e = . = = = h a a h ",
"% o 3 3 X X 9 9 9 9 X X 4 4 3 Q  .R J U E V V V V g z z y w f 7 7 7 : > > > > > q > > , , , : : 7 f B w y y z g g V V V V E K o.! h h h a a a e = = = e a $ $ j ",
"% o o o o o o o o 3 o 3 4 3 _ o.N v J U U E V V g z y y w f 7 : : : , > > > > > q > > > 1 1 , : : 7 f B w y z g g V E E U J v m #.X.! l l l l l h = h l * % % % ",
"o o o o o o o o o o o 3 3 Q o.m t ( K J J J U U E E i g 0 z y w w w w B B f f B B B f f w y y y y y 0 g g V V V E U J J K ( ( ( R t _ Q * a j l l a l $ % % * j ",
"o o o o o o o o o o Q Q Q _ t ( ( J U E V V V V V E i g 0 0 0 0 0 0 0 z z z z z 0 z y z 0 z z 0 z 0 g i g g g g g V E E E E U U J v o.X.! l * l l j * * * j a a ",
"o o o o o o o o o o _ #.#.C N m v K J E V V V g 0 0 z y y w s B B w w B f 7 : 7 7 , , f f f 7 7 7 f w y y w y g g V E E U J K ( t N C C #.! j a h a a a h h = = ",
"o o o o o o o o 3 Q ~ t t m N m m t v ( ( v ( J U U E V i i g 0 z 0 g z y y w w y y y z 0 g 0 z z g V E V V E J J J ( ( v v t t t t m t t _ l h h h h h a h h h ",
"o o o o o o 3 3 3 G  .A J J J J J J J J K ( ( ( ( ( J U U J K J U U U U E U U U U U J J U J J J J K K ( K K ( ( K J J U M U U U E E U U A ~ j a a h h h h l l a ",
"o o o o o 3 3 3 3 G  .A U U E V V V g g g g g 0 g g 0 y z g g 0 z z z z y y y z w y z z z z y y z g 0 z 0 0 g g 0 0 0 0 g g g i g g V E b ~ * * j j l j $ o * a ",
"3 3 o o 3 G G 3 3 G  .K U E V g g g 0 z y w y s B f B f D 7 7 : : , , : 1 1 1 , > q > q q q > 1 : 7 7 , : f f f f B s w w y z g g g i i u ~ o $ * * * * % % a = ",
"3 3 o o 3 G G 3 3 G  .A E V V g 0 0 p y w s w f : , , 7 , 1 > q q r 2 q r r r 2 q q < - 8 < 2 > > , , 1 : f 7 : 7 D D B w y z z y 0 g i u ~ o $ * * % % * a = = ",
"3 3 3 3 3 3 G 3 3 G ~ u V i g g 0 z z y s s s s 7 : , : 1 > q r < 5 - 8 < 2 < 8 r 2 8 O - 5 8 2 q 1 > 1 , : : 7 7 7 7 B w w w y y z z g d ~ % $ % o 3 o l h a l ",
"3 3 3 3 4 G 3 G 3 3 $.i p p y w w y y w D f f f 7 7 : : , > q q 2 5 8 8 8 8 < < < 8 5 - 5 8 < r q > > > > 1 , 7 7 7 7 f f f f B s s c p %.$.o $ % % * * l l l a ",
"G G G 3 3 3 3 3 G Q P { { [ %.c D D D 7 1 1 , 1 > 1 1 q r r q r < 5 - - - 5 5 5 - - # # O # 5 < 2 r 2 2 r q q 1 , , 1 , , , : D &.+.[ { $.P o % % % * * j j h h ",
"G G 3 4 3 G 3 G 3 3 3 G P L $.{ { [ [ +.&., 1 q 2 r 2 2 < < < 8 - - - - - 5 5 - - O # # ; ; O - 5 < < 2 q q q q 1 1 , &...+.[ { { L P G 3 o % $ % * j l a a h l ",
"3 3 4 3 X 3 4 4 3 X o o o o X G G P L $.{ { { [ [ [ [ +.[ +.+.+.............................+...+.+.[ [ [ [ [ [ { { { $.L L P P G o o o % % o % $ l a l a h a $ ",
"X X X 4 4 4 4 4 4 X X X X X X X X 9 9 X 3 4 G G P P L P L L L L L L L L L L L L L L L L P L L L P P P P P G G 4 G 3 X 9 X 9 9 X X 9 9 % 9 % % % % * * * j j * $ ",
"4 4 4 4 4 4 G 4 4 4 4 X X X 4 4 4 X 9 9 X X 9 9 X X 4 X 4 9 4 9 9 9 9 9 9 9 9 9 X 4 9 9 9 9 9 9 9 9 9 9 9 9 9 9 9 9 9 X X 9 9 9 9 9 9 9 % o o o % % $ * * $ $ $ ",
"4 4 4 4 4 4 4 4 4 X X 4 4 4 4 4 4 X X X X X X X X X X 4 4 4 4 4 4 4 9 9 9 9 9 9 X X X X X X X X 9 9 9 9 9 9 9 9 9 9 9 X X X X X X 4 4 X X X X X X X % % % $ $ % ",
"4 X X 4 4 4 4 4 X X X X X X 4 4 X X X X X 4 4 4 X X X 4 4 4 9 9 9 X 9 X X X X X X X 4 4 X X 9 9 9 9 9 9 X X X 9 9 9 9 X X 9 4 4 4 4 4 9 9 X X 4 4 4 X X 9 9 9 X "
};
