/* XPM */
static char *walllll1741104049[] = {
/* columns rows colors chars-per-pixel */
"80 80 219 2 ",
"   c #0E1413",
".  c #161A19",
"X  c #1C221E",
"o  c #1D2322",
"O  c #222322",
"+  c #252826",
"@  c #262B2B",
"#  c #2B2D2C",
"$  c #322F2D",
"%  c #2B302E",
"&  c #35312C",
"*  c #2E3233",
"=  c #323434",
"-  c #3B3635",
";  c #3A3936",
":  c #363A3A",
">  c #3C3C3B",
",  c #42392F",
"<  c #433B36",
"1  c #423D3A",
"2  c #4A4032",
"3  c #45413D",
"4  c #4B433E",
"5  c #52493E",
"6  c #3B3F42",
"7  c #3E4142",
"8  c #424445",
"9  c #4C4543",
"0  c #4A4A46",
"q  c #444749",
"w  c #45494A",
"e  c #494848",
"r  c #4A4B4C",
"t  c #544B45",
"y  c #534D4B",
"u  c #4D514E",
"i  c #54524E",
"p  c #5C5349",
"a  c #4B4D50",
"s  c #524E50",
"d  c #4D5253",
"f  c #545454",
"g  c #5A5554",
"h  c #575856",
"j  c #5B5954",
"k  c #545659",
"l  c #56595A",
"z  c #5B5C5C",
"x  c #62584E",
"c  c #645C56",
"v  c #625D5C",
"b  c #5E605D",
"n  c #65625E",
"m  c #696358",
"M  c #6A645C",
"N  c #72685C",
"B  c #5C5E61",
"V  c #635F61",
"C  c #5E6162",
"Z  c #5F6368",
"A  c #646364",
"S  c #6B6563",
"D  c #666966",
"F  c #6D6A64",
"G  c #63666A",
"H  c #68696A",
"J  c #6C6B6B",
"K  c #736C65",
"L  c #736D6C",
"P  c #786D6A",
"I  c #6E726B",
"U  c #797367",
"Y  c #73726D",
"T  c #7A756D",
"R  c #6C6D71",
"E  c #766F72",
"W  c #6F7274",
"Q  c #747473",
"!  c #7A7574",
"~  c #7C7974",
"^  c #7C767A",
"/  c #747878",
"(  c #7B7C7B",
")  c #826961",
"_  c #82786E",
"`  c #827B74",
"'  c #877B76",
"]  c #837D7A",
"[  c #7D807A",
"{  c #84827B",
"}  c #8A857A",
"|  c #8B847B",
" . c #94877C",
".. c #A1887B",
"X. c #7E7E83",
"o. c #847E80",
"O. c #7E8282",
"+. c #848482",
"@. c #8B8582",
"#. c #8C8A84",
"$. c #868788",
"%. c #8C8C8A",
"&. c #938C83",
"*. c #978C83",
"=. c #928E8B",
"-. c #949186",
";. c #9B9286",
":. c #9B9884",
">. c #95928B",
",. c #9B948C",
"<. c #9D998D",
"1. c #8D9293",
"2. c #949493",
"3. c #9B9492",
"4. c #9D9B94",
"5. c #97999B",
"6. c #9C9C9B",
"7. c #A5988B",
"8. c #A39A8D",
"9. c #A39C92",
"0. c #AA9E93",
"q. c #A39E99",
"w. c #9FA19E",
"e. c #A5A195",
"r. c #AAA395",
"t. c #A4A29C",
"y. c #ACA59A",
"u. c #ADAA9A",
"i. c #B1A595",
"p. c #B2A69B",
"a. c #B4AA9D",
"s. c #BAAC9E",
"d. c #B8B09E",
"f. c #9A9CA5",
"g. c #9AA2A3",
"h. c #A5A5A3",
"j. c #A8A6A4",
"k. c #ADAAA4",
"l. c #ABACAA",
"z. c #B3ADA2",
"x. c #BCAEA2",
"c. c #B1AEA9",
"v. c #AFB1AF",
"b. c #B6B1A5",
"n. c #B4B2AC",
"m. c #BBB5AB",
"M. c #BCB6A9",
"N. c #ACAEB2",
"B. c #AEB2B2",
"V. c #B4B4B2",
"C. c #BAB6B1",
"Z. c #BBBAB5",
"A. c #B6B7BA",
"S. c #BCBDBC",
"D. c #C3B4A6",
"F. c #C2B6AA",
"G. c #C5BAAE",
"H. c #C3BDB4",
"J. c #C6BFB4",
"K. c #BFC1BD",
"L. c #C5C1B4",
"P. c #CBC2B4",
"I. c #C4C4BD",
"U. c #CAC5BB",
"Y. c #CAC9BC",
"T. c #D5C9BA",
"R. c #D3CBBD",
"E. c #BCBCC1",
"W. c #BFC1C5",
"Q. c #C4C5C4",
"!. c #C7C7C5",
"~. c #CBCAC4",
"^. c #CDCDCB",
"/. c #D2CDC3",
"(. c #D5CFC9",
"). c #D8D5C7",
"_. c #D3D1CC",
"`. c #CBCCD2",
"'. c #CED1D8",
"]. c #D4D4D3",
"[. c #D8D7D2",
"{. c #DBDAD4",
"}. c #D3D4DB",
"|. c #D6D8DA",
" X c #DCDCDB",
".X c #E2D9CC",
"XX c #E2DED5",
"oX c #E0DFDA",
"OX c #DBE1DB",
"+X c #E3E2DD",
"@X c #E9E6DC",
"#X c #CED3E5",
"$X c #D3D6E4",
"%X c #D6D9E5",
"&X c #DBDDE5",
"*X c #D1D7E9",
"=X c #D5DAEA",
"-X c #DBDEE9",
";X c #E0DFE6",
":X c #E0DFE9",
">X c #DFE0E7",
",X c #DEE1EA",
"<X c #E4E4E6",
"1X c #E8E6E6",
"2X c #E7E8E6",
"3X c #EAE9E7",
"4X c #E4E5EA",
"5X c #E8E7E9",
"6X c #E7E8EC",
"7X c #ECEBEB",
"8X c #F0EFEC",
"9X c #EFF0ED",
"0X c #F2F2EE",
"qX c #E4E8F0",
"wX c #EDEDF0",
"eX c #EFF0F0",
"rX c #F6F5F1",
"tX c #F8F7F2",
"yX c #FAF9F4",
/* pixels */
"<X<X5X8XrXrXrXtXrXwX8X5X3X7X5X5X3X3X3X3X3X<X3X3X3X3X3X7X7X7X5X7X8X8X8X3X8X3X7X7X7X5X7X7X5X5X1X7X5X7X7X3X3X3X8X8X7X8X8X7X8X7X7X8X0X7X8X8X7X8X7X8X3X3X3X7X1X3X1X1X",
"&X<X5X0XrXtXtXtXrX0X0X7X7X7X7X7X3X3X3X3X3X3X3X3X3X3X7X7X7X7X5X7X7X7X3X8X3X8X7X7X5X5X5X5X5X5X1X7X1X5X7X7X7X7X8X3X3X7X7X8X8X8X8X8X7X5X7X5X8X7X8X8X3X3X1X7X1X3X1X5X",
";X<X7XrXyXyXyXyXyXrX0X0X8X8X3X3X3X3X3X3X3X3X7X7X7X3X3X3X7X1X3X3X7X3X7X3X3X3X1X1X1X5X5X4X5X6X5X5X1X1X5X7X5X5X7X7X3X7X7X7X7XwX7X7X7X6X<X1X3X7X8X7X7X7X3X7X3X3X1X1X",
";X4X7XrXyXyXyXyXyX0X0X8X8X8X8X8X8X3X8X7X7X7X8X7X3X3X3X7X5X1X1X3X1X3X3X8X8X8X3X7X<X1X1X5X5X5X5X4X:X4X<X<X<X4X4X4X4X<X5X4X4X:X4X4X6X6X5X7X7X3X3X8X8X8X8X8X7X7X7X1X",
"<X<X4XeXrXrXtXtXtX0X0X0X8X8X8X8X7X8X8X3X7X8X8X8X7X7X3X7X3X3X3X3X3X3X7X8X8X8X8X8X7X5X7X1X5X1X5X5X5X5X1X4X5X<X<X<X<X5X5X5X4X4X4X4X3X7X3X7X0X7X0X0X8X8X0X8X8X8X3X3X",
"<X<X,X4X6XqXwXrXrXeXrX0X8X8X3X8X8X8X8X8X0X8X0X0X0X0X3X3X3X3X3X3X8X8X8X8X8X8X8X8X8X8X7X1X4X5X5X5X5X7X7X7X7X7X1X7X7X7X7X7X7X7X7X8X8X0X0X0X0X0X0X0X8X8X0X0X0X8X7X3X",
"4X4X-X,X4X4X4XqXqX7X7X7X8X0X0X0X0X0X0X0X0X0XrXrX0X0X0X0X8X3X7X8X8X0X8X0X0X0X0X0X0X8X0X5X5X1X5X5X5X5X5X5X7X7X5X7X7X7X7X7X8X8X0X8X0X0X0X0X0X0X0XrX0X0XrX0X8X8X8X8X",
"-X,X4X,X4X4X,X4X4XqX5X3X8X0XrXrXrXtX0X0XtXtXtXyXtXrX0X0X8X8X8X7X7X8X8X8X0X0XtXtXrXtX0X6X5X5X4X<X:X;X;X;X5X5X7X7X7X7X7X7X8X8X8X8X0X0X0X0X0X0X0X0X0XtX0X0X8X0X8X3X",
",X<X,X4X4X,X4X6X4XqX4X6XeXrXrXrXrXrXrXrXrXtXyXyXyXtXtX0X8X8X8X8X3X5X5X6XwXeXrXyXrX0XwX6X4X4X4X;X&X&X&X&X;X<X5X5X5X7X7X7X8X8X7X7X7X0X0X0X0X0X0X0X0XrX0X0X0X0X9X7X",
",X,X,X,X4X,X4X6X4X4X7XwXrXrXrX8XrXrXwXwX0XrXyXyXtXtXtX0X8X8X8X7X1X1X4X4X,X4X4X4X4X4X7X5X5X4X<X;X;X&X;X;X;X4X4X5X5X1X7X7X7X8X7XrX0X0X0X0XtX0XtXtXtXtXrXrX0X0X0X7X",
"6X6X6X6X6X6X5X6XqX6XeXrXrXrX8X8XwXqX4XqX4X4XrX0X0X0X0X0X8X8X7X5X4X-X-X-X=X-X-X4X&X&X4X<X4X4X4X<X;X:X5X4X5X<X5X6X5X6X7X7X8X8X0X0X0X7X0X0X0X0XtXtXtXtXyXrXtXrX0X7X",
"5X6X7X8X0XrX0X7X0XrX0X0XeXrX7X4X-X-X=X*X#X*X%X4X3X8X7X8X8X8X8X6X4X4X-X-X4X4XqX6X4X&X%X%X&X<X4X-X4X5X5X4X4X5X5X6X6X7X0X8X8X0X0X0X0X9X7X7X0X0X0X0X0X0XrXrXrXrX0X7X",
"0X9X0X0X0XtXrX0X0X8XrX0X8X7X4X-X-X=X=X=X*X%X=X-X<X7X7X7X7X8X7X7X5X6X4X4XqX4X4X4X<X`.E.!.'.&X-X-X;X:X4X4X4X4X5X6X4X7X7X8XrXrX8X8X0X7X5X5X6X,X4X,X4X,X4X4X6X9X9X0X",
"tXtX0XtXtXtXrXtXtXrXrXrX8X7X4X-X-X-X-X=X-X-X-X-X<X7X5X7X7X7X7XeX7X7X6X4X4X,X6X4X X_.I.t.v.S.E.Q.'.&X:X:X4X6X4X4X6X6X7X7X7X7X0X7X7X7X7X4X>X,X,X,X,X-X%X%X,X<X7X7X",
"tXtXtXtXtX0XrXtXtX0X0X0X7X4X-X-X,X,X,X-X-X4X-X-X4X5X6X7X7X7X5X0X0X8X7X6XqX4X6X6X[.)./.3.=.>.>.6.S.}.&X<X4X6X6X6X6X5X1X5X5X7X7X5X5X5X6X<X>X,X,X,X>X,X,X-X-X&X4X7X",
"tXtXtXtXtX0X0XtXtX0X7X7X4X-X-X,X,X,X,X,X,X-X4X:X5X5X6X6X7X6X7X7X8X8X8X7X6X4X4X7X@XY.b.G.>.L S ( 3.v.!. X<X<X5X5X4X4X5X7X5X1X7X5X2X3X<X4X>X,X,X,X,X,X,X&X&X-X<X4X",
"tXtXtXtXrXrX9XrX0X0X7X<X4X&X>X,X>X,X4X,X,X,X4X4X6X6X6X5X7X7X7X0X0X0XrX8X7X8X8XtXXX9.! T.J.,.J H Y +.t.C.Z.!.{.{.+X3X6X6X6X3X6X1X2X<X<X<X2X<X4X4X4X4X,X<X<X2X2X1X",
"rXrXtXtXtXrX0X0X9X7X3X<X4X4X,X4X,X4X4X6X6X4X4X4X5X5X5X7X5X7X8X8X8X0X8X0X8X8X3X5XU.&.! T.).u.Q / ( +.>.4.e.h.n.S.~.+X2X2X3X3X7X7X2X<X<X2X2X2X5X5X6X7X6X5X7X5X5X7X",
"tXtXtXtXtXtX0X9X7X5X2X2X<X6X<X4X4X4X4X5X4X6X6X4X<X5X7X3X7X9X9X8XrX8X0XrX8X8XXXU.0.@.,./.T.a.[ O.$.$.#.+.#.>.-.2.M.{.<X3X3X6X3X<X<X<X2X3X5X5X7X7X7X7X0X9X0X0X0X0X",
"tXtXtXrX0X0X0X9X3X3X3X3X6X6X5X5X6X5X5X5X7X7X7X6X3X3X7X3X7X0X8X8XrX0X0XrX8X8X{.j.! ` 0.T.J.b.1.B l C A D [ >.=.+.t.Y.^.+X5X6X2X<X2X2X3X3X7X7X7X9X0X0X0X0X0X0X0XrX",
"yXyXtXrX0X0X9X7X3X7X7X7X3X7X8X8X7X7X5X7X7X9X7X7X8X8X3X8X7X0X0X9X8X8X8X8XoX1X.Xz.z ! F.p.z.h.+.k B J L ! J B l a k G X.Q.2X<X<X<X2X3X3X7X7X8X8X7X0X0X0X0X0X0XrXrX",
"yXyXtXrXrX0X0X7X3X3X3X7X7X8X3X3X7X7X0X0X9X0X0X9X8X8X8X8X8X9X9X0X8XrX8X8X[.).U.=.z | P.z.z.2.G k l A ^ 2.! l f l k w k N.<X<X4X6X3X3X3X3X3X7X8X8X9X0X0X0X0X0X0XtX",
"yXyXtXtX0X0X9X7X7X8X8X8X0X8X0X0X0X8X9X0X0X0X0X0X8X8X8X8X8X8X9X9X0X0X8X3XT.P.p.S ` 3.M.m.j.( d z r s o.p.&.L ! @.( C l g.|.<X4X7X8X3X3X3X3X8X0X0X0X0X0X0X0X0XrXtX",
"tXtXtXtX0X9X0X0X8X0X0X0X0X0X0X0X0X0X0X0X0X0X0X0X8X8X8X7X7X8X0X0X0X0XrX3XT.D.7.' a.9.Y ! z d k H A R 9.p.*.( #.( ! Q Q %.A.<X5X7X8X7X0X8X3X3X7X0X7X0X0X0X0X0X0XrX",
"tXtXrXtX0X0X0X0X0X0X0X0X0XtX0X0X0X0X0X0X0X0X0X0X0X0X7X8X0X0X0X0X0X0X0X8X/.D.7.7.G.,.v Q R k 7 H ( #.r.p.7._ z ! X.( ! / j.6X8X8X0X0X0X9X7X7X3X3X7X8X8X0X8XrX7X8X",
"tXrX0X0X0X0X0X0X0X0X0X0XtX0X0XtX0XtX0XtX0X0X0X0X0X0X7X0X0X0X0X0XrXrX8X1XJ.s.i.s.D.,.S ( B z L ! 2.y.0.s.7.! 6 G ! L L R 5.].8X0X0X0X0X0X0X0X8X7X1X3X3X5X5X6X7X7X",
"rX0X0X0X7X7X3X9X0X0X0XtX0XtX0XtX0XtXtX0X0X0X0X0X0X0X0X0XrX0XrXrXrXtX3X).i.7.i.s.x.<.( H : v F.;.l.C.0.x.8.Y q s v v P J ( l.3XrX0X0X0XrX0X0X0X7X3X3X1X<X<X4X<X5X",
"0X0X0X0X7X7X7X9X0X0X0X0X0XtX0X0XrXtX0XtX0X0X0X0X0X0X0X0X0XrX0XtXtXrX@XT.7.i.D.i.C.3.B = z  .r.9.p.p.p.T.;.g g 8 y E 7.v k +. XrXrXrXtXtXrX0X0X3X7X8X7X<X;X;X4X5X",
"0XrX0X0X8X8X3X8X7X8X8X0X0X0X0X0X0X0X0X0X0X9X0X0X0X0X0XtX0XtXrXtXrX8X.XG.i.s.s.' 0.Q 8 L >.,.*.a.0.0.z.| j q V r z ' ^ k a W E.&X0XrXrX0X0X0X0X3X7X8X1X1X5X5X5X7X",
"0X0XrX8X8X8X8X8X8X9X0X0X0X0X0X0X0X0X9X7X7X5X7X5X3X+X<X5X7X9X0XtX0XoXU.x.s.D.p. .{ f 7 z.m.y.,.&.&.,.7.M j V V e v ' f a d Z f.`.6X9X0XrX0X0X8X8X8X7X5X5X5X5X5X7X",
"0X8X8X3X8X8X8X8X0X0X0X0X0X0X0X0X0X7X5X6X<X<X>X X X_.^.}.[.[.+X0XrX~.p.0.s.D.s.7.N e l m.b.s.z.A ! &.` } 9.0.V : c  .6 7 a d f.`.&X4X5X7X8X7X8X7X7X7X7X3X4X<X1X4X",
"7X7X7X8X8X8X7X8X8X0X0X0X0X0X0X7X2X2X>X>X&X|. X+X.XT.H.H.!.I.~.OX8XH.0.x.p.s.p.;.c j Y 9.;.,.p.9.y.| i ,.p.0.*.9 j } 6 6 w B N.'.-X>X4X<X3X1X5X5X1X1X5X4X<X<X<X<X",
"0X8XeX8XrX8X7X8X8X0X0X0X7X4X4X<X=X-X%X&X@X{./.P.G.b.u.t.w.2.2.h.~.n.y.F.0.p.x.y.m K y.p.*.*.p.s.,.~ T a.,.T ` F n z 6 q a G `.&X3X<X<X<X<X<X>X>X-X&X&X%X&X&X<X5X",
"tXtXtXrXrX8XrX8X3X0X7X6X4X-X%X$X%X}.].).).T.G.x.s.r.9.>.#.+.+.%.q.3.7.s.s.s.x.D.N ` G.G.*. .r.y.T K 8.,.} P v F z 8 6 q a R !.<X7X3X3X3X3X<X<X>X%X%X$X$X$X&X&X4X",
"8XrXyXtXrX8X0X8X0X7X7X6X&X%X$X$X]././.T.C.b.F.G.m.b.r.<.8.e.r.0.! F P ;.P.a.7.s.K ` s.D. .} 9.8.S F y.n ` *.a a r 6 : 6 7 B 6.^.7X7X7X7X6X7X2X<X<X<X&X&X$X%X$X&X",
"&X-X4X7X8X8X7X7X7X7X6X<X&X=X}.[.).J.L.H.D.H.U.T.R.L.s.e.u.{ v 9 s A z > p ~ -.} v ~ s.D.*.*.0.L Q @.#.| #.~ w a r = @ @ : a G Z.0X0X0X0X9X7X7X3X<X<X<X<X<X;X&X&X",
"#X$X$X&X4X<X4X7X7X3X3X<X&X{.(.Y.J.x.0.y.F.U.b.9.;.,.9.&.F g y r I { #.U > 0 h 0 M ,.F.7.;.0.<.f { >.n -.[ h a f 7 @ @ : 7 w k B.0X0XtX0X0X9X9XeX7X7X1X5X7X5X4X4X",
"=X$X$X#X$X%X<X<X3X<X<X X].Y.G.z.0.0.,.9.m.z.#.F v U ' ! 9 f S ! <.9.<. .3 % % @ m  .0.| 7.7.} l } -.u 9.[ 8 r f 6 o @ w d 7 d n.tXtXtXyXrXrX0XeX0X0X0X0X7X7X6XqX",
"4X4X&X$X$X$X&X;X<XOX_.(.Y.p.,.} ` @.0.z.r.L b l b Y T T Y [ ,.a.e. .N 4 3 = @ % t p x | 7. .I Y } { C b. .a w A q o : 7 w 7 7 g.7XtXyXyXyXyXyXrX0X0X0X0X0X0XrXrX",
"7X5X4X&X$X$X$X-X XI.M.M.u.,.,.<.4.k.9.| P #.9.<.{ +.-.9.r.<.9.7.m i 4 ; 3 ; * % 2 5 p  .7.} n J } } I <.[ C / l.g.[ l 7 7 7 7 / S.yXyXyXyXyXyXyX0X7X7X7X7XwXrXrX",
"7XrX7X4X%X$X=X&X`.h.3.{ ~ ,.3.-.` | | &.=.9.e.9.,.-.<.r.u.p.*.c 4 ; - < < - - # & 2 p _ 8.} j b n Y } b.n.k.n.K.Y.l.A B f 7 7 f 1.7XyXyXyXyXyXqXqX,X,X,X,X,XqXwX",
"7X7X7X6X4X<X<X<X_.h.@.A l =.,.` j y S  .9.3.-.-.<.<.;.-.} :.U < 1 : - ; < 9 y j p m N x ..} 0 i w D n.+X6X+X^.H.K.k.H E E d q 8 / %XwXwXeXeXqXqX,X,X,X,X,X,X6XqX",
"rXrX7X7X7X7X5X5X5X Xq.Q z Y ` T v 1 < , t -.3.,.,.7. .v 3 2 9 1 1 1 1 1 c ` 9.).R.P.d.p ' ' e 7 b 6.@X@X{.Y.H.S.>.D J E ! W C w G #X,XqXqX,X=X,X,X,X,XqXqX4X6X,X",
"7X8X0X0X8X8X8X8X8X1X^.$.f n { ` g & 5 P } e.e.r.a.S p t & & ; < 1 # ; P *.z./.).)..XP.m ' T 0 ! h.~.6X[.Y.m.q.@.I C ! L J ( H 8 Z '.,X,XqX,X=X,X,X,XqXqX,X,X,X,X",
"3X8X0X0X0X0X0X8X7X1X+Xh.S v ~ L i K } u.L.s.d.r.` t 1 4 < 1 1 $ O e ~ u.H.U.U.J.L.K.e.n K U ~ k.I.).+XY.Z.q.! A V V ] R Q [ R w Z }.,X,XqX,X,X,XqX,XqXqX,X,X6X,X",
"8X0X0X0X0X0X0X8X8X3X1X~.2.F F M m M.Y.R.).K.b. .9 9 t t 9 4 - O O ] U././.L.m.m.K. .n j y F t.~.Y.C.C.n.6.X.f l v V ^ J W { H d W '.,X,XqXqXqXqXqX,XqX,X,X6X6X6X",
"0X0X0X0X0XrX0X0X0X0X8X3X!.@.J ` r.r.M.P.M.<.[ m x y 4 1 1 $ X O j z./.G.b.m.H.Y.T.} & 3 1 i ] C.n.3.Y l f f B z B V Q A J ( H A $.>X>X,X,X2XqXqXqX,X-XqX6X6X7X3X",
"yXtXtXtXtX0XtXtX0X0X8X7X3X~.@.Y ` { T D K U } U 9 + # ; $ O . # <.m.C.M.b.C.C.z.r.[ 0 4 - y ] @.L j z Y S z l J E E ! Q ^ ] J G 1.>XQ.v.l.W.,XqXqXqXqX,X4X7X9X0X",
"yXyXyXyXtXtXtXtXrXrX0XrX8X@Xj.! S S g 9 y P ' P < $ = & O # - r p.t.@.| =.3.q.7.3.! i 0 > e F z 0 8 s S A l f A Q ! ^ R ! ] H G Q %.O./ +.6.A.}.4X4X4X6X7X0X0XtX",
"yXyXyXyXtXtXtXrXrX8X8XrX8X@Xz.' P S v M S ' _ c , 9 1 # * g V S =.' v 0 V ! ' ] &.T r 4 > 7 0 i g f s s r 0 r a V E S B A ! J A w % 7 j H o.$.l.}.,X4X7X0XtXrXtX",
"tXyXyXrXtXtXtX0X0X8X3X3X1X].' ) .. .3.u.z.y._ p , O . 1 ' 3.! 8 i j g y g K ! K S g 8 8 * % u -.<.#.! Y h 7 7 0 a r 8 l B l B k q : 7 8 s A D O.N. X4X7X0X0XrXtX",
"tXrXyXyXtXtXtXrXrX3X{.)./.C.0.9.9.2.2.6.q.5.=.@.U e 1 g #.3.G + > j v 1 y v ! L v g 8 : n  .<.} ~ T ~ | T p % # # + + * 8 l H z 0 8 > 7 e C C Q 5.|.5X7X0X0XrXtX",
"tXtXtXtXrXtXtXtX3X~.e.y.M.z.c.c.h.g.2.2.j.l.v.k.,.~ ~ +.,.^ q . @ > v ~ E J J R L g : : Y e.r.r.&.~ T } _ N 3 X .     X @ 7 l f q 3 8 r f b Z W 1.`.<X3X0X0XtXtX",
"tXrXrXrXrXrXrX0XOXk.Q } t.z.c.c.n.l.6.t.C.I.Z.l.3.3.w.k.q.A % . . # J H.2.E H J ^ v - 8 m T } Z.y.} D m N M i + X X + + # = 7 7 6 > f b C z Z / 1.W.,X2X7X0XtX0X",
"rXrXrX0X0X0X0X8X7X+XZ.k.t.6.j.l.h.6.l.n.w.-.=.%.Q Q [ #.4.X.q   o ( 6.H H V V E ! E V 8 F } { ! j 0 8 8 : = # % u [ [ [ { / S : @ u j l l b C / g.`.OX2X3X7X0X0X",
"tX0X0X0X8X8X8X8X3X{.Z.t.%./ ! ( { %.6.w.=.%.( I I $.#.%.q.2.G : z X.O.G B z k v z S F i N N i 0 0 7 : > : : u * 3 I I 2.2.I D j b %./ I D Q ! %.B.|.2X2X3X7X7X9X",
"0X0X8X8X8X8X8X7X+XQ.q.%.[ l d f C H Q Y J Q G C D Q ~ ~ [ I D D / ^ / I D l u i j Q #.$.%.! j j j i u b D Y +.U [ -.{ 4.e.[ I O.h.!.v.t.t.l.k.Z.^.<X1X7X5X7X7X9X",
"0X0X8X8X8X8X8X7X{.n.+.~ Q 8 7 w w q 7 8 7 w f z b u w w w % p  .Y ( %.#.[ [ I D { y.Q.}.`.l. .&.~ Q { 6.Z.U.V.L._._.s.u.u.b.4.K.].<X<X<X<X<X<X<X<X1X3X7X7X0X7X7X",
"8X7X8X0X8X7X8X8X].t.,.Q l 7 7 7 q w w 7 7 q f Z A l u w = > I u.8.r.m.Y.].]._.`.]. X&X&X#X!.V.u.r.t.B.^.|.^.v.2.j.!.K.m.K.I.].OX<X2X<X3X3X3X3X3X7X7X7X7X7X0X7X7X",
"4X4X6X6X5X7X7X7X].h.q.Q 7 7 7 7 # % 6 7 : = 8 a w : 7 w 0 j n I T :.u.4.<.V.{.>X<X4X XA.`.|.^.Z.e.{ Q I.OX<X].!._.OX{.OXOX+X9X9X0X7X3X3X6X3X1X7X7X5X7X7X6X4X4X4X",
"&X&X=X-X;X<X1X<X].l.6.( Z C Z C l f C C B d l z l d l F K T T D [ :.u.<.:.l._.2X4X&X].V.^.|.~.I.t.~ F Z.+X7XeX0X0X0XrXrX0XtX0XtX0X0X8X3X7X7X8XwX7X7X4X6X4X,X=X-X",
"$X$X&X-X-X<X<X X^.S.5.1.g.N.N.K.^.K.B.l.l.j.6.6.l.B.b.p.7.r.u.z.u.K.).OXOX].].>X X|.].!._.!.C.C.t.t.n.^. X4X3X<XXX{.+X3X0X0XtX0XtXrX8X8X0XwX7X7X5X4X4X4X,X,X=X=X",
"$X%X&X4X5X1X[._.~.c.V.Q.|.>XOX>X<X<XOX+X&X X{.OX+X1X<X+X+X]._.^.V.W._.^.K.K.I.K.j.A.!.>.l.n.9.9.=.q.].C.h.c./.H.4.{ O.K.XX+X0XtXrX0X8X8X7X7X6X4X4X,X-X,X,X=X%X=X",
"&X&X:X6X7X7X<X&X{._.{.OX2X6X2X2X5X3X5X1X7X7X7X0X0X0X0X0XOXv.6.g.1.5.t.b.K.K.v.g.W 5. XZ.Q.~.~.I.Z.A.A.$.W ! ] Y C d k t.{.XX0X0X0X8X8X5X7X7XqX,X-X-X,X,X,X,X-X%X",
"4X4X4X1X7X8X7X8X7X5X7X5X5X5X4X5X7X5X5X5X8X8X8X8X0X0XrX8X/.$.H R ^ X.X.f.w.6.=.X.Q h.0X0X4X<X9X6X2X].j.O./ / Z l z V G N.'.[.7XwX8X8X7X5X7X7X5X:X,X-X-X,X,X,X-X-X",
"4X4X4X5X5X8X8X8XeX8X7X5X4X;X<X5X4X1X5X7X3X7X8X8X0X0XrX3X!.2.^ X.$.2.5.1.$.E R ( !.<X0X0XrXeXrXrXrX@XI.n.K.A.f.5.9.h.N.E.!.].5X7X7X7X7X7X7X5XqX:X,X&X-X-X-X,X4X&X",
"4X5X7XwX8X7X8X8X0X7X7X7X4X:X-X-X-X<X4X7X5X7X8X8X0X0XtX8X3X X].].{.{._.^.`.^._.].+X0X0XrXyXrXrXyXrX<X~.C.!.].}.}.}.}.}.$X%X:X:X7X5X7X7X8X7X7X4X:X-X-X&X<X,X4X4X4X",
"&X:X7XwX8XrX8X8X0XeX6X7X6X5X4X:X;X<X1X7X7X8X8X8X0X0X0X0X0X8XrXrX0X7X7X1X<X3X7X8X7X0XrXrXyXyXyXyXrX9X+X{.+X<X7X7X4XqX4X:X:XqX5XqX5X7X7X:X4X6X4X4X&X&X&X;X,X4X4X>X",
"&X&X:X5X7X7X8X8X0X0X8XwXwX7XwX7X5X7X7X8XrX8X8XrX0X0X0X0X0X0X0X0X0X0X0X0X0X0X0X7X6X0XrXrXyXyXyXyXrXrXeX0XrXeX7XrX8X7X8X7X6X6X6X6X5X7X5X4X4X<X4X&X&X&X&X;X;X&X&X%X",
"&X&X;X;X4X5X8X8X0XrX0X0X0XwX7XrX0X8X8XyXyXyXrXrXtX0XtX0XrX0XrXtX0XrX0XrX0X0X0X0X3X3X,X,X,X,X,X6X,X,X7XeXrXrXrX0XrX0XwX8X8X8X8X7X7X7X5X6X<X&X=X&X$X$X$X%X%X&X&X&X",
";X<X;X<X1X7X7X8X0X0X0XwXwX8X8X8X7X7X6XwX7XeXwXeX0X0X0X0X0X0X0X0XrX7XrXrX7X7X6X5X<X>X*X*X*X=X*X*X*X=X,X6X7XeX9XrXrX8XrX8X8X8X8X8X0X7X7XwX5X<X;X&X&X%X%X&X;X;X;X<X",
"5X5X7X5X7X8X8X8X0XrX8X0XwX6X6X6X6X5X4X-X,X4XqX6X7X0X0X0X0X0X0X0X7X0X7X7X7X6X,X-X&X%X#X=X=X=X=X=X*X,X,X,X,X6X7X7X8XrX8X8X8X7X7X8X0X0X7X6X5X<X3X<X<X<X<X1X<X<X1X3X",
"7X8X7X8X8X8X8XwX8X0XwXwXwX4X4X:X-X4X-X-X-X-X,X4X2X<X5X5X7X5X6X7X5X1X1X4X4X&X%X%X=X=X=X=X=X=X=X,X,X=X,X=X-X,X<X4X7X9X0X7X8X7X6X7X5X7X7X5X3X7X7X7X3X7X5X7X3X7X3X8X",
"8X8X8X8X8X8X8XwXwX7X7X4X4X4X=X-X-X-X-X-X,X,X,X-X<X&X&X<X,X<X<X<X;X;X&X&X%X#X$X%X=X=X=X*X=X=X=X-X=X=X=X=X%X%X&X&X4X6X7X7X7X8X7X7X5X5X3X7X7X8X7X7X8X7X7X7X3X8X8X0X",
"0X0X0X0X0X0XwX7X7XqX:X:X-X-X-X&X4X:X-X4X,X,X-X-X-X-X-X%X$X&X$X&X$X$X%X%X$X#X$X*X=X=X=X*X=X*X*X*X*X*X=X,X-X4X,X<X4X4X5X6X5X6X7X7X7X7X7X7X3X3X3X7X8X8X8X5X7X7X8X0X",
"rXtX0XtXrX0X0X7X6X4X:X-X-X-X-X4X4X4X,XqXqX,X4X-X-X,X-X-X&X%X$X$X$X$X$X$X$X$X$X%X=X-X=X=XqX=X%X-X,X=X,X,X4X6X5X7X6X6X5X6X5X5X7X3X5X7X9X7X8X8X7X8X8X8X8X8X8X0X0X0X",
"rXrX0XrX0X0X7X6X4X4X-X<X-X4X<X4X4X4X4X4X4X4X-X<X<X4X<X4X:X>X&X&X&X$X$X$X$X%X&X-X,X-X-X,X4X4X<X4X,X,X<X6X3X6X7X7X7X5X7X3X1X5X1X1X7X0X8X7X8X3X3X0XrX8X0X8X0XrX0XtX",
"0XrXtXrX0X8X4X5X4X-X:X-X4X<X<X4X4X4X4X4X4X4X4X4X4X6X6X5X5X5X6X5X5X<X;X&X&X=X&X-XqX,XqXqX5X5X5X6X6X6X6X6X7X0X0X7X7X0X0X6X6X0X7X3X5X5X3X7X8X8X7X8X8X8X0X8X8X0XtXtX",
"tXtXtX0X8X7X7X4X:X:X4X4X4X5X5X<X4X4X4X4X6X6X6X7X7X5X5X7X7X7X5X5X5X4X4X<X4X&X=X:X&X4X4X4X7X7X7X7X7X7XwX7X0X7X0X0X0X0X0X0X0X3X0X7X3X3X5X7X8X8X8X8X8X8X8X7X8X8X0X0X",
"0X0X0X8X7X3X1X<X4X:X4X4X5X6X4X4X:X4X6X6X7X7X8X7X0X7X7X7X7X5X5X4X<X<X4X5X<X;X4X:X&X;X4X4X1X7X7X7X7X7X7XrX0X0X0X0X0X7X0X7X0X7X7X7X3X3X7X7X7X3X7X3X8X8X8X7X8X8X8X0X"
};
