/* XPM */
static char *dwira_resized[] = {
/* columns rows colors chars-per-pixel */
"80 80 93 2 ",
"   c #020202",
".  c #0C0C0C",
"X  c #131313",
"o  c #1C1C1C",
"O  c #242424",
"+  c #2B2B2B",
"@  c #343434",
"#  c #3B3B3B",
"$  c #3E3F42",
"%  c #444444",
"&  c #46474A",
"*  c #47484B",
"=  c #4C4C4C",
"-  c #4B4C50",
";  c #535353",
":  c #5C5C5C",
">  c #636363",
",  c #686767",
"<  c #686867",
"1  c #676768",
"2  c #6B6B6B",
"3  c #737373",
"4  c #7C7C7C",
"5  c #848484",
"6  c #86878A",
"7  c #8C8C8C",
"8  c #8C8D91",
"9  c #939393",
"0  c #989797",
"q  c #9C9C9C",
"w  c #A09F9E",
"e  c #A1A09F",
"r  c #9C9DA2",
"t  c #A4A4A4",
"y  c #A5A7AA",
"u  c #A7A9AE",
"i  c #ACACAB",
"p  c #B0AFAD",
"a  c #A3A6B0",
"s  c #AFB0B2",
"d  c #B4B4B4",
"f  c #B4B6BE",
"g  c #BDBDBD",
"h  c #BFC0BF",
"j  c #C3C2BF",
"k  c #BEBEC0",
"l  c #BEC0C8",
"z  c #C4C4C4",
"x  c #C8C7C7",
"c  c #C3C5CC",
"v  c #C7C9CC",
"b  c #CCCCCC",
"n  c #D2D1CF",
"m  c #C3C7D2",
"M  c #C7C9D2",
"N  c #CBCCD3",
"B  c #D0CFD1",
"V  c #D3D3D3",
"C  c #D8D7D3",
"Z  c #DAD9D5",
"A  c #D7D8DB",
"S  c #DBDBDB",
"D  c #E1E0DE",
"F  c #CED2E4",
"G  c #D3D6E4",
"H  c #D6D9E5",
"J  c #DBDCE5",
"K  c #D1D7E9",
"L  c #D5DAE9",
"P  c #DBDEE9",
"I  c #E0DFE5",
"U  c #E0DFE9",
"Y  c #DFE0E7",
"T  c #DEE1EA",
"R  c #E3E3E5",
"E  c #E8E6E7",
"W  c #E7E8E6",
"Q  c #EAE9E7",
"!  c #E4E5EA",
"~  c #E8E7E8",
"^  c #E7E8EC",
"/  c #ECEBEB",
"(  c #F0EFEC",
")  c #EFF0ED",
"_  c #F2F1EE",
"`  c #E2E6F0",
"'  c #E7E9F0",
"]  c #EBEDF0",
"[  c #EFF0F0",
"{  c #F5F4F2",
"}  c #F8F7F2",
"|  c #FAF9F4",
" . c #FEFEFE",
/* pixels */
"R R / / ( } } } { ( ( Q Q Q / ~ Q Q Q Q Q Q Q Q Q Q Q ( / / / / / ( ( / ( Q Q / / / / / ~ ~ ~ / E / / E Q Q ( ( Q ( ( / ( ( / ( _ / ( ( / ( ( ( Q Q Q / Q Q Q E ",
"J R / _ } | } } } _ ( ( / / / / Q Q Q Q Q Q Q Q Q Q / Q / / R / / / Q / Q ( / / ~ ~ ! E ~ ~ ~ / R / / / / Q ( Q Q ( / / ( ( ( / / ^ / ~ ( / ( ( Q Q E / Q Q E E ",
"I R / { | | | | } _ _ _ ( ( Q / Q Q Q Q Q Q Q Q ( Q Q / / E Q / / Q ( Q Q Q Q E E E ! ~ ~ ! / ~ ~ ~ ~ ~ Q / / / E / / / / ] / ( / ! R E Q / ( Q / / Q ( Q Q E E ",
"I ! / _ | | | | | { _ _ ( ( ( ( / Q ( ( Q ( ( ( Q Q Q Q ~ / R Q E Q Q ( ( ( Q Q E E E E ~ ~ E R U ~ R R ! U ! ! ~ ! ~ ! ! U ! ! ! / ~ / / Q Q ( ( ( / ( Q / Q E ",
"R ! ^ ] { { | | } _ _ ( ( ( ( ( / / ( Q / / ) _ ( Q / / Q Q Q Q Q / ( ( _ ( ( ( / / ~ E R E E ! ~ ~ ~ ~ ! ! ! R E ! E E ! ! ! ! E / Q ( ( ( _ _ ( ( _ ( ( ( Q Q ",
"R R T ! ^ ^ ] [ { { [ ( ( Q Q ( _ _ ( ( _ _ _ _ ( ( Q W Q W W Q / / ( / ( ( ( Q ( / / R ! E ~ / ~ ~ ~ / / / ~ ~ / / / ( / / ( ( ( _ _ _ _ _ _ _ ( ( _ _ _ ( ( Q ",
"! ! P P ! ` ! ` ^ ] / / ( ( _ _ _ _ _ _ _ _ _ j e e e e 0 e q e w w q e w q e e e e r q q q q q q r q q q w q e d / / Q ( ( ( ( ( _ _ _ _ _ _ _ _ _ } _ ( ( ( ( ",
"P P ! ! ! ! ! ! ! ' / Q ( _ } } _ } _ _ } } n t | { { { { { { [ { { { { { {  .} { { { { { { { { { { { { { { { { 0 S / / ( ( ( ( _ _ } _ _ _ _ _ _ } _ ( ( _ ( Q ",
"T R ! T ! ! ! ! ! ! ! ^ [ } _ } { _ { } { | C i / j e 5 6 9 0 R b 5 s 8 x t V q x d 6 q x V 6 7 6 7 t 7 6 9 2 V i S / / / ( ( / / _ _ _ _ _ _ _ _ _ _ _ _ _ ) / ",
"T T T T T T ! ! ! ! / ] { { _ _ _ { [ _ _ { C + # @ # % % # @ # # % @ # i % % 3 4 # = ; 5 d % = = % % % % % # 4 8 C / / / ( ( ( _ _ _ _ } } } } | | | _ _ _ _ / ",
"^ ^ W ^ ^ ^ Q ^ ' / ( { { _ ( ( ] ^ ! T R ! b r z h l g g g g j h h 7 ; d ; > ; : > > > 2 3 > > > > ; 0 R R R D i S / / / ( _ _ _ / ( _ _ { } } | } | { } { _ / ",
"^ ^ / _ _ { _ _ [ { { ( _ { / ~ T P L a a u 7 k V V _ V B C A A C V d ; q : > 1 1 > > > 2 3 > > > > ; 0 b n V n p V ( ( _ _ { _ { / / / ( ( _ _ _ _ { } } _ _ / ",
"_ ) _ _ _ } } _ _ _ _ { _ / ! U T L G d [ { d g S S { b b { A k 6 n d % @ ; : ; ; : ; : @ = : : : : = 0 B Z S V i V {  .p _ _ _ ( / / ~ ^ T ^ T ! T ! ! / / ) ) ",
"} } _ } } } _ | } } { _ ( / P P L P L q S R V 2 S S { b S { { b o b p = ; ; ; = ; ; ; ; = ; = ; ; ; = 4 b V A z @ Z J / 9 / _ / / / / R Y T T P Y J L J T W / ) ",
"} } } | } _ _ } } _ _ _ ~ R k y s r J t b V V . 9 A { z V / x R . V y                                   & n S x . x V R 0 E E S S R ^ R Y T T T Y T T H L J ! / ",
"{ } } } | _ _ } } _ / / ! m s  . .N 2 9 x V V   % V [ 7 Z D X f X d i                                     9 R A . b n D 0 E 9 V S 4 n ! Y T T T T T T Y J P R ! ",
"} } } } } _ _ _ _ _ / R J A  . . . .B 0 b B V     R D o g R   . . 1 4             .   X                   3 S z . b V D 5 6 Z  . .z 6 Y R R ! ! T T T R R R R E ",
"_ { } } } } _ _ / / / R V V V  . .V x 0 V A V     R S . + V       . X       X X O O + + .                 + R @ . D S R 5 g  .{ {  .B h R / / / / / ^ ~ / / / / ",
"} } } } } } _ _ / Q W W d 8 ^ / / : ; = V V V     S @     0     . O O O X X # 1 3 4 7 4 @ .   .   . .     X / O . b V S > 6 / / { / p t / / / / / / ( _ _ _ _ _ ",
"| } } } _ _ _ ) / / Q D 0 { ^ / / 3 2 - V b V     z o     @ . X + = = = # # 2 9 V S x 7 : X + + . o X . . X R +   b V R : 3 z S D R 2 d S / / / _ _ _ _ _ _ _ } ",
"| | } _ _ _ _ / Q Q / Q ; d W { / 3 2 = B B V     > .   X o + o % : : : % 3 g D  . .S f 7 o o o o + O o o . 6 + . b V R > % 4 S D W t b D ( _ Q _ { _ _ ( _ _ } ",
"| | } } _ _ ) ) Q Q Q / 3 0 A R x 4 2 ; W { V         X ; 4 4 $ = 1 > < ; 5  . . . .D V n @ @ : ; ; ; : ; o .   . b  .| : 1 % g S Q d x D Q ( ( / ( _ _ _ _ _ } ",
"| | } } _ _ ) / ) ( ) _ x = Q t + @ # + d V 9       . X 1 V t 2 o X X X + b  . . . .D V R 5 @ ; = ; = = = o       4 S b o = % f D Q i d D _ ( _ _ _ _ _ _ _ { } ",
"} } } } _ _ _ _ ) _ _ _ p @ 3 i ; : ; % : S 7       + + 2 D h 9 = # O % 4  . . . . .R V R 0 # ; = = = = ; o       : Z e X $ # 5 / : ; p Q / ( ( _ _ _ _ _ _ _ } ",
"} } } } _ _ _ _ _ _ _ _ 4 ; = i = : ; ; @ x 7       @ + 1 R x b i t & 3 {  . . . . .R V R S 4 # : ; = = % X       # S . o : ; 4 S = @ 3 Q / Q Q ( ( ( ( ( _ ( ( ",
"} } _ _ ( _ _ _ _ _ _ _ 0 3 4 p V S S S : % 9 . X O + % < R x / d V V {  . . . . . .D J R  .R y > : < 4 % o       X x   # 3 4 3 V q q f d ( ( Q E Q ~ / / ^ ^ / ",
"} _ _ _ / ( / ) _ _ _ } 6 > 5 > B B V V : @ 2 O # # # : 5 S S / x R V  . . . . . . .R V R  .D Z j t q f 6 ;         #   @ 1 4 q t i n S p _ _ ( E Q ~ R R R E ~ ",
"_ _ _ ( / / / ( ( _ _ ( 4 : x h B B B V :   # = = = ; : d V  . .S S S  . . . . . . . .x Z  .R S b Q d V x ; X .         # > 4 x 2 i b S p _ _ Q Q ( / R I I ! ~ ",
"_ } _ _ _ ( / / / ( ( ( 3 : n B B B n V :   % ; ; = ; 3 A |  . ._ Y A  . . . . . . . .V b  .S S b { ^ / x 3 @ X         + % ; 0 q 9 9 q w ( ( Q ( / Q E ~ ~ ! ^ ",
"_ _ _ ( ( ( ( / ( ( _ ( 3 : n n B B n n : . % ; ; ; ; 3 A  . . .{ V Z  . . . . . . . .b {  .R S S |  .{ b 5 O .         X O + % # # % : w ( ( ( ( / ~ / ~ ~ / / ",
"_ _ ( / ( ( ( ( ( _ _ D < ; j j z z x x ;   % ; ; # = > V  . . . .R B  . . . . . . . .b {  .S R  . . .{ b q @ . . . .   $ 3 9 R R S D R p Q / / / / Q ~ ~ R ~ ~ ",
"Q / Q ) ( / ( ( ( _ _ C # o ; = * * % = * . = ; : # : q {  . . . . .x  . . . . . . . .{  . .R R  . . .{ x i 2 O .     . # > 5 A n b n D y R E / R E / ! U R R J ",
"_ _ _ _ _ _ / _ _ ) ) V % # 3 4 4 4 4 5 @ . & ; ; > 9 b  . . . . . ./  . . . . . . . . . . .D D  . . .{ b i 2 O . . .   # > 4 A V V V S y Y R T J J J J H J R ~ ",
"_ } { { _ _ _ / / ) ) B 2 > V B V V V V : X ; : : 5 t b  . . . . . . . . . . . . . . . . . .D J  . . . .b i 2 @ .   .   + + % 2 > > > 5 q W Y J L H G G G J R ! ",
"_ { { | } _ _ _ _ / / b < : B B V n n V ; X = > > 4 i b  . . . . . . . . . . . . . . . . . ./ {  . . . .R t $ O . . .   o # & 3 2 3 3 4 q / W R R R J J G J G J ",
"J Y ! / ( _ / / / Q ^ b < ; p h g g g h % X = > 1 4 t b  . . . . . . . . . . . . . . . . . . . . . . . ./ i > # X . .   # 1 5 Z V V V S i / / W E R R R I R J J ",
"F F G P R ! ! / / Q W b + X ; @ # # $ % @ . # = = 1 q b  . . . . . . . . . . . . . . . . . . . . . . . ./ i : # . . . . # > 5 V n V n S p ) ) ) / / / / / ! ! ! ",
"J G G F G H R R Q W ^ N 2 < b V V V V V = X % = = > q b  . . . . . . . . . . . . . . . . . . . . . . . ./ i > @ X . .   # : 2 j g g g h p _ _ [ _ ( _ / / / / ^ ",
"^ ! H H G G J Y R ! R B 2 : B B B B n V ; X ; : : 4 i x  . . . . . . . . . . . . . . . . . . . . . . . ./ i : # X . .   o . + # @ @ @ ; t } | { _ _ _ _ ( _ { { ",
"/ ^ R J H F G P R R R B < ; n B B V B V ; . ; : > 4 i b  . . . . . . . . . . . . . . . . . . . . . . . ./ i > @ X . . . + : 2 i i i p p i | | | _ ( / / / ] _ { ",
"/ _ / ! L L J J R ^ / n % O 2 3 3 3 3 4 # . ; : : 4 i b  . . . . . . . . . . . . . . . . . . . . . . . .^ i > @ . . .   # 1 5 V B B n S d | [ [ T ` T T T ! ' [ ",
"/ ) / ^ R R I R W / / V # + > 1 < < < 2 @ . $ = = 1 e x  . . . . . . . . . . . . . . . . . . . . . . . ./ i = + . . .   # 1 5 S V V V S s ) ` ` T T T T T T ! ^ ",
"_ _ / ) / / / / / / / n 2 : Z A V V A A ; . = ; ; 2 t x  . . . . . . . . . . . . . . . . . . . . . . . ./ i ; @ X . .   # > 5 V B V n S y T T T T T T ` ` ! ! T ",
"_ / _ _ ( ( ( / / / / b 2 : V V V V V V ; X = > > 5 t b  . . . . . . . . . . . . . . . . . . . . . . . ./ i > # X . . . # > 5 Z B V V S y T K T T T ` ` ! T ` T ",
"Q ( _ _ _ _ _ ( / / Q n < ; V n V n n V ; X = : : 5 t x  . . . . . . . . . . . . . . . . . . . . . . . ./ i 1 # X . .   $ > 4 V n V B A u T T ` ` T ` ` T T ! T ",
"( ( _ _ _ _ _ ( / / Q n % + 4 2 2 2 2 2 $ X ; > > 5 y x  . . . . . . . . . . . . . . . . . . . . . . . ._ i 1 @ . . . . + + # 3 2 2 2 5 r T ` ` ` ` ` T ` ! ! ! ",
"_ _ _ _ _ _ _ _ _ _ _ V @ O ; ; = ; ; : @ . % = = : q x  . . . . . . . . . . . . . . . . . . . . . . . ./ y % @ X . .   X + # : : ; : > q ' ' ] ' T T ` ^ ^ / / ",
"| | } } } { } } _ _ _ C 3 < C A A S S Z ; X : < 2 5 i x  . . . . . . . . . . . . . . . . . . . . . . . ._ i < # o X . . % 2 6 S A S Z Y i ] ] ] ' ` ` T ^ ^ ) _ ",
"| | | | } } } } _ _ _ Z 2 : n n B B B V ; . ; : > 4 i b  . . . . . . . . . . . . . . . . . . . . . . . ./ i > @ X . .   # 1 5 S V V V S i ^ ] ^ ^ ` ! ^ / _ _ | ",
"| | | | } } } } } _ _ C < : g z x x z x % X = > : 4 i x / W  . . . . . . . . . . . . . . . . . . .{ {  ._ i > # X X .   # : 3 x x x x x t ^ ! ! ! ! ! ^ _ | _ | ",
"} | | | } } } _ _ ( _ C @ X = # # # # % # . ; : : 4 t x [ [ R Y / { { [ S |  . . . . . . . ./ W {  .^ / R t > @ X . .   O X + @ + @ @ ; q ! R R ! ! / / _ _ } } ",
"} | | | } } } } _ _ _ n > > d h h h h h = . % ; ; 2 t h |  . . . .V R J {  . .| S S R { [ / {  . . . ./ ) t ; @ . . .   @ : 4 z j g g z y / / ^ ! ! / / _ _ _ } ",
"} } } } } } } } _ ( _ V 2 : n b B b B B : . % ; ; > 0 e x V |  .[ / { { x S  . .{ R { | | [ Y  . .| { D b q = + . . .   # > 5 V n b b S f ~ ~ / ^ ^ ~ Q / _ } } ",
"} } } } } _ } _ _ _ ( n 2 : V b n n B V : X ; : > 4 e h / ) x x R S S B t B x b z d c k x c f n / J g / ^ q : @ X . . . # > 5 A n n n S g / ~ E R / / / _ _ } _ ",
"} } _ _ ( _ _ _ _ _ ( n = + 4 5 5 5 5 6 # X ; : : 3 0 z { [ Y ) g ! ^ S t b _ ^ t x / S |  .g R A Q b x V 0 > @ X . .   O @ % 5 4 4 4 5 i Q E ! ! E ~ / Q / ( _ ",
"} ( ( _ ( ( ( ( ( / / x $ + : = ; = = ; # . % = = ; > 3 f e p ) g | | ! i q R R t x [ {  ./ z ) { f t t 6 = @ O . .   . + @ # = & % = > t Q ~ E R W E ~ / / / ( ",
"_ { ( ( ( ( ( / Q / C f ( / ~ / W W / ^ V : # = = = : 4 3 5 q [ b { | ^ g 3 g J q x [ [  .^ b / { t t t ; % % # X . . 4 R / / / / ^ R R D z S ~ ~ E E / / / / / ",
"_ _ ( / ( ( ( / ( / i { R C A V A V V V S / ; = ; ; ; 3 2 9 x { A { | ^ z 5 5 R 0 z | ]  .W b / | i t 0 % % % % X X % / S V S A A S Z V / S d R ~ / E / / ( _ ( ",
"/ / ( { ( ( ( / / E d S I 4 t q e 4 5 V S R % @ @ @ @ + % 4 z [ V |  .! z 5 2 z d b { S [ ^ b / { t t : O + + + X . ; / R t ; t t t < S V S g R ~ / / / / / / / ",
"! ~ ! ! / / / / E R 2 , t S  .{  . .B t s { = 2 4 4 6 % # 2 p ) V | { ! z 4 2 i x ^ / A | ^ V { S 5 t # o & = % X o = { t d  . .{ | R d > 2 i E ~ / / / ^ ~ ^ ! ",
"P J P P J R Q / ! V ; @ x _ V f g ^ W g 5 0 # ; 2 2 4 = + 2 i ) V  .| R t 3 e 0 9 / | '  .[ S { s 7 6 # # ; = # X X % r 2 ) / x g C / D % ; t ^ / / ~ ! ! P P L ",
"G G J P T R ~ ~ i R | Q 3 V # = % g 4 t | | 7 # = = ; = + < 5 Y J { | R 7 4 s d 9 /  .|  .[ V { g q 9 $ = > ; # . 1 / { z 9 t : : @ V 4 S { V s ! ^ ! ! T P L K ",
"G J J ! Q Q / b x / D / > 7 > 0 > 3 [ | { { | 7 % = = = + : 4 l S | | R 7 5 6 d 0 J |  . .{ S { Q d 6 @ = : ; @ # { | { {  .t 3 7 = q ; / Y / | ! T P T P P L L ",
"G J J ! / ( / t l 7 3 3 7 & t 2 = g A S J Y S R % 9 i i t s g V {  . .{ B B b D A V  . . .| {  .{ b d t u i 7 2 5 ^ S S S S b : 9 6 & & > 2 > ^ L P T T ! P P L ",
"! ! ! R / ( E t 9 : > ; 6 : V : 4 R S R Y D V D 9 Y Q Q D R R R R R R R R R R R R R R Q R R R R R R Y Q R S g 7 i S R D D R N e - 1 : - : ; = s N c P P ! P P P ",
"^ ! ^ ~ / I q 0 = % % 2 E R 7 @ k V z x z x 7 { ; : : 3 % t r e q e e e q e q q e q e e t q e t t e t q % & i q z f z z z x d { @ % @ = % = % ; A k f G P P R J ",
"! ~ / [ ( p / { { V / { { { ( { | | { { /  .| { 9 = + = 9 d j h g g g j j g g h h h g l g z j g h g j t = n _ A x { _ ( {  .{ { { { { { { ] {  .{ { v V ! ! ! ! ",
"J U / / ( C V C 3 @ @ @ @ # # @ # # @ # @ # q $ : = = > q q q 0 q q q 0 q q q q q q q q q q q q q 0 q 0 4 3 > > # : # @ @ @ @ @ # @ # # # # @ % 6 8 6 A T ! ! P ",
"J J U ! / / ( ( t n x b x b x v c c x x 4 . X + = > 3 4 4 4 4 4 4 4 4 4 4 4 4 4 4 4 4 4 4 4 4 4 4 4 4 4 4 5 3 = + X X . p x b x x x v x x b b i N J J I J I J H ",
"J J I R ! E / ( d z g g g i t t t t t 2 = . o o @ + @ 4 7 7 0 0 9 8 7 9 9 8 7 9 7 9 7 9 9 0 9 9 9 9 0 0 0 6 @ @ o X X . : 8 y y y t i i t y i r N G G G H J J J ",
"I R R R E / / ( _ _ _ [ / V / d t t q @ @ + + + o o + % : : : : : : : : : : : : : : > > : : : > : : > : ; = + + + O O o O 4 t t y n / ^ ! R J J J G J J I I I R ",
"~ ~ ~ ~ / ( ( _ _ { ( _ ] ^ / k / ! Q R R R R W q % * % % % = = = = ; = = = = % # # # @ @ # @ @ @ @ + + % D R D R R Q E E E R R g ( ^ ^ / R W W R R R R R E E E ",
"/ ( / ( ( _ ( [ ( _ ] ] ' ! ! N N N M m m N N N x g d p 9 8 3 : ; & = & = & & = * * & & & & & & = * & $ - u v b V V V V C V B V C / / / / / Q / E / ~ / Q ( Q ( ",
"( ( ( ( _ ( / ] ] / ~ ~ ! ! P P P P P P P T T P Y Y J R R R R ! I I J J G G G G L K L L L L L P L L L L H H J Y ! / / / / / / / E E E Q / ( ( / ( / / / Q ( ( _ ",
"_ _ { ( _ _ ( ] / ! ! U P P P J ! P U ! ` P P P T L P L H J G H G G H G G G G G L L L K L K K L K K L T P ! Y ! ! ! / ^ ~ ~ / ( / / / / Q Q Q ( ( ( ( ~ / ( ( _ ",
"} } _ } _ _ ( / ^ ` U P P U P ! ! ! ! ` ` T U P Y T T L J H G G G G G G G G G G P P L L T L L P T L T T ! ! / / ~ ~ ^ ^ ~ ~ / E / / _ / ( ( Q ( ( ( ( ( ( _ _ _ ",
"_ { _ } _ _ / ^ ! ! P ! J ! ! ! ! ! ! ! ! P U R R ! R ! J Y J J J G G H G G J P P T T ` ! R R ! T T R ! / / / / / / / ^ ^ / E E / / ( ( ( Q Q ( _ { ( _ _ _ _ _ ",
"_ } } _ _ ( ^ ~ ! U U P ! R R ! ! ! ! ! ! ! ! ^ ! ^ ! ~ / ! ! / ! R I J P J P P T T ! ` ~ ~ ^ ^ / ^ / / / / _ / [ / ( ( ( / / E E / Q Q ( ( ( ( ( ( _ ( ( } } } ",
"} } } _ ( / Q ! U U ! ! ! ~ ~ R ! ! ! ~ ~ ^ ^ / / / / ~ / / Q / ~ ! ! I I P P P P R U ! / / / ^ / / / / _ / _ _ _ ( ( ( ( ~ ( / E E Q / / ( ( ( ( ( ( ( ( ( _ _ ",
"_ _ _ _ / Q E R ! U ! ! ~ ^ ! ! I ! ~ ~ / / ( [ ( / / Q / / ! R R ! ~ E R R ! U J U ! ~ E / ( / / / / ) _ _ _ ) ( ( ( ( ( ( ( / Q Q / / / Q / Q ( ( / Q ( ( ( _ "
};
