/* XPM */
static char *_22_resized[] = {
/* columns rows colors chars-per-pixel */
"80 80 229 2 ",
"   c #7E0F0D",
".  c #8C1B0E",
"X  c #983406",
"o  c #973228",
"O  c #933B33",
"+  c #BA3934",
"@  c #C50F07",
"#  c #D50C06",
"$  c #D6160A",
"%  c #DC1413",
"&  c #EA0603",
"*  c #E50A04",
"=  c #F10E05",
"-  c #E8160A",
";  c #E61B19",
":  c #CD2B13",
">  c #EB2908",
",  c #F22205",
"<  c #F62C04",
"1  c #E7350C",
"2  c #F83905",
"3  c #E73817",
"4  c #D9372B",
"5  c #E23428",
"6  c #9B720C",
"7  c #9B4634",
"8  c #B7772A",
"9  c #CF5015",
"0  c #E74A0A",
"q  c #F54D04",
"w  c #F94804",
"e  c #EA5808",
"r  c #F45305",
"t  c #FB5305",
"y  c #F85B06",
"u  c #E94C13",
"i  c #F44E17",
"p  c #EC561C",
"a  c #F35717",
"s  c #DE6617",
"d  c #E8640B",
"f  c #F46405",
"g  c #FB6503",
"h  c #FA6B04",
"j  c #F76A08",
"k  c #FC7303",
"l  c #F57A06",
"z  c #FB7C03",
"x  c #F7750A",
"c  c #F67B13",
"v  c #D55B26",
"b  c #D24D31",
"n  c #EF522B",
"m  c #F25C29",
"M  c #D16C32",
"N  c #ED6B29",
"B  c #F2712E",
"V  c #EC7A37",
"C  c #B15546",
"Z  c #9D6E5E",
"A  c #BE715A",
"S  c #B07069",
"D  c #DB4943",
"F  c #D2574E",
"G  c #CD7056",
"H  c #E26846",
"J  c #F0754C",
"K  c #C15E60",
"L  c #DD6F6A",
"P  c #C97B77",
"I  c #AF8C15",
"U  c #BD9A2A",
"Y  c #B2A02F",
"T  c #E98209",
"R  c #F48703",
"E  c #FB8203",
"W  c #FC8C02",
"Q  c #F79706",
"!  c #FC9402",
"~  c #FA9B03",
"^  c #F28714",
"/  c #F59813",
"(  c #D3A811",
")  c #F5A503",
"_  c #FBA403",
"`  c #F6AE04",
"'  c #FBAB03",
"]  c #F9B405",
"[  c #FABB04",
"{  c #F5B908",
"}  c #F9BC0A",
"|  c #F3A51B",
" . c #F7BD1B",
".. c #ED842C",
"X. c #F3882A",
"o. c #E98035",
"O. c #ED963C",
"+. c #F8B72D",
"@. c #F4A334",
"#. c #FAC304",
"$. c #FBCC05",
"%. c #FAC809",
"&. c #FAD105",
"*. c #FBDB05",
"=. c #FADB0B",
"-. c #F9CB12",
";. c #F7D711",
":. c #FBE204",
">. c #FCED04",
",. c #FBE50A",
"<. c #FBEC0B",
"1. c #FCF102",
"2. c #FCF10C",
"3. c #FAE712",
"4. c #FBF213",
"5. c #F7F41B",
"6. c #FBF219",
"7. c #DCCD37",
"8. c #F7C134",
"9. c #FCED2C",
"0. c #FCF422",
"q. c #FBF52C",
"w. c #FCF634",
"e. c #FDF83D",
"r. c #B0945B",
"t. c #B19074",
"y. c #C2865C",
"u. c #F19A42",
"i. c #E48755",
"p. c #F1A549",
"a. c #E7AA56",
"s. c #F4B553",
"d. c #D68C7B",
"f. c #E78A6C",
"g. c #C7BB7B",
"h. c #D3C252",
"j. c #F7CC59",
"k. c #F6D955",
"l. c #E9E54A",
"z. c #F7EB47",
"x. c #FBFA49",
"c. c #F7EA53",
"v. c #FCFA55",
"b. c #FCF95A",
"n. c #D4C873",
"m. c #E8D16D",
"M. c #EEE666",
"N. c #FBEA6E",
"B. c #FDFC65",
"V. c #FCF369",
"C. c #FCFC6B",
"Z. c #EAE57C",
"A. c #FBF472",
"S. c #FCFD72",
"D. c #F5F37E",
"F. c #B58B88",
"G. c #B79A96",
"H. c #BCA6AB",
"J. c #C38C87",
"K. c #D88986",
"L. c #C9968A",
"P. c #CC8B92",
"I. c #DE9C9D",
"U. c #E39A93",
"Y. c #D1AA94",
"T. c #E3A891",
"R. c #C9A9AA",
"E. c #C4B6A7",
"W. c #CDBBB5",
"Q. c #E1B8AD",
"!. c #E3DD92",
"~. c #F1EE84",
"^. c #F4F386",
"/. c #D9D5A8",
"(. c #D4C6B9",
"). c #D5D1B8",
"_. c #E1C9AA",
"`. c #E7C6BA",
"'. c #EBEBA9",
"]. c #EAE8B5",
"[. c #DDD4CD",
"{. c #CBCAD7",
"}. c #DCD4D3",
"|. c #DDD9D9",
" X c #EBCBC6",
".X c #E6D8CA",
"XX c #E2D8D3",
"oX c #E3DBDD",
"OX c #F2DBD3",
"+X c #EFEEC6",
"@X c #E7E6D7",
"#X c #E5E1DD",
"$X c #EAE2DD",
"%X c #C1C7E2",
"&X c #C5CBE3",
"*X c #CACFE4",
"=X c #CCD1E4",
"-X c #D3D6E4",
";X c #D6D9E5",
":X c #DBDDE6",
">X c #D1D7E9",
",X c #D5DAE9",
"<X c #DBDEE9",
"1X c #E0DFE5",
"2X c #E0DFE8",
"3X c #DFE0E7",
"4X c #DEE1EA",
"5X c #E3E4E6",
"6X c #E8E6E7",
"7X c #E7E8E7",
"8X c #EAE9E7",
"9X c #E4E5EA",
"0X c #E8E7E9",
"qX c #E7E8EC",
"wX c #ECEBEB",
"eX c #F5EBE2",
"rX c #F4ECE5",
"tX c #F0EFEC",
"yX c #EFF0EE",
"uX c #F5F3E7",
"iX c #F2F1EE",
"pX c #E3E6F0",
"aX c #E6E9F0",
"sX c #ECEDF0",
"dX c #F0EFF0",
"fX c #EFF0F0",
"gX c #F6F5F1",
"hX c #F8F7F2",
"jX c #FAF9F4",
/* pixels */
"5X5X8XtXgXgXhXgXgXtXtXwX6X8XwX0X8X8X8X8XqX7X8X8X8X8XwXtXwXwXwXwXwXtXtX8XtX8XtXwXwX8XwXwX9X0X0XwX0XwXwX8X8X8XtXtX8XtXtXwXtXwXwXtXiXwXtXwXwXtXwXtX8X8X8XwX6X8X6X6X",
":X5XwXtXhXhXhXhXgXgXiXwXwXwXwXwX8X8X8X8X8X8X8X8X8X8X8X8XwXwX0X8XwXtXwXwX8X8XwXwX8X0X0X0X0X0X0X8X6X0XwXwXwXwXtX8X8XwXwXtXtXtXtXtXwX8X8XwXtXwXtXtX8X8X6XwX6X8X6X6X",
"1X5XwXiXjXjXjXhXhXgXtXtXtXtX8X8X8X8X8X8X8X8XwX8XwX8X8XwX8X0X8XwXwX8XtX8X8X8X6X6X6X6X9X6X0XqX8X0X9X6X0X8X0X0XwXwXwXwXwXwXwXsXwXwXwXqX9X0X8XwXtX8XwXwX8XtX8X8X6X6X",
"1X9XwXgXjXjXjXjXhXgXgXtXtXtXtXtXrX8XtXwX8XwXyXwXwX8X8X8X8X6X6X8X6X6X8XtXtXtX8X8X6X6X6X6X0X0X0X9X2X6X5X5X9X5X9X9X9X5X0X9X5X5X9X9X9XqX8XwXwXwX8XtXtXtXwXtXwXwX8X6X",
"5X5XqXsXgXgXhXhXhXiXiXiXtXtXtXtXwXtXtX8XwXtXtXwXwXwX8XwX8X8X8X8X8X8XwXtXuXtXtXwXwXwX0X6X9X0X0X0X0X0X9XqX9X5X9X5X9X0X6X6X9X9X9X9X6X8XwXwXtXtXiXiXtXtXiXiXtXtXwX8X",
"5X5X<X9XqXaXsXgXgXdXgXdXtXwX8XtXtXiXtXtXiXiXiXgXwXuXwX8X8X8X8X8XtXtXtXtXtXtXtXtXtXtXwX6X9X0X8X0X0XwX8XrXtXwX8X8XwX8XwXtXwXwXwXtXtXiXuXiXiXiXiXiXtXtXiXiXiXtXwX8X",
"5X5X<X4X9XpX9XpXaXwXwXwXtXuXiXiXiXiXiXiXiXiXgXgXiXiXuXwXwXwXwXwXtXiXtXiXiXiXgXiXiXtXwXqX6X6X0X0X0X0X6X0X8XwX8XwXwXwXwX8XtXtXiXtXiXiXiXiXiXiXiXiXiXiXgXiXtXtXtXyX",
"<X4X5XpX5X9X4X9X9XpX8XwXwXiXgXgXgXhXiXiXgXhXhXjXjXhXgXiXuXwXiXwXwXtXtXtXiXiXhXhXhXiXgXwX0X0X9X5X2X1X2X1X0X0XwXwXwXwXwXwXtXtXtXtXiXgXiXiXiXiXiXiXiXgXiXiXtXiXrX8X",
"4X5X5X4X9X4X4X9X9XpX9XwXsXgXgXgXgXgXgXgXgXhXjXjXjXhXhXiXtXtXtXtX8X0X8X9XsXdXgXhXgXtXdXqXwX9X5X2X:X:X:X:X2X6X0X6X6XwXwXwXtXtXtXwXwXiXiXiXiXiXiXiXiXiXiXiXiXiXyXwX",
"4X4X4X4X9X4XqX9X9X9X8XsXgXgXiXdXgXgXaXiXgXgXjXhXjXhXhXiXtXtXtXwX6X6X9X9X<X9X9XqX9XqXwX0X9X9X5X2X1X:X1X1X1X2X9X6X0X6X8XwXwXtXtXiXiXiXiXiXgXgXhXhXhXhXhXgXiXiXiXwX",
"qXqXqXqXqXwX7XwXaXwXsXgXgXgXiXwXsXaX9XpX5X9XgXiXiXiXiXiXtXtXwX0X9X<X<X<X<X<X2X2X:X1X2X5X5X5X5X5X1X2X9X0X6X9X6XqX8X9XwXwXtXwXiXiXiXwXtXiXiXgXhXhXjXhXhXhXhXgXiXwX",
"8XqXyXwXyXgXiXiXiXgXiXgXgXgXwX9X4X,X,X,X=X>X,X5X6XtXwXtXtXtXwX0X9X5X<X4X9X9XpXpX9X<X<X<X5X5X5X5X9X6X0X0X5X9X0XqXwXwXdXtXiXtXiXgXgXwXwXwXtXiXiXiXiXiXgXgXgXgXiXwX",
"iXyXiXiXiXhXiXiXiXiXiXgXwXwX9X4X<X,X,X,X>X>X,X<X5XwXwXwXwXwXwXsXwX9X5X4XpX9XqXqX9X9X2X2X0X1X[.:X2X2X9X9X9X9X6XqXqXwXwXtXiXgXiXiXdXwX8X0XqX9X9X4X9X9X9X9X8XwXgXfX",
"hXhXgXhXhXhXhXhXhXgXgXiXiXwX<X<X<X<X4X,X<X<X<X<X5XwX0XwXwXwXwXtXsXwXqX9X9X9XpX9XqX9X0XaXqX_.a.[.<X<X2X2X9X9X9XqXqXqXwXwXwXwXtXwXwXwXwX9X3X4X4X4X4X,X:X:X<X7XwXwX",
"hXhXhXhXhXiXhXhXhXiXiXiX8X9X4X4X4X<X4X4X<X5X<X9X9X0X0XwXwXwXwXtXtXtXwXwXpX9X9XqX0X2XaXaXsXoX`.oX9X9X0XqXqXqXqXqXqX0X0X0XwXwXwX8X8X8XqX5X3X4X4X4X3X4X,X,X,X3X9XwX",
"gXgXhXhXhXiXiXhXhXiXwXwX9X4X<X<X4X4X4X4X4X<X4X5X0X0XqX0XwXwXwXwXtXtXiXwXqXwX|.G.S C K I.oX0XwX0X0XqXqXqXqXqXwXqXqX0X0X8X9X8X8X0X7X7X5X5X3X4X4X4X4X4X3X3X:X:X5X9X",
"gXhXhXhXgXgXyXgXiXiXwX5X5X4X4X4X<X5X9X9X4X4X9X9X9XwX9XwXwXwXtXtXiXiXiXtX0X5XF.  # & & * I.$XsX0XqXqXwXqXwXwXwXwXqXwX0X0XwXwX0X0X7X5X5X5X7X5X9X9X4X5X4X4X9X5X7X0X",
"gXhXhXhXhXgXgXiXwXwX8X5X5X5X4X5X4X5X9X9X9X9X9X9X9XwXqX8X0XwXtXdXiXiXiXiXtXR.o # & & & & ; K.0XdXdXtXtXdXdXsXtXwXwXqXqXqX0X0XwXwX7X5X5X7X8X5X8XwXwXwXwXwX8X8X8XwX",
"gXhXhXhXgXhXyXyXwX8X5X6X9X9X9X9X9X9X9X9X9XqXqX9X9X8XwX8X8XtXdXtXiXiXdXgX$XF @ = - , , , = L eXwXdXtXdXtXdXtXdXwXtXwXwXwX8XwX6X1X5X7X7X8X8X8XwXwXwXwXwXfXiXiXiXiX",
"hXhXhXhXiXiXiXyXwXwX8X8X9XwX8X0XqXqX8XwXwXwX8XqX0XwXwXwXwXtXtXtXiXiXdXtXP : = - a t < 3 5 L tXtXtXdXtXgXgXtXtXtXdXdXwXtXwX0X6X5X5X7X8X8X8XwXwXwXgXiXiXiXiXiXiXhX",
"jXhXhXhXiXiXiXwX8X8XwXwXwXwXtXtXwXwXwXwXwXyXwXwXtXrXwXwXtXtXiXdXiXtXtX X% > 2 w  .x # . L.XXgXdXtXiXtXdXtXtXdXtXdXtX0X0X9X9X5X5X7X8X8XwXwXwXuXwXwXgXiXiXtXiXiXgX",
"jXjXhXgXiXiXuXyX8X8X8XwXwXwX8X8XwXiXwXuXiXiXiXyXtXtXwXtXtXtXtXtXtXgXtX X* < t j W q # O W.wXtXtXtXtXtXdXtXtXwXwX0X0X0X6X6X5X9X0X7X8X8XwXwX8XiXwXwXiXiXiXiXiXgXhX",
"jXhXhXhXgXiXwXwXtXtXtXtXiXtXiXiXwXiXwXiXiXiXiXiXtXtXtXrXtXtXtXtXtXtXtXQ.> 2 f ~ E q 3 F.XXwXwX8X0X0XwXwXwX0X0X9X0X9X0X9X5X9X9XwXwX8X8X8XwXwXiXiXiXiXiXiXiXiXgXhX",
"hXhXhXhXiXyXiXiXtXiXiXiXiXiXiXiXiXiXiXiXiXiXiXiXtXtXtXwXtXtXtXiXtXgXiX X2 2 l =._ h m R.}.0X9X5X6X5X9X2X2X9X5X5X5X9X5X1X9X0X0XtXiXwXuXtXwX8XwXuXiXiXiXiXiXiXiXgX",
"hXhXhXhXiXiXiXiXiXiXiXgXiXhXiXiXgXiXiXiXiXiXiXiXiXiXwXuXtXgXtXiXgXtXdX X= < x =._ z B F.W.:X:X;X;X;X-X-X-X-X-X:X:X<X1X1X0XtXtXtXiXiXiXiXwXwX8X8XwXtXtXtXtXtXwXtX",
"hXhXiXiXiXiXiXiXuXiXiXgXhXiXiXgXgXgXiXgXiXiXiXiXiXwXtXwXtXtXgXtXgXhXhX X% < h } #._ c F R.-X-X*X*X&X%X%X{.%X&X*X-X;X;X<XwXgXgXdXiXiXiXiXiXuXtXwX8X8X8X8XwXwXwXwX",
"hXiXiXyXwXwXwXyXiXiXiXgXiXhXiXgXiXhXhXiXiXiXiXiXiXwXiXgXgXgXgXgXgXhXgX X- < y ! ,.{ j * P.*X-X-X*X*X&X&X%X%X&X&X&X*X*X;X9XgXhXgXiXiXiXhXgXiXiXwX8X8X0X5X5X5X9X0X",
"iXiXiXyXwXwXwXyXwXiXiXiXiXgXiXgXhXhXiXgXiXiXgXiXiXgXiXtXdXgXgXgXhXhXhXOX; < t E &.Q 2 # P.-X-X>X-X;X>X*X*X&X&X&X&X&X&X*X<XqXgXgXgXgXhXhXgXiXwXwXwXwX8X5X1X1X9X0X",
"iXiXiXiXiXtXwXwXwXwXuXtXgXiXiXiXiXiXiXiXiXiXiXiXiXgXgXgXiXgXgXhXjXhXhXrXU.n h #.[ f > + R.-X>X,X;X;X-X>X>X>X=X*X&X*X*X*X*X,X9XtXiXgXhXiXiXiXtXwXtXwXwX6X0X9X0XwX",
"iXiXiXtXtXtXiXwXtXiXiXiXiXiXiXgXiXiXyXwXwX8XwX8X8X8XwXiXgXhXgXgXhXhXhXjXrXJ j } { e % O H.=X;X;X<X<X<X<X<X<X,X,X-X-X>X-X*X;X;X2XqXyXiXiXiXiXtXtXtXwX0X8X0X0X8XwX",
"iXuXwXwXwXtXtXtXiXiXiXiXgXiXiXiXuXwX8XqX9X5X3X3X5X3X5XwXiXgXgX6XOXOXOXOX`.B r R ;.l $ o H.=X-X,X<X<X<X<X<X2X2X:X2X<X<X:X;X,X,X;X:X9XwXwXtXwXwXwXwXwX8X0X5X6X6X5X",
"yXwXwXtXuXwXwXiXtXiXiXiXiXtXtXwXqX5X4X4X:X<X<X:X<X<X:X9X5X8X}.A 4 n m N X.y t l *.[ g # P.{.,X,X<X<X2X2X5X1X2X5X5X9X6X5X0X9X<X<X<X:X5X5X8X6X0X8X0X0X8X9X5X5X5X1X",
"iXiXtXiXiXiXwXiXiXwXgXwXwX9X9X2X:X4X<X4X<X4X<X<X<X2X2X2X2X2XP @ , 2 t x ! k c 8.3.#.x * K.|.9X9XwX9XqX9X6X6X9X9X5X6X6X6XrXwXwX0X6X5X5X5X5X5X5X3X<X:X:X-X-X:X5X6X",
"gXgXgXhXiXiXiXwXwXiXwX8X5X<X,X,X>X,X<X<X4X4X9X9X2X9XqX2XaX1XH , w w g ~ ' ~ +.B.6.#.l * K.#XiXiXgXsXsXwXtXtXwXqX0X0XwX0XwXtXtXwXwX8X8X7X8X9X5X:X;X;X-X-X-X:X5X5X",
"iXgXgXhXhXiXiXiXiXwXwX0X2X;X>X;X,X,X<X<X4X5X9X<X9X9XqXqXqX1XH w j w g _ ,.>.9.x.4.#.j # d.[.sXiXtXiXiXgXiXiXiXtXwXwXtXtXtXtXtXwXtXtXwXwX8X8XqX5X5X1X:X:X-X:X-X:X",
":X<X9XwXiXtXwXwXwXwXwX5X4X,X,X;X;X<X<X<X4X<X9X9X9XpXqXqXwXoXH w k z _ *.>.w.w.9.{ z a A F.|.qXwXwXiXiXiXgXiXiXiXiXtXtXgXiXiXiXiXtXiXiXsXwXyX8X8X6X6X7X5X5X1X:X:X",
"=X=X-X:X5X5X8XwX8X8X0X9X5X<X,X;X;X,X,X3X<X2X9X2X9X9XqXqXwX1Xb w E ] &.2.w.e.q.,.~ g p S G.3XqX7XsXsXdXwXdXgXiXhXhXiXhXhXiXhXgXiXgXgXgXgXiXyXfXfXwXwX8X8XwX9X9X9X",
":X;X-X=X=X:X5X5X8X7X9XwX9X9X<X;X-X;X,X<X2X2X9XqXaXqXqXaXwX1XD > ! *.1.2.B.q.>.,.R y p S W.5XqXqXqXwXwXwXsXwXtXtXiXhXhXhXhXhXhXhXjXjXjXjXgXgXgXfXtXuXiXwXwXwXwXaX",
"9X5X:X-X-X-X:X3X5X5X5XwX8X8XwX9X9X9X5X3X2XqXqXwXwXqXqXsXwXoXD > Q ;.1.4.B.q.1.,.Q y 0 7 E.qX8XwXwXwXqXwXwXsXtXgXhXhXhXjXjXjXhXjXjXjXjXjXjXjXjXgXiXiXiXiXiXgXgXgX",
"sX8X9X:X;X=X;X:X5X4X9X8XwXtXtXiXiXwX8X8X0XwXsXwXwXwXqXtXwXW.V y ! ` &.2.B.v.q.,.Q k f : L.|.wXwX8XwXwXwXwXtXgXgXiXhXhXjXhXjXjXjXjXjXjXjXjXjXjXjXiXwXtXwXsXwXsXhX",
"wXgXwX9X:X;X:X:X5X5XwXwXiXuXiXiXwXiXwXtXwXtXwXwX8XwXwXwX#XG s z ! ! [ 2.C.S.x.<._ W k r C G.$XwXwXqXwXwXwXfXfXfXwXwXaXsXsXdXjXjXjXjXjXjXjXjXfXsX4XpX4X4X4X9XaXfX",
"wXwXwXqX5X3X5X5XqXwXwXiXiXgXiXiXiXiXiXtXuXwXtXiXyXwXuX6XQ.u g E ! ! #.4.C.S.x.<.` ! W x X Z 8XwX9XqXpXwXwXwXwXqX9X9X4X4XpXpXpXpXaXaXfXfXfXfXpXpX4X4X4X4X4X4X9X9X",
"iXiXwXwXwXwX9XwX8XwXwXwXwXiXgXiXiXwXwXwX8XtXtXwXtXuXuXT.0 g E W ~ &.>.4.C.S.x.1.:.] W k 0 G }.wXwXqXqXqXqX9XpX4X<X<X<X,X>X>X>X>X>X,X4X4XaXpX,X4X4X4X4XpXpX9X9X4X",
"iXyXiXiXtXwXuXwXiXwX8XqX9X5X4X4X9XqXwXwXtXwXtXwXtXtX XG w k W ! ~ *.>.4.S.S.b.w.2.#.! W g v t.#XwX9XqXpX9XpXpX4X<X<X<X<X4XpX4X4X4X4X4X4XpXpX,X4X4X4XpXpX4XpX9X4X",
"wXtXiXiXgXiXtXtXwX8X8XqX5X3X3X5X7X8XwXwXuXiXiX8XtXwXJ.b q k W ! ) *.1.4.C.S.S.B.5.#.! Q E 9 O }.wXwXpXwXpX4XpXpX<X,X<X<XpXpX4X4X4XpX4X4XpX4X4X4XpX4XpXpX4X4X9X4X",
"wXtXiXiXiXiXiXtXwX8X8X8X7X8X8XyXwXiXiXiXiXiXgXiXrXeXD 1 h k E ' :.>.1.4.C.S.S.B.6.#.! ! E 0 :  XwXtXwXpXpX4X4X4X<X9XpX4XpX4X4XpXpX4X4XpXpXpXpXpXpX4XpX4XpX9X9XqX",
"iXiXiXiXiXiXgXiXiXiXuXyXwXyXiXiXiXiXiXhXgXhXgXiXhXeXH w k W ! ' >.1.0.x.S.C.S.B.6.:.#.! z t 3 Q.$XtXtXwXqX9X9X9XpXpXpXaXpXpXpXpX9XaXpXaXfXsXaXfXaXpX4XpXqXqX8XwX",
"jXjXhXhXhXgXhXgXgXiXiXiXiXiXiXiXhXhXgXhXhXhXhXhXjXeXV y k ! _ [ >.4.x.C.S.S.S.C.w.2.:.` W h i T.(.#XtXwXwX9X9X9XpXaXwXsXaXaXaXaXqXfXfXfXsXfXaXfXaXpXpX4XqXqXiXiX",
"jXjXjXjXhXgXhXhXhXiXiXgXiXiXgXgXgXgXgXhXiXeXiXgXhXeXO.k z W $.>.<.z.V.V.S.S.S.S.C.w.3.3._ x e y.t.E.+XuXuXwXwXwXwXsXwXiXiXyXyXfXwXfXyXyXyXsXaXwX9XpX9XqXwXiXiXhX",
"jXjXjXhXhXhXhXgXgXiXiXiXiXiXiXgXgXgXhXhX+X~.^.!..X+X@.! W ~ &.:.{ s o.j.C.S.S.S.C.k.@.1 y x ^ 8 r.Y.^.^.].wXyXyXwXiXiXiXiXiXiXiXgXwXfXyXaXwX9X9X9X9X9XwXiXgXhXhX",
"hXjXjXhXhXhXgXgXiXwXiXiXuXiXiXgXgXgXhXhX+XS.S.Z.Z.m.| ! ! ! $.$.d V V V A.S.S.S.S.s.N c r f Q ( h.n.S.S.'.uXwXyXgXiXiXiXiXiXiXgXiXiXiXwXwX9XqX5X5X9X9XwXiXiXhXhX",
"hXhXhXjXhXhXhXgXgXiXiXuXwXiXwXiXgXgXhXhX+X^.D.C.x.3.` ! ! ! $.} 9 m.p.m A.S.C.S.S.u.d 3.f r Q ,.e.B.D.D.'.wX8XyXyXwXiXwXiXiXiXiXiXiXuXtXtXwXwXqX9XwXwXwXiXiXgXhX",
"hXhXjXgXhXhXgXgXgXiXtXgXwXtXwXwXdXgXgXgXgXrX@XM.2.>.) Q ! Q $.>.=.b.A.N.C.S.S.S.S.A.c.2.' W ~ *.1.z.@X@X7XqXqXyXwXsXwXuXiXiXiXiXiXiXiXiXwXwXwX8XqXqXwX8XwXgXhXhX",
"hXgXgXgXgXiXgXgXiXiXwXwXwXtX8XwXwXwXsX8X8XwXqX].n.I T l E ! $.1.>.b.S.N.V j.S.A.u.+.0.1.] ~ / m.!.'.uXyXgXfXwXwXsXwXwXiXiXiXiXiXiXtXtXwXwX8X0X6X0X9XwX8XwXiXiXgX",
"gXgXgXiXiXiXiXiXtXiXiX8XwXwXwX8X0X9X9X9X5X9XqXqX|.t.M s g ! ] *.1.w.b.N...p.s.s.O. .1.;.~ ^ a.[.3XqXyXgXyXiXgXiXgXiXiXiXiXiXiXiXtXtXwXwXwX8X6X9X9X8X0X8XwXwXtXiX",
"hXuXiXiXrXiXiXtXwXwXwXwX8XwX8X5X<X<X5X9X9XpXaXaXsX7Xr.9 q E ! ' ,.2.q.v.V.X.e 9 j.w.&.Q z i.}.,X4X4X4XqXyXyXyXiXiXiXiXiXiXiXiXiXtXtXtXtXwXwX6X9X7X5X6X6XwXwXwXtX",
"iXiXtXdXtXtXtXwXwXwXwX8X8XwX0X5X<X<X9X0XsXsXwXgXsXiX@Xd.w k W ~ ` *.2.4.4.;.;.;.6.-.Q ! y i.|.>X>X>X>X4X9X9XqXwXyXiXwXgXwXiXtXwXwXwXwXwXwX8X8X0X0X9X8XwX8XwXwXiX",
"iXiXtXwXtXtXtXwXwXwXwX0X9X8X9X5X:X<X9X0XwXtXwXdXgXgXgX Xf.y g k ! ] [ #.1.1.1.>.#.) R g v L.-X,X>X>X>X4X4X4X4X9X9X0XwXwXwXwXwXwXqX8X6X6X8X8X6X6X0XwX8XwXwXiXwXwX",
"tXwXwXgXtXtXtXwXwX8X0X6X0XwX8X0X9X5XwXwXwXtXsXdXwXgXgXwX6XJ u e ` ) _ ` %.&.&.%.{ ~ R d A {.>X>X>X<X4X3X4X4X9X9XqXwXwXwXtXwXwXwXwX7XqX8XqX8X9X0X0XwXwXwXwXwX8XwX",
"qX9X9XwX0XwXtXwX8X6X9X9X0XwXqXwXwXwXwXwXsXdXdXtXfXwXsXtXfXwXG.6 3.<.<.=.0 j f e -.<.>.3.n.:X<X<X<X4X7XqXqXfXwXyXiXgXgXgXgXtXgXgXwXwX8X8X8X8XwX8X8XwX8X8XqXwXqX9X",
":X;X<X<X<X5X0XwXqX9X5X5X0XwXwXwXyXiXiXiXwXiXiXwXwXwXwXsXiXiXXXg.Y l.v.c.8 r.G 8 U 7.v.b./.5X9X0X7XqX8XwXiXyXyXiXgXgXhXhXhXgXgXgXiXiXtX8XwXwXsXwXwXwXqX9X9X4X<X<X",
"-X;X:X<X<X5X0X0X0X0X9X5X9X0XwXwX8XwX8XiXiXwXwXwXwXwXwXwXwXiXiXwX).].'.].[.#X5XoX(./.'.'.@X8XwXwX8X8X8XwXwXsXwXgXgXhXhXhXhXhXgXhXhXgXuXwXgXwXwXwX9XqX9X9X4X,X,X>X",
";X;X:X5XwX0XwXwXwX0X0X5X0XqXaXqX8XqX8XwXwXwXwXiXwXwXgXyXiXtXiXwXwXwXwXwXiXwXwXwX8X5X#X7X8X8XwXwX8X8XwXwXaXqXwXwXtXgXhXgXhXhXhXgXgXiXtXwXwXwXwX9X4X9X<X9X4X<X:X>X",
";X:X2X9XwXwXrXtXwXwXwXwX0X0XwXqX8XqX8X8XwXwXwXiXiXiXiXgXiXtXtXiXwXuXiXwXuXwXwXwX8X8X8X8XwXwXwXwXwXwXwX9X4X4X4X9X9XwXsXtXgXgXgXtXiXiXwX8XwXwXaX4X<X<X<X<X4X4X<X,X",
"5X5X9X5XwXtXtXtXwXwX0X0XwX6X0X0XqX0X0X0XwXtXtXiXiXiXgXgXiXiXiXtXtXtXtXtXtXtXwX8XwXwXuXiXfXfXfXfXyXyXwX8X4X4X,X,X<X4XpXaXsXdXdXtXtXtXwX6X0X0X0X9X4X<X4X4X4X4X<X<X",
"9XpXqX0X0XtXtXtXtXtXwXqX9X1X5X9X0X0X0XwXwXwXtXtXiXiXiXgXuXiXiXiXiXiXtXtXtXtXiXwXwXiXiXgXgXgXgXgXgXfXyXwXwX4X4X,X,X<X,X,XpXaXsXwXwX0XwXwXtX0X9X<X4X:X<X<X<X4X5X3X",
"9X0XwXdXtXtXtXtXtXtXwXqX0X<X<X<X:X5X9XwX8XwXtXiXiXiXgXgXhXiXiXiXiXiXtXiXtXtXtXuXtXiXiXhXhXhXhXhXhXhXgXiXyXsXpXpX<X<X,X<X9X2XpXwXwXwXwXwXwXwXwX4X:X<X:X5X4X9X9X9X",
":X2XwXwXdXtXtXtXdXtXwXsXqX0X9X5X5X5X6XwXwXwXtXtXiXiXiXiXiXiXiXiXiXiXiXiXtXtXtXwXtXiXgXhXjXjXjXjXhXgXgXyXgXfXfXsXaX9X9X2X9XpX9XaXqX0XwX0X9XwX9X4X:X:X:X1X4X9X9X:X",
":X:X1X5XwXwXtXiXgXtXtXtXsXwXsXwX8XwXwXtXiXiXgXtXiXiXiXiXiXiXiXiXiXiXiXiXiXfXiXwX8XiXgXgXjXjXjXhXgXgXfXiXgXfXyXiXtXtXwXwX0XqXqXqXwX8X0X9X4X5X5X:X:X:X:X1X:X1X:X:X",
":X:X1X5X9X6XwXtXtXgXgXtXdXsXtXdXgXwXgXhXhXhXgXgXhXuXgXiXgXiXgXgXiXiXiXiXiXuXiXiX8X5X4X4XpX4X4XpX4X4XwXyXyXgXgXgXgXtXdXtXtXtXtXwXwXwX0X8X5X3X<X;X;X-X-X;X|.:X:X:X",
"1X5X5X5X6X6XwXiXgXtXiXdXtXtXtXtXwXwXwXdXtXgXsXdXiXiXiXgXiXiXiXgXiXtXiXgXwXwX8XqX5X3X>X>X>X,X>X>X>X,X4XqXyXfXyXiXgXtXtXiXtXwXtXtXwXtXwXaX9X5X3X:X:X-X:X:X:X1X5X:X",
"6X0XwX0XwXtXtXiXtXgXtXdXsXqXwXqX9X9X<X<X9X4XpX9XtXtXiXiXiXiXiXiXiXiXwXwXwXaX4X<X:X;X>X>X>X,X,X,X>X4X4X4X4XqXwXwXtXgXgXtXtXwXtXtXwXgXwXwX8X7X7X5X5X5X5X5X7X5X6X6X",
"wXwXwXtXtXtXtXdXtXdXsXsXqX9X9X<X<X9X<X<X<X4X4X9X5X5X9XwXwXwXwX0X6X8X6X5X5X:X;X;X,X,X,X,X,X,X,X4X4X4X,X,X<X4X5X9XwXyXuXwXtXwXqX0XwXwXwX0XwX8XwX8XwXwX0X8X8XwX8XtX",
"tXiXtXtXtXtXtXsXtXwXqXqX9X9X<X<X<X<X<X<X4X4X4X<X5X:X:X5X:X5X5X5X1X1X:X:X,X=X-X;X,X,X,X>X,X>X,X<X,X>X,X4X;X;X:X:X9XqXwXwXtXwXwXwX0X0X0XwXwXtXtXwXwXwXtXwX8XtXtXiX",
"iXiXiXiXgXtXtXsXwXqX9X2X<X4X<X<X9X<X<X9X4X4X4X<X<X<X<X;X;X;X;X;X-X-X;X-X-X-X-X-X,X,X,X>X,X>X>X>X>X>X,X4X<X9X3X9X9X9XqXqX8XqXwXwXwXwXwXwX8X8X8XtXtXtXtX0XwXtXtXtX",
"gXhXiXhXgXdXwXwXqX9X<X<X<X<X4X5X9X9X9XpXpX4X2X<X<X5X<X<X:X;X;X-X-X-X-X-X-X-X-X;X,X4X,X,XpX,X,X<X,X>X4X4X9XqX8XwX8X9X8XqX0X6XwXwXwXwXyXwXtXwXwXtXtXtXtXtXtXiXiXiX",
"iXhXiXgXiXiXwXqXqX2X<X5X<X9X5X9X9X9X9X9X9X2X2X9X5X9X5X9X:X:X:X:X:X-X;X-X;X;X:X<XpX4X4X4X9X9X5X5XpX4X9XqX8XwXwXwXwXwXwX8XwX9X6X6X8XtXtXwXtX8X8XtXiXgXiXiXiXgXiXhX",
"iXhXhXiXiXuX8X9X9X2X<X<X9X9X5X9X9X9X9X9X9X9X9X9XqXqX9XqX6X8X0XwX9X5X5X:X<X:X<X<X4X4XpXpX0X8X0XwXwXqX7XwXwXwXiXwXsXwXtXwXiXwXwX6X0X8X8XwXtXtXtXtXtXtXtXtXtXiXhXhX",
"hXhXhXiXtXwXwX9X5X5X5X9X9X9X0X9X9X9X9XqX6XqXqXwXwXwX0X8XwXwX8XwX0X9X5X5X1X<X<X<X<X5X5X9XwXwXwX8XwXwXwXwXiXwXiXiXiXiXtXtXwX8XwXwX8X0X8XwXtXtXtXtXtXtXtXtXtXtXiXiX",
"iXiXiXiXwX0X6X5X2X2X9X9X0X8X0X2X2X9X0X0XwXwXtXwXtXwXwXwXwX8X9X5X5X5X9X6X5X1X5X2X:X2X9X9X0XwXwXwXwXwXwXfXiXiXiXiXiXtXtXtXiXtXtXwX8X8XwXwXwX8X8X8XwXtXtX8XtXtXtXiX"
};
