/* XPM */
static char *_00_resized[] = {
/* columns rows colors chars-per-pixel */
"80 80 220 2 ",
"   c #DB0B0A",
".  c #D71711",
"X  c #E80F0C",
"o  c #EE2D0F",
"O  c #F43707",
"+  c #F03C1E",
"@  c #E42C20",
"#  c #A85D08",
"$  c #886D0A",
"%  c #BA7614",
"&  c #AB7B35",
"*  c #D3561A",
"=  c #E7480B",
"-  c #F84707",
";  c #EB5E04",
":  c #FA5305",
">  c #F55B03",
",  c #F75806",
"<  c #E75A15",
"1  c #F45314",
"2  c #F45817",
"3  c #DD6A1C",
"4  c #F76002",
"5  c #FC6B03",
"6  c #FD7503",
"7  c #F67A05",
"8  c #FA7A03",
"9  c #F6750C",
"0  c #FA7B0B",
"q  c #E96E15",
"w  c #F57D16",
"e  c #F57D1D",
"r  c #D5443D",
"t  c #D1673A",
"y  c #E56424",
"u  c #EF7E22",
"i  c #EE6630",
"p  c #EA7C38",
"a  c #F37D33",
"s  c #AD4446",
"d  c #E75546",
"f  c #E4734B",
"g  c #E77D55",
"h  c #E37C79",
"j  c #BC8F19",
"k  c #A0962F",
"l  c #EB8504",
"z  c #E48A01",
"x  c #F68404",
"c  c #FC8303",
"v  c #F78B04",
"b  c #FC8B03",
"n  c #F5850C",
"m  c #F7890C",
"M  c #E89101",
"N  c #F69707",
"B  c #FC9303",
"V  c #FA9B02",
"C  c #EB8A1C",
"Z  c #F7A404",
"A  c #FAA203",
"S  c #F9AC04",
"D  c #F7A80A",
"F  c #E8B508",
"G  c #F9B204",
"H  c #F7B806",
"J  c #FABD06",
"K  c #EFA912",
"L  c #F8B518",
"P  c #E98828",
"I  c #F2852D",
"U  c #F29529",
"Y  c #F28C35",
"T  c #F28D3B",
"R  c #F9B321",
"E  c #EDAF38",
"W  c #F2BC3A",
"Q  c #DFCB18",
"!  c #F7C405",
"~  c #F9C305",
"^  c #F8CA07",
"/  c #F6C30A",
"(  c #FAD405",
")  c #FADA05",
"_  c #F7D009",
"`  c #F8D20A",
"'  c #FADB0B",
"]  c #F5CA10",
"[  c #FADC18",
"{  c #FCE305",
"}  c #FCEB04",
"|  c #F3E30B",
" . c #FBE30C",
".. c #FBED0C",
"X. c #FCF103",
"o. c #FBF10B",
"O. c #F7E814",
"+. c #FDF115",
"@. c #FCF31C",
"#. c #F2C830",
"$. c #FCF424",
"%. c #FBF52A",
"&. c #FBEB30",
"*. c #FDF634",
"=. c #FCF53C",
"-. c #9C8454",
";. c #A58D57",
":. c #B6A541",
">. c #B89D64",
",. c #BCB863",
"<. c #DF8A48",
"1. c #EE8C40",
"2. c #ED9546",
"3. c #F29746",
"4. c #EC9A58",
"5. c #F49C50",
"6. c #D2B74D",
"7. c #F1A449",
"8. c #F4B652",
"9. c #C69467",
"0. c #DC9574",
"q. c #EB9E63",
"w. c #EB916B",
"e. c #E18570",
"r. c #EBA976",
"t. c #F2A971",
"y. c #F1B178",
"u. c #EDD349",
"i. c #F7CD59",
"p. c #FDF744",
"a. c #FCF94C",
"s. c #FAE357",
"d. c #FBF455",
"f. c #FCFA53",
"g. c #FDFB5B",
"h. c #F6D864",
"j. c #F7E569",
"k. c #FBEE6D",
"l. c #FAF863",
"z. c #FCF36C",
"x. c #FCFC6D",
"c. c #F0EE73",
"v. c #FBF777",
"b. c #FCFD73",
"n. c #BCB29C",
"m. c #C59B8D",
"M. c #DFAF8F",
"N. c #D2AF9A",
"B. c #CDB099",
"V. c #E4AC83",
"C. c #EAB587",
"Z. c #F1B586",
"A. c #EBAB91",
"S. c #E6B899",
"D. c #DDA4A4",
"F. c #D8B4A5",
"G. c #E6B5A2",
"H. c #D8CA9F",
"J. c #F7F78D",
"K. c #ECE99A",
"L. c #EFF098",
"P. c #D5CDBC",
"I. c #E8C6A7",
"U. c #F4CCAC",
"Y. c #EDC4B3",
"T. c #EBC7B9",
"R. c #E2D7BA",
"E. c #E9E5A9",
"W. c #E5E5B7",
"Q. c #EBE9BB",
"!. c #F1F0BD",
"~. c #DEDAC8",
"^. c #D1C9D6",
"/. c #D7CFD5",
"(. c #D3D2DD",
"). c #DDD9D8",
"_. c #EBD5CA",
"`. c #EDD4CF",
"'. c #EBDDD4",
"]. c #E8DCD9",
"[. c #E9E8C9",
"{. c #EDEBCD",
"}. c #E9E8D7",
"|. c #EBE5DB",
" X c #F2E6DA",
".X c #C1C7E2",
"XX c #C5CBE3",
"oX c #CACFE4",
"OX c #CCD1E5",
"+X c #D3D6E4",
"@X c #D6D9E5",
"#X c #DBDDE6",
"$X c #D1D7E9",
"%X c #D5DAE9",
"&X c #DBDEE9",
"*X c #E0DFE6",
"=X c #E0DFE9",
"-X c #DFE0E7",
";X c #DEE1EA",
":X c #E3E4E6",
">X c #E8E6E6",
",X c #E7E8E7",
"<X c #EAE9E7",
"1X c #E4E5EA",
"2X c #E8E7E9",
"3X c #E7E8EC",
"4X c #ECEBEB",
"5X c #F4E6E0",
"6X c #F0EFEC",
"7X c #EFF0EE",
"8X c #F2F1E4",
"9X c #F2F1EE",
"0X c #E3E6F0",
"qX c #E6E9F0",
"wX c #ECEDF0",
"eX c #F0EFF0",
"rX c #EFF0F0",
"tX c #F6F5F1",
"yX c #F8F7F2",
"uX c #FAF9F4",
/* pixels */
":X:X<X6XtXtXtXtXtX6X4X4X<X<X4X>X<X<X<X<X<X,X<X<X<X<X<X4X4X4X4X<X6X6X6X<X6X<X4X4X<X<X4X4X>X2X2X4X>X4X4X>X<X<X6X6X4X6X6X4X6X4X4X6X4X4X6X4X4X6X4X6X<X<X<X4X>X<X>X>X",
"#X:X4X6XyXyXyXyXtXtX9X4X4X4X4X<X<X<X<X<X<X<X<X<X<X<X<X4X4X<X3X4X4X4X<X6X<X6X4X<X3X3X4X2X2X2X<X<X>X4X4X4X4X<X6X<X<X4X4X4X6X6X6X6X4X4X4X3X4X6X6X6X<X<X>X4X>X<X>X>X",
"*X:X4X9XuXuXuXuXyXtX9X9X6X4X4X<X<X<X<X<X<X<X<X<X4X<X<X4X4X>X>X4X4X<X4X<X<X<X<X>X>X>X1X1X2X1X3X3X>X3X>X4X<X4X4X4X>X4X4X4X4X4X4X4X4X4X:X>X<X4X6X<X<X4X<X6X<X<X>X>X",
"*X1X4XtXuXuXuXuXyXtX9X9X6X6X6X6X6X<X4X6X<X6X6X8X<X<X<X4X<X>X>X<X>X<X<X6X6X6X<X4X>X>X>X>X2X2X>X:X*X>X*X*X1X=X:X>X3X:X3X>X1X=X1X1X1X3X<X<X6X<X<X6X6X4X6X6X4X4X4X>X",
":X:X3XwXtXtXyXyXyX9X9X9X6X6X6X6X4X4X6X<X4X6X6X6X4X4X<X4X<X<X<X<X<X3X6X6X6X6X6X6X6X4X<X>X>X>X>X2X>X4X>X1X>X*X:X:X>X3X>X>X1X1X1X1X<X4X<X6X6X6X6X9X6X6X6X6X6X6X<X<X",
":X:X&X1X3XqXwXeXtXeXtX9X6X6X<X6X6X9X6X6X9X6X9X9X9X6X<X<X<X<X<X<X6X8X6X6X6X6X6X6X6X6X4X>X1X>X3X3X2X4X4X4X4X6X3X<X<X<X4X6X4X6X4X6X6X9X9X9X9X9X9X9X6X9X9X9X9X6X4X4X",
":X:X&X;X1X0X1X0XqX4X4X4X6X9X9X9X9X9X9X9X9X9XtXtXtX9X9X6X6X<X6X6X6X6X6X9X9X9X9X9X6X6X6X3X>X2X2X2X2X2X2X2X4X4X>X4X4X4X4X<X4X6X9X6X9X9X9X9X9X9X9XyX9X9XyX9X9X6X6X4X",
"&X:X;X0X:X1X1X1X1X0X<X<X6X9X9XyXtXyX9X9XyXyXyXuXyXtX9X9X6X6X6X<X6X6X6X6X9X9XyXyXyXtXeX2X2X2X2X:X=X*X*X*X>X3X4X4X<X4X4X4X9X6X6X6X9X9X9X9X9X9X9X9X9XyX9X9X6X9X8X<X",
";X1X;X;X1X;X1X1X1X0X1X4XwXtXtXtXtXtXtXtXyXyXuXuXyXyXtXtX6X6X6X6X>X<X3X3XwXeXtXyXyXtX4X4X3X>X*X*X*X@X#X#X*X3X2X2X<X4X4X4X6X6X6X4X4X9X9X9X9X9X9X9X9X9X9X9X9X9X7X4X",
";X1X;X;X1X;X1X3X3X1X<XwXtXtX4XtXtXtXwX6XtXyXuXyXyXyXtX6X6X6X6X4X>X:X:X:X&X1X1X1X1X1X4X1X3X3X:X:X#X*X*X*X*X=X=X2X3X3X4X4X4X6X6X6X9X9X9X9XyXyXyXyXyXyXyXtX9X9X9X4X",
",X3X1X,X3X4X,X3X3X4XwXtXtXtXtX4XwX1X0X0X:X1XwXtXtXtX6XtX6X6X4X3X1X=X&X&X&X&X=X=X#X#X;X:X1X1X1X:X*X*X:X3X>X:X2X2X<X4X4X4X6X6X6XtX9X4X6X9X9X9XyXyXuXyXuXtXyX9X9X4X",
"3X,X4XtX4XtX9X9XrXtX9XtX9XtX4X1X;X%X%X%XOX$X&X:X<X6X<X6X6X6X6X3X1X1X&X&X1X1X0X0X:X&X&X#X*X:X*X=X>X2X2X3X1X>X2X3X3X4X4X6X6X6X9X9X9X6X4X4X6X6X9X9X9X9XtXtXyXtX9X4X",
"tXrX9XtX9XyXtX9X9X9XtX9X4X4X1X;X&X%X%X%X$X%X%X&X*X4X<X4X4X6X4X4X4X1X:X&X0X1X3X3X1X1X~.F.:X;X&X&X=X=X1X1X1X1X2X3X3X4X4X6XtXtX6X6X9X4X4X3X1X;X3X-X1X;X1X1X4X4X7X7X",
"tXtXtXtXyXyXtXyXtXtXtXtXtX3X&X&X&X&X;X%X&X&X&X&X:X4X4X4X4X4X4X6XwX4X1X=X=X1X3X0X1X3X}.T.Q.:X&X&X&X&X=X=X1X1X1X3X3X3X4X4X4X4X6X4X4X4X<X1X-X;X;X;X;X&X@X#X;X,X4X7X",
"tXyXtXyXtX9XtXyXyX9XtX4X<X:X;X;X;X&X;X;X&X;X&X:X*X1X3X4X4X3X4X4X6X6X4X_.D.D./.=X3X2X3X|.{.0X3X3X1X1X3X3X2X3X3X3X3X>X>X>X4X4X4X4X<X<X<X:X;X;X;X;X-X;X;X%X%X#X1X<X",
"tXyXyXyXyX9X9XyXyX9X9X<X1X;X&X;X;X;X;X&X:X&X=X1X>X4X3X2X4X4X4X6X6X6X6Xh X X s m./.'.>XwXwX1XwX3X3X2X3X3X3X3X4X3X3X3X>X3X>X>X4X3X1X<X1X:X-X;X;X&X;X;X-X-X#X&X:X>X",
"yXyXyXyXtXtX7XtX9X9X4X1X:X-X&X:X&X;X1X;X;X;X1X1X1X4X1X3X<X4X6X6X6X9XeX'.e.X   . @ i G.<X4X4X7X4X3X3X2X2X4X4X4X2X6X2X2X2X2X6X3X>X,X:X:X:X:X:X1X1X:X:X;X:X1X:X,X3X",
"tXtXyXyXyXyXtX7X4X4X<X:X:X:X;X:X:X1X1X,X1X1X1X1X1X4X4X3X4X4X6XeXtX6XtX9X`.h r @ O , p q.r.|.rXrX6X6XeXeXeXeX6X2X6XqX2X3X4X2X4X2X,X:X,X:X,X<X3X4X4X3X4X3X<X<X<X4X",
"yXyXyXyXyXtX9X7X4X<X:X,X1X1X1X1X1X1X1X1X1X1X3X,X:X<X<X<X<X6X6X6X6XtX9XyXtX6X_.g - 5 7 7 u I.}.7X6X9XeXeXeX6X6X6X6X2X4X2X4X<X3X:X:X,X<X>X<X4X4X4X4X4X4X6X9X9X9X9X",
"yXyXyXtX9X9X9X7X4X4X<X<X1X4X<X3X1X3X<X4X4X4X4X3X<X4X4X<X4X6X6X6X9X6X9XtX6XtXuXt.6 6 l l l C I.9XeXeX6XtXeX6X6X6XeXeXeX6X4X3X:X>X:X,X<X>X<X4X4X4XtX9X6XtX9X9X9XyX",
"uXyXyXyX9X9X9X4X<X<X4X<X4X4X4X8X4X4X4X4X4X4X4X4X4X6X4X6X6X6X9X7X6X6X6XtX9X9XyXt.6 6 W #.l 7 C.9X6X9X6XeX6X6X6X6X6X6X3X2X:X:X:X>X,X,X<X4X4X4X9X4X4XtX9X9X9X9XtXtX",
"uXyXyXtX9X9X7X7X<X<X<X6X4X4X4X4X4X9X4X9XtX7X7XtX6X6X6X6X6X6X6X9XtX6X6XtX9X9X6XS.T 9 W #.F 8 Z.7X6X6X6XeX6X6X4X6X4X<X3X2X>X:X1X3X,X,X<X8X<X4X8X6X4X9X9X9X9X9X9XyX",
"uXuXyXyX9X9X7X4X6X6X6X6X9X9X9X9X6X6X4X9X9X9X9X9X9X4X9X6X6X4X4X7X6X6X6X6X9X9X9X|.I.9 z F ' n Z.4X<X4X4X4X2X3X3X3X2X*X2X1X1X:X1X4X6X<X<X<X<X6X9X9XtX9X9X9X9X9XtXyX",
"yXyXyXtX9X9X9X9X4X9X9X9X9X9X9X9X9X9X9X9X9X9X9X9X8X9X4X4X4X9X9X9X6XtX6XtX6X4X|.r.w 7 / | { v y.:X:X:X1X*X1X=X:X*X:X=X>X*X*X>X3X6X9X4X9X6X<X<X4X9X4X9X9X9X9X9X9XtX",
"yXyXyXtX9X9X9X9X9X9X9X9XtXtX8X9X9X9X9X9X9X9X9X9X9X9X4X4X4XtX9X9XtX6X9XtX_.q.<.u x l _ ) S 7 V.@X@X+X+X+X+X+X+X@X&X=X*X*X4X6X6X6X9X6X9X6X4X4X<X<X6X6X6X6X6X6X6X6X",
"yXyX9X9X9X9X9X9X9X9X9X9XtX9X9XyX9XyX9XyX9X9X9X9X9X9X4X9X7X9X9X9XtXyXtX Xq.7 8 x N M ^ H 7 u N.OXoXXXXX.XXX.XoXoX+X+X@X&X4XtXtXeX9X9X9X9X9X9X9X<X>X<X<X<X4X3X4X4X",
"tX9X9X9X4X4X4X9X9X9X9XyXtXtX9XtX9XyXyX9X9X9X9X9X9X9X9X9X9XtXtXtXtXyX9Xt.n b B M M N m n u N.(.$XoXoXXXXX.X.XXXXXXXoXoX+X3XtXyXtXtX9X9XtX9X9X9X4X>X<X>X:X*X:X:X3X",
"9X9X9X9X4X4X4X4X9X9X9X9X9XtX9XtXyXyX9XyX9X9X9X9X9X9X9X9XtXtXtXyXyXyX9X5.8 V ~ ^ H v q.M.N.(.+XOX+X(.+XoXoXoXXXXXXXXXXXoX%X3XtXtXtXtXtXtXtX9X9X<X<X6X4X>X*X*X:X2X",
"9XtX9X9X9X4X4X4X4X4X9X9X9X9X9X9X9X9X9X9X9X9X9X9X9X9XtXtXtXtXtXtXyXyX8X5.c V { { ~ 0 S.@X+X+X%X%X+X+X@X%X%X$XoXoXoXXXoXXXoX@X3X6XtXtXtXtX9X9X9X<X4X6X>X<X>X3X3X4X",
"9X9X9X9X6X9X9X4X9X9X9X9X9X9X9X9X9X9X7X4X<X4X4X<X<X<X<X9XtXtXtXtXyXyXtXq.0 V { ! V 8 S.@X+X+X+X%X&X&X&X&X&X%X@X%X+X+X$X+XOX+X@X=X,X7X9XtX9X9X6X6X6X4X3X<X>X3X4X<X",
"9X8X7X<X4X8X4X6X9X9X9X9X9X9X9X9X9X4X4X,X1X1X-X-X:X:X:X4X9XtXtXtXyXyXyX Xy.m ' ~ B b I M.+X+X+X@X%X&X&X&X&X:X*X=X*X&X&X#X&X@X%X@X#X1X4X4X6X4X4X4X<X4X<X3X:X:X>X>X",
"4X4X4X9X9X4X6X9X4X9X9X9X9X9X9X4X,X:X-X;X#X&X&X#X#X;X#X1X1X,X4XtXyXyXtXtXU.n ' ) G B 8 P A./.%X%X&X&X1X=X=X=X=X:X:X1X2X:X3X1X=X@X&X#X:X:X<X>X>X4X>X3X>X>X:X:X:X*X",
"9X9X9X9X9X9X4X9X6X6X9X6X4X3X:X:X&X;X&X;X&X&X;X&X&X&X=X1X=X1X2X3X4X4X4X4XU.m ' X.{ A b 8 C Y.1X1X1X3X1X3X>X2X1X*X:X>X>X<X6X4X4X>X<X:X:X:X:X1X-X-X&X#X#X#X@X*X:X3X",
"tXtXtXtX9X9X9X4X6X6X4X<X1X&X$X%X$X%X&X;X;X1X0X;X=X1X1X1X3X1X=X=X&X1X1X*XS.N { X.}  .S c 8 a I.tXtXeXwX4X6X6X4X4X>X3X<X4X6X6X6X4X4X4X<X,X<X:X:X#X@X@X+X+X+X@X:X:X",
"9XtXyXyXyX9X9X9X6X6X4X3X&X@X$X@X@X%X%X&X&X:X:X&X1X1X1X3XqX3X2X3X1X1X1XV.P B G ( o.=.L v l 7 C.wX6X9X9XtXtX9X9X6X4X6X6X6X6X6X6X<X6X4X4X4X<X<X,X1X:X*X#X#X+X@X@X#X",
"@X&X1X<X9X9X4X4X4X<X>X3X=X%X%X@X@X&X&X&X:X&X1X1X1X0X3X3XwX3X3X0XqX3X:X4.c B B ~ @.z.L b l 8 C.4X4X9X9X9X9XtX9X6X9X6X6XeX6X6X9X6X4X9X9X4X4X7X4X<X>X,X:X:X:X*X#X@X",
"OXOX+X#X:X:X:X4X4X<X<X1X:X&X%X+X$X@X%X&X*X=X1X1X1X1X3X3XwXqXwXwX4X4X].2.c V V / @.x.L b 7 6 C.<X4XwX6X6XeX6XtXtXtX9XtXyXtXyXyX9XyXyXyXtX9X7XrXrX<X4X4X<X<X3X1X:X",
"#X@X+X+X+X@X:X:X>X:X1X4X3X1X&X%X@X@X%X&X&X=X1X1XqX3X3X3X2XwXeXeXeX].2.9 8 V ^ &.g.x.R c 6 8 y.3X3X4X3X4XwX6X6X6XtXyXyXuXyXyXyXyXuXuXyXuXtXtXtXrX9X6X6X6X4X4X4XqX",
"1X1X@X@X+X+X#X;X:X:X1X<X<X<X<X1X1X:X:X-X=X3X3X6X2X3X3XwXwXwXeXeX_.r.0 6 b ~ { =.x.=.L b 6 6 3.G.2X3X4X4X2XeX6XtXtXyXyXuXuXuXyXyXuXuXuXuXuXuXuXyX9X9X9X9X6X9X9XyX",
"4X<X:X#X+X+X+X#X:X1X1X<X4X4X9X9X9X4X4X<X6X2XwX2X6XwX2XwXeXeX6X'.q.6 6 8 A } X.=.f...S c 6 6 6 T 4X4X4X4X4XeXtXtX9XtXyXuXyXuXuXuXuXuXuXuXuXuXuXuX9X6X4X4X4XwXtXtX",
"4XtX4X1X@X+X%X#X:X:X4X4X9X9X9X9X4X9X4X6X4X4X9X<X5X4X2X6X6XeX X1.0 6 6 b G } X.=.g...G b 8 6 6 Y :X4X4X4X4X7XrXrX6X4XqXwXwXeXuXuXuXuXuXuXuXuXrXwX0X;X;X;X-X;XqXrX",
"4XrX7X,X1X:X:X:X,X4X4X9X9X9X9X9X9X9X9X9X9X6X9X6X6X6X6X6X6X'.w.9 6 6 c J ) o.=.g.g.o.G b c 8 6 Y *X3X0X4X4X4X4X3X1X1X;X;X0X0X0X0XqXqXrXrXrXrX0X0X;X;X;X;X;X;X1X3X",
"9X9X4X4X4X<X<X<X<X4X4X4X9X9X9X9X9X4X4X4X<X6X4X8X6X9X9X9XeXY.1 5 8 c B ( X.o.g.b.f.o.G B B 8 5 a |.1X3X3X1X1X0X;X=X&X&X$X%X%X%X%X$X%X;X;XqX0X%X;X;X;X;X0X0X1X1X;X",
"4X9X9X9X6X6X6X6X9X4X4X,X:X1X;X:X1X1X4X4X6X4X4X4X6X9X9X9XtXY.1 5 c B A ( o.@.g.b.g.o.G V B 8 , i ].3XqX0X1X0X0X;X&X&X&X&X&X0X&X%X;X;X;X;X0X0X%X;X;X;X0X0X;X0X0X;X",
"4X6X9X9XtX6X9X6X4X4X<X,X:X:X-X:X,X,X4X4X9X9X9X<X9X9XtXtXtXU.9 b B A ( } @.f.x.b.f.o.{ ~ B B 6 a >X<X4X0X0X;X0X0X&X&X&X&X0X0X&X0X;X0X;X;X0X;X;X0X0X;X0X0X;X;X1X;X",
"4X6X9X9XtX6XtX6X4X<X<X<X,X,X,X4X4X9X9X9X9X9X9X9X9XtXtXtXG.g 6 B B A } X.$.x.b.b.g.*.o.( V B c e A.'.4XqX0X;X;X;X&X;X0X;X0X&X&X0X3X;X;X0X0X0X0X0X0X0X0X;X0X1X3X1X",
"9X9X9X9X9XtX9X9X9X9X9X7X<X9X9X9X9X9X9XyXyXyXyX9XtXtXuX5Xd - 6 b B A } X.$.x.x.b.b.x.%.( V B c 5 - Y.4X4X3X1X1X1X0X0X0X3XqX0X0X0X3X0X3X0XrXwXqXrXqX;X;X0XqX3X<X4X",
"uXyXyXyXtXtXtXtX9X9X9X9X9X9XyX9XyXyXyXyXyXyXyXyXtXtX5Xd o , b B V A } } $.b.b.b.b.x.$.} ' A c 5 - Y.9X4X4X0X1X1X0XqX4XwXqXqXqXqX0XrXrXrXrXrXqXrXqX0X;X;X1X4X7X9X",
"uXuXuXuXyXyXyXyXyX9X9X9X9X9XyXyXtXtXtXyXtXyXyXyXyXyX`.+ - 5 B B S ( } %.a.b.b.b.b.b.a.$.} ^ Z 8 - G.<X6X4X4X4X<X4X4X4X9X7X7X7X9X6X9X4XtX4XwX4XqX1X0X1X3X4X9XtXyX",
"uXuXuXuXyXyXyX9X9X9X9X9X9X9X9X9XtXtXyXyXyXyXuXyXuX9XU.1 5 c B B ~ }  .u.h.k.b.b.b.b.b.d.[ ] D 7 : 0.P.6X7X7X7X7X7X9X6X9X9X9X9X9X9X6X9X4XwX3X1X1X1X1X1X4X9X9XtXyX",
"yXyXuXyXyXyXyX9X9X9X9X6X9X9X9XyXtXtXyXyXyXyXyXyXyX~.9.1 8 B B V ~ { D < y 8.k.b.x.x.b.j.7.= - 5 B % >. X<X4X7X7X9X9X9X9X9X9X9XtX9X9X9X6XwX3X,X1X1X1X1X4X9X9XyXyX",
"yXyXuXyXyXyXyXyXyX9X9X8X4X6X9X9XtXtXyXyXyXyXyXyXtXQ.u.R A b 7 B ~ ] = 3.3.< h.b.b.x.v.8.1 K q - B F u.K.}.4X,X7X9X4X9X7X9X9X9X9X9X9X6X6X4X4X3X4X1X,X4X4X9X9XyXyX",
"yXyXyXyXyXyXyXyX9X9X9X6X6X6X<X6XrXtXtXtXtXtX8XQ.E.c.p.o.! b 6 b / ' q u.h.p j.b.b.x.b.i.P  .N , B ' %.d.E.W.[.wX4X7X4X9X9X7X9X9X9X9X6X6X4X3X4X<X3X3X4X<X6XtXyXyX",
"yXyXyXyX9X9XyX9X9X9X4X4X<X6X<X<X<X4X4X4X4X4X{.b.b.a.O.| S b 8 b / o.} a.b.b.k.z.b.b.v.z.f.+.H B v ] | O.l.b.L.7X4X4X4X9X9X9X9X9X6X6X6X6X6X4X3X:X1X,X<X<X4X9X9XyX",
"yXyX9X9X9X9X9X9X9X9X9X4X4X4X4X<X1X1X1X:X1X1X{.J.v.L._.H.P 7 9 b ~ X...p.x.k.y 7.b.b.T C ..o.H c : # $ k c.b.L.9XtX9X9X9X9X9X9X9X6X6X6X<X4X<X>X1X1X<X3X<X4X4X6X9X",
"yX9X9X9X9X6X6X6X6X4X4X4X<X4X<X:X;X;X;X1X3X3X1X[.[.{.7X4XI.p > b S ~ } $.p.x.8.2.1.T 7.#. .~ A w 0.m.n.P.Q.!.{.7X9X9X9X9X9X9X9X9X6X4X6X6X6X<X>X>X<X:X>X>X<X4X4X6X",
"tX6X6X6X6X6X6X<X4X4X4X4X>X4X>X:X&X&X:X1XwX4X4XeXwXtXtXeXeXS.- 0 B V ` } @.a.g.E y < u.=._ N 8 p (.$X$X;X1X3X3X<X7X9X4XwX9X6X6X6X4X4X4X4X4X<X3X>X>X3X1X<X<X4X4X9X",
"6X6X6X6X6X6X6X4X4X4X<X3X>X3X3X:X*X&X1X4XwX6XeXeXeXwX6XtXwXT.2 5 8 B V ` } .... . . ...^ V 7 , f OX$X$X;X;X;X;X1X1X<X4X4X4X4X4X4X,X<X3X>X<X<X>X>X3X4X<X4X4X9X4X4X",
"6X6X6X6X6X6X6X6X<X<X3X>X3X4X>X>X1X1X<X4X4X6XwXeXtXwXeX6XeX>XG.1 : 4 B Z G G } X.} X.! V 8 : e.^.%X&X;X-X;X;X1X1X3X4X4X4X6X4X4X4X<X<X,X<X,X1X<X3X>X4X4X4X4X4X4X4X",
"2X3X3X3X3X4X4X4X<X<X1X1X<X4X3X4X4X4X4X4XeXwX6X6X9X4XeX6X6X6X|.t 3 U G A b 8 N H H S n m N * F.#X&X;X1X,X3XrX4X7XtXtXtXtX9X6XtXeX4X4X<X<X<X4X4X<X4X4X<X4X4X<X1X3X",
"+X@X&X&X*X:X3X4X3X1X1X*X>X4X4X2XwX9X9X6X4X9X6X4X4X3X4XeX9X9X<X-.:.l. .F w 1 = ; 5 ; , n Q ;.).<X:X<X<X4X7XtX4X9XtXtXyXyXyXyXtXtX9X9X4X<X4X4X4XwX<X4X3X3X1X&X&X%X",
"+X@X&X=X=X*X>X3X4X3X2X:X:X3X4X4X4X4X4X9X9X4X4X4X4X4X4X6X4X9X8Xn.,.l.O.6.B.R.m.& j [ s.6.;.P.4X<X<X<X4X4X4XwXrX9XtXyXyXyXyXuXtXyXyXyX9X6X9XwX4X4X3X1X1X:X;X&X%X$X",
"+X#X#X*X2X>X4X4X<X<X>X:X3XqX3X4X<X,X<X4X4X4X4X6X4X6X9X9X9X6X9X4X[.W.E._.6X4X|.~.P.K.W.~.).<X4X4X4X<X<X4XqX3X4X4X9XtXyXyXyXyXyX9X9X9X9X4X4X4X4X1X;X1X&X=X;X&X@X%X",
"@X@X=X3X4X6X6X6X4X<X4X4X4X2X2X3X<X<X:X4X4X4X6X9X9X9X6XtX9X6X6X4X6XwX6X6X6X6X4X3X<X<X<X<X<X4XwX<X4X4X4X1X;X;X;X1X1X4X4X6XtXtXtX9X9X9X6X4X<X4XqX;X&X&X&X;X;X;X&X%X",
"1X1X*X2X4X6X6X6X4X4X4X>X4X>X3X3X<X3X>X3X6X6X6X9X9X9XyX9X9X9X9X9X6X6X6X6X6X6X4X<X4X4X9X9XrXrXrXrX7X7X4X,X-X;X%X%X&X;X0X0XwXeXeXeX6X6X4X>X>X3X2X&X;X#X;X;X;X&X;X&X",
"1X3X3X3X4X6X6X6X6X6X4X3X1X*X1X1X>X>X3X4X<X4X6X6X9X9X9XyX9X9X9X9X9X9X6X6X6X6X9X4X8X6X9X9XyXrXyXtXtX7X7X7X4X;X;X%X&X%X$X&X0XwXwX4X4X4X4X4X4X4X1X:X;X&X&X;X&X;X;X&X",
":X3X6X6X6X6X6X6X6X6X4X3X1X=X&X#X#X:X>X4X<X4X6X9X9X9XyX9XyX9X9X9X9X9X9X4X6X6X6X9X9X9X9XyXyXyXyXyXyXtXtX7X4XwX0X0X&X&X&X%X=X=X1X1X3X4X4X4X4X4X3X1X#X&X#X:X;X1X1X:X",
"#X=X4X2X6X6X6X6XeX6X4XwX3X1X1X:X:X:X>X>X4X4X6X6X9X9X9X9X9X9X9X9X9X9X9X9X6X6X6X4X6X9XyXyXuXuXuXuXyXyXtX9XtXrXrXwXqX0X1X=X1X0X1XwX3X4X4X>X1X3X1X&X#X#X#X*X:X1X:X;X",
"@X#X=X>X2X4X6X6XtX6X6X4XwX4XwX4X<X4X4X9X9X9X9X9X9X9X9X9X9X9X9X9X9X9X9X9X9X9X9X4X<X9XtXyXyXuXuXyXtXtX7XtXtXtX7X7X6X6X6X4X2X3X3X3X<X3X1X:X:X:X:X&X#X#X#X#X#X*X#X#X",
"#X#X*X*X2X2X4X6X9X9XtX6XeXeX6XeXtX4X6XyXyXyXtXtXtXtXtX9X9X9XyXyX9X9X9XtX9X9X9X4X<X:X;X;X;X0X;X0X;X;X4XrXrXtXtXtXtX9X6X6X6X6X6X4X4X4X4X<X:X#X#X@X+X(.+X#X(.#X#X#X",
":X:X*X>X2X4X6X6X6XtXtXeX6X4X6XwX4X4X4XeXtXeXwXwX9X9X9XtX9X9X9X9X9X9X4XtX4X7X<X4X:X-X$X$X$X%X$X$X$X%X;X3X4XrX7X7XtX6XeX6X6X4X6X6X6X6X4XwX<X:X:X#X#X@X+X#X:X*X*X*X",
"3X>X3X2X4X6X6X6XtX6X6XeXeX3X4X3X1X3X&X&X&X1X1XwX6X8X9X9X9X9X9X9X7X9X7X4X4X3X;X#X@X@X+X$X%X%X%X%X$X;X;X;X-X3X4X7X9X6XtX6X6X4X4X6X6X6X4XqX<X:X,X:X:X:X:X,X,X>X>X>X",
"<X6X6X4X6X6X6XeX6XeXeXwXwX1X:X=X&X1X&X&X&X;X;X1X:X:X1X4X<X<X4X<X<X<X>X1X:X#X@X@X%X%X%X%X$X%X%X1X;X&X%X%X&X;X:X1X4X7X9X7X6X4X>X4X4X4X<X4X4X4X4X4X<X4X2X4X<X6X<X6X",
"6X9X6X6X9X6X6XeX4X4X3X3X1X1X%X&X&X&X&X&X;X;X;X&X:X#X#X:X;X:X:X:X*X*X#X#X%XOX+X@X%X%X%X%X%X%X%X%X$X%X%X;X@X@X#X#X1X,X4X<X6X6X4X<X3X3X>X4X<X6X6X<X6X4X4X4X<X6X6X9X",
"9X9X9X9X9X6X6XwX2X3X1X&X&X&X%X&X1X&X&X1X;X;X&X&X&X&X&X#X@X@X+X@X+X+X@X+X@XOX+X@X%X%X%X$X%X$X%X%X$X$X%X&X&X1X;X:X1X1X<X3X3X3X4X6X4X4X4X4X<X<X<X6X6X6X6X2X<X6X6X6X",
"tXyX9XyXtXeX4X4X3X1X=X&X&X&X:X:X1X1X1X0X0X;X:X&X#X;X&X&X#X@X+X+X+X(.+X+X+X+X+X@X&X%X%X%X;X&X%X%X;X$X;X0X1X3X<X4X<X1X3X3X3X>X4X<X4X4X6X4X6X4X4X6X6X6X6X6X6X6XtX6X",
"tX9X9XyX9X9X4X3X3X1X&X:X=X:X:X1X1X1X1X1X1X=X=X1X:X:X:X:X:X#X#X#X#X@X+X@X+X@X@X&X&X&X&X0X1X>X:X:X;X;X:X,X<X4X4X4X4X4X4X<X4X1X>X>X3X6X6X6X6X<X<X6X6XeX9X9XtX9XtXtX",
"tXyXyX9X9X6X<X3X1X&X&X&X:X1X>X1X1X1X1X1X1X=X1X1X3X3X3X3X3X>X1X4X>X*X*X#X&X#X&X&X0X;X1X0X3X>X3X3X3X3X3X4X4XwX9X4XwX4X6X6X6X4X4X3X<X<X<X<X6X6X6X6X6X6X6X6X6XtXtXtX",
"yXyXyX9X6X6X4X:X1X:X:X1X1X1X3X1X1X1X1X3X2X2X3X3X4X4X<X3X4X4X<X4X3X1X1X*X:X#X&X&X&X:X:X1X4X4X4X4X4X4X4X4X9X4X9X9X9X9X6X6X6X<X4X4X<X>X<X4X6X6X6X6X6X6X6X6X6X6X6XtX",
"9X9X6X9X<X<X>X*X*X=X1X1X4X1X3X*X*X:X3X3X4X6X6X6X6X4X4X4X4X>X3X:X:X:X3X>X:X:X:X=X#X=X1X1X<X4X4X4X4X4X4XrX9X9X9X9X6X6X6X6X6X6X6X4X<X<X4X4X<X<X4X<X6X6X6X<X6X6X6X9X"
};
