/* XPM */
static char *_11_resized[] = {
/* columns rows colors chars-per-pixel */
"80 80 235 2 ",
"   c #775A19",
".  c #715237",
"X  c #7E7457",
"o  c #B01A16",
"O  c #9B321A",
"+  c #AE3711",
"@  c #BE3721",
"#  c #C3190C",
"$  c #D5120F",
"%  c #D71E16",
"&  c #EA1606",
"*  c #E7140C",
"=  c #CC251A",
"-  c #EC2708",
";  c #F32A04",
":  c #F63A07",
">  c #E73A17",
",  c #CA3322",
"<  c #CA3A36",
"1  c #E03B36",
"2  c #95540D",
"3  c #AD7A10",
"4  c #826120",
"5  c #D35110",
"6  c #EA4709",
"7  c #FA4304",
"8  c #F64A06",
"9  c #FA4D04",
"0  c #F34409",
"q  c #F65504",
"w  c #F75807",
"e  c #F45C04",
"r  c #E84C15",
"t  c #EF5211",
"y  c #E95914",
"u  c #D26F14",
"i  c #FC6505",
"p  c #FC6B05",
"a  c #F76A08",
"s  c #F77707",
"d  c #FB7403",
"f  c #FB7C03",
"g  c #E76B17",
"h  c #EE7810",
"j  c #D6552E",
"k  c #E04C2B",
"l  c #E55B27",
"z  c #E65D31",
"x  c #CA6B30",
"c  c #E7682A",
"v  c #EA792A",
"b  c #EE7733",
"n  c #B45852",
"m  c #957354",
"M  c #BF7B5F",
"N  c #B37F7B",
"B  c #D14D46",
"V  c #D47747",
"C  c #D5754A",
"Z  c #C87C5C",
"A  c #E66945",
"S  c #D27669",
"D  c #C87E77",
"F  c #E56764",
"G  c #A2861E",
"H  c #DD8B15",
"J  c #DD9A14",
"K  c #EF890E",
"L  c #FB8303",
"P  c #FC8C03",
"I  c #F98708",
"U  c #EC990E",
"Y  c #FC9403",
"T  c #F69B02",
"R  c #FA9B02",
"E  c #F59409",
"W  c #EB8C17",
"Q  c #EF9719",
"!  c #CEAB11",
"~  c #F6A602",
"^  c #F9A303",
"/  c #F7AC07",
"(  c #F2A30A",
")  c #FCBD02",
"_  c #F8B908",
"`  c #EBA310",
"'  c #F3AB17",
"]  c #D18F2E",
"[  c #EE8D3A",
"{  c #EC9133",
"}  c #C7BF2B",
"|  c #E6A030",
" . c #F9C407",
".. c #FACC05",
"X. c #FBD305",
"o. c #FBD209",
"O. c #F8D708",
"+. c #F5CA17",
"@. c #ECD210",
"#. c #E9D71B",
"$. c #F7D513",
"%. c #FBE305",
"&. c #FCEB04",
"*. c #FCE509",
"=. c #F7E80E",
"-. c #FBEB09",
";. c #FCF104",
":. c #FCF10A",
">. c #FCED18",
",. c #FCF213",
"<. c #FBF219",
"1. c #D4C53A",
"2. c #EECE2E",
"3. c #F3E52E",
"4. c #FBF324",
"5. c #FCF62C",
"6. c #FBF634",
"7. c #FCF63D",
"8. c #9D8546",
"9. c #B5A15D",
"0. c #9F8F6F",
"q. c #B5966C",
"w. c #B99070",
"e. c #BAA369",
"r. c #B3A778",
"t. c #CE8955",
"y. c #E89C47",
"u. c #E58B50",
"i. c #DAA253",
"p. c #F1A84F",
"a. c #F5B953",
"s. c #C8897A",
"d. c #D39172",
"f. c #E48567",
"g. c #EA9476",
"h. c #D4B56A",
"j. c #D5CE41",
"k. c #F3CA5D",
"l. c #EED054",
"z. c #E2DC5A",
"x. c #FAE843",
"c. c #FCF94B",
"v. c #F1EC5D",
"b. c #FCFA52",
"n. c #FAFB5C",
"m. c #F6DB62",
"M. c #E8E668",
"N. c #F9E86A",
"B. c #FBFA64",
"V. c #FDFD6C",
"C. c #E5E37A",
"Z. c #FCFD72",
"A. c #FAF876",
"S. c #B09992",
"D. c #B8AA95",
"F. c #ACADAA",
"G. c #C68B86",
"H. c #D99288",
"J. c #C8A986",
"K. c #DBB18A",
"L. c #CAA797",
"P. c #DCAA99",
"I. c #C3B497",
"U. c #C2ACA4",
"Y. c #CAACA7",
"T. c #C9B7AA",
"R. c #D3B8A7",
"E. c #C8BBB9",
"W. c #D4B0B0",
"Q. c #E6B1A2",
"!. c #D8CF91",
"~. c #E1DC8A",
"^. c #E8E785",
"/. c #F3F28E",
"(. c #EBEB95",
"). c #D6C4AD",
"_. c #CEC8B7",
"`. c #D5C6BB",
"'. c #D7D3B8",
"]. c #E4CBAA",
"[. c #EAE8AE",
"{. c #E7E6B8",
"}. c #C5BBC1",
"|. c #CECCC8",
" X c #DAC6C6",
".X c #D6CCC2",
"XX c #D8D3C4",
"oX c #C7C8D9",
"OX c #CFD2D9",
"+X c #D4D5DB",
"@X c #DCD7D9",
"#X c #E8CFC7",
"$X c #E6D6C7",
"%X c #E4DAD4",
"&X c #EEDED4",
"*X c #E2DDDB",
"=X c #E6E6C8",
"-X c #E6E4DD",
";X c #EBE6DF",
":X c #E9E8D9",
">X c #C1C7E2",
",X c #C5CBE3",
"<X c #CACFE4",
"1X c #CCD2E5",
"2X c #D3D6E4",
"3X c #D6D9E5",
"4X c #DBDCE5",
"5X c #D1D7E9",
"6X c #D5DAE9",
"7X c #DBDEE9",
"8X c #E0DFE5",
"9X c #E0DFE9",
"0X c #DFE0E7",
"qX c #DEE1EA",
"wX c #E4E4E6",
"eX c #E8E6E6",
"rX c #E7E8E6",
"tX c #EAE9E7",
"yX c #E4E5EA",
"uX c #E8E7E9",
"iX c #E7E8EC",
"pX c #ECEBEB",
"aX c #F0EFE4",
"sX c #F0EFEC",
"dX c #EFF0EE",
"fX c #F2F1E5",
"gX c #F2F1EE",
"hX c #E3E6F0",
"jX c #E6E9F0",
"kX c #ECEDF0",
"lX c #F0EFF0",
"zX c #EFF0F0",
"xX c #F6F5F1",
"cX c #F8F7F2",
"vX c #FAF9F4",
/* pixels */
"wXwXtXsXxXxXxXxXxXsXpXpXtXtXpXeXtXtXtXtXtXtXtXtXtXtXpXpXpXpXiXtXsXsXsXtXsXtXsXpXpXeXpXpXeXeXeXpXeXpXpXeXeXtXsXsXtXsXsXpXsXsXpXsXpXpXsXpXpXsXpXsXtXtXtXpXeXtXeXeX",
"4XwXpXsXcXcXcXcXxXxXgXpXpXpXpXtXtXtXtXtXtXtXtXtXtXtXtXpXpXpXeXpXpXsXpXpXtXtXpXpXiXiXiXtXiXeXeXpXeXpXpXpXsXtXsXtXtXpXpXpXsXsXsXpXpXpXpXtXpXsXsXsXtXtXeXpXtXtXeXiX",
"8XwXpXgXvXvXvXvXcXxXgXgXsXpXpXtXtXtXtXtXtXtXtXtXpXtXtXpXpXiXeXpXtXtXsXtXtXtXeXeXeXeXyXeXeXiXpXiXeXiXeXpXtXpXpXpXpXpXpXpXpXkXpXsXpXpXwXeXpXpXsXpXtXpXtXpXtXtXeXeX",
"8XyXpXxXvXvXvXcXcXxXgXgXsXsXsXsXpXtXsXsXtXpXgXpXpXtXtXtXtXeXeXeXeXtXtXsXsXsXtXpXeXeXeXeXiXeXeX8X8XeX8X8XyX9XyXwXyXwXiXeXyX9X9XyXyXyXtXpXpXtXtXsXsXsXsXsXpXpXtXeX",
"wXwXiXlXxXxXxXcXxXxXgXxXsXsXsXsXpXsXpXtXsXsXsXpXpXpXtXpXtXtXeXeX*X@X-XpXsXsXsXsXsXpXpXeXyXeXeXeXpXeXeXeXyXwXwXwXiXiXeXeXyXyXyXyXtXpXpXsXsXsXsXgXsXsXgXsXsXsXtXtX",
"wXwX7XyXyXjXkXxXxXxXpXgXsXsXtXsXsXsXsXsXsXsXgXxXgXsXtXtXtXtXyX`.8.t.V P.sXsXsXsXsXsXpXwXwXeXpXeXuXpXeXsXsXpXeXtXtXtXpXsXpXsXpXsXsXgXsXgXgXgXgXgXgXsXgXgXgXsXpXtX",
"wXwX7X7XyXhXyXjXjXkXpXpXsXgXgXgXgXgXgXgXgXgXxXxXgXgXgXgXsXtXtXr.2 J 5 Z tXgXgXgXgXsXlXiXeXeXiXiXeXeXeXiXiXsXtXpXpXpXsXtXsXsXsXsXgXgXgXgXgXgXgXgXgXgXcXgXsXsXsXsX",
"7XqXyXhXyXyXqXyXyXhXtXtXsXgXgXcXxXxXxXgXcXcXcXvXcXcXgXgXsXsXtXi.` #.4 0.eXgXcXcXcXxXsXuXeXiXyXwX9X9X9X9XeXiXpXpXpXpXtXpXsXsXsXsXgXgXgXgXgXgXxXgXgXxXgXgXsXgXsXtX",
"0XwXqXqXyXqXwXyXyXyXyXpXkXxXxXxXxXxXxXxXcXvXcXvXcXcXcXgXsXsXtXi.H   X }.yXgXgXgXcXgXpXpXiXiX8X8X4X4X4X4X8XiXeXpXeXpXpXpXsXsXsXpXpXgXgXgXgXgXgXgXgXgXgXgXgXgXdXpX",
"qXqXyXqXyXqXyXiXyXyXpXpXxXxXpXxXxXxXkXpXxXxXvXcXcXcXcXgXsXsXpXt.u . S.1X4X+XI.).wXtXpXiXiXyXwXwX9X4X8X9X8X9X9XeXiXeXpXpXpXsXsXsXgXgXgXgXxXcXcXcXcXcXcXxXgXgXgXpX",
"iXiXiXiXjXpXtXiXjXpXkXxXxXxXxXpXkXiXhXhXwXyXxXxXxXgXgXgXgXsXpXg.C F.+XqX+XF.] h.@X4XqXwXwXyXyXwX8X9XyXeXeXeXiXiXtXiXpXpXsXsXsXgXsXpXsXgXgXxXcXcXvXcXcXxXcXgXgXpX",
"iXiXpXgXpXxXgXdXxXzXgXxXxXxXpXyX7X6X6X6X1X5X6XwXtXsXtXsXsXsXsXeXeX0XqXqX4XF.} z.OX4X7X7XwXwX9XqXyXeXeXyXeXyXuXuXiXpXsXsXsXgXgXgXxXsXpXpXsXsXgXgXgXgXxXcXcXxXgXpX",
"gXdXgXgXgXcXxXgXgXgXxXgXpXpXyXqX7X6X6X6X5X5X6X7XeXpXpXpXpXpXpXpXpXyXwX9XyXOXj.z.F.@XyXyXyXqX7X7X9X9XyXyXyXyXyXiXeXpXpXsXgXgXgXgXlXpXpXiXyXyXyXqXyXqXyXyXiXdXgXdX",
"cXcXgXcXcXcXxXcXxXxXxXxXpXpXqX7X7X7XqX6X7X7X7X7X8XpXpXpXpXpXpXsXsXpXiXyXyX7X~.~.|.@XiXjXiXqXqX7X7X9X9X9XyXyXyXiXyXiXpXpXsXpXsXsXpXpXtXwX0XqXqXqXqX7X4X4X7XrXtXdX",
"cXcXcXcXcXgXxXcXcXgXgXgXpXyXqXqXqXqXqX7X7XwX7XyX9XeXeXuXpXpXpXsXsXsXpXiXyXyXwXiXiXiXjXiXkXjXyXyXyXyXyXiXeXiXiXiXiXeXeXpXpXpXpXpXtXtXiXwX0XqXqXqXqXqX7X6X6X0XyXpX",
"cXcXcXcXcXgXgXxXcXgXzXtXwXqX7X7XqXqXqXqXqX7X9XyXeXpXiXiXpXiXpXsXsXsXsXsXyXtXpXpXiXzXpXkXpXjXpXiXiXiXiXiXiXiXpXiXiXiXeXiXeXeXiXeXrXtXwXwX0XqXqX7XqXqX0X0X4X4XwXyX",
"cXcXcXcXxXgXgXxXxXpXpXyXwX4XqXqX4XwXyXyXqXqXyXyXiXiXiXpXpXpXpXsXgXgXcX$Xh.~.=XdXsXpXsXsXlXpXkXiXiXiXpXiXuXpXpXuXuXpXiXiXpXpXeXeXrXwXwXwXwXwXyXyXqXwXqX7XwXyXrXeX",
"xXxXcXcXcXxXgXgXdXpXtXyXwXwX7XwXqXwXwXiXyXyXyXyXyXiXtXtXiXpXsXsXgXgXgXK.! =.!.aXsXsXsXsXlXsXlXpXsXsXsXlXlXlXlXsXlXuXpXiXeXpXpXiXrXwXrXwXrXrXtXpXpXpXpXpXpXtXtXpX",
"cXcXcXcXcXcXgXgXpXtXtXwXyXtXyXyXyXyXyXyXyXiXiXyXeXtXpXtXiXsXsXsXgXgXxXE.8.4.e.XXgXgXsXsXlXgXlXsXlXgXgXlXlXsXsXsXlXuXpXpXpXpXeXwXwXrXrXtXtXpXpXpXpXpXpXgXgXgXgXgX",
"cXcXcXxXgXgXgXdXpXtXeXtXiXiXpXyXpXyXpXiXtXpXpXiXtXtXpXtXsXsXsXsXgXgXxXE.m 3 5 t.`.sXxXxXxXlXxXsXgXgXsXgXgXsXlXsXlXlXlXpXpXeXwXwXwXrXtXtXtXpXpXpXxXgXpXxXgXgXgXxX",
"vXcXcXcXgXgXdXpXtXtXpXpXtXpXpXfXpXpXpXpXpXdXpXpXpXsXtXpXgXpXgXgXgXsX%XG.@ + : c h.K.].lXgXgXxXgXsXsXsXsXsXsXsXsXsXsXiXeXwXwXwXwXrXtXtXpXpXsXfXpXgXgXgXgXgXgXgXcX",
"vXcXcXcXxXdXdXfXtXtXtXsXpXsXpXtXpXpXsXgXgXgXgXdXsXgXsXgXsXgXpXgXgXaXN o & 7 8 h +.w f.eXgXsXsXsXsXpXsXlXsXsXpXpXpXiXiXeXeXwXyXiXtXtXtXpXtXtXgXsXpXgXgXgXgXgXxXxX",
"vXcXcXcXgXgXdXpXpXsXsXsXgXsXgXgXgXgXpXgXgXgXgXgXgXpXfXgXsXpXpXdXsX#X< $ & : p s w 7 t g.pXsXpXpXpXpXpXsXuXiXiXiXeX9XyXeXeXyXwXpXpXtXtXtXtXsXgXgXxXgXgXgXgXgXxXcX",
"cXcXcXcXgXdXgXgXsXgXgXgXgXgXgXgXgXgXgXgXgXgXgXgXgXsXpXpXpXgXgXgXsXY.$ & ; w I s 7 : z Q.eXeXyXwXwXwX9X9XyX9X8XwX8XyXwXwX9XeXiXsXgXpXgXsXtXtXpXgXpXgXgXgXgXgXgXxX",
"cXcXcXcXgXgXgXgXgXgXgXgXgXcXgXgXgXgXgXgXgXgXgXgXgXgXpXpXdXgXgXgXsXS.# ; 9 f P f w l H.*X4X4X3X3X3X3X2X3X2X2X2X7X4X9X9X8XpXpXsXsXgXgXgXgXpXpXtXtXsXsXsXsXsXsXsXsX",
"cXcXgXgXgXgXgXgXgXgXgXgXcXgXgXcXgXcXgXcXgXgXgXgXgXgXpXgXdXgXgXgXxXW.= : I P R R Q L.*X4X3X3X2X<X<X>X>X>XoX>X,X<X2X3X3X4XpXxXxXgXgXgXgXgXgXgXsXtXeXtXtXtXpXiXpXpX",
"cXgXgXgXpXpXpXdXgXgXgXcXgXcXgXcXgXcXcXgXgXgXgXgXgXgXgXgXgXxXxXxXcX#Xk s  .Y  . .E R.9X3X2X1X2X5X<X<X,X,X>X>X,X,X,X<X,X6XyXxXcXxXgXgXgXcXgXgXgXsXtXtXeXwX8XwXeXiX",
"gXgXgXdXpXpXpXdXgXgXgXgXgXcXgXgXgXcXgXcXgXgXgXgXgXgXgXgXxXxXxXcXcX&Xl f  .Y X.$.W R.9X3X2X2X2X5X3X3X5X<X<X,X,X,X,X,X,X1X7XiXxXxXxXxXcXcXgXgXgXpXtXsXpXwX8X8XwXeX",
"gXcXgXgXgXgXpXpXpXpXsXgXgXgXgXgXgXgXgXgXgXdXgXgXgXgXxXxXgXxXxXxXcX&Xz a Y Y o.O.Q J. X4X2X2X5X6X3X2X5X3X5X5X1X<X,X<X<X,X<X3XyXlXgXxXcXgXgXgXsXtXsXpXtXeXeXyXiXiX",
"gXgXgXfXgXpXgXpXfXgXgXgXgXgXgXgXgXgXdXpXpXpXpXtXtXpXiXxXxXxXxXxXxX&Xz a Y Y X.o.K > H.1X1X5X3X3X7X7X7X7X7X7X3X6X3X5X5X2X<X6X3X9XiXdXgXgXgXsXsXsXsXpXiXpXeXiXpXpX",
"gXgXdXpXpXsXgXsXgXgXgXgXcXgXgXgXgXpXpXiXwXyX0X0XwXwXwXtXgXxXxXxXgX&Xz I  .Y X.o.I 0 F *X3X3X6X3X7X7X4X7X7X9X9X9X8X7X4X4X4X6X6X3X4XyXpXpXsXsXsXpXpXiXtXeXyXeXeXwX",
"pXtXpXpXgXpXpXfXsXgXgXgXgXgXsXpXtXrXqX0X4X4X7X4X4X4X0XyXyXtXpXxXgX$Xc I ..T X.O.P 9 A }.9X4X6X6X7X7X7X9XwX8X9X8XwXyXeXyXiXeX7X3X7X4XwXwXeXeXeXpXeXeXpXwXwXwXwXwX",
"gXgXgXgXgXgXpXgXsXsXgXsXpXyXyX8X4XqX7XqX7X7X7X7X9X9X9XyX9X9XjXhX8XR.v L R Y X.o.P q - F iXtXyXyXiXyXiXyXiXeXyXyXwXeXeXeXsXpXiXeXtXwXwXwXwXyX0X0X4X4X4X3X3X4XwXeX",
"xXxXxXxXgXgXgXpXsXsXsXiXwX7X6X6X5X6X7X7XwXqXyXhX9X9XiX9XkX9X9X9XL.j a L Y Y X.X.Y I 0 1 eXgXxXgXxXsXkXpXsXsXtXpXeXiXpXpXsXsXsXsXpXpXtXrXtXwXwX4X4X3X3X2X5X4X8XwX",
"gXxXcXcXcXgXgXgXsXsXpXiX7X4X5X3X6X6X7X7X7XyXyXqXyXyXiXjXkX9XhXG.@ w s P Y Y X.X.Y Y w > Q.gXsXgXsXgXxXxXgXgXgXsXpXpXsXsXsXsXsXtXsXpXpXpXtXtXiXwXwXwX4X4X3X3X3X3X",
"4X7XyXtXgXgXpXpXsXeXeXiX7X6X6X3X3X7X7X7XqX7XyXqXyXjXyXjXkXpX9XB & d P R ^ R o.O./ Y a q p.tXtXpXpXpXgXxXxXgXgXgXsXgXsXgXsXsXgXsXpXgXgXpXpXdXpXtXeXeXwX4XwX4X4X4X",
"1X1X2X4XwXwXwXpXeXtXeXyXyX7X6X3X5X3X6X0X9X9XyXyXyXyXjXiXkXjX%X< & p P ) %.T X.&.*.^ p 6 w.yXeXiXkXkXlXsXlXsXgXxXcXgXcXcXxXcXcXgXcXcXcXxXgXdXzXzXpXpXpXtXtXtXyXwX",
"4X5X2X2X2X3XwXwXeXeXiXtXyXyX7X6X3X3X6X7X7X9XyXyXiXyXiXjXkXuXW.j : d P ) &.X.6.5.%.^ f t , W.eXiXyXpXiXpXlXpXgXsXxXcXcXcXcXcXcXcXvXvXcXvXcXxXdXzXgXgXpXgXpXtXpXjX",
"yXyX3X2X2X2X4XqXwXwXyXtXtXtXtXyXyXyXwX0XeXiXiXsXuXiXuXkXkX8XM r i d P ) &.;.c.c.=.^ P w - W.eXiXpXpXiXpXpXlXsXxXxXcXcXvXvXvXcXcXvXvXvXvXvXvXvXvXgXgXgXgXxXzXxXxX",
"pXtXwX4X3X1X3X4XwX0XyXpXpXsXgXgXgXpXtXtXuXuXkXuXsXpXiXlXkX@X$ 0 d f Y ) ;.>.b.c.*.^ L i 0 D *XpXpXpXpXpXpXsXxXxXgXxXcXcXcXvXvXvXvXvXvXvXvXvXvXvXgXpXpXpXkXpXxXxX",
"pXxXpXwX3X5X4X4XwXwXtXpXgXgXgXpXpXgXpXgXpXpXpXpXtXsXpXpXtX`.* 8 f P Y ) ,.b.V.c.=.^ P p 7 O U.pXyXpXpXpXpXdXzXzXsXpXjXkXkXlXvXvXvXvXvXvXvXvXzXkXqXhXqXqXqXyXjXzX",
"pXdXdXiXwXwXwXwXiXpXdXgXgXgXxXgXgXgXgXgXsXgXsXgXpXsXsXsX-XW.> 9 f Y Y ) <.V.Z.c.&...R i 7 # G.eXpXyXjXpXpXpXpXiXyXyX7XhXhXhXhXhXjXhXzXzXzXzXhXhXqXqXqXqXqXqXyXiX",
"gXgXpXpXpXtXiXpXpXpXpXdXgXgXgXgXgXpXpXpXtXsXfXpXsXgXgXpX`.s.t i f Y ^  .<.V.V.c.&.;._ p 9 ; S tXiXiXiXiXjXyXhXqX9X7X6X6X6X6X5X6X5XqXqXhXjXhX6X7XqXqXqXhXyXyXyXqX",
"dXsXgXgXsXsXsXpXdXpXtXrXwXwXqXwXyXyXpXpXsXtXsXpXsXgXsX.XD * i d f R O.&.,.V.Z.c.;.;. .P d 9 f.@XiXiXhXhXyXyXhX7X4X7X7X7XqXhX6XqX6XqXqXqXhXqX6XhXqXqXhXhXqXhXhXqX",
"tXsXgXgXgXgXgXsXpXtXtXrX0X0X0XwXrXtXpXpXgXgXgXtXgXgXpXU.S : p L P R O.;.,.V.Z.V.c.:. .P d p u.D.eXpXjXyXhXqXhXhX7X6X7X7XhXhX7XhXqXhXqXqXhXqXqXqXhXqXhXhXqXqXyXqX",
"sXsXgXgXgXgXgXsXpXtXtXtXrXtXtXdXpXgXgXgXgXgXgXgXgXdXXXD j 7 d L R _ %.;.,.V.Z.Z.B.,. .Y L f j n &XpXpXkXhXyXqXqX7XhXhXqXhX6XqXhXiXqXqXhXhXhXhXhXhXhXhXqXhXyXyXyX",
"gXgXgXgXgXgXcXgXgXgXgXgXpXgXgXgXgXgXgXcXcXcXcXgXcX-XY.B - 7 d P ~ &.;.:.4.V.Z.Z.V.<...R Y L 0 % #XsXpXpXyXyXyXqXhXhXjXyXjXjXhXhXiXhXhXjXzXkXjXzXjXqX7XhXjXiXtXpX",
"vXvXcXcXcXgXcXcXgXgXgXgXgXgXgXgXcXcXcXcXcXcXcXcXvX:XU.A 9 p L Y ~ &.;.5.B.V.Z.V.B.<.&.X.Y f w >  XsXsXpXpXjXyXyXjXiXiXpXjXjXkXhXiXzXzXzXzXzXjXzXjXhXhXqXyXpXdXgX",
"vXvXvXcXcXcXcXcXcXgXgXcXgXgXcXcXxXxXcXxXxXcXcXcXcX-XT.u.p d Y _ X.-.6.b.Z.Z.Z.Z.V.c.4.%...R i 6 L.-XsXsXdXtXpXpXpXdXpXgXdXdXdXdXpXgXdXdXpXkXpXjXiXyXyXiXpXgXgXcX",
"vXvXvXcXcXcXcXgXcXgXgXgXgXgXgXgXxXxXcXcXvXcXcXgX:X'.D.[ f L Y ..&.$.2.k.N.Z.Z.Z.Z.V.x.$.' E d y q.).-XsXdXpXpXdXdXgXgXgXgXgXgXgXgXgXdXdXkXpXyXyXyXyXyXpXgXcXcXcX",
"cXvXvXcXcXcXcXgXgXsXgXgXsXgXgXgXxXcXvXcXxXgX:X_.D.0.8.Q Y Y T ..*.R : c a.Z.Z.Z.Z.Z.l.[ ; e s E 3 8.I.tXaXdXpXgXgXgXgXgXgXgXgXxXgXgXgXsXkXiXyXwXwXyXyXpXgXgXcXcX",
"cXcXcXvXcXcXcXcXgXgXgXsXsXfXgXgXgXxXcXvXcX=X^.^.M.z.#.( Y R ..&.+.5 p.{ l A.V.Z.Z.Z.y.g ' 6 w R @.z.C./.(.=XpXdXgXpXpXgXgXgXgXgXgXgXpXsXpXpXpXiXyXiXpXpXgXgXgXcX",
"cXcXcXcXcXcXcXcXxXgXgXsXsXsXtXsXkXgXxXxXxX=XA.A.n.6.:./ R Y ) %.$.H m.k.y.A.Z.Z.Z.Z.a.| *.U K ^ %.4.b.Z.Z.{.rXpXpXdXpXgXgXgXgXgXgXgXgXsXpXpXpXtXiXiXpXtXpXxXcXcX",
"cXcXxXcXxXgXcXgXgXgXpXpXtXsXtXpXpXpXpXpXtX=X(./.M.#.#.( P Y Y ..&.-.b.A.A.m.N.Z.A.N.N.c.-.*._ T #.3.v././.=XpXdXpXpXpXgXgXgXgXgXsXsXsXsXpXpXyXeXyXiXpXtXpXgXcXgX",
"cXgXcXgXgXgXgXgXgXgXsXpXpXpXpXeXwXyXyXyXyXyXeXeX0XXXe.H d f P ..;.-.b.Z.N.6 k.A.N.v ' -.-./ T W I.:XaXfXxXgXgXgXxXgXgXgXgXgXgXgXsXsXsXpXpXtXeXyXyXwXeXtXpXpXsXgX",
"cXgXgXgXfXsXsXsXpXpXpXpXtXpXtXwXqXqXqXyXyXiXjXiXdXrXXXe.x q P /  .-.4.c.N.a.[ b b a.2.%._ Y ] h.+XqXwXiXgXgXdXgXgXgXgXgXgXgXgXgXsXsXsXsXpXtXeXeXtXrXeXtXpXpXpXsX",
"xXgXsXsXsXsXsXtXpXpXpXtXpXiXeXwX7X7XwXyXpXkXpXlXkXxXpX`.S 7 I Y ^ X.&.<.c.c.Q a h 3.3. .Y d f.oX5X5X5XqXhXyXiXpXdXgXpXlXgXsXsXpXpXtXpXpXpXpXiXeXeXiXiXtXtXtXpXgX",
"sXsXsXsXsXsXsXpXsXpXpXiXeXeXiXwXwX7XyXiXkXsXkXlXkXkXxXsXQ.r p f P T o.*.=.;.-.&.-.&._ Y I y d.3X5X5X5XqXqXqXwXqXwXiXpXpXpXpXpXpXtXeXtXyXtXtXeXeXiXtXtXpXpXgXpXpX",
"sXpXsXlXsXsXsXsXtXeXeXeXeXpXpXeXyXyXtXpXpXsXlXlXxXkXxXpXeXR.y 8 e Y T ~ _ :.;.:.%./ E s w M }.5X5X7XqX0XqXqXyXiXpXiXpXpXsXpXpXpXtXiXtXtXiXtXyXiXiXpXpXpXpXgXpXpX",
"iXyXeXiXiXpXpXpXtXiXyXyXiXpXiXpXpXpXpXpXsXkXlXsXgXpXlXpXsXsXP.x u _ ~ f a K ( ( K a E J V E.5X4XqXqXyXpXiXpXpXpXxXxXxXxXgXsXxXxXdXpXtXtXtXtXpXtXpXtXpXtXpXyXyXyX",
"3X4X4X7X8XwXiXpXiXyXyX8XeXpXuXpXpXxXdXsXpXgXgXpXpXpXpXkXdXgXgXJ.G 3._ s 6 l g g 6 i ' 2.D.@XrXyXwXrXpXpXxXpXzXxXgXxXcXcXcXxXxXxXxXsXpXtXpXpXkXpXpXpXiXyXyX7X7X7X",
"3X2X4X4X9X8XeXiXpXiXeXwXwXiXuXpXpXtXpXgXgXpXpXpXpXpXpXpXdXdXgXXXr.M.<.! q.@X`.q.G O.6.M.T.rXtXpXtXtXtXpXpXkXdXgXcXcXcXcXcXvXxXcXxXxXgXpXxXpXpXpXiXeXyXyXqX7X6X5X",
"2X3X4XyXeXpXpXpXpXeXpX8XiXiXpXpXtXiXtXpXpXpXpXsXpXsXgXxXgXfXdX;X'.V.4.1._.pXrX'.9.#.7.C.'.rXpXpXpXtXpXtXiXiXpXpXgXgXcXcXcXcXcXgXxXgXsXpXpXpXpXyXqXyX7X9XqX7X6X6X",
"3X7X9XyXpXpXsXsXpXtXpXpXpXiXuXiXtXtXiXtXpXpXpXgXgXgXsXxXgXgXdXgX:X[.C.[.tXpXtXtX@X~.(.{.-XdXpXpXpXpXtXiXqXqXqXyXiXpXkXsXxXxXgXxXxXgXpXtXtXpXjXyX7X7X7X7XqXqX7X6X",
"yXyXwXwXpXsXsXpXpXpXpXeXpXeXiXiXiXeXiXiXpXsXsXgXgXgXcXgXgXgXgXfXgXpXtXpXgXsXsXtXtXtXfXpXzXzXzXdXdXdXpXrXqXqX6X6X6XhXhXjXkXlXlXsXsXsXpXeXiXeXyX9XqX7X7XqXqXqX7X7X",
"iXyXiXiXpXsXsXsXlXsXpXiXyX8XwXyXeXeXtXpXpXpXsXsXgXgXgXcXcXgXgXsXgXgXfXgXsXsXsXsXsXsXgXcXcXzXxXxXxXgXdXdXpXqX7X6X6X7X6X6XhXkXkXpXpXpXpXpXsXeXyXyX7X7X7XqX7XqXwX4X",
"yXeXpXlXsXsXsXsXgXpXuXiXyX9X7X4X4XwXeXpXtXpXsXgXgXgXcXgXcXgXgXgXgXgXpXgXsXsXsXsXgXgXgXcXvXxXvXxXxXxXxXdXkXpXjXhX7X7X3X7X7X9XiXiXpXpXpXpXpXpXiX9X7X7X4XwXqXyXyXyX",
"4X8XuXlXgXsXsXsXgXsXsXkXiXyXyXwXwXwXeXiXpXpXsXsXgXgXgXgXgXgXgXgXgXgXgXgXsXsXfXpXsXgXgXcXvXvXvXvXcXcXxXgXxXzXzXkXjXjXyX9XyXyXyXjXyXpXpXeXyXpXyXqX4X7X4X8XqXyXwX0X",
"4X4X9XeXuXpXsXsXxXlXsXpXpXpXkXpXtXpXpXgXgXgXgXgXgXgXgXgXgXgXgXgXgXgXgXgXgXgXgXpXtXgXxXxXvXvXvXxXxXxXdXgXxXxXdXdXsXsXpXpXuXyXiXyXtXiXyXwXqXwXwX4X4X4X4X4X4X8X4X4X",
"4X4X8X8XeXiXpXsXgXgXgXgXgXkXsXlXlXpXlXcXcXcXxXxXcXgXcXgXcXgXgXcXgXgXgXgXgXgXgXsXtXwXyXqXqXhXhXhXqXqXkXzXzXxXxXgXxXgXlXsXsXsXsXpXpXpXpXtXwX0X7X3X3X5X3X+X3X4X4X4X",
"8XwX8XwXeXpXsXsXgXxXxXlXlXkXsXsXpXpXiXsXsXlXkXlXgXgXgXcXgXgXgXgXgXgXgXzXpXpXtXtXwX0X5X5X5X6X5X5X5X6XqXiXdXzXdXxXxXsXxXsXsXsXsXsXsXsXpXkXyXwX0X4X4X4X+X4X8X8X8X8X",
"eXiXpXiXpXsXsXsXgXgXsXgXpXiXpXiXpXiX9X7XyXyXhXiXsXsXgXgXgXgXgXgXgXgXpXpXpXkX7X4X4X3X1X5X5X6X6X6X5XqX0XqXqXiXpXpXsXxXsXsXsXpXsXsXsXsXpXiXtXtXrXwXeXwXwXwXwXeXeXtX",
"tXsXsXpXsXsXsXlXsXgXlXkXiXyXyX7X7XyX7X7X7XhXyXyXwXwXyXtXpXtXpXtXeXeXeXyXwX7X3X3X6X6X6X6X6X6X6X7XqXqX6X6X7X7XwXiXpXdXgXpXsXpXiXpXpXpXpXeXpXtXpXpXtXpXiXtXtXsXtXsX",
"sXgXsXsXsXsXsXlXkXuXiXyXyXyX7X7X7X7X7X7X7XqX7X7XwX4X4XwXqXwXwXwX8X8X4X4X6X1X2X3X6X6X6X6X6X6X6X7X5X6X5XqX3X4X4X4XwXiXpXpXpXsXpXtXiXiXeXpXpXsXpXpXsXpXsXpXtXsXsXsX",
"gXgXgXgXgXgXlXuXuXiXyX9X7XqX7X7XwX9X7XyXqX7X7X7X4X7X7X4X4X3X5X3X3X2X3X3X5X1X2X2X6X6X6X5X6X5X5X6X5X5X6XqXqXqX0XwXyXyXrXiXiXeXpXsXpXpXpXpXtXtXtXpXsXsXsXiXtXsXsXgX",
"xXcXgXcXxXsXsXpXiXyX7X7X7X7X9XyXyXyXyXhXhXqX8X7X4XqX7X7X4X3X2X3X2X1X+X2X3X2X3X3XqX6X6X6XhX6X6X7XqX6XqXqXyXiXtXpXiXiXtXiXiXeXpXpXpXpXpXsXsXsXpXsXsXsXsXsXsXgXgXsX",
"xXxXgXxXgXgXpXiXiXyX7XwX7XyX8XyXyXyXyXyXyX9X7XwXwXyXwXwX4X4X4X4X4X3X2X3X2X3X4X7XqXqX6XhXwXeXwXwXqXqXyXiXiXpXpXpXpXtXpXpXyXtXtXeXpXsXsXsXsXtXtXsXsXsXsXxXsXxXxXxX",
"xXxXcXxXgXsXpXiXyX9X7X7XyXyXeXyXyXyXyXyXyXyXyXiXiXiXiXiXeXiXiXpXeXwX8X4X7X4X7X7XhXqXyXhXiXiXiXiXiXiXtXpXpXpXgXpXsXpXgXpXsXpXtXiXeXeXtXeXsXsXsXsXsXsXgXsXsXxXxXxX",
"xXcXcXgXsXtXpXyXwXyXwXwXyXiXeXwXyXyXyXyXeXiXiXpXpXpXpXeXpXtXeXpXiXyXyX8X8X7X7X7X9XwXwXyXpXpXpXtXpXpXpXpXgXpXgXgXgXgXsXsXsXpXpXpXtXeXpXpXsXsXsXsXsXsXsXsXsXsXgXxX",
"gXgXgXsXpXtXeXwX9X9XyXyXiXiXiX8X9XyXyXpXpXpXsXsXpXpXpXpXpXeXiXwXwXwXiXwXwXwXwX9X4X7XwXyXtXpXpXpXpXpXpXzXgXgXgXgXsXsXsXsXsXpXsXpXtXtXpXpXtXtXpXtXsXsXsXtXsXsXsXsX"
};
