/* XPM */
static char *ffffffffff1741103425[] = {
/* columns rows colors chars-per-pixel */
"80 80 250 2 ",
"   c #06162A",
".  c #04152D",
"X  c #051A33",
"o  c #0A1B33",
"O  c #071B3A",
"+  c #111E31",
"@  c #0F2036",
"#  c #16263A",
"$  c #0C1D42",
"%  c #121F43",
"&  c #0E2448",
"*  c #122145",
"=  c #14254B",
"-  c #16294C",
";  c #19294F",
":  c #0B2A57",
">  c #152A52",
",  c #162C57",
"<  c #192A52",
"1  c #0A3256",
"2  c #19325A",
"3  c #2C3949",
"4  c #233959",
"5  c #0E366B",
"6  c #163867",
"7  c #253C65",
"8  c #29435C",
"9  c #374757",
"0  c #17466B",
"q  c #0F4C75",
"w  c #184877",
"e  c #185579",
"r  c #294B64",
"t  c #284569",
"y  c #344B68",
"u  c #29526C",
"i  c #39546D",
"p  c #2D4672",
"a  c #274B76",
"s  c #354B75",
"d  c #334C74",
"f  c #26567A",
"g  c #365678",
"h  c #3B557B",
"j  c #3D5A7E",
"k  c #35667D",
"l  c #495869",
"z  c #455B7A",
"x  c #535F72",
"c  c #54646E",
"v  c #4B677B",
"b  c #566778",
"n  c #66717A",
"m  c #195987",
"M  c #14558A",
"N  c #165C94",
"B  c #265B87",
"V  c #28578B",
"C  c #3C5B82",
"Z  c #395A85",
"A  c #16698A",
"S  c #126E8F",
"D  c #196894",
"F  c #197398",
"G  c #2A6686",
"H  c #366885",
"J  c #256B96",
"K  c #366B93",
"L  c #27739B",
"P  c #357893",
"I  c #0F72AE",
"U  c #247BA3",
"Y  c #2779A7",
"T  c #3479A5",
"R  c #415C82",
"E  c #455D84",
"W  c #496787",
"Q  c #45648A",
"!  c #49668A",
"~  c #55758A",
"^  c #50718D",
"/  c #496893",
"(  c #45779A",
")  c #5A7997",
"_  c #6B7A86",
"`  c #637E9C",
"'  c #497EA0",
"]  c #0C879E",
"[  c #0C88A1",
"{  c #1487A5",
"}  c #1691AF",
"|  c #1696B4",
" . c #2B83AC",
".. c #3190B3",
"X. c #12A6BD",
"o. c #1BA0BC",
"O. c #2FA5BB",
"+. c #468696",
"@. c #5A839A",
"#. c #76828A",
"$. c #69889A",
"%. c #6E8C98",
"&. c #758C99",
"*. c #498AAB",
"=. c #5A87A4",
"-. c #4B92B4",
";. c #569BBB",
":. c #6A94A6",
">. c #6990AB",
",. c #7798A9",
"<. c #7C9CB2",
"1. c #5AA3BD",
"2. c #6CA6B4",
"3. c #74A7B8",
"4. c #3A9EC7",
"5. c #0DABC3",
"6. c #11B2C8",
"7. c #29B7C8",
"8. c #2EB4CB",
"9. c #33BBCC",
"0. c #54B2C8",
"q. c #74ADC2",
"w. c #6EB1C7",
"e. c #19C0CB",
"r. c #2AC1CE",
"t. c #2CC8D8",
"y. c #35C7D5",
"u. c #37CCD8",
"i. c #36DAE3",
"p. c #46CDD9",
"a. c #5ACDD9",
"s. c #55D4DD",
"d. c #5AD1DB",
"f. c #79C8D4",
"g. c #69D5DC",
"h. c #79D4DD",
"j. c #52DBE4",
"k. c #70DEE4",
"l. c #48E6EA",
"z. c #59E4EB",
"x. c #6AE6EA",
"c. c #72EAEF",
"v. c #78F2F6",
"b. c #848E97",
"n. c #8D9596",
"m. c #879AA7",
"M. c #959EA7",
"N. c #9C9DA1",
"B. c #899EB2",
"V. c #84A2AD",
"C. c #98A3A9",
"Z. c #88A7B4",
"A. c #98ABB4",
"S. c #97B1BA",
"D. c #A5A8AA",
"F. c #A4ADB5",
"G. c #A9B4BA",
"H. c #B4B7B9",
"J. c #88B5C5",
"K. c #8CBDCC",
"L. c #94BBC7",
"P. c #94BFD2",
"I. c #A5BCC5",
"U. c #B4BCC2",
"Y. c #8EC3CD",
"T. c #96C3CD",
"R. c #9AC4CE",
"E. c #8BC5D4",
"W. c #94C5D3",
"Q. c #9BC5D1",
"!. c #9CC9D4",
"~. c #95CAD8",
"^. c #9CCCDA",
"/. c #8AD5DB",
"(. c #97D7DE",
"). c #9CD1DE",
"_. c #A7C5CB",
"`. c #B8C3C9",
"'. c #BCC9CE",
"]. c #A3CBD4",
"[. c #AACCD4",
"{. c #A5CCD8",
"}. c #B8CCD2",
"|. c #A8D3DB",
" X c #B5D4DA",
".X c #88DCE3",
"XX c #99DAE2",
"oX c #A6DDE3",
"OX c #B8DBE2",
"+X c #89E5EA",
"@X c #98E5E9",
"#X c #83EDF1",
"$X c #97EEF2",
"%X c #87F1F5",
"&X c #9AF4F5",
"*X c #ABE3E8",
"=X c #B8E3E7",
"-X c #A1EDF3",
";X c #A6F3F6",
":X c #B9F4F6",
">X c #C3C7CA",
",X c #C2C9CB",
"<X c #C3CBD2",
"1X c #CBCED6",
"2X c #CDD2D5",
"3X c #C8D7DA",
"4X c #D6D7D9",
"5X c #E1E0DE",
"6X c #C9DBE3",
"7X c #D3D6E4",
"8X c #D6DAE4",
"9X c #DBDCE5",
"0X c #D1D7E9",
"qX c #D5DAE9",
"wX c #DCDEE9",
"eX c #E0DFE6",
"rX c #CAE3E6",
"tX c #C6E5E8",
"yX c #CCEBED",
"uX c #D4E2E4",
"iX c #DEE1E6",
"pX c #D3E5E9",
"aX c #DEE1EA",
"sX c #D3EAED",
"dX c #DCECED",
"fX c #D2EEF0",
"gX c #DAEEF0",
"hX c #C8F3F4",
"jX c #D5F5F5",
"kX c #DDF2F3",
"lX c #E4E4E6",
"zX c #E8E6E7",
"xX c #E7E8E6",
"cX c #EAE9E7",
"vX c #E4E5EA",
"bX c #E8E7E8",
"nX c #E7E8EC",
"mX c #ECEBEB",
"MX c #F0EFEC",
"NX c #EEF0EE",
"BX c #F2F1EE",
"VX c #E8ECF0",
"CX c #E2F2F3",
"ZX c #ECF4F4",
"AX c #E8F8F7",
"SX c #F6F6F5",
"DX c #F8F7F2",
"FX c #FAF9F4",
"GX c #F7F9F8",
"HX c #F5FAF9",
/* pixels */
"lXlXcXMXMXDXFXDXBXMXMXmXcXcXcXcXcXcXcXcXcXcXcXcXcXcXcXMXMXmXmXcXMXMXMXcXMXcXMXmXmXcXcXmXvXbXbXmXbXcXmXcXcXmXMXMXmXMXMXmXMXMXmXMXMXmXmXMXmXMXmXMXcXcXcXmXcXcXzXzX",
"9XlXmXMXDXFXDXDXFXBXMXMXmXmXmXmXcXcXcXcXcXcXcXcXcXcXMXcXcXmXzXmXmXmXmXmXcXcXmXmXbXbXmXbXbXbXbXcXbXcXmXmXmXmXmXcXcXmXmXmXmXMXMXMXmXmXmXbXmXmXMXMXcXcXzXmXzXcXzXzX",
"eXlXmXDXFXFXFXFXFXDXMXMXMXMXcXmXcXcXcXcXcXcXcXcXMXcXcXcXcXcXxXcXmXcXMXcXcXcXcXzXzXzXlXzXnXnXcXbXzXcXmXnXbXcXmXmXcXmXcXmXmXVXmXmXmXnXlXzXmXmXmXcXmXmXcXMXcXcXzXzX",
"eXvXcXBXFXFXFXFXFXBXMXBXMXMXMXMXMXcXMXMXcXcXMXMXcXcXcXcXcXxXxXcXzXcXcXMXMXMXcXmXzXzXzXzXbXbXbXlXeXcXeXeXlXlXvXvXbXvXbXnXvXwXvXnXvXmXbXmXMXcXmXMXmXMXMXMXMXmXcXzX",
"lXlXnXNXDXBXSXSXSXBXBXBXMXMXMXMXcXMXMXcXMXMXMXMXMXcXcXMXxXcXcXcXcXcXMXMXMXMXMXmXcXcXcXxXzXzXzXzXbXbXzXnXlXlXlXlXbXnXbXbXnXlXvXvXbXmXmXMXMXMXMXMXMXMXBXMXMXMXcXcX",
"lXlXwXvXvXVXVXZXBXZXBXBXMXMXcXMXBXBXMXMXMXMXBXMXMXMXcXcXcXcXcXcXcXMXMXMXMXMXMXMXMXmXmXzXlXlXcXlXbXmXbXcXmXmXcXcXmXcXmXmXmXMXmXMXMXBXMXBXDXMXBXMXMXMXBXBXBXMXMXcX",
"vXvXwXwXvXvXvXVXVXMXmXmXMXMXMXMXBXBXBXBXBXBXBX>XD.N.N.N.N.N.N.N.N.N.N.N.N.C.N.D.D.N.N.N.N.N.N.N.N.N.N.N.N.N.N.N.H.cXmXmXMXMXMXMXMXBXDXBXMXMXMXDXBXBXDXBXMXMXMXMX",
"wXaXvXvXvXvXaXvXvXvXmXcXMXMXDXDXBXDXBXBXDXDX4XC.NXCXZXCXCXdXCXCXCXZXCXCXCXCXZXnXCXCXCXkXCXCXCXdXVXkXCXCXCXVXCXAXN.5XcXMXMXMXMXMXBXMXMXBXMXDXDXBXBXDXBXMXMXBXMXcX",
"wXvXvXeXvXaXeXvXvXvXnXVXBXBXBXSXSXBXDXBXDXDX4XA.tXR.V.$.:.:.,.6X_.%.Z.&._.Z.<X,._.A.%.,.G.[.%.:.$.:.V.&.%.,.~ }.D.4XmXmXmXMXMXmXMXBXBXBXDXMXMXBXBXBXBXMXBXBXNXmX",
"vXaXaXeXaXvXnXvXVXvXmXVXBXSXBXBXBXSXmXSXBXDX4X4 u 0 M A A e q u u A e e 3.u i @.%.e S G $.A.A D S A A m A f e $.n.4XmXmXmXMXMXBXMXBXBXBXDXDXDXDXFXDXDXBXBXBXBXmX",
"VXvXvXvXVXmXzXmXVXVXMXBXSXBXBXBXVXnXvXaXaXnX1XD.`.`.`.`.`.`.`.`.`.`.m.S Z.K U F F P {  .~ +.L { U U F B.3XrXrX3XD.4XMXmXMXmXBXBXMXMXMXMXMXDXDXFXFXDXDXDXDXDXBXmX",
"nXbXMXBXBXBXBXMXMXBXBXBXBXBXmXvXaXwXqXF.F.C.b.S.!.R.sX!.W.!.^.^.|.{.G.F 3.H U U L {  .L ~ +. . .F U D ,.E.~.W.E.Z.4XBXMXBXBXBXBXBXMXMXmXmXMXMXBXBXBXSXDXDXBXBXmX",
"BXMXBXDXBXDXDXBXBXBXDXBXBXmXvXwXwXqX7XG.CXCXI.S.^.^.dXW.E.sX^.U.&.!.S.A q A F L F L L F e A F F U F F ,.E.^.^.~.Z. XAXDXH.BXBXBXMXMXcXbXvXvXnXvXvXvXvXvXcXmXBXBX",
"SXDXBXDXDXDXBXDXSXDXBXBXBXmXwXeXwXuXqX,.(.(.}.c ^.^.dXW.).sXmX}.# R.S.A S S S S S S S S S A S S S S A ~ E.~.~.T.3 ~.(.=Xn.cXMXMXMXMXcXlXvXwXwXwXiXqX9X9XaXvXmXNX",
"DXDXDXDXDXBXDXDXSXBXBXBXeXeX>XC.H.C.8X,.Y.~.}.  :.~.sXK.~.pX>X X@ R.C.. . . . . X   X .   . X . . . .   9 ~.^.}.+ Y.~.=XN.cXcX4X4X5XvXlX9XaXwXaXiXwXwXqXqX9XvXcX",
"SXDXDXDXDXBXBXDXDXBXBXMXeX<XI.HXHX<Xn :.Y.W._.  y ~.=X$.~.3X@ G.# J.A.. X X X X X X X . o X X X X X X X @ %.|.<X+ E.R. Xn.xXn.2X5X#.4XlXwXvXvXwXaXaXaXwX9XwXlXzX",
"SXBXDXDXBXBXBXBXBXBXcXvX9X3XHXHXHXHX}.:.E.W.[.    oXoX# S.OX  o @ v #.  X X o X & & $ : O X X X X X X X X ~ ^.G.+ E.~. Xb.b.3XDXHX`.n.5XcXzXnXvXwXvXvXwXlXvXlXzX",
"DXDXDXDXDXDXDXBXNXmXcXlX2X|.(.AXAX[.R.:./.!.}.    oX}.+ 3 [.  X o + - o X $ < & 5 5 5 5 &   O O X X O X X 3 OX9 o ).).OX&.H.AXcXCXDX'.U.zXzXbXcXmXcXmXcXmXmXmXmX",
"DXDXDXDXDXDXMXMXmXcXxXxXH.%.#X*X=XP F f !.R.[.    |.3 X   &.  O & 4 2 2 & : m {  ...4...q $ % $ O = & O X # =X3 + E.W. Xv &.yXrXgXdXV.D.cXcXmXmXNXmXBXmXMXBXMXmX",
"DXDXDXDXBXBXBXMXmXmXcX5XN.CX#X*X=X . .A R.Y.`.  X I.- X X 9 o : t h h z p M } 9.oXOXh.8.F 5 7 7 = 2 , = * #  X3 + E.~. Xv @.f.(.|.OXn H.5XmXmXMXBXMXMXDXMXDXMXDX",
"FXDXDXBXBXBXmXmXxXmXmXxXc A.+XyX=X .{ G R.R.}.  X b + O : 5 6 5 d E Q Q s  .f.*XHXSX=Xa.4.5 2 6 2 7 7 , , O &.3 @ E.~.OX~ A $.~.|.rXV.,X5XMXBXcXBXBXBXBXBXBXDXDX",
"FXFXDXDXDXMXMXMXxXxXcXMXb.m.XXoXE...| A tXCX3X  X X O : F O.| M h ^ ! ^ C >.DXDXSXSX=X/.).a 7 Q E Z C C Q < @ X @ ].AXAXv { m L.).3X3.>X5XcXBXMXMXBXBXBXBXBXMXDX",
"FXFXDXDXDXBXMXmXMXMXBXNX>Xi *X3.0 e e 0 S.(.n.  X X = 1 [ +Xy.{ , < , < 4 <XHXSXSXSXtX(.=X&.a Z Z Z Z Z Z - o X   #.{.'.- D e S.|.rXZ.H.cXcXMXBXBXBXBXBXBXBXDXSX",
"DXDXDXDXBXBXBXBXMXBXBXBXG.r _ Z.F F F e v |.b.. X X 6 5 | +Xs.8.N m 6 p &.HXSXSXDXZX=X(.=XB.p Z Z Z Z h Z - o X X c ^.V.& m e %.=Xv k D.cXcXMXMXMXBXBXBXBXBXBXDX",
"DXDXDXDXBXBXBXBXBXBXBXBX=.F B Z.D J L G 8 _.b.X O $ w 6 { @Xg.k.p.9.V ` BXSXSXSXSXSXOXXXtX8X&.f K Z Z g a & X X X 9 }.+ 1 I F $.OXg 0 _ cXMXcXcXMXMXMXMXMXBXmXBX",
"DXDXBXBXBXBXBXBXBXBXBXBX0...=.A.[.|.|. Xc 9 b.* < 4 7 V } @Xh.hXp..X/.NXGXSXSXSXSXSX=X*XtXHX=X0.U Y Y | S 5 O X . # `.  u | ..~ [.,.,.J.H.MXMXcXzXcXcXcXnXnXmXmX",
"DXBXBXmXmXmXmXMXBXBXBXDX;.U =.b T.R.R.R.x 3 ~ 4 p p s E O.@XoXyXg.XXXXHXSXSXHXDXSXSXtXXXtXGX=XXXg.0.8.a.O.V $ X o X 9 o t U *.2.V.V.W.{.D.MXBXMXcXcXzXlXeXlXbXnX",
"BXBXBXBXmXmXcXBXMXBXBXBX..L W.J.R.R.R._.x o y h z h z E w.XXZXHXoXXXXXZXSXSXGXSXSXSXGX/.(.AX*XoXh.=Xa..Xg.K , $ X X   X 0 U ..L.~ Z.R.{.H.MXMXcXcXMXmXlXeXlXeXzX",
"BXDXBXBXBXMXmXmXmXmXMXMX..L W.T.R.T.R.R.c O h C z C R ~ 2XHXSXHXgXXXXXSXSXSXSXGXSXSXGX/./.GX*XoXh.kXyXyXg. .p : O X X o 0 N D 2.2.>.>.2.C.MXMXmXMXMXcXbXzXlXnXmX",
"BXBXBXBXmXBXMXmXMXBXBXmX..J W.P.T.W.R.!.c = s R R R R ) 4XSXSXSXkX.XXXZXSXSXDXSXSXSXGX/.kXHX=XoXoXAXHXkXf.*.7 = O o O O : 5 w a d u f K N.MXMXMXMXcXbXcXbXbXmXmX",
"BXBXmXmXMXmXBXMXBXBXBXxXY J J.K.K.K.K.L.x % s z R p Z / 7XSXSXSXSX=X/.SXSXSXFXHXSXSXHX/.CXSXOX*XGXGXGXCXh.0.a < = = = % e ..;.OX X|.|.3XF.mXMXmXmXmXcXnXlXzXvXbX",
"mXmXmXmXBXmXMXMXMXBXBX4XM 5 J V B V B B i * h E E p Z B.VXSXSXSXSXAX/.SXSXSXSXSXSXSXSXdXSXHX=XoXGXSXSXkXh.w./ 6 * * * % e Y *.!.R.R.R.[.D.lXbXbXbXzXbXzXlXlXlXeX",
"BXMXMXBXMXMXmXBXMXMXMX4XB e ` ` $.` $.$.9 - d z E / >.U.SXSXSXSXSXHXrXSXGXSXSXSXSXSXSXSXGXGX=XoXHXGXSXkXf.w./ 6 % = = % a L *.Q.R.Q.Q.[.D.lXiX9XwX9X9X8X7X9XlXbX",
"DXDXDXDXDXDXBXmXmXMXmX2X .L _.P.Q._.Q._.x < C W Q ` <.<XGXSXSXSXSXSXGXSXSXGXSXSXSXSXSXGXSXSX*XoXGXGXSXZX/.w./ a < % % % 0 M V T ( / K -.M.lXlX9X9X8X7X7X7X9XlXlX",
"mXDXDXDXDXMXBXMXBXmXmX1XY L P.P.P.R.W.R.c < z W ! ` <.>XGXSXGXGXSXSXSXGXSXGXSXSXSXSXSXSXSXSXqXVXSXGXSXSXyXw.p 6 % % % $ 6 e B ^ ) ~ ) $.N.cXzXzXlXeX9X9X7X9X7X9X",
"9XwXlXmXMXMXmXmXmXmXbX1XY J q.J.J.J.J.J.l > j ! / ` B.<XSXSXSXSXSXGXSXSXGXSXSXSXSXSXSXSXSXSXGXSXHXSXSXSXdXq.E p , < = % e Y -.].Q.Q.Q.[.F.MXcXcXzXzXzXeXeXeX9XwX",
"0X7X7X9XvXlXbXmXmXcXbX1Xw : N a a a f V t = s h h ^ ,.>XGXSXSXGXGXGXGXSXSXSXSXSXGXSXSXSXSXSXSXSXSXSXSXSXaXq./ p < ; ; * w Y -.].P.P.Q.[.F.MXMXMXmXmXmXcXcXbXvXlX",
"8X7X7X0X7X7XlXlXbXlXnX2X .U ].[.[._._.[.l ; s h h W ,.>XSXSXSXSXSXSXGXGXGXSXSXSXSXSXGXSXGXSXGXSXSXZXSXSXdXq.Q p < ; * % 0 J T J.J.J.J.L.D.MXSXMXBXMXMXMXmXmXnXnX",
"nXvX7X7X7X7X9XeXlXlXvX2XT L Q.L.P.R.R.].x ; j E Q ` B.>XSXSXSXSXGXSXGXSXSXSXSXGXSXGXSXSXSXSXSXSXSXSXSXSXdXq./ p ; = * * 5 : 5 M q w w J F.DXDXDXBXBXBXBXBXBXBXSX",
"mXbXlX9X7X7X7XwXeXvXbX2XY L P.R._.R.R.R.x < z ! ! ` <.'.SXSXGXSXGXSXSXSXGXGXSXSXSXSXGXSXSXSXSXSXSXSXSXSXdXq.Q p < = * % 0 L P A.A.A.A.F.D.DXHXDXBXMXmXmXmXmXFXSX",
"mXBXmXlXqXqX9X9XlXvXcX4XN 5 T *.( ( ' *.y ; z Q ! ` <.>XSXSXSXGXSXSXSXSXSXSXSXSXGXGXSXSXSXSXSXSXSXSXSXSXdXq./ p ; = = % e Y *.!.T.R.T.[.H.FXHXVXVXaXaXaXaXvXVXVX",
"mXmXmXbXlXlXeXlXcXmXmX4Xm 0 / ^ ^ ^ ^ ~ 8 ; d h R ! ,.>XSXGXSXGXSXGXSXGXSXSXSXSXSXSXGXSXSXSXSXSXSXSXSXSXdXq.Z 7 = = % $ f Y *.].R.Q.Q.[.F.NXvXVXwXaXaXwXaXeXvXVX",
"SXBXmXVXmXcXzXmXmXmXmX2XY Y [._.{.].].[.x ; g z E ^ ,.'.SXSXGXSXSXSXSXGXSXSXSXGXSXGXSXSXGXSXSXSXSXDXSXGXdX3.E 7 ; = = % a U *.].T.Q.Q.{.D.aXwXaXwXwXaXVXvXvXvXaX",
"MXMXBXBXMXMXMXMXmXmXmX2XY L Q.W.R.R.R.R.x - C Q Q ) B.,XGXSXGXSXSXGXSXSXSXSXSXSXSXSXSXGXSXSXSXSXSXSXSXHXdX3./ p > = = % e Y -.!.Q.Q.Q.].D.wXqXaXaXaXaXgXvXaXvXwX",
"mXMXMXMXBXBXBXMXmXmXmX2XY L !.R.R.Q.R._.x ; R W ! ` B.>XSXSXSXSXGXSXSXSXGXSXSXSXSXGXGXSXSXGXGXSXSXGXSXSXdXq./ p < - = * a U *.~.T.Q.Q.[.F.wXwXwXVXwXVXwXaXaXvXaX",
"mXMXBXDXBXBXBXMXmXcXcX2XV 6 ..( ( ( ( ( y ; R ! ! ` <.,XSXSXGXGXGXSXGXSXGXSXGXSXSXSXSXSXSXSXSXSXSXFXSXSXdXq./ d - = = $ 0 5 m T ( ( ( *.B.aXVXVXVXwXVXaXvXvXnXvX",
"MXDXMXBXMXDXDXBXMXBXBX4Xw 5 H R z R z W 4 = d h z E >.'.GXGXGXSXSXSXSXSXSXGXSXSXGXGXSXSXGXSXGXSXGXSXSXSXnX3.s 7 > = = * : 6 a W E ! E / N.VXVXVXVXqXwXVXVXnXmXcX",
"DXDXDXDXDXBXDXDXSXBXBX4X . .[.[.|.[.|.}.b ; ! ^ / ` B.,XSXSXGXFXSXGXSXGXSXSXSXGXSXSXSXGXSXSXSXSXSXSXSXSXmXq./ d 2 , - * f  .-.|.[.[.[.}.H.VXVXVXVXVXVXqXnXVXmXBX",
"FXFXFXFXDXDXDXDXDXMXBX4X .L !.Q.T.Q.T.].x ; z Q Q ` <.,XSXSXSXSXSXSXSXSXSXHXSXGXSXGXGXGXDXHXDXFXHXSXGXHXaXq./ a < ; = % e Y *.!.Q.Q.Q.[.F.mXmXVXvXvXvXVXmXMXDXDX",
"FXFXFXFXDXDXDXDXDXMXBX4XT L J.K.J.K.K.L.l ; j Q ! @.<.`.tX*XGXHXGXSXSXSXHXSXSXDXSXGXSXSXGXDXHXAXyXyXyXHXsXq./ p < = = % a U T P.L.L.L.L.D.nXvXvXvXvXvXnXBXDXBXDX",
"DXFXFXFXDXDXDXMXMXMXMX4Xw 5 N m a B w f y ; j Q Q ` <.}.CXkX=XoX=XyXyXyX|.kXDXAXCXZXGXSXSXZX=XtXCXGX6X*XoXq./ p < = = % 5 5 q w 0 w 0 J M.vXlXvXvXvXvXmXBXBXBXDX",
"DXDXFXFXDXDXDXDXDXMXBX4XU L S.L.L.I.I.I.l * h R Z ^ ,.L.kXHXHXHXZX(.@X*XjXHXHXDXOXXX*XyXyX=XCXHXGXGXHXkXyXw.E 7 = = % % 0 U *.I.I.L.I._.D.vXcXmXvXnXmXmXBXBXDXDX",
"DXDXDXDXDXDXDXDXBXBXBX4XY J Q.P.Q.T.T.R.x = s z z ! >.2.f.).CXAXyXyXdXfXg.*XkXkXjX=XhXkXkXjX@XHXGXAXhX@X/.;.h 7 = = = $ e U *.Q.T.T.T.].H.mXmXbXvXcXmXcXMXDXDXDX",
"DXDXDXDXDXMXDXBXBXMXVX4XY Y !.R.Q.!.Q.R.x < z ! ! ` <.I.gXgXg.d.+Xc.x.x.y.z.g.k.s.p.g.s.g.g.p.k.-X@Xs.yXyX1.Q p > ; = = e U *.].W.W.R.].U.cXbXbXvXcXcXmXmXMXDXDX",
"DXDXMXMXMXBXDXMXBXBXMX2XN w *.=.=.=.=.=.y < R ! Q ) >.].hX;X#X%Xs.-X$Xx.t.x.&Xv.y.j.&Xc.&X&Xp.#X.X@Xk.g..X0.E 7 > = = % 6 q V =.=.) @.=.F.cXzXlXvXlXcXcXmXmXMXBX",
"DXMXMXDXMXMXMXMXMXMXmX1Xs t Z Z Z C C H y ; s h C R E ( p.9.p.%Xj.:X&Xv.t.0.#Xv.y.s.&X&XhX%Xl.$X&Xa.y.t...V p 7 = % % $ t t a Z g j h K F.cXzXzXbXbXbXbXcXmXmXMX",
"BXBXMXMXMXMXMXMXmXcX4XH.nXpXpXpXpXrXpXpX<Xb y h h C E ) ..6.9.%Xj.:X;Xv.i.5.f.c.9.j.&X&XhX%Xl.&X$Xt.t.t.V R s z , = % _ eXpXaXaXpXuXrXuX4X>X4XcXzXzXzXmXbXmXmXMX",
"BXMXMXMXMXMXMXmXMXmXF.kXOX~.!.!.~.~.~.W.{.aXW R R Z E ) } 6.z.&Xx.:X&Xv.l.6.4.v.r.j.;X&XhX%Xl.$X-Xi.t.8.V 7 Z 7 , < z sX{.^.^.~.~.~.~.~.pX3XH.zXbXmXzXmXmXMXMXMX",
"MXmXMXSXMXmXMXmXcXzXH.].oX_ B.M.C.#.$.^.oX Xl 7 t t p 7 m | s.&Xx.:X;Xv.l.6.} s.i.z.;Xk.=X%Xl.&X-Xt.y.L 6 7 7 7 = = z OX X<.l A.C.A.b |.W.|.H.zXbXmXmXmXMXmXVXmX",
"vXvXvXnXnXmXmXmXcXeXb ~ C.7XHXZXHXHX,XD.A.dXz / ` ` =.h s  .p.%Xx.:X;Xv.i.5.| 9.j.v.%Xc.:X%Xz.;X+X6.9.a 2 Z Z R , , x CXC.F.HXHXZXHX8XG.W ~ G.cXmXmXbXmXmXvXnXvX",
"qX9XeXwXwXlXbXmXxX4Xv r I.6X Xw.w.sXoXG.@.2.y E / ^ ) Z 7 T p.%Xx.:X;Xv.i.5.t.7.r.v.&X$X:X&Xc.;Xu.6.4.V 7 E R s > = i ,.~ =XtXY.f.3X X3Xi H F.vXmXmXvXbXvXaXwXqX",
"7X7XwXwXeXlXzXzXG.4XCXiX_ [.w G V U.$.C.SXDXb.p C C R R t K O.c.c.:X;Xv.6.5.t.i.e.v.&X&XhX$Xk.;Xj.9.-.a R / E 7 ; _ cXZX'.n.Z.G J q ].#.3XdX1XH.vXvXvXvXaXwXqX0X",
"7X9X9XeXcXcXmX2X`.OX].qXb &.Y q.T _ gXfXpXpXkXb.s C C h 7 K | g.c.:X;Xv.6.6.6.i.7.c.&X;X:X-X+X;X#Xp.-.a s E E p y dXpXpXuXCXF.*.;.D B.! 6X|.rXkXaXaXeXaXwXwXqXqX",
"7XwXeXvXcXMXMXD.R.4...*.4.N w.T D I.~.~.).(.^.3Xs m.I.F.F.I.{.oXhXAXjXhX@X*XXX-X-X*XjXjXAXjXhXkXsX{.I.L.I.F.,.~ _ OX(.(.^.(.'.L ;.;.B N Y Y T 0XwXwXwXaXaXaXwXwX",
"vXlXeXbXmXMXcXF.;.I I J 4.L {.L $.rX).).XX^.~.3X:.|.=XtX|.OXpXtXrXuXrXrXrXrXrXrXrXrXrXrXrXrXrXtXrXrX XrX X|.q.,.A.^.|.(.^.XX{.Z.J Y I N I I I J.<X<XwXeXaXwXwXwX",
"vXnXvXvXmXeXN.M.j N N ) sXuX:.e U.~.K.K.K.K.:.=Xz H H ( i 3.3.3.2.2.2.2.2.2.2.2.2.2.2.2.2.3.3.3.3.3.2.2.f i G.V.`.J.Y.K.K.K.3.dXw N M N N N N H 2XU.U.7XwXaXeXwX",
"lXvXMXMXMXG.qXyXyX[.rXsXsXsXyXyXCXdXCXkXrXgXCXdXm.G 6 G O.a.a.a.a.d.a.a.a.a.a.a.d.d.d.s.s.s.s.s.s.s.s.y.e  XsX X_.dXpXyXkXkXdXkXdXsXsXfXsXpXuXgXsXkX>X4XaXvXvXvX",
"wXeXmXMXBX2X2X3X_ 8 r r r r u r r u u a u u V.g J F S { r.7.9.9.9.9.9.9.9.9.r.9.9.9.r.r.r.r.r.e.r.r.r.r.X.+.k P r b y r r r r r r r r r r 8 t y &.&.b.4XaXvXvXeX",
"9XwXeXlXmXmXMXMXF.<X'.,X'.,X'.'.'.'.`.'.&.= , 6 F { | X.X.X.X.X.X.X.X.X.X.| X.X.X.X.5.5.5.5.5.5.5.5.X.X.e.e.| S 0 1 , - F.'.'.}.'.<X'.'.'.,X<XF.1X9X9XeXeXeX9X8X",
"9X9XeXlXlXzXmXMXH.I.I.L.I.Z.B.V.Z.V.m.~ i = , 6 w 6 e | 7.7.9.7.7.7.7.7.7.7.7.7.7.7.7.7.7.7.7.7.7.7.r.r.O.O.e w 2 2 ; = W &.Z.V.Z.V.Z.Z.Z.Z.Z.C.1X7X7X7X7X9X9XeX",
"eXlXlXlXzXbXmXBXBXBXSXmXmX2XqXI.Z.C.n.t t 8 4 t 4 : w A ] ] ] ] [ [ [ [ ] [ ] ] ] [ [ [ ] [ [ [ ] [ [ [ S G t 4 2 4 4 4 4 _ C.M.C.2XmXnXvXlX9X9X9X7X7X4XeXeXeXeX",
"bXbXcXcXmXMXMXBXBXBXmXSXNXnXVXU.9XuXpXuXuXuXuXuXB.A A e A A A A A A A S A A A A e e e e e e e e e e q q i uX4XuXuX4XuX4XrXiXuX8XU.MXmXmXbXzXzXzXlXzXzXlXzXzXzXcX",
"cXmXmXMXMXMXMXBXMXBXMXVXVXvXeX1X1X1X<X<X<X<X<X1X<X`.`.I.Z.m.$.( H k k k H k H k G H G G H G G Z k H k f z F.1X1X2X2X4X4X4X1X1X2X4XMXcXbXmXmXmXmXcXmXvXcXcXmXcXMX",
"BXBXMXMXMXMXMXVXMXVXVXeXvXvXwXwXqXwXqXaXwXaXaXwX9X9X9X9X9XlXiXlXeX9XiXiXqX6X7X7X7X8XqXqX7XqXqXwXrX6XqXuXqXqX9X9XlXvXmXmXmXMXMXmXcXcXbXcXcXMXMXbXMXmXMXMXmXMXMXMX",
"BXBXDXMXBXBXMXMXmXnXeXaXwXwXwXeXaXaXaXvXaXaXwXaXwXwXwX9X9X8X4X8X7X7X9X7X7X6X7X7XqXqXqX0XqX0X0X0X0X0XqXaXwXvXlXvXvXlXzXvXnXnXmXmXmXmXmXmXbXcXcXMXMXmXMXvXmXMXMXBX",
"DXDXBXDXDXBXVXmXnXvXaXeXeXaXaXvXvXvXaXaXVXaXwXeXvXwXwXwX9X8X8X8X7X7X7X7X7X7X7X7XwXwXqXwXaXqXwXwXwXqXaXdXlXnXnXmXnXcXbXcXcXcXcXcXmXmXmXBXMXMXmXMXBXBXMXMXMXBXBXBX",
"BXDXBXDXBXBXmXnXnXvXaXeXeXvXeXvXvXvXvXvXvXeXeXlXlXlXvXvX9XwX9X9X9X7X7X7X7X7X9XwXwXwXwXvXeXeXeXeXaXvXlXnXnXmXmXmXmXmXmXnXbXbXbXbXnXMXMXMXMXcXcXMXBXBXBXBXBXBXBXBX",
"BXDXDXBXBXMXnXnXvXwXaXaXvXeXbXvXvXvXvXvXvXvXvXnXnXnXvXbXcXcXnXcXzXlXeX9XwX9XqXwXvXaXvXvXnXmXBXVXnXvXcXmXmXmXBXmXBXmXMXMXMXMXmXbXcXcXcXcXMXMXMXMXMXMXMXMXBXBXDXSX",
"DXDXDXBXMXmXcXlXeXvXvXeXVXbXbXeXeXvXvXvXvXvXnXnXmXmXmXbXcXmXcXmXnXvXlXeXlXwXwXeXeXlXvXvXmXmXmXmXmXmXmXmXBXmXBXBXBXFXmXMXmXmXmXmXcXcXcXmXMXMXMXMXMXMXMXMXBXMXBXBX",
"MXBXBXMXmXcXbXlXeXeXvXvXbXvXbXeXeXvXnXVXmXMXMXBXmXmXmXmXmXcXvXvXlXlXbXzXlXlXvXwX9XwXvXvXbXbXMXmXmXmXmXBXBXBXBXBXmXmXMXMXMXMXMXmXcXcXmXmXmXcXcXcXMXMXMXcXMXMXMXBX"
};
